<?xml version="1.0" encoding="utf-8" standalone="no"?>
<!DOCTYPE svg PUBLIC "-//W3C//DTD SVG 1.1//EN"
  "http://www.w3.org/Graphics/SVG/1.1/DTD/svg11.dtd">
<!-- Created with matplotlib (http://matplotlib.org/) -->
<svg height="432pt" version="1.1" viewBox="0 0 864 432" width="864pt" xmlns="http://www.w3.org/2000/svg" xmlns:xlink="http://www.w3.org/1999/xlink">
 <defs>
  <style type="text/css">
*{stroke-linecap:butt;stroke-linejoin:round;}
  </style>
 </defs>
 <g id="figure_1">
  <g id="patch_1">
   <path d="M 0 432 
L 864 432 
L 864 0 
L 0 0 
z
" style="fill:#ffffff;"/>
  </g>
  <g id="axes_1">
   <g id="patch_2">
    <path d="M 22.925 368.575 
L 849.7 368.575 
L 849.7 26.8 
L 22.925 26.8 
z
" style="fill:#ffffff;"/>
   </g>
   <g id="PolyCollection_1">
    <path clip-path="url(#p9f00b6c546)" d="M 170.563393 55.28125 
L 111.508036 55.28125 
L 111.508036 55.28125 
L 111.508036 55.28125 
L 111.508036 55.28125 
L 111.508036 55.28125 
L 111.508036 55.28125 
L 111.508036 55.28125 
L 111.508036 55.28125 
L 111.508036 55.28125 
L 111.508036 55.28125 
L 111.508036 55.28125 
L 111.508036 55.28125 
L 111.508036 55.28125 
L 111.508036 55.28125 
L 111.508036 55.28125 
L 111.508036 55.28125 
L 111.508036 55.28125 
L 111.508036 55.28125 
L 111.508036 55.28125 
L 111.508036 55.28125 
L 111.508036 55.28125 
L 111.508036 55.28125 
L 111.508036 55.28125 
L 111.508036 55.28125 
L 111.508036 55.28125 
L 111.508036 55.28125 
L 111.508036 55.28125 
L 111.508036 55.28125 
L 111.508036 55.28125 
L 111.508036 55.28125 
L 111.508036 55.28125 
L 111.508036 55.28125 
L 111.508036 55.28125 
L 111.508036 55.28125 
L 111.508036 55.28125 
L 111.508036 55.28125 
L 111.508036 55.28125 
L 111.508036 55.28125 
L 111.508036 55.28125 
L 111.508036 55.28125 
L 111.508036 55.28125 
L 111.508036 55.28125 
L 111.508036 55.28125 
L 111.508036 55.28125 
L 111.508036 55.28125 
L 111.508036 55.28125 
L 111.508036 55.28125 
L 111.508036 55.28125 
L 111.508036 55.28125 
L 111.508036 55.28125 
L 111.508036 55.28125 
L 111.508036 55.28125 
L 111.508036 55.28125 
L 111.508036 55.28125 
L 111.508036 55.28125 
L 111.508036 55.28125 
L 111.508036 55.28125 
L 111.508036 55.28125 
L 111.508036 55.28125 
L 111.508036 55.28125 
L 111.508036 55.28125 
L 111.508036 55.28125 
L 111.508036 55.28125 
L 111.508036 55.28125 
L 111.508036 55.28125 
L 111.508036 55.28125 
L 111.508036 55.28125 
L 111.508036 55.28125 
L 111.508036 55.28125 
L 111.508036 55.28125 
L 111.508036 55.28125 
L 111.508036 55.28125 
L 111.508036 55.28125 
L 111.508036 55.28125 
L 111.508036 55.28125 
L 111.508036 55.28125 
L 111.508036 55.28125 
L 111.508036 55.28125 
L 111.508036 55.28125 
L 111.508036 55.28125 
L 111.508036 55.28125 
L 111.508036 55.28125 
L 111.508036 55.28125 
L 111.508036 55.28125 
L 111.508036 55.28125 
L 111.508036 55.28125 
L 111.508036 55.28125 
L 111.508036 55.28125 
L 111.508036 55.28125 
L 111.508036 55.28125 
L 111.508036 55.28125 
L 111.508036 55.28125 
L 111.508036 55.28125 
L 111.508036 55.28125 
L 111.508036 55.28125 
L 111.508036 55.28125 
L 111.508036 55.28125 
L 111.508036 55.28125 
L 111.508036 55.28125 
L 111.508036 55.28125 
L 170.563393 55.28125 
L 170.563393 55.28125 
L 170.563393 55.28125 
L 170.563393 55.28125 
L 170.563393 55.28125 
L 170.563393 55.28125 
L 170.563393 55.28125 
L 170.563393 55.28125 
L 170.563393 55.28125 
L 170.563393 55.28125 
L 170.563393 55.28125 
L 170.563393 55.28125 
L 170.563393 55.28125 
L 170.563393 55.28125 
L 170.563393 55.28125 
L 170.563393 55.28125 
L 170.563393 55.28125 
L 170.563393 55.28125 
L 170.563393 55.28125 
L 170.563393 55.28125 
L 170.563393 55.28125 
L 170.563393 55.28125 
L 170.563393 55.28125 
L 170.563393 55.28125 
L 170.563393 55.28125 
L 170.563393 55.28125 
L 170.563393 55.28125 
L 170.563393 55.28125 
L 170.563393 55.28125 
L 170.563393 55.28125 
L 170.563393 55.28125 
L 170.563393 55.28125 
L 170.563393 55.28125 
L 170.563393 55.28125 
L 170.563393 55.28125 
L 170.563393 55.28125 
L 170.563393 55.28125 
L 170.563393 55.28125 
L 170.563393 55.28125 
L 170.563393 55.28125 
L 170.563393 55.28125 
L 170.563393 55.28125 
L 170.563393 55.28125 
L 170.563393 55.28125 
L 170.563393 55.28125 
L 170.563393 55.28125 
L 170.563393 55.28125 
L 170.563393 55.28125 
L 170.563393 55.28125 
L 170.563393 55.28125 
L 170.563393 55.28125 
L 170.563393 55.28125 
L 170.563393 55.28125 
L 170.563393 55.28125 
L 170.563393 55.28125 
L 170.563393 55.28125 
L 170.563393 55.28125 
L 170.563393 55.28125 
L 170.563393 55.28125 
L 170.563393 55.28125 
L 170.563393 55.28125 
L 170.563393 55.28125 
L 170.563393 55.28125 
L 170.563393 55.28125 
L 170.563393 55.28125 
L 170.563393 55.28125 
L 170.563393 55.28125 
L 170.563393 55.28125 
L 170.563393 55.28125 
L 170.563393 55.28125 
L 170.563393 55.28125 
L 170.563393 55.28125 
L 170.563393 55.28125 
L 170.563393 55.28125 
L 170.563393 55.28125 
L 170.563393 55.28125 
L 170.563393 55.28125 
L 170.563393 55.28125 
L 170.563393 55.28125 
L 170.563393 55.28125 
L 170.563393 55.28125 
L 170.563393 55.28125 
L 170.563393 55.28125 
L 170.563393 55.28125 
L 170.563393 55.28125 
L 170.563393 55.28125 
L 170.563393 55.28125 
L 170.563393 55.28125 
L 170.563393 55.28125 
L 170.563393 55.28125 
L 170.563393 55.28125 
L 170.563393 55.28125 
L 170.563393 55.28125 
L 170.563393 55.28125 
L 170.563393 55.28125 
L 170.563393 55.28125 
L 170.563393 55.28125 
L 170.563393 55.28125 
L 170.563393 55.28125 
L 170.563393 55.28125 
L 170.563393 55.28125 
z
" style="fill:#1f77b4;fill-opacity:0.3;"/>
   </g>
   <g id="PolyCollection_2">
    <path clip-path="url(#p9f00b6c546)" d="M 288.674107 283.13125 
L 229.61875 283.13125 
L 229.61875 283.13125 
L 229.61875 283.13125 
L 229.61875 283.13125 
L 229.61875 283.13125 
L 229.61875 283.13125 
L 229.61875 283.13125 
L 229.61875 283.13125 
L 229.61875 283.13125 
L 229.61875 283.13125 
L 229.61875 283.13125 
L 229.61875 283.13125 
L 229.61875 283.13125 
L 229.61875 283.13125 
L 229.61875 283.13125 
L 229.61875 283.13125 
L 229.61875 283.13125 
L 229.61875 283.13125 
L 229.61875 283.13125 
L 229.61875 283.13125 
L 229.61875 283.13125 
L 229.61875 283.13125 
L 229.61875 283.13125 
L 229.61875 283.13125 
L 229.61875 283.13125 
L 229.61875 283.13125 
L 229.61875 283.13125 
L 229.61875 283.13125 
L 229.61875 283.13125 
L 229.61875 283.13125 
L 229.61875 283.13125 
L 229.61875 283.13125 
L 229.61875 283.13125 
L 229.61875 283.13125 
L 229.61875 283.13125 
L 229.61875 283.13125 
L 229.61875 283.13125 
L 229.61875 283.13125 
L 229.61875 283.13125 
L 229.61875 283.13125 
L 229.61875 283.13125 
L 229.61875 283.13125 
L 229.61875 283.13125 
L 229.61875 283.13125 
L 229.61875 283.13125 
L 229.61875 283.13125 
L 229.61875 283.13125 
L 229.61875 283.13125 
L 229.61875 283.13125 
L 229.61875 283.13125 
L 229.61875 283.13125 
L 229.61875 283.13125 
L 229.61875 283.13125 
L 229.61875 283.13125 
L 229.61875 283.13125 
L 229.61875 283.13125 
L 229.61875 283.13125 
L 229.61875 283.13125 
L 229.61875 283.13125 
L 229.61875 283.13125 
L 229.61875 283.13125 
L 229.61875 283.13125 
L 229.61875 283.13125 
L 229.61875 283.13125 
L 229.61875 283.13125 
L 229.61875 283.13125 
L 229.61875 283.13125 
L 229.61875 283.13125 
L 229.61875 283.13125 
L 229.61875 283.13125 
L 229.61875 283.13125 
L 229.61875 283.13125 
L 229.61875 283.13125 
L 229.61875 283.13125 
L 229.61875 283.13125 
L 229.61875 283.13125 
L 229.61875 283.13125 
L 229.61875 283.13125 
L 229.61875 283.13125 
L 229.61875 283.13125 
L 229.61875 283.13125 
L 229.61875 283.13125 
L 229.61875 283.13125 
L 229.61875 283.13125 
L 229.61875 283.13125 
L 229.61875 283.13125 
L 229.61875 283.13125 
L 229.61875 283.13125 
L 229.61875 283.13125 
L 229.61875 283.13125 
L 229.61875 283.13125 
L 229.61875 283.13125 
L 229.61875 283.13125 
L 229.61875 283.13125 
L 229.61875 283.13125 
L 229.61875 283.13125 
L 229.61875 283.13125 
L 229.61875 283.13125 
L 229.61875 283.13125 
L 229.61875 283.13125 
L 288.674107 283.13125 
L 288.674107 283.13125 
L 288.674107 283.13125 
L 288.674107 283.13125 
L 288.674107 283.13125 
L 288.674107 283.13125 
L 288.674107 283.13125 
L 288.674107 283.13125 
L 288.674107 283.13125 
L 288.674107 283.13125 
L 288.674107 283.13125 
L 288.674107 283.13125 
L 288.674107 283.13125 
L 288.674107 283.13125 
L 288.674107 283.13125 
L 288.674107 283.13125 
L 288.674107 283.13125 
L 288.674107 283.13125 
L 288.674107 283.13125 
L 288.674107 283.13125 
L 288.674107 283.13125 
L 288.674107 283.13125 
L 288.674107 283.13125 
L 288.674107 283.13125 
L 288.674107 283.13125 
L 288.674107 283.13125 
L 288.674107 283.13125 
L 288.674107 283.13125 
L 288.674107 283.13125 
L 288.674107 283.13125 
L 288.674107 283.13125 
L 288.674107 283.13125 
L 288.674107 283.13125 
L 288.674107 283.13125 
L 288.674107 283.13125 
L 288.674107 283.13125 
L 288.674107 283.13125 
L 288.674107 283.13125 
L 288.674107 283.13125 
L 288.674107 283.13125 
L 288.674107 283.13125 
L 288.674107 283.13125 
L 288.674107 283.13125 
L 288.674107 283.13125 
L 288.674107 283.13125 
L 288.674107 283.13125 
L 288.674107 283.13125 
L 288.674107 283.13125 
L 288.674107 283.13125 
L 288.674107 283.13125 
L 288.674107 283.13125 
L 288.674107 283.13125 
L 288.674107 283.13125 
L 288.674107 283.13125 
L 288.674107 283.13125 
L 288.674107 283.13125 
L 288.674107 283.13125 
L 288.674107 283.13125 
L 288.674107 283.13125 
L 288.674107 283.13125 
L 288.674107 283.13125 
L 288.674107 283.13125 
L 288.674107 283.13125 
L 288.674107 283.13125 
L 288.674107 283.13125 
L 288.674107 283.13125 
L 288.674107 283.13125 
L 288.674107 283.13125 
L 288.674107 283.13125 
L 288.674107 283.13125 
L 288.674107 283.13125 
L 288.674107 283.13125 
L 288.674107 283.13125 
L 288.674107 283.13125 
L 288.674107 283.13125 
L 288.674107 283.13125 
L 288.674107 283.13125 
L 288.674107 283.13125 
L 288.674107 283.13125 
L 288.674107 283.13125 
L 288.674107 283.13125 
L 288.674107 283.13125 
L 288.674107 283.13125 
L 288.674107 283.13125 
L 288.674107 283.13125 
L 288.674107 283.13125 
L 288.674107 283.13125 
L 288.674107 283.13125 
L 288.674107 283.13125 
L 288.674107 283.13125 
L 288.674107 283.13125 
L 288.674107 283.13125 
L 288.674107 283.13125 
L 288.674107 283.13125 
L 288.674107 283.13125 
L 288.674107 283.13125 
L 288.674107 283.13125 
L 288.674107 283.13125 
L 288.674107 283.13125 
L 288.674107 283.13125 
L 288.674107 283.13125 
z
" style="fill:#1f77b4;fill-opacity:0.3;"/>
   </g>
   <g id="PolyCollection_3">
    <path clip-path="url(#p9f00b6c546)" d="M 406.784821 283.13125 
L 347.729464 283.13125 
L 347.739012 282.555871 
L 347.780188 281.980492 
L 347.852773 281.405114 
L 347.956437 280.829735 
L 348.090744 280.254356 
L 348.255151 279.678977 
L 348.449009 279.103598 
L 348.67157 278.52822 
L 348.921989 277.952841 
L 349.199324 277.377462 
L 349.502548 276.802083 
L 349.830546 276.226705 
L 350.182128 275.651326 
L 350.556026 275.075947 
L 350.950907 274.500568 
L 351.365377 273.925189 
L 351.797987 273.349811 
L 352.247239 272.774432 
L 352.711594 272.199053 
L 353.189479 271.623674 
L 353.679293 271.048295 
L 354.179417 270.472917 
L 354.688215 269.897538 
L 355.204048 269.322159 
L 355.725276 268.74678 
L 356.250267 268.171402 
L 356.777402 267.596023 
L 357.305084 267.020644 
L 357.831742 266.445265 
L 358.355835 265.869886 
L 358.875864 265.294508 
L 359.390372 264.719129 
L 359.89795 264.14375 
L 360.397241 263.568371 
L 360.886949 262.992992 
L 361.365836 262.417614 
L 361.832731 261.842235 
L 362.286532 261.266856 
L 362.726207 260.691477 
L 363.150798 260.116098 
L 363.559424 259.54072 
L 363.951279 258.965341 
L 364.32564 258.389962 
L 364.681861 257.814583 
L 365.019379 257.239205 
L 365.337711 256.663826 
L 365.636456 256.088447 
L 365.915293 255.513068 
L 366.173985 254.937689 
L 366.41237 254.362311 
L 366.630367 253.786932 
L 366.827974 253.211553 
L 367.005262 252.636174 
L 367.162377 252.060795 
L 367.299538 251.485417 
L 367.417031 250.910038 
L 367.515213 250.334659 
L 367.594503 249.75928 
L 367.655382 249.183902 
L 367.698392 248.608523 
L 367.724131 248.033144 
L 367.733248 247.457765 
L 367.726443 246.882386 
L 367.704462 246.307008 
L 367.668096 245.731629 
L 367.618172 245.15625 
L 367.555555 244.580871 
L 367.481143 244.005492 
L 367.395859 243.430114 
L 367.300655 242.854735 
L 367.1965 242.279356 
L 367.084382 241.703977 
L 366.965302 241.128598 
L 366.84027 240.55322 
L 366.710302 239.977841 
L 366.576414 239.402462 
L 366.439622 238.827083 
L 366.300934 238.251705 
L 366.161349 237.676326 
L 366.021853 237.100947 
L 365.883414 236.525568 
L 365.746981 235.950189 
L 365.613478 235.374811 
L 365.483801 234.799432 
L 365.358817 234.224053 
L 365.239359 233.648674 
L 365.126223 233.073295 
L 365.020168 232.497917 
L 364.921908 231.922538 
L 364.832118 231.347159 
L 364.751421 230.77178 
L 364.680397 230.196402 
L 364.619574 229.621023 
L 364.569429 229.045644 
L 364.530387 228.470265 
L 364.50282 227.894886 
L 364.487044 227.319508 
L 364.483323 226.744129 
L 364.491863 226.16875 
L 390.022423 226.16875 
L 390.022423 226.16875 
L 390.030963 226.744129 
L 390.027242 227.319508 
L 390.011466 227.894886 
L 389.983898 228.470265 
L 389.944856 229.045644 
L 389.894712 229.621023 
L 389.833889 230.196402 
L 389.762865 230.77178 
L 389.682168 231.347159 
L 389.592377 231.922538 
L 389.494118 232.497917 
L 389.388063 233.073295 
L 389.274927 233.648674 
L 389.155469 234.224053 
L 389.030485 234.799432 
L 388.900808 235.374811 
L 388.767304 235.950189 
L 388.630871 236.525568 
L 388.492433 237.100947 
L 388.352937 237.676326 
L 388.213352 238.251705 
L 388.074664 238.827083 
L 387.937872 239.402462 
L 387.803984 239.977841 
L 387.674016 240.55322 
L 387.548984 241.128598 
L 387.429904 241.703977 
L 387.317786 242.279356 
L 387.213631 242.854735 
L 387.118427 243.430114 
L 387.033143 244.005492 
L 386.958731 244.580871 
L 386.896114 245.15625 
L 386.84619 245.731629 
L 386.809824 246.307008 
L 386.787843 246.882386 
L 386.781038 247.457765 
L 386.790155 248.033144 
L 386.815893 248.608523 
L 386.858904 249.183902 
L 386.919783 249.75928 
L 386.999073 250.334659 
L 387.097255 250.910038 
L 387.214748 251.485417 
L 387.351909 252.060795 
L 387.509024 252.636174 
L 387.686312 253.211553 
L 387.883919 253.786932 
L 388.101916 254.362311 
L 388.340301 254.937689 
L 388.598992 255.513068 
L 388.87783 256.088447 
L 389.176575 256.663826 
L 389.494907 257.239205 
L 389.832425 257.814583 
L 390.188646 258.389962 
L 390.563006 258.965341 
L 390.954862 259.54072 
L 391.363487 260.116098 
L 391.788078 260.691477 
L 392.227753 261.266856 
L 392.681554 261.842235 
L 393.14845 262.417614 
L 393.627337 262.992992 
L 394.117045 263.568371 
L 394.616336 264.14375 
L 395.123914 264.719129 
L 395.638421 265.294508 
L 396.158451 265.869886 
L 396.682544 266.445265 
L 397.209201 267.020644 
L 397.736883 267.596023 
L 398.264019 268.171402 
L 398.789009 268.74678 
L 399.310237 269.322159 
L 399.826071 269.897538 
L 400.334869 270.472917 
L 400.834992 271.048295 
L 401.324807 271.623674 
L 401.802692 272.199053 
L 402.267047 272.774432 
L 402.716299 273.349811 
L 403.148909 273.925189 
L 403.563379 274.500568 
L 403.95826 275.075947 
L 404.332158 275.651326 
L 404.683739 276.226705 
L 405.011738 276.802083 
L 405.314962 277.377462 
L 405.592297 277.952841 
L 405.842715 278.52822 
L 406.065277 279.103598 
L 406.259135 279.678977 
L 406.423541 280.254356 
L 406.557849 280.829735 
L 406.661513 281.405114 
L 406.734098 281.980492 
L 406.775274 282.555871 
L 406.784821 283.13125 
z
" style="fill:#1f77b4;fill-opacity:0.3;"/>
   </g>
   <g id="PolyCollection_4">
    <path clip-path="url(#p9f00b6c546)" d="M 524.895536 283.13125 
L 465.840179 283.13125 
L 465.840179 283.13125 
L 465.840179 283.13125 
L 465.840179 283.13125 
L 465.840179 283.13125 
L 465.840179 283.13125 
L 465.840179 283.13125 
L 465.840179 283.13125 
L 465.840179 283.13125 
L 465.840179 283.13125 
L 465.840179 283.13125 
L 465.840179 283.13125 
L 465.840179 283.13125 
L 465.840179 283.13125 
L 465.840179 283.13125 
L 465.840179 283.13125 
L 465.840179 283.13125 
L 465.840179 283.13125 
L 465.840179 283.13125 
L 465.840179 283.13125 
L 465.840179 283.13125 
L 465.840179 283.13125 
L 465.840179 283.13125 
L 465.840179 283.13125 
L 465.840179 283.13125 
L 465.840179 283.13125 
L 465.840179 283.13125 
L 465.840179 283.13125 
L 465.840179 283.13125 
L 465.840179 283.13125 
L 465.840179 283.13125 
L 465.840179 283.13125 
L 465.840179 283.13125 
L 465.840179 283.13125 
L 465.840179 283.13125 
L 465.840179 283.13125 
L 465.840179 283.13125 
L 465.840179 283.13125 
L 465.840179 283.13125 
L 465.840179 283.13125 
L 465.840179 283.13125 
L 465.840179 283.13125 
L 465.840179 283.13125 
L 465.840179 283.13125 
L 465.840179 283.13125 
L 465.840179 283.13125 
L 465.840179 283.13125 
L 465.840179 283.13125 
L 465.840179 283.13125 
L 465.840179 283.13125 
L 465.840179 283.13125 
L 465.840179 283.13125 
L 465.840179 283.13125 
L 465.840179 283.13125 
L 465.840179 283.13125 
L 465.840179 283.13125 
L 465.840179 283.13125 
L 465.840179 283.13125 
L 465.840179 283.13125 
L 465.840179 283.13125 
L 465.840179 283.13125 
L 465.840179 283.13125 
L 465.840179 283.13125 
L 465.840179 283.13125 
L 465.840179 283.13125 
L 465.840179 283.13125 
L 465.840179 283.13125 
L 465.840179 283.13125 
L 465.840179 283.13125 
L 465.840179 283.13125 
L 465.840179 283.13125 
L 465.840179 283.13125 
L 465.840179 283.13125 
L 465.840179 283.13125 
L 465.840179 283.13125 
L 465.840179 283.13125 
L 465.840179 283.13125 
L 465.840179 283.13125 
L 465.840179 283.13125 
L 465.840179 283.13125 
L 465.840179 283.13125 
L 465.840179 283.13125 
L 465.840179 283.13125 
L 465.840179 283.13125 
L 465.840179 283.13125 
L 465.840179 283.13125 
L 465.840179 283.13125 
L 465.840179 283.13125 
L 465.840179 283.13125 
L 465.840179 283.13125 
L 465.840179 283.13125 
L 465.840179 283.13125 
L 465.840179 283.13125 
L 465.840179 283.13125 
L 465.840179 283.13125 
L 465.840179 283.13125 
L 465.840179 283.13125 
L 465.840179 283.13125 
L 465.840179 283.13125 
L 465.840179 283.13125 
L 524.895536 283.13125 
L 524.895536 283.13125 
L 524.895536 283.13125 
L 524.895536 283.13125 
L 524.895536 283.13125 
L 524.895536 283.13125 
L 524.895536 283.13125 
L 524.895536 283.13125 
L 524.895536 283.13125 
L 524.895536 283.13125 
L 524.895536 283.13125 
L 524.895536 283.13125 
L 524.895536 283.13125 
L 524.895536 283.13125 
L 524.895536 283.13125 
L 524.895536 283.13125 
L 524.895536 283.13125 
L 524.895536 283.13125 
L 524.895536 283.13125 
L 524.895536 283.13125 
L 524.895536 283.13125 
L 524.895536 283.13125 
L 524.895536 283.13125 
L 524.895536 283.13125 
L 524.895536 283.13125 
L 524.895536 283.13125 
L 524.895536 283.13125 
L 524.895536 283.13125 
L 524.895536 283.13125 
L 524.895536 283.13125 
L 524.895536 283.13125 
L 524.895536 283.13125 
L 524.895536 283.13125 
L 524.895536 283.13125 
L 524.895536 283.13125 
L 524.895536 283.13125 
L 524.895536 283.13125 
L 524.895536 283.13125 
L 524.895536 283.13125 
L 524.895536 283.13125 
L 524.895536 283.13125 
L 524.895536 283.13125 
L 524.895536 283.13125 
L 524.895536 283.13125 
L 524.895536 283.13125 
L 524.895536 283.13125 
L 524.895536 283.13125 
L 524.895536 283.13125 
L 524.895536 283.13125 
L 524.895536 283.13125 
L 524.895536 283.13125 
L 524.895536 283.13125 
L 524.895536 283.13125 
L 524.895536 283.13125 
L 524.895536 283.13125 
L 524.895536 283.13125 
L 524.895536 283.13125 
L 524.895536 283.13125 
L 524.895536 283.13125 
L 524.895536 283.13125 
L 524.895536 283.13125 
L 524.895536 283.13125 
L 524.895536 283.13125 
L 524.895536 283.13125 
L 524.895536 283.13125 
L 524.895536 283.13125 
L 524.895536 283.13125 
L 524.895536 283.13125 
L 524.895536 283.13125 
L 524.895536 283.13125 
L 524.895536 283.13125 
L 524.895536 283.13125 
L 524.895536 283.13125 
L 524.895536 283.13125 
L 524.895536 283.13125 
L 524.895536 283.13125 
L 524.895536 283.13125 
L 524.895536 283.13125 
L 524.895536 283.13125 
L 524.895536 283.13125 
L 524.895536 283.13125 
L 524.895536 283.13125 
L 524.895536 283.13125 
L 524.895536 283.13125 
L 524.895536 283.13125 
L 524.895536 283.13125 
L 524.895536 283.13125 
L 524.895536 283.13125 
L 524.895536 283.13125 
L 524.895536 283.13125 
L 524.895536 283.13125 
L 524.895536 283.13125 
L 524.895536 283.13125 
L 524.895536 283.13125 
L 524.895536 283.13125 
L 524.895536 283.13125 
L 524.895536 283.13125 
L 524.895536 283.13125 
L 524.895536 283.13125 
L 524.895536 283.13125 
L 524.895536 283.13125 
z
" style="fill:#1f77b4;fill-opacity:0.3;"/>
   </g>
   <g id="PolyCollection_5">
    <path clip-path="url(#p9f00b6c546)" d="M 643.00625 340.09375 
L 583.950893 340.09375 
L 583.950893 340.09375 
L 583.950893 340.09375 
L 583.950893 340.09375 
L 583.950893 340.09375 
L 583.950893 340.09375 
L 583.950893 340.09375 
L 583.950893 340.09375 
L 583.950893 340.09375 
L 583.950893 340.09375 
L 583.950893 340.09375 
L 583.950893 340.09375 
L 583.950893 340.09375 
L 583.950893 340.09375 
L 583.950893 340.09375 
L 583.950893 340.09375 
L 583.950893 340.09375 
L 583.950893 340.09375 
L 583.950893 340.09375 
L 583.950893 340.09375 
L 583.950893 340.09375 
L 583.950893 340.09375 
L 583.950893 340.09375 
L 583.950893 340.09375 
L 583.950893 340.09375 
L 583.950893 340.09375 
L 583.950893 340.09375 
L 583.950893 340.09375 
L 583.950893 340.09375 
L 583.950893 340.09375 
L 583.950893 340.09375 
L 583.950893 340.09375 
L 583.950893 340.09375 
L 583.950893 340.09375 
L 583.950893 340.09375 
L 583.950893 340.09375 
L 583.950893 340.09375 
L 583.950893 340.09375 
L 583.950893 340.09375 
L 583.950893 340.09375 
L 583.950893 340.09375 
L 583.950893 340.09375 
L 583.950893 340.09375 
L 583.950893 340.09375 
L 583.950893 340.09375 
L 583.950893 340.09375 
L 583.950893 340.09375 
L 583.950893 340.09375 
L 583.950893 340.09375 
L 583.950893 340.09375 
L 583.950893 340.09375 
L 583.950893 340.09375 
L 583.950893 340.09375 
L 583.950893 340.09375 
L 583.950893 340.09375 
L 583.950893 340.09375 
L 583.950893 340.09375 
L 583.950893 340.09375 
L 583.950893 340.09375 
L 583.950893 340.09375 
L 583.950893 340.09375 
L 583.950893 340.09375 
L 583.950893 340.09375 
L 583.950893 340.09375 
L 583.950893 340.09375 
L 583.950893 340.09375 
L 583.950893 340.09375 
L 583.950893 340.09375 
L 583.950893 340.09375 
L 583.950893 340.09375 
L 583.950893 340.09375 
L 583.950893 340.09375 
L 583.950893 340.09375 
L 583.950893 340.09375 
L 583.950893 340.09375 
L 583.950893 340.09375 
L 583.950893 340.09375 
L 583.950893 340.09375 
L 583.950893 340.09375 
L 583.950893 340.09375 
L 583.950893 340.09375 
L 583.950893 340.09375 
L 583.950893 340.09375 
L 583.950893 340.09375 
L 583.950893 340.09375 
L 583.950893 340.09375 
L 583.950893 340.09375 
L 583.950893 340.09375 
L 583.950893 340.09375 
L 583.950893 340.09375 
L 583.950893 340.09375 
L 583.950893 340.09375 
L 583.950893 340.09375 
L 583.950893 340.09375 
L 583.950893 340.09375 
L 583.950893 340.09375 
L 583.950893 340.09375 
L 583.950893 340.09375 
L 583.950893 340.09375 
L 583.950893 340.09375 
L 643.00625 340.09375 
L 643.00625 340.09375 
L 643.00625 340.09375 
L 643.00625 340.09375 
L 643.00625 340.09375 
L 643.00625 340.09375 
L 643.00625 340.09375 
L 643.00625 340.09375 
L 643.00625 340.09375 
L 643.00625 340.09375 
L 643.00625 340.09375 
L 643.00625 340.09375 
L 643.00625 340.09375 
L 643.00625 340.09375 
L 643.00625 340.09375 
L 643.00625 340.09375 
L 643.00625 340.09375 
L 643.00625 340.09375 
L 643.00625 340.09375 
L 643.00625 340.09375 
L 643.00625 340.09375 
L 643.00625 340.09375 
L 643.00625 340.09375 
L 643.00625 340.09375 
L 643.00625 340.09375 
L 643.00625 340.09375 
L 643.00625 340.09375 
L 643.00625 340.09375 
L 643.00625 340.09375 
L 643.00625 340.09375 
L 643.00625 340.09375 
L 643.00625 340.09375 
L 643.00625 340.09375 
L 643.00625 340.09375 
L 643.00625 340.09375 
L 643.00625 340.09375 
L 643.00625 340.09375 
L 643.00625 340.09375 
L 643.00625 340.09375 
L 643.00625 340.09375 
L 643.00625 340.09375 
L 643.00625 340.09375 
L 643.00625 340.09375 
L 643.00625 340.09375 
L 643.00625 340.09375 
L 643.00625 340.09375 
L 643.00625 340.09375 
L 643.00625 340.09375 
L 643.00625 340.09375 
L 643.00625 340.09375 
L 643.00625 340.09375 
L 643.00625 340.09375 
L 643.00625 340.09375 
L 643.00625 340.09375 
L 643.00625 340.09375 
L 643.00625 340.09375 
L 643.00625 340.09375 
L 643.00625 340.09375 
L 643.00625 340.09375 
L 643.00625 340.09375 
L 643.00625 340.09375 
L 643.00625 340.09375 
L 643.00625 340.09375 
L 643.00625 340.09375 
L 643.00625 340.09375 
L 643.00625 340.09375 
L 643.00625 340.09375 
L 643.00625 340.09375 
L 643.00625 340.09375 
L 643.00625 340.09375 
L 643.00625 340.09375 
L 643.00625 340.09375 
L 643.00625 340.09375 
L 643.00625 340.09375 
L 643.00625 340.09375 
L 643.00625 340.09375 
L 643.00625 340.09375 
L 643.00625 340.09375 
L 643.00625 340.09375 
L 643.00625 340.09375 
L 643.00625 340.09375 
L 643.00625 340.09375 
L 643.00625 340.09375 
L 643.00625 340.09375 
L 643.00625 340.09375 
L 643.00625 340.09375 
L 643.00625 340.09375 
L 643.00625 340.09375 
L 643.00625 340.09375 
L 643.00625 340.09375 
L 643.00625 340.09375 
L 643.00625 340.09375 
L 643.00625 340.09375 
L 643.00625 340.09375 
L 643.00625 340.09375 
L 643.00625 340.09375 
L 643.00625 340.09375 
L 643.00625 340.09375 
L 643.00625 340.09375 
L 643.00625 340.09375 
L 643.00625 340.09375 
z
" style="fill:#1f77b4;fill-opacity:0.3;"/>
   </g>
   <g id="PolyCollection_6">
    <path clip-path="url(#p9f00b6c546)" d="M 761.116964 340.09375 
L 702.061607 340.09375 
L 702.061607 340.09375 
L 702.061607 340.09375 
L 702.061607 340.09375 
L 702.061607 340.09375 
L 702.061607 340.09375 
L 702.061607 340.09375 
L 702.061607 340.09375 
L 702.061607 340.09375 
L 702.061607 340.09375 
L 702.061607 340.09375 
L 702.061607 340.09375 
L 702.061607 340.09375 
L 702.061607 340.09375 
L 702.061607 340.09375 
L 702.061607 340.09375 
L 702.061607 340.09375 
L 702.061607 340.09375 
L 702.061607 340.09375 
L 702.061607 340.09375 
L 702.061607 340.09375 
L 702.061607 340.09375 
L 702.061607 340.09375 
L 702.061607 340.09375 
L 702.061607 340.09375 
L 702.061607 340.09375 
L 702.061607 340.09375 
L 702.061607 340.09375 
L 702.061607 340.09375 
L 702.061607 340.09375 
L 702.061607 340.09375 
L 702.061607 340.09375 
L 702.061607 340.09375 
L 702.061607 340.09375 
L 702.061607 340.09375 
L 702.061607 340.09375 
L 702.061607 340.09375 
L 702.061607 340.09375 
L 702.061607 340.09375 
L 702.061607 340.09375 
L 702.061607 340.09375 
L 702.061607 340.09375 
L 702.061607 340.09375 
L 702.061607 340.09375 
L 702.061607 340.09375 
L 702.061607 340.09375 
L 702.061607 340.09375 
L 702.061607 340.09375 
L 702.061607 340.09375 
L 702.061607 340.09375 
L 702.061607 340.09375 
L 702.061607 340.09375 
L 702.061607 340.09375 
L 702.061607 340.09375 
L 702.061607 340.09375 
L 702.061607 340.09375 
L 702.061607 340.09375 
L 702.061607 340.09375 
L 702.061607 340.09375 
L 702.061607 340.09375 
L 702.061607 340.09375 
L 702.061607 340.09375 
L 702.061607 340.09375 
L 702.061607 340.09375 
L 702.061607 340.09375 
L 702.061607 340.09375 
L 702.061607 340.09375 
L 702.061607 340.09375 
L 702.061607 340.09375 
L 702.061607 340.09375 
L 702.061607 340.09375 
L 702.061607 340.09375 
L 702.061607 340.09375 
L 702.061607 340.09375 
L 702.061607 340.09375 
L 702.061607 340.09375 
L 702.061607 340.09375 
L 702.061607 340.09375 
L 702.061607 340.09375 
L 702.061607 340.09375 
L 702.061607 340.09375 
L 702.061607 340.09375 
L 702.061607 340.09375 
L 702.061607 340.09375 
L 702.061607 340.09375 
L 702.061607 340.09375 
L 702.061607 340.09375 
L 702.061607 340.09375 
L 702.061607 340.09375 
L 702.061607 340.09375 
L 702.061607 340.09375 
L 702.061607 340.09375 
L 702.061607 340.09375 
L 702.061607 340.09375 
L 702.061607 340.09375 
L 702.061607 340.09375 
L 702.061607 340.09375 
L 702.061607 340.09375 
L 702.061607 340.09375 
L 702.061607 340.09375 
L 761.116964 340.09375 
L 761.116964 340.09375 
L 761.116964 340.09375 
L 761.116964 340.09375 
L 761.116964 340.09375 
L 761.116964 340.09375 
L 761.116964 340.09375 
L 761.116964 340.09375 
L 761.116964 340.09375 
L 761.116964 340.09375 
L 761.116964 340.09375 
L 761.116964 340.09375 
L 761.116964 340.09375 
L 761.116964 340.09375 
L 761.116964 340.09375 
L 761.116964 340.09375 
L 761.116964 340.09375 
L 761.116964 340.09375 
L 761.116964 340.09375 
L 761.116964 340.09375 
L 761.116964 340.09375 
L 761.116964 340.09375 
L 761.116964 340.09375 
L 761.116964 340.09375 
L 761.116964 340.09375 
L 761.116964 340.09375 
L 761.116964 340.09375 
L 761.116964 340.09375 
L 761.116964 340.09375 
L 761.116964 340.09375 
L 761.116964 340.09375 
L 761.116964 340.09375 
L 761.116964 340.09375 
L 761.116964 340.09375 
L 761.116964 340.09375 
L 761.116964 340.09375 
L 761.116964 340.09375 
L 761.116964 340.09375 
L 761.116964 340.09375 
L 761.116964 340.09375 
L 761.116964 340.09375 
L 761.116964 340.09375 
L 761.116964 340.09375 
L 761.116964 340.09375 
L 761.116964 340.09375 
L 761.116964 340.09375 
L 761.116964 340.09375 
L 761.116964 340.09375 
L 761.116964 340.09375 
L 761.116964 340.09375 
L 761.116964 340.09375 
L 761.116964 340.09375 
L 761.116964 340.09375 
L 761.116964 340.09375 
L 761.116964 340.09375 
L 761.116964 340.09375 
L 761.116964 340.09375 
L 761.116964 340.09375 
L 761.116964 340.09375 
L 761.116964 340.09375 
L 761.116964 340.09375 
L 761.116964 340.09375 
L 761.116964 340.09375 
L 761.116964 340.09375 
L 761.116964 340.09375 
L 761.116964 340.09375 
L 761.116964 340.09375 
L 761.116964 340.09375 
L 761.116964 340.09375 
L 761.116964 340.09375 
L 761.116964 340.09375 
L 761.116964 340.09375 
L 761.116964 340.09375 
L 761.116964 340.09375 
L 761.116964 340.09375 
L 761.116964 340.09375 
L 761.116964 340.09375 
L 761.116964 340.09375 
L 761.116964 340.09375 
L 761.116964 340.09375 
L 761.116964 340.09375 
L 761.116964 340.09375 
L 761.116964 340.09375 
L 761.116964 340.09375 
L 761.116964 340.09375 
L 761.116964 340.09375 
L 761.116964 340.09375 
L 761.116964 340.09375 
L 761.116964 340.09375 
L 761.116964 340.09375 
L 761.116964 340.09375 
L 761.116964 340.09375 
L 761.116964 340.09375 
L 761.116964 340.09375 
L 761.116964 340.09375 
L 761.116964 340.09375 
L 761.116964 340.09375 
L 761.116964 340.09375 
L 761.116964 340.09375 
L 761.116964 340.09375 
L 761.116964 340.09375 
z
" style="fill:#1f77b4;fill-opacity:0.3;"/>
   </g>
   <g id="matplotlib.axis_1">
    <g id="xtick_1">
     <g id="line2d_1">
      <defs>
       <path d="M 0 0 
L 0 3.5 
" id="mf1b7d1d361" style="stroke:#000000;stroke-width:0.8;"/>
      </defs>
      <g>
       <use style="stroke:#000000;stroke-width:0.8;" x="141.035714" xlink:href="#mf1b7d1d361" y="368.575"/>
      </g>
     </g>
     <g id="text_1">
      <!-- Defector -->
      <defs>
       <path d="M 19.671875 64.796875 
L 19.671875 8.109375 
L 31.59375 8.109375 
Q 46.6875 8.109375 53.6875 14.9375 
Q 60.6875 21.78125 60.6875 36.53125 
Q 60.6875 51.171875 53.6875 57.984375 
Q 46.6875 64.796875 31.59375 64.796875 
z
M 9.8125 72.90625 
L 30.078125 72.90625 
Q 51.265625 72.90625 61.171875 64.09375 
Q 71.09375 55.28125 71.09375 36.53125 
Q 71.09375 17.671875 61.125 8.828125 
Q 51.171875 0 30.078125 0 
L 9.8125 0 
z
" id="DejaVuSans-44"/>
       <path d="M 56.203125 29.59375 
L 56.203125 25.203125 
L 14.890625 25.203125 
Q 15.484375 15.921875 20.484375 11.0625 
Q 25.484375 6.203125 34.421875 6.203125 
Q 39.59375 6.203125 44.453125 7.46875 
Q 49.3125 8.734375 54.109375 11.28125 
L 54.109375 2.78125 
Q 49.265625 0.734375 44.1875 -0.34375 
Q 39.109375 -1.421875 33.890625 -1.421875 
Q 20.796875 -1.421875 13.15625 6.1875 
Q 5.515625 13.8125 5.515625 26.8125 
Q 5.515625 40.234375 12.765625 48.109375 
Q 20.015625 56 32.328125 56 
Q 43.359375 56 49.78125 48.890625 
Q 56.203125 41.796875 56.203125 29.59375 
z
M 47.21875 32.234375 
Q 47.125 39.59375 43.09375 43.984375 
Q 39.0625 48.390625 32.421875 48.390625 
Q 24.90625 48.390625 20.390625 44.140625 
Q 15.875 39.890625 15.1875 32.171875 
z
" id="DejaVuSans-65"/>
       <path d="M 37.109375 75.984375 
L 37.109375 68.5 
L 28.515625 68.5 
Q 23.6875 68.5 21.796875 66.546875 
Q 19.921875 64.59375 19.921875 59.515625 
L 19.921875 54.6875 
L 34.71875 54.6875 
L 34.71875 47.703125 
L 19.921875 47.703125 
L 19.921875 0 
L 10.890625 0 
L 10.890625 47.703125 
L 2.296875 47.703125 
L 2.296875 54.6875 
L 10.890625 54.6875 
L 10.890625 58.5 
Q 10.890625 67.625 15.140625 71.796875 
Q 19.390625 75.984375 28.609375 75.984375 
z
" id="DejaVuSans-66"/>
       <path d="M 48.78125 52.59375 
L 48.78125 44.1875 
Q 44.96875 46.296875 41.140625 47.34375 
Q 37.3125 48.390625 33.40625 48.390625 
Q 24.65625 48.390625 19.8125 42.84375 
Q 14.984375 37.3125 14.984375 27.296875 
Q 14.984375 17.28125 19.8125 11.734375 
Q 24.65625 6.203125 33.40625 6.203125 
Q 37.3125 6.203125 41.140625 7.25 
Q 44.96875 8.296875 48.78125 10.40625 
L 48.78125 2.09375 
Q 45.015625 0.34375 40.984375 -0.53125 
Q 36.96875 -1.421875 32.421875 -1.421875 
Q 20.0625 -1.421875 12.78125 6.34375 
Q 5.515625 14.109375 5.515625 27.296875 
Q 5.515625 40.671875 12.859375 48.328125 
Q 20.21875 56 33.015625 56 
Q 37.15625 56 41.109375 55.140625 
Q 45.0625 54.296875 48.78125 52.59375 
z
" id="DejaVuSans-63"/>
       <path d="M 18.3125 70.21875 
L 18.3125 54.6875 
L 36.8125 54.6875 
L 36.8125 47.703125 
L 18.3125 47.703125 
L 18.3125 18.015625 
Q 18.3125 11.328125 20.140625 9.421875 
Q 21.96875 7.515625 27.59375 7.515625 
L 36.8125 7.515625 
L 36.8125 0 
L 27.59375 0 
Q 17.1875 0 13.234375 3.875 
Q 9.28125 7.765625 9.28125 18.015625 
L 9.28125 47.703125 
L 2.6875 47.703125 
L 2.6875 54.6875 
L 9.28125 54.6875 
L 9.28125 70.21875 
z
" id="DejaVuSans-74"/>
       <path d="M 30.609375 48.390625 
Q 23.390625 48.390625 19.1875 42.75 
Q 14.984375 37.109375 14.984375 27.296875 
Q 14.984375 17.484375 19.15625 11.84375 
Q 23.34375 6.203125 30.609375 6.203125 
Q 37.796875 6.203125 41.984375 11.859375 
Q 46.1875 17.53125 46.1875 27.296875 
Q 46.1875 37.015625 41.984375 42.703125 
Q 37.796875 48.390625 30.609375 48.390625 
z
M 30.609375 56 
Q 42.328125 56 49.015625 48.375 
Q 55.71875 40.765625 55.71875 27.296875 
Q 55.71875 13.875 49.015625 6.21875 
Q 42.328125 -1.421875 30.609375 -1.421875 
Q 18.84375 -1.421875 12.171875 6.21875 
Q 5.515625 13.875 5.515625 27.296875 
Q 5.515625 40.765625 12.171875 48.375 
Q 18.84375 56 30.609375 56 
z
" id="DejaVuSans-6f"/>
       <path d="M 41.109375 46.296875 
Q 39.59375 47.171875 37.8125 47.578125 
Q 36.03125 48 33.890625 48 
Q 26.265625 48 22.1875 43.046875 
Q 18.109375 38.09375 18.109375 28.8125 
L 18.109375 0 
L 9.078125 0 
L 9.078125 54.6875 
L 18.109375 54.6875 
L 18.109375 46.1875 
Q 20.953125 51.171875 25.484375 53.578125 
Q 30.03125 56 36.53125 56 
Q 37.453125 56 38.578125 55.875 
Q 39.703125 55.765625 41.0625 55.515625 
z
" id="DejaVuSans-72"/>
      </defs>
      <g transform="translate(143.243214 410.115)rotate(-90)scale(0.08 -0.08)">
       <use xlink:href="#DejaVuSans-44"/>
       <use x="77.001953" xlink:href="#DejaVuSans-65"/>
       <use x="138.525391" xlink:href="#DejaVuSans-66"/>
       <use x="173.730469" xlink:href="#DejaVuSans-65"/>
       <use x="235.253906" xlink:href="#DejaVuSans-63"/>
       <use x="290.234375" xlink:href="#DejaVuSans-74"/>
       <use x="329.443359" xlink:href="#DejaVuSans-6f"/>
       <use x="390.625" xlink:href="#DejaVuSans-72"/>
      </g>
     </g>
    </g>
    <g id="xtick_2">
     <g id="line2d_2">
      <g>
       <use style="stroke:#000000;stroke-width:0.8;" x="259.146429" xlink:href="#mf1b7d1d361" y="368.575"/>
      </g>
     </g>
     <g id="text_2">
      <!-- FSM Player -->
      <defs>
       <path d="M 9.8125 72.90625 
L 51.703125 72.90625 
L 51.703125 64.59375 
L 19.671875 64.59375 
L 19.671875 43.109375 
L 48.578125 43.109375 
L 48.578125 34.8125 
L 19.671875 34.8125 
L 19.671875 0 
L 9.8125 0 
z
" id="DejaVuSans-46"/>
       <path d="M 53.515625 70.515625 
L 53.515625 60.890625 
Q 47.90625 63.578125 42.921875 64.890625 
Q 37.9375 66.21875 33.296875 66.21875 
Q 25.25 66.21875 20.875 63.09375 
Q 16.5 59.96875 16.5 54.203125 
Q 16.5 49.359375 19.40625 46.890625 
Q 22.3125 44.4375 30.421875 42.921875 
L 36.375 41.703125 
Q 47.40625 39.59375 52.65625 34.296875 
Q 57.90625 29 57.90625 20.125 
Q 57.90625 9.515625 50.796875 4.046875 
Q 43.703125 -1.421875 29.984375 -1.421875 
Q 24.8125 -1.421875 18.96875 -0.25 
Q 13.140625 0.921875 6.890625 3.21875 
L 6.890625 13.375 
Q 12.890625 10.015625 18.65625 8.296875 
Q 24.421875 6.59375 29.984375 6.59375 
Q 38.421875 6.59375 43.015625 9.90625 
Q 47.609375 13.234375 47.609375 19.390625 
Q 47.609375 24.75 44.3125 27.78125 
Q 41.015625 30.8125 33.5 32.328125 
L 27.484375 33.5 
Q 16.453125 35.6875 11.515625 40.375 
Q 6.59375 45.0625 6.59375 53.421875 
Q 6.59375 63.09375 13.40625 68.65625 
Q 20.21875 74.21875 32.171875 74.21875 
Q 37.3125 74.21875 42.625 73.28125 
Q 47.953125 72.359375 53.515625 70.515625 
z
" id="DejaVuSans-53"/>
       <path d="M 9.8125 72.90625 
L 24.515625 72.90625 
L 43.109375 23.296875 
L 61.8125 72.90625 
L 76.515625 72.90625 
L 76.515625 0 
L 66.890625 0 
L 66.890625 64.015625 
L 48.09375 14.015625 
L 38.1875 14.015625 
L 19.390625 64.015625 
L 19.390625 0 
L 9.8125 0 
z
" id="DejaVuSans-4d"/>
       <path id="DejaVuSans-20"/>
       <path d="M 19.671875 64.796875 
L 19.671875 37.40625 
L 32.078125 37.40625 
Q 38.96875 37.40625 42.71875 40.96875 
Q 46.484375 44.53125 46.484375 51.125 
Q 46.484375 57.671875 42.71875 61.234375 
Q 38.96875 64.796875 32.078125 64.796875 
z
M 9.8125 72.90625 
L 32.078125 72.90625 
Q 44.34375 72.90625 50.609375 67.359375 
Q 56.890625 61.8125 56.890625 51.125 
Q 56.890625 40.328125 50.609375 34.8125 
Q 44.34375 29.296875 32.078125 29.296875 
L 19.671875 29.296875 
L 19.671875 0 
L 9.8125 0 
z
" id="DejaVuSans-50"/>
       <path d="M 9.421875 75.984375 
L 18.40625 75.984375 
L 18.40625 0 
L 9.421875 0 
z
" id="DejaVuSans-6c"/>
       <path d="M 34.28125 27.484375 
Q 23.390625 27.484375 19.1875 25 
Q 14.984375 22.515625 14.984375 16.5 
Q 14.984375 11.71875 18.140625 8.90625 
Q 21.296875 6.109375 26.703125 6.109375 
Q 34.1875 6.109375 38.703125 11.40625 
Q 43.21875 16.703125 43.21875 25.484375 
L 43.21875 27.484375 
z
M 52.203125 31.203125 
L 52.203125 0 
L 43.21875 0 
L 43.21875 8.296875 
Q 40.140625 3.328125 35.546875 0.953125 
Q 30.953125 -1.421875 24.3125 -1.421875 
Q 15.921875 -1.421875 10.953125 3.296875 
Q 6 8.015625 6 15.921875 
Q 6 25.140625 12.171875 29.828125 
Q 18.359375 34.515625 30.609375 34.515625 
L 43.21875 34.515625 
L 43.21875 35.40625 
Q 43.21875 41.609375 39.140625 45 
Q 35.0625 48.390625 27.6875 48.390625 
Q 23 48.390625 18.546875 47.265625 
Q 14.109375 46.140625 10.015625 43.890625 
L 10.015625 52.203125 
Q 14.9375 54.109375 19.578125 55.046875 
Q 24.21875 56 28.609375 56 
Q 40.484375 56 46.34375 49.84375 
Q 52.203125 43.703125 52.203125 31.203125 
z
" id="DejaVuSans-61"/>
       <path d="M 32.171875 -5.078125 
Q 28.375 -14.84375 24.75 -17.8125 
Q 21.140625 -20.796875 15.09375 -20.796875 
L 7.90625 -20.796875 
L 7.90625 -13.28125 
L 13.1875 -13.28125 
Q 16.890625 -13.28125 18.9375 -11.515625 
Q 21 -9.765625 23.484375 -3.21875 
L 25.09375 0.875 
L 2.984375 54.6875 
L 12.5 54.6875 
L 29.59375 11.921875 
L 46.6875 54.6875 
L 56.203125 54.6875 
z
" id="DejaVuSans-79"/>
      </defs>
      <g transform="translate(261.353929 419.59375)rotate(-90)scale(0.08 -0.08)">
       <use xlink:href="#DejaVuSans-46"/>
       <use x="57.503906" xlink:href="#DejaVuSans-53"/>
       <use x="120.980469" xlink:href="#DejaVuSans-4d"/>
       <use x="207.259766" xlink:href="#DejaVuSans-20"/>
       <use x="239.046875" xlink:href="#DejaVuSans-50"/>
       <use x="299.349609" xlink:href="#DejaVuSans-6c"/>
       <use x="327.132812" xlink:href="#DejaVuSans-61"/>
       <use x="388.412109" xlink:href="#DejaVuSans-79"/>
       <use x="447.591797" xlink:href="#DejaVuSans-65"/>
       <use x="509.115234" xlink:href="#DejaVuSans-72"/>
      </g>
     </g>
    </g>
    <g id="xtick_3">
     <g id="line2d_3">
      <g>
       <use style="stroke:#000000;stroke-width:0.8;" x="377.257143" xlink:href="#mf1b7d1d361" y="368.575"/>
      </g>
     </g>
     <g id="text_3">
      <!-- Random -->
      <defs>
       <path d="M 44.390625 34.1875 
Q 47.5625 33.109375 50.5625 29.59375 
Q 53.5625 26.078125 56.59375 19.921875 
L 66.609375 0 
L 56 0 
L 46.6875 18.703125 
Q 43.0625 26.03125 39.671875 28.421875 
Q 36.28125 30.8125 30.421875 30.8125 
L 19.671875 30.8125 
L 19.671875 0 
L 9.8125 0 
L 9.8125 72.90625 
L 32.078125 72.90625 
Q 44.578125 72.90625 50.734375 67.671875 
Q 56.890625 62.453125 56.890625 51.90625 
Q 56.890625 45.015625 53.6875 40.46875 
Q 50.484375 35.9375 44.390625 34.1875 
z
M 19.671875 64.796875 
L 19.671875 38.921875 
L 32.078125 38.921875 
Q 39.203125 38.921875 42.84375 42.21875 
Q 46.484375 45.515625 46.484375 51.90625 
Q 46.484375 58.296875 42.84375 61.546875 
Q 39.203125 64.796875 32.078125 64.796875 
z
" id="DejaVuSans-52"/>
       <path d="M 54.890625 33.015625 
L 54.890625 0 
L 45.90625 0 
L 45.90625 32.71875 
Q 45.90625 40.484375 42.875 44.328125 
Q 39.84375 48.1875 33.796875 48.1875 
Q 26.515625 48.1875 22.3125 43.546875 
Q 18.109375 38.921875 18.109375 30.90625 
L 18.109375 0 
L 9.078125 0 
L 9.078125 54.6875 
L 18.109375 54.6875 
L 18.109375 46.1875 
Q 21.34375 51.125 25.703125 53.5625 
Q 30.078125 56 35.796875 56 
Q 45.21875 56 50.046875 50.171875 
Q 54.890625 44.34375 54.890625 33.015625 
z
" id="DejaVuSans-6e"/>
       <path d="M 45.40625 46.390625 
L 45.40625 75.984375 
L 54.390625 75.984375 
L 54.390625 0 
L 45.40625 0 
L 45.40625 8.203125 
Q 42.578125 3.328125 38.25 0.953125 
Q 33.9375 -1.421875 27.875 -1.421875 
Q 17.96875 -1.421875 11.734375 6.484375 
Q 5.515625 14.40625 5.515625 27.296875 
Q 5.515625 40.1875 11.734375 48.09375 
Q 17.96875 56 27.875 56 
Q 33.9375 56 38.25 53.625 
Q 42.578125 51.265625 45.40625 46.390625 
z
M 14.796875 27.296875 
Q 14.796875 17.390625 18.875 11.75 
Q 22.953125 6.109375 30.078125 6.109375 
Q 37.203125 6.109375 41.296875 11.75 
Q 45.40625 17.390625 45.40625 27.296875 
Q 45.40625 37.203125 41.296875 42.84375 
Q 37.203125 48.484375 30.078125 48.484375 
Q 22.953125 48.484375 18.875 42.84375 
Q 14.796875 37.203125 14.796875 27.296875 
z
" id="DejaVuSans-64"/>
       <path d="M 52 44.1875 
Q 55.375 50.25 60.0625 53.125 
Q 64.75 56 71.09375 56 
Q 79.640625 56 84.28125 50.015625 
Q 88.921875 44.046875 88.921875 33.015625 
L 88.921875 0 
L 79.890625 0 
L 79.890625 32.71875 
Q 79.890625 40.578125 77.09375 44.375 
Q 74.3125 48.1875 68.609375 48.1875 
Q 61.625 48.1875 57.5625 43.546875 
Q 53.515625 38.921875 53.515625 30.90625 
L 53.515625 0 
L 44.484375 0 
L 44.484375 32.71875 
Q 44.484375 40.625 41.703125 44.40625 
Q 38.921875 48.1875 33.109375 48.1875 
Q 26.21875 48.1875 22.15625 43.53125 
Q 18.109375 38.875 18.109375 30.90625 
L 18.109375 0 
L 9.078125 0 
L 9.078125 54.6875 
L 18.109375 54.6875 
L 18.109375 46.1875 
Q 21.1875 51.21875 25.484375 53.609375 
Q 29.78125 56 35.6875 56 
Q 41.65625 56 45.828125 52.96875 
Q 50 49.953125 52 44.1875 
z
" id="DejaVuSans-6d"/>
      </defs>
      <g transform="translate(379.464643 408.87)rotate(-90)scale(0.08 -0.08)">
       <use xlink:href="#DejaVuSans-52"/>
       <use x="69.451172" xlink:href="#DejaVuSans-61"/>
       <use x="130.730469" xlink:href="#DejaVuSans-6e"/>
       <use x="194.109375" xlink:href="#DejaVuSans-64"/>
       <use x="257.585938" xlink:href="#DejaVuSans-6f"/>
       <use x="318.767578" xlink:href="#DejaVuSans-6d"/>
      </g>
     </g>
    </g>
    <g id="xtick_4">
     <g id="line2d_4">
      <g>
       <use style="stroke:#000000;stroke-width:0.8;" x="495.367857" xlink:href="#mf1b7d1d361" y="368.575"/>
      </g>
     </g>
     <g id="text_4">
      <!-- Grudger -->
      <defs>
       <path d="M 59.515625 10.40625 
L 59.515625 29.984375 
L 43.40625 29.984375 
L 43.40625 38.09375 
L 69.28125 38.09375 
L 69.28125 6.78125 
Q 63.578125 2.734375 56.6875 0.65625 
Q 49.8125 -1.421875 42 -1.421875 
Q 24.90625 -1.421875 15.25 8.5625 
Q 5.609375 18.5625 5.609375 36.375 
Q 5.609375 54.25 15.25 64.234375 
Q 24.90625 74.21875 42 74.21875 
Q 49.125 74.21875 55.546875 72.453125 
Q 61.96875 70.703125 67.390625 67.28125 
L 67.390625 56.78125 
Q 61.921875 61.421875 55.765625 63.765625 
Q 49.609375 66.109375 42.828125 66.109375 
Q 29.4375 66.109375 22.71875 58.640625 
Q 16.015625 51.171875 16.015625 36.375 
Q 16.015625 21.625 22.71875 14.15625 
Q 29.4375 6.6875 42.828125 6.6875 
Q 48.046875 6.6875 52.140625 7.59375 
Q 56.25 8.5 59.515625 10.40625 
z
" id="DejaVuSans-47"/>
       <path d="M 8.5 21.578125 
L 8.5 54.6875 
L 17.484375 54.6875 
L 17.484375 21.921875 
Q 17.484375 14.15625 20.5 10.265625 
Q 23.53125 6.390625 29.59375 6.390625 
Q 36.859375 6.390625 41.078125 11.03125 
Q 45.3125 15.671875 45.3125 23.6875 
L 45.3125 54.6875 
L 54.296875 54.6875 
L 54.296875 0 
L 45.3125 0 
L 45.3125 8.40625 
Q 42.046875 3.421875 37.71875 1 
Q 33.40625 -1.421875 27.6875 -1.421875 
Q 18.265625 -1.421875 13.375 4.4375 
Q 8.5 10.296875 8.5 21.578125 
z
M 31.109375 56 
z
" id="DejaVuSans-75"/>
       <path d="M 45.40625 27.984375 
Q 45.40625 37.75 41.375 43.109375 
Q 37.359375 48.484375 30.078125 48.484375 
Q 22.859375 48.484375 18.828125 43.109375 
Q 14.796875 37.75 14.796875 27.984375 
Q 14.796875 18.265625 18.828125 12.890625 
Q 22.859375 7.515625 30.078125 7.515625 
Q 37.359375 7.515625 41.375 12.890625 
Q 45.40625 18.265625 45.40625 27.984375 
z
M 54.390625 6.78125 
Q 54.390625 -7.171875 48.1875 -13.984375 
Q 42 -20.796875 29.203125 -20.796875 
Q 24.46875 -20.796875 20.265625 -20.09375 
Q 16.0625 -19.390625 12.109375 -17.921875 
L 12.109375 -9.1875 
Q 16.0625 -11.328125 19.921875 -12.34375 
Q 23.78125 -13.375 27.78125 -13.375 
Q 36.625 -13.375 41.015625 -8.765625 
Q 45.40625 -4.15625 45.40625 5.171875 
L 45.40625 9.625 
Q 42.625 4.78125 38.28125 2.390625 
Q 33.9375 0 27.875 0 
Q 17.828125 0 11.671875 7.65625 
Q 5.515625 15.328125 5.515625 27.984375 
Q 5.515625 40.671875 11.671875 48.328125 
Q 17.828125 56 27.875 56 
Q 33.9375 56 38.28125 53.609375 
Q 42.625 51.21875 45.40625 46.390625 
L 45.40625 54.6875 
L 54.390625 54.6875 
z
" id="DejaVuSans-67"/>
      </defs>
      <g transform="translate(497.575357 408.50125)rotate(-90)scale(0.08 -0.08)">
       <use xlink:href="#DejaVuSans-47"/>
       <use x="77.490234" xlink:href="#DejaVuSans-72"/>
       <use x="118.603516" xlink:href="#DejaVuSans-75"/>
       <use x="181.982422" xlink:href="#DejaVuSans-64"/>
       <use x="245.458984" xlink:href="#DejaVuSans-67"/>
       <use x="308.935547" xlink:href="#DejaVuSans-65"/>
       <use x="370.458984" xlink:href="#DejaVuSans-72"/>
      </g>
     </g>
    </g>
    <g id="xtick_5">
     <g id="line2d_5">
      <g>
       <use style="stroke:#000000;stroke-width:0.8;" x="613.478571" xlink:href="#mf1b7d1d361" y="368.575"/>
      </g>
     </g>
     <g id="text_5">
      <!-- Tit For Tat -->
      <defs>
       <path d="M -0.296875 72.90625 
L 61.375 72.90625 
L 61.375 64.59375 
L 35.5 64.59375 
L 35.5 0 
L 25.59375 0 
L 25.59375 64.59375 
L -0.296875 64.59375 
z
" id="DejaVuSans-54"/>
       <path d="M 9.421875 54.6875 
L 18.40625 54.6875 
L 18.40625 0 
L 9.421875 0 
z
M 9.421875 75.984375 
L 18.40625 75.984375 
L 18.40625 64.59375 
L 9.421875 64.59375 
z
" id="DejaVuSans-69"/>
      </defs>
      <g transform="translate(615.686071 416.5875)rotate(-90)scale(0.08 -0.08)">
       <use xlink:href="#DejaVuSans-54"/>
       <use x="61.037109" xlink:href="#DejaVuSans-69"/>
       <use x="88.820312" xlink:href="#DejaVuSans-74"/>
       <use x="128.029297" xlink:href="#DejaVuSans-20"/>
       <use x="159.816406" xlink:href="#DejaVuSans-46"/>
       <use x="217.289062" xlink:href="#DejaVuSans-6f"/>
       <use x="278.470703" xlink:href="#DejaVuSans-72"/>
       <use x="319.583984" xlink:href="#DejaVuSans-20"/>
       <use x="351.371094" xlink:href="#DejaVuSans-54"/>
       <use x="412.205078" xlink:href="#DejaVuSans-61"/>
       <use x="473.484375" xlink:href="#DejaVuSans-74"/>
      </g>
     </g>
    </g>
    <g id="xtick_6">
     <g id="line2d_6">
      <g>
       <use style="stroke:#000000;stroke-width:0.8;" x="731.589286" xlink:href="#mf1b7d1d361" y="368.575"/>
      </g>
     </g>
     <g id="text_6">
      <!-- Cooperator -->
      <defs>
       <path d="M 64.40625 67.28125 
L 64.40625 56.890625 
Q 59.421875 61.53125 53.78125 63.8125 
Q 48.140625 66.109375 41.796875 66.109375 
Q 29.296875 66.109375 22.65625 58.46875 
Q 16.015625 50.828125 16.015625 36.375 
Q 16.015625 21.96875 22.65625 14.328125 
Q 29.296875 6.6875 41.796875 6.6875 
Q 48.140625 6.6875 53.78125 8.984375 
Q 59.421875 11.28125 64.40625 15.921875 
L 64.40625 5.609375 
Q 59.234375 2.09375 53.4375 0.328125 
Q 47.65625 -1.421875 41.21875 -1.421875 
Q 24.65625 -1.421875 15.125 8.703125 
Q 5.609375 18.84375 5.609375 36.375 
Q 5.609375 53.953125 15.125 64.078125 
Q 24.65625 74.21875 41.21875 74.21875 
Q 47.75 74.21875 53.53125 72.484375 
Q 59.328125 70.75 64.40625 67.28125 
z
" id="DejaVuSans-43"/>
       <path d="M 18.109375 8.203125 
L 18.109375 -20.796875 
L 9.078125 -20.796875 
L 9.078125 54.6875 
L 18.109375 54.6875 
L 18.109375 46.390625 
Q 20.953125 51.265625 25.265625 53.625 
Q 29.59375 56 35.59375 56 
Q 45.5625 56 51.78125 48.09375 
Q 58.015625 40.1875 58.015625 27.296875 
Q 58.015625 14.40625 51.78125 6.484375 
Q 45.5625 -1.421875 35.59375 -1.421875 
Q 29.59375 -1.421875 25.265625 0.953125 
Q 20.953125 3.328125 18.109375 8.203125 
z
M 48.6875 27.296875 
Q 48.6875 37.203125 44.609375 42.84375 
Q 40.53125 48.484375 33.40625 48.484375 
Q 26.265625 48.484375 22.1875 42.84375 
Q 18.109375 37.203125 18.109375 27.296875 
Q 18.109375 17.390625 22.1875 11.75 
Q 26.265625 6.109375 33.40625 6.109375 
Q 40.53125 6.109375 44.609375 11.75 
Q 48.6875 17.390625 48.6875 27.296875 
z
" id="DejaVuSans-70"/>
      </defs>
      <g transform="translate(733.796786 420.46375)rotate(-90)scale(0.08 -0.08)">
       <use xlink:href="#DejaVuSans-43"/>
       <use x="69.824219" xlink:href="#DejaVuSans-6f"/>
       <use x="131.005859" xlink:href="#DejaVuSans-6f"/>
       <use x="192.1875" xlink:href="#DejaVuSans-70"/>
       <use x="255.664062" xlink:href="#DejaVuSans-65"/>
       <use x="317.1875" xlink:href="#DejaVuSans-72"/>
       <use x="358.300781" xlink:href="#DejaVuSans-61"/>
       <use x="419.580078" xlink:href="#DejaVuSans-74"/>
       <use x="458.789062" xlink:href="#DejaVuSans-6f"/>
       <use x="519.970703" xlink:href="#DejaVuSans-72"/>
      </g>
     </g>
    </g>
   </g>
   <g id="matplotlib.axis_2">
    <g id="ytick_1">
     <g id="line2d_7">
      <defs>
       <path d="M 0 0 
L -3.5 0 
" id="m85bea14f12" style="stroke:#000000;stroke-width:0.8;"/>
      </defs>
      <g>
       <use style="stroke:#000000;stroke-width:0.8;" x="22.925" xlink:href="#m85bea14f12" y="340.09375"/>
      </g>
     </g>
     <g id="text_7">
      <!-- 0 -->
      <defs>
       <path d="M 31.78125 66.40625 
Q 24.171875 66.40625 20.328125 58.90625 
Q 16.5 51.421875 16.5 36.375 
Q 16.5 21.390625 20.328125 13.890625 
Q 24.171875 6.390625 31.78125 6.390625 
Q 39.453125 6.390625 43.28125 13.890625 
Q 47.125 21.390625 47.125 36.375 
Q 47.125 51.421875 43.28125 58.90625 
Q 39.453125 66.40625 31.78125 66.40625 
z
M 31.78125 74.21875 
Q 44.046875 74.21875 50.515625 64.515625 
Q 56.984375 54.828125 56.984375 36.375 
Q 56.984375 17.96875 50.515625 8.265625 
Q 44.046875 -1.421875 31.78125 -1.421875 
Q 19.53125 -1.421875 13.0625 8.265625 
Q 6.59375 17.96875 6.59375 36.375 
Q 6.59375 54.828125 13.0625 64.515625 
Q 19.53125 74.21875 31.78125 74.21875 
z
" id="DejaVuSans-30"/>
      </defs>
      <g transform="translate(10.835 343.133125)scale(0.08 -0.08)">
       <use xlink:href="#DejaVuSans-30"/>
      </g>
     </g>
    </g>
    <g id="ytick_2">
     <g id="line2d_8">
      <g>
       <use style="stroke:#000000;stroke-width:0.8;" x="22.925" xlink:href="#m85bea14f12" y="283.13125"/>
      </g>
     </g>
     <g id="text_8">
      <!-- 1 -->
      <defs>
       <path d="M 12.40625 8.296875 
L 28.515625 8.296875 
L 28.515625 63.921875 
L 10.984375 60.40625 
L 10.984375 69.390625 
L 28.421875 72.90625 
L 38.28125 72.90625 
L 38.28125 8.296875 
L 54.390625 8.296875 
L 54.390625 0 
L 12.40625 0 
z
" id="DejaVuSans-31"/>
      </defs>
      <g transform="translate(10.835 286.170625)scale(0.08 -0.08)">
       <use xlink:href="#DejaVuSans-31"/>
      </g>
     </g>
    </g>
    <g id="ytick_3">
     <g id="line2d_9">
      <g>
       <use style="stroke:#000000;stroke-width:0.8;" x="22.925" xlink:href="#m85bea14f12" y="226.16875"/>
      </g>
     </g>
     <g id="text_9">
      <!-- 2 -->
      <defs>
       <path d="M 19.1875 8.296875 
L 53.609375 8.296875 
L 53.609375 0 
L 7.328125 0 
L 7.328125 8.296875 
Q 12.9375 14.109375 22.625 23.890625 
Q 32.328125 33.6875 34.8125 36.53125 
Q 39.546875 41.84375 41.421875 45.53125 
Q 43.3125 49.21875 43.3125 52.78125 
Q 43.3125 58.59375 39.234375 62.25 
Q 35.15625 65.921875 28.609375 65.921875 
Q 23.96875 65.921875 18.8125 64.3125 
Q 13.671875 62.703125 7.8125 59.421875 
L 7.8125 69.390625 
Q 13.765625 71.78125 18.9375 73 
Q 24.125 74.21875 28.421875 74.21875 
Q 39.75 74.21875 46.484375 68.546875 
Q 53.21875 62.890625 53.21875 53.421875 
Q 53.21875 48.921875 51.53125 44.890625 
Q 49.859375 40.875 45.40625 35.40625 
Q 44.1875 33.984375 37.640625 27.21875 
Q 31.109375 20.453125 19.1875 8.296875 
z
" id="DejaVuSans-32"/>
      </defs>
      <g transform="translate(10.835 229.208125)scale(0.08 -0.08)">
       <use xlink:href="#DejaVuSans-32"/>
      </g>
     </g>
    </g>
    <g id="ytick_4">
     <g id="line2d_10">
      <g>
       <use style="stroke:#000000;stroke-width:0.8;" x="22.925" xlink:href="#m85bea14f12" y="169.20625"/>
      </g>
     </g>
     <g id="text_10">
      <!-- 3 -->
      <defs>
       <path d="M 40.578125 39.3125 
Q 47.65625 37.796875 51.625 33 
Q 55.609375 28.21875 55.609375 21.1875 
Q 55.609375 10.40625 48.1875 4.484375 
Q 40.765625 -1.421875 27.09375 -1.421875 
Q 22.515625 -1.421875 17.65625 -0.515625 
Q 12.796875 0.390625 7.625 2.203125 
L 7.625 11.71875 
Q 11.71875 9.328125 16.59375 8.109375 
Q 21.484375 6.890625 26.8125 6.890625 
Q 36.078125 6.890625 40.9375 10.546875 
Q 45.796875 14.203125 45.796875 21.1875 
Q 45.796875 27.640625 41.28125 31.265625 
Q 36.765625 34.90625 28.71875 34.90625 
L 20.21875 34.90625 
L 20.21875 43.015625 
L 29.109375 43.015625 
Q 36.375 43.015625 40.234375 45.921875 
Q 44.09375 48.828125 44.09375 54.296875 
Q 44.09375 59.90625 40.109375 62.90625 
Q 36.140625 65.921875 28.71875 65.921875 
Q 24.65625 65.921875 20.015625 65.03125 
Q 15.375 64.15625 9.8125 62.3125 
L 9.8125 71.09375 
Q 15.4375 72.65625 20.34375 73.4375 
Q 25.25 74.21875 29.59375 74.21875 
Q 40.828125 74.21875 47.359375 69.109375 
Q 53.90625 64.015625 53.90625 55.328125 
Q 53.90625 49.265625 50.4375 45.09375 
Q 46.96875 40.921875 40.578125 39.3125 
z
" id="DejaVuSans-33"/>
      </defs>
      <g transform="translate(10.835 172.245625)scale(0.08 -0.08)">
       <use xlink:href="#DejaVuSans-33"/>
      </g>
     </g>
    </g>
    <g id="ytick_5">
     <g id="line2d_11">
      <g>
       <use style="stroke:#000000;stroke-width:0.8;" x="22.925" xlink:href="#m85bea14f12" y="112.24375"/>
      </g>
     </g>
     <g id="text_11">
      <!-- 4 -->
      <defs>
       <path d="M 37.796875 64.3125 
L 12.890625 25.390625 
L 37.796875 25.390625 
z
M 35.203125 72.90625 
L 47.609375 72.90625 
L 47.609375 25.390625 
L 58.015625 25.390625 
L 58.015625 17.1875 
L 47.609375 17.1875 
L 47.609375 0 
L 37.796875 0 
L 37.796875 17.1875 
L 4.890625 17.1875 
L 4.890625 26.703125 
z
" id="DejaVuSans-34"/>
      </defs>
      <g transform="translate(10.835 115.283125)scale(0.08 -0.08)">
       <use xlink:href="#DejaVuSans-34"/>
      </g>
     </g>
    </g>
    <g id="ytick_6">
     <g id="line2d_12">
      <g>
       <use style="stroke:#000000;stroke-width:0.8;" x="22.925" xlink:href="#m85bea14f12" y="55.28125"/>
      </g>
     </g>
     <g id="text_12">
      <!-- 5 -->
      <defs>
       <path d="M 10.796875 72.90625 
L 49.515625 72.90625 
L 49.515625 64.59375 
L 19.828125 64.59375 
L 19.828125 46.734375 
Q 21.96875 47.46875 24.109375 47.828125 
Q 26.265625 48.1875 28.421875 48.1875 
Q 40.625 48.1875 47.75 41.5 
Q 54.890625 34.8125 54.890625 23.390625 
Q 54.890625 11.625 47.5625 5.09375 
Q 40.234375 -1.421875 26.90625 -1.421875 
Q 22.3125 -1.421875 17.546875 -0.640625 
Q 12.796875 0.140625 7.71875 1.703125 
L 7.71875 11.625 
Q 12.109375 9.234375 16.796875 8.0625 
Q 21.484375 6.890625 26.703125 6.890625 
Q 35.15625 6.890625 40.078125 11.328125 
Q 45.015625 15.765625 45.015625 23.390625 
Q 45.015625 31 40.078125 35.4375 
Q 35.15625 39.890625 26.703125 39.890625 
Q 22.75 39.890625 18.8125 39.015625 
Q 14.890625 38.140625 10.796875 36.28125 
z
" id="DejaVuSans-35"/>
      </defs>
      <g transform="translate(10.835 58.320625)scale(0.08 -0.08)">
       <use xlink:href="#DejaVuSans-35"/>
      </g>
     </g>
    </g>
   </g>
   <g id="LineCollection_1">
    <path clip-path="url(#p9f00b6c546)" d="M 126.271875 55.28125 
L 155.799554 55.28125 
" style="fill:none;stroke:#1f77b4;stroke-width:1.5;"/>
    <path clip-path="url(#p9f00b6c546)" d="M 244.382589 283.13125 
L 273.910268 283.13125 
" style="fill:none;stroke:#1f77b4;stroke-width:1.5;"/>
    <path clip-path="url(#p9f00b6c546)" d="M 362.493304 283.13125 
L 392.020982 283.13125 
" style="fill:none;stroke:#1f77b4;stroke-width:1.5;"/>
    <path clip-path="url(#p9f00b6c546)" d="M 480.604018 283.13125 
L 510.131696 283.13125 
" style="fill:none;stroke:#1f77b4;stroke-width:1.5;"/>
    <path clip-path="url(#p9f00b6c546)" d="M 598.714732 340.09375 
L 628.242411 340.09375 
" style="fill:none;stroke:#1f77b4;stroke-width:1.5;"/>
    <path clip-path="url(#p9f00b6c546)" d="M 716.825446 340.09375 
L 746.353125 340.09375 
" style="fill:none;stroke:#1f77b4;stroke-width:1.5;"/>
   </g>
   <g id="patch_3">
    <path d="M 22.925 368.575 
L 22.925 26.8 
" style="fill:none;stroke:#000000;stroke-linecap:square;stroke-linejoin:miter;stroke-width:0.8;"/>
   </g>
   <g id="patch_4">
    <path d="M 849.7 368.575 
L 849.7 26.8 
" style="fill:none;stroke:#000000;stroke-linecap:square;stroke-linejoin:miter;stroke-width:0.8;"/>
   </g>
   <g id="patch_5">
    <path d="M 22.925 368.575 
L 849.7 368.575 
" style="fill:none;stroke:#000000;stroke-linecap:square;stroke-linejoin:miter;stroke-width:0.8;"/>
   </g>
   <g id="patch_6">
    <path d="M 22.925 26.8 
L 849.7 26.8 
" style="fill:none;stroke:#000000;stroke-linecap:square;stroke-linejoin:miter;stroke-width:0.8;"/>
   </g>
   <g id="text_13">
    <!-- axelrod - Wins -->
    <defs>
     <path d="M 54.890625 54.6875 
L 35.109375 28.078125 
L 55.90625 0 
L 45.3125 0 
L 29.390625 21.484375 
L 13.484375 0 
L 2.875 0 
L 24.125 28.609375 
L 4.6875 54.6875 
L 15.28125 54.6875 
L 29.78125 35.203125 
L 44.28125 54.6875 
z
" id="DejaVuSans-78"/>
     <path d="M 4.890625 31.390625 
L 31.203125 31.390625 
L 31.203125 23.390625 
L 4.890625 23.390625 
z
" id="DejaVuSans-2d"/>
     <path d="M 3.328125 72.90625 
L 13.28125 72.90625 
L 28.609375 11.28125 
L 43.890625 72.90625 
L 54.984375 72.90625 
L 70.3125 11.28125 
L 85.59375 72.90625 
L 95.609375 72.90625 
L 77.296875 0 
L 64.890625 0 
L 49.515625 63.28125 
L 33.984375 0 
L 21.578125 0 
z
" id="DejaVuSans-57"/>
     <path d="M 44.28125 53.078125 
L 44.28125 44.578125 
Q 40.484375 46.53125 36.375 47.5 
Q 32.28125 48.484375 27.875 48.484375 
Q 21.1875 48.484375 17.84375 46.4375 
Q 14.5 44.390625 14.5 40.28125 
Q 14.5 37.15625 16.890625 35.375 
Q 19.28125 33.59375 26.515625 31.984375 
L 29.59375 31.296875 
Q 39.15625 29.25 43.1875 25.515625 
Q 47.21875 21.78125 47.21875 15.09375 
Q 47.21875 7.46875 41.1875 3.015625 
Q 35.15625 -1.421875 24.609375 -1.421875 
Q 20.21875 -1.421875 15.453125 -0.5625 
Q 10.6875 0.296875 5.421875 2 
L 5.421875 11.28125 
Q 10.40625 8.6875 15.234375 7.390625 
Q 20.0625 6.109375 24.8125 6.109375 
Q 31.15625 6.109375 34.5625 8.28125 
Q 37.984375 10.453125 37.984375 14.40625 
Q 37.984375 18.0625 35.515625 20.015625 
Q 33.0625 21.96875 24.703125 23.78125 
L 21.578125 24.515625 
Q 13.234375 26.265625 9.515625 29.90625 
Q 5.8125 33.546875 5.8125 39.890625 
Q 5.8125 47.609375 11.28125 51.796875 
Q 16.75 56 26.8125 56 
Q 31.78125 56 36.171875 55.265625 
Q 40.578125 54.546875 44.28125 53.078125 
z
" id="DejaVuSans-73"/>
    </defs>
    <g transform="translate(393.279375 20.8)scale(0.12 -0.12)">
     <use xlink:href="#DejaVuSans-61"/>
     <use x="61.279297" xlink:href="#DejaVuSans-78"/>
     <use x="120.412109" xlink:href="#DejaVuSans-65"/>
     <use x="181.935547" xlink:href="#DejaVuSans-6c"/>
     <use x="209.71875" xlink:href="#DejaVuSans-72"/>
     <use x="250.800781" xlink:href="#DejaVuSans-6f"/>
     <use x="311.982422" xlink:href="#DejaVuSans-64"/>
     <use x="375.458984" xlink:href="#DejaVuSans-20"/>
     <use x="407.246094" xlink:href="#DejaVuSans-2d"/>
     <use x="443.330078" xlink:href="#DejaVuSans-20"/>
     <use x="475.117188" xlink:href="#DejaVuSans-57"/>
     <use x="573.962891" xlink:href="#DejaVuSans-69"/>
     <use x="601.746094" xlink:href="#DejaVuSans-6e"/>
     <use x="665.125" xlink:href="#DejaVuSans-73"/>
    </g>
   </g>
  </g>
 </g>
 <defs>
  <clipPath id="p9f00b6c546">
   <rect height="341.775" width="826.775" x="22.925" y="26.8"/>
  </clipPath>
 </defs>
</svg>
