<?xml version="1.0" encoding="utf-8" standalone="no"?>
<!DOCTYPE svg PUBLIC "-//W3C//DTD SVG 1.1//EN"
  "http://www.w3.org/Graphics/SVG/1.1/DTD/svg11.dtd">
<!-- Created with matplotlib (http://matplotlib.org/) -->
<svg height="432pt" version="1.1" viewBox="0 0 864 432" width="864pt" xmlns="http://www.w3.org/2000/svg" xmlns:xlink="http://www.w3.org/1999/xlink">
 <defs>
  <style type="text/css">
*{stroke-linecap:butt;stroke-linejoin:round;}
  </style>
 </defs>
 <g id="figure_1">
  <g id="patch_1">
   <path d="M 0 432 
L 864 432 
L 864 0 
L 0 0 
z
" style="fill:#ffffff;"/>
  </g>
  <g id="axes_1">
   <g id="patch_2">
    <path d="M 29.675 362.825 
L 849.7 362.825 
L 849.7 26.8 
L 29.675 26.8 
z
" style="fill:#ffffff;"/>
   </g>
   <g id="PolyCollection_1">
    <path clip-path="url(#p9a46702b76)" d="M 200.475116 194.8125 
L 132.216551 194.8125 
L 132.178125 193.269685 
L 132.234783 191.726871 
L 132.384807 190.184056 
L 132.625547 188.641242 
L 132.953461 187.098427 
L 133.364163 185.555613 
L 133.852485 184.012798 
L 134.412551 182.469984 
L 135.037864 180.927169 
L 135.721398 179.384355 
L 136.455704 177.84154 
L 137.233008 176.298726 
L 138.045332 174.755911 
L 138.884598 173.213097 
L 139.742739 171.670282 
L 140.611814 170.127468 
L 141.484105 168.584653 
L 142.35222 167.041839 
L 143.209181 165.499024 
L 144.048507 163.95621 
L 144.864282 162.413395 
L 145.651221 160.870581 
L 146.404714 159.327766 
L 147.120864 157.784952 
L 147.79651 156.242137 
L 148.429239 154.699323 
L 149.017384 153.156508 
L 149.560013 151.613694 
L 150.056903 150.070879 
L 150.508509 148.528065 
L 150.915916 146.98525 
L 151.280791 145.442436 
L 151.605322 143.899621 
L 151.892154 142.356807 
L 152.144319 140.813992 
L 152.365164 139.271178 
L 152.558276 137.728363 
L 152.727404 136.185549 
L 152.876391 134.642734 
L 153.009095 133.09992 
L 153.12932 131.557105 
L 153.240752 130.014291 
L 153.346898 128.471476 
L 153.451028 126.928662 
L 153.556128 125.385847 
L 153.664855 123.843033 
L 153.779507 122.300218 
L 153.901989 120.757404 
L 154.033801 119.214589 
L 154.176019 117.671775 
L 154.329294 116.12896 
L 154.493858 114.586146 
L 154.669528 113.043331 
L 154.85573 111.500517 
L 155.051518 109.957702 
L 155.255607 108.414888 
L 155.466402 106.872073 
L 155.682042 105.329258 
L 155.90044 103.786444 
L 156.119326 102.243629 
L 156.336298 100.700815 
L 156.548868 99.158 
L 156.754511 97.615186 
L 156.950713 96.072371 
L 157.135021 94.529557 
L 157.305088 92.986742 
L 157.458714 91.443928 
L 157.593891 89.901113 
L 157.708838 88.358299 
L 157.802032 86.815484 
L 157.872241 85.27267 
L 157.918546 83.729855 
L 157.940359 82.187041 
L 157.937438 80.644226 
L 157.909897 79.101412 
L 157.858204 77.558597 
L 157.783182 76.015783 
L 157.685999 74.472968 
L 157.568158 72.930154 
L 157.431473 71.387339 
L 157.27805 69.844525 
L 157.110256 68.30171 
L 156.93069 66.758896 
L 156.742148 65.216081 
L 156.547582 63.673267 
L 156.350061 62.130452 
L 156.152729 60.587638 
L 155.95876 59.044823 
L 155.771318 57.502009 
L 155.593508 55.959194 
L 155.428336 54.41638 
L 155.27867 52.873565 
L 155.147197 51.330751 
L 155.036392 49.787936 
L 154.94848 48.245122 
L 154.885415 46.702307 
L 154.84885 45.159493 
L 154.84012 43.616678 
L 154.860231 42.073864 
L 177.831436 42.073864 
L 177.831436 42.073864 
L 177.851546 43.616678 
L 177.842817 45.159493 
L 177.806251 46.702307 
L 177.743186 48.245122 
L 177.655275 49.787936 
L 177.544469 51.330751 
L 177.412996 52.873565 
L 177.26333 54.41638 
L 177.098159 55.959194 
L 176.920348 57.502009 
L 176.732906 59.044823 
L 176.538938 60.587638 
L 176.341606 62.130452 
L 176.144085 63.673267 
L 175.949519 65.216081 
L 175.760977 66.758896 
L 175.581411 68.30171 
L 175.413617 69.844525 
L 175.260193 71.387339 
L 175.123508 72.930154 
L 175.005667 74.472968 
L 174.908485 76.015783 
L 174.833463 77.558597 
L 174.78177 79.101412 
L 174.754228 80.644226 
L 174.751308 82.187041 
L 174.773121 83.729855 
L 174.819426 85.27267 
L 174.889635 86.815484 
L 174.982829 88.358299 
L 175.097775 89.901113 
L 175.232953 91.443928 
L 175.386579 92.986742 
L 175.556646 94.529557 
L 175.740954 96.072371 
L 175.937156 97.615186 
L 176.142799 99.158 
L 176.355368 100.700815 
L 176.57234 102.243629 
L 176.791227 103.786444 
L 177.009624 105.329258 
L 177.225265 106.872073 
L 177.43606 108.414888 
L 177.640148 109.957702 
L 177.835937 111.500517 
L 178.022139 113.043331 
L 178.197809 114.586146 
L 178.362372 116.12896 
L 178.515648 117.671775 
L 178.657866 119.214589 
L 178.789677 120.757404 
L 178.91216 122.300218 
L 179.026812 123.843033 
L 179.135539 125.385847 
L 179.240639 126.928662 
L 179.344768 128.471476 
L 179.450915 130.014291 
L 179.562347 131.557105 
L 179.682572 133.09992 
L 179.815275 134.642734 
L 179.964262 136.185549 
L 180.133391 137.728363 
L 180.326502 139.271178 
L 180.547347 140.813992 
L 180.799513 142.356807 
L 181.086345 143.899621 
L 181.410876 145.442436 
L 181.775751 146.98525 
L 182.183158 148.528065 
L 182.634763 150.070879 
L 183.131654 151.613694 
L 183.674283 153.156508 
L 184.262428 154.699323 
L 184.895156 156.242137 
L 185.570802 157.784952 
L 186.286952 159.327766 
L 187.040446 160.870581 
L 187.827385 162.413395 
L 188.64316 163.95621 
L 189.482485 165.499024 
L 190.339446 167.041839 
L 191.207561 168.584653 
L 192.079853 170.127468 
L 192.948928 171.670282 
L 193.807069 173.213097 
L 194.646334 174.755911 
L 195.458658 176.298726 
L 196.235963 177.84154 
L 196.970268 179.384355 
L 197.653803 180.927169 
L 198.279116 182.469984 
L 198.839182 184.012798 
L 199.327503 185.555613 
L 199.738206 187.098427 
L 200.06612 188.641242 
L 200.30686 190.184056 
L 200.456883 191.726871 
L 200.513542 193.269685 
L 200.475116 194.8125 
z
" style="fill:#1f77b4;fill-opacity:0.3;"/>
   </g>
   <g id="PolyCollection_2">
    <path clip-path="url(#p9a46702b76)" d="M 337.161439 195.576193 
L 268.871894 195.576193 
L 268.848958 194.735359 
L 268.952359 193.894525 
L 269.180949 193.053691 
L 269.532205 192.212858 
L 270.002269 191.372024 
L 270.586023 190.53119 
L 271.277176 189.690356 
L 272.068386 188.849522 
L 272.951378 188.008688 
L 273.917098 187.167854 
L 274.95586 186.32702 
L 276.057509 185.486186 
L 277.211586 184.645352 
L 278.40749 183.804518 
L 279.634635 182.963685 
L 280.882603 182.122851 
L 282.141287 181.282017 
L 283.401015 180.441183 
L 284.652665 179.600349 
L 285.887762 178.759515 
L 287.098554 177.918681 
L 288.278077 177.077847 
L 289.420191 176.237013 
L 290.519609 175.396179 
L 291.5719 174.555346 
L 292.573482 173.714512 
L 293.521597 172.873678 
L 294.414275 172.032844 
L 295.250285 171.19201 
L 296.029078 170.351176 
L 296.750724 169.510342 
L 297.415844 168.669508 
L 298.025535 167.828674 
L 298.581301 166.98784 
L 299.084977 166.147006 
L 299.538658 165.306173 
L 299.944635 164.465339 
L 300.30533 163.624505 
L 300.623235 162.783671 
L 300.900865 161.942837 
L 301.14071 161.102003 
L 301.345193 160.261169 
L 301.516641 159.420335 
L 301.657259 158.579501 
L 301.769105 157.738667 
L 301.854083 156.897833 
L 301.91393 156.057 
L 301.950219 155.216166 
L 301.964352 154.375332 
L 301.957577 153.534498 
L 301.930989 152.693664 
L 301.885549 151.85283 
L 301.822098 151.011996 
L 301.741372 150.171162 
L 301.644027 149.330328 
L 301.530654 148.489494 
L 301.401805 147.64866 
L 301.258008 146.807827 
L 301.099795 145.966993 
L 300.927715 145.126159 
L 300.742358 144.285325 
L 300.544369 143.444491 
L 300.334468 142.603657 
L 300.113457 141.762823 
L 299.882239 140.921989 
L 299.64182 140.081155 
L 299.393317 139.240321 
L 299.137964 138.399487 
L 298.877108 137.558654 
L 298.612209 136.71782 
L 298.34483 135.876986 
L 298.076634 135.036152 
L 297.809368 134.195318 
L 297.544849 133.354484 
L 297.284948 132.51365 
L 297.031574 131.672816 
L 296.786647 130.831982 
L 296.552082 129.991148 
L 296.329762 129.150315 
L 296.121516 128.309481 
L 295.929096 127.468647 
L 295.754151 126.627813 
L 295.598208 125.786979 
L 295.462646 124.946145 
L 295.34868 124.105311 
L 295.257343 123.264477 
L 295.18947 122.423643 
L 295.145683 121.582809 
L 295.12639 120.741975 
L 295.131768 119.901142 
L 295.161769 119.060308 
L 295.216118 118.219474 
L 295.294314 117.37864 
L 295.395643 116.537806 
L 295.519186 115.696972 
L 295.663831 114.856138 
L 295.828292 114.015304 
L 296.011127 113.17447 
L 296.210759 112.333636 
L 309.822574 112.333636 
L 309.822574 112.333636 
L 310.022206 113.17447 
L 310.205042 114.015304 
L 310.369503 114.856138 
L 310.514148 115.696972 
L 310.63769 116.537806 
L 310.739019 117.37864 
L 310.817216 118.219474 
L 310.871564 119.060308 
L 310.901565 119.901142 
L 310.906944 120.741975 
L 310.88765 121.582809 
L 310.843864 122.423643 
L 310.77599 123.264477 
L 310.684653 124.105311 
L 310.570688 124.946145 
L 310.435126 125.786979 
L 310.279182 126.627813 
L 310.104238 127.468647 
L 309.911818 128.309481 
L 309.703572 129.150315 
L 309.481252 129.991148 
L 309.246686 130.831982 
L 309.001759 131.672816 
L 308.748385 132.51365 
L 308.488485 133.354484 
L 308.223966 134.195318 
L 307.956699 135.036152 
L 307.688503 135.876986 
L 307.421125 136.71782 
L 307.156225 137.558654 
L 306.895369 138.399487 
L 306.640016 139.240321 
L 306.391514 140.081155 
L 306.151094 140.921989 
L 305.919876 141.762823 
L 305.698866 142.603657 
L 305.488964 143.444491 
L 305.290976 144.285325 
L 305.105618 145.126159 
L 304.933538 145.966993 
L 304.775325 146.807827 
L 304.631529 147.64866 
L 304.502679 148.489494 
L 304.389307 149.330328 
L 304.291962 150.171162 
L 304.211236 151.011996 
L 304.147784 151.85283 
L 304.102344 152.693664 
L 304.075757 153.534498 
L 304.068981 154.375332 
L 304.083115 155.216166 
L 304.119403 156.057 
L 304.179251 156.897833 
L 304.264229 157.738667 
L 304.376075 158.579501 
L 304.516692 159.420335 
L 304.68814 160.261169 
L 304.892623 161.102003 
L 305.132468 161.942837 
L 305.410099 162.783671 
L 305.728004 163.624505 
L 306.088698 164.465339 
L 306.494675 165.306173 
L 306.948357 166.147006 
L 307.452032 166.98784 
L 308.007798 167.828674 
L 308.61749 168.669508 
L 309.282609 169.510342 
L 310.004256 170.351176 
L 310.783049 171.19201 
L 311.619058 172.032844 
L 312.511736 172.873678 
L 313.459852 173.714512 
L 314.461434 174.555346 
L 315.513724 175.396179 
L 316.613142 176.237013 
L 317.755256 177.077847 
L 318.934779 177.918681 
L 320.145571 178.759515 
L 321.380668 179.600349 
L 322.632318 180.441183 
L 323.892046 181.282017 
L 325.15073 182.122851 
L 326.398699 182.963685 
L 327.625843 183.804518 
L 328.821747 184.645352 
L 329.975824 185.486186 
L 331.077474 186.32702 
L 332.116235 187.167854 
L 333.081955 188.008688 
L 333.964948 188.849522 
L 334.756157 189.690356 
L 335.447311 190.53119 
L 336.031064 191.372024 
L 336.501128 192.212858 
L 336.852384 193.053691 
L 337.080975 193.894525 
L 337.184375 194.735359 
L 337.161439 195.576193 
z
" style="fill:#1f77b4;fill-opacity:0.3;"/>
   </g>
   <g id="PolyCollection_3">
    <path clip-path="url(#p9a46702b76)" d="M 451.692524 195.576193 
L 427.682476 195.576193 
L 427.697334 195.568479 
L 427.741883 195.560765 
L 427.815788 195.553051 
L 427.918497 195.545337 
L 428.049247 195.537623 
L 428.207075 195.529909 
L 428.390826 195.522195 
L 428.599171 195.514481 
L 428.830617 195.506767 
L 429.08353 195.499052 
L 429.35615 195.491338 
L 429.64661 195.483624 
L 429.952958 195.47591 
L 430.273179 195.468196 
L 430.60521 195.460482 
L 430.946967 195.452768 
L 431.29636 195.445054 
L 431.651312 195.43734 
L 432.00978 195.429626 
L 432.369768 195.421912 
L 432.729342 195.414198 
L 433.086645 195.406484 
L 433.439903 195.39877 
L 433.78744 195.391055 
L 434.127678 195.383341 
L 434.459147 195.375627 
L 434.780484 195.367913 
L 435.090434 195.360199 
L 435.387848 195.352485 
L 435.671682 195.344771 
L 435.940985 195.337057 
L 436.1949 195.329343 
L 436.43265 195.321629 
L 436.653529 195.313915 
L 436.856892 195.306201 
L 437.042147 195.298487 
L 437.208737 195.290772 
L 437.35613 195.283058 
L 437.48381 195.275344 
L 437.591259 195.26763 
L 437.677952 195.259916 
L 437.743342 195.252202 
L 437.78685 195.244488 
L 437.807859 195.236774 
L 437.805704 195.22906 
L 437.779669 195.221346 
L 437.728981 195.213632 
L 437.652809 195.205918 
L 437.550263 195.198204 
L 437.420399 195.19049 
L 437.262222 195.182775 
L 437.074691 195.175061 
L 436.856732 195.167347 
L 436.60725 195.159633 
L 436.325139 195.151919 
L 436.009304 195.144205 
L 435.658675 195.136491 
L 435.272233 195.128777 
L 434.849026 195.121063 
L 434.388199 195.113349 
L 433.889018 195.105635 
L 433.350896 195.097921 
L 432.77342 195.090207 
L 432.156377 195.082493 
L 431.499787 195.074778 
L 430.80392 195.067064 
L 430.069331 195.05935 
L 429.296877 195.051636 
L 428.487738 195.043922 
L 427.643442 195.036208 
L 426.765871 195.028494 
L 425.85728 195.02078 
L 424.9203 195.013066 
L 423.95794 195.005352 
L 422.97359 194.997638 
L 421.971006 194.989924 
L 420.954303 194.98221 
L 419.927931 194.974496 
L 418.896654 194.966781 
L 417.865521 194.959067 
L 416.839828 194.951353 
L 415.825077 194.943639 
L 414.826936 194.935925 
L 413.851182 194.928211 
L 412.903655 194.920497 
L 411.990198 194.912783 
L 411.116599 194.905069 
L 410.288534 194.897355 
L 409.511502 194.889641 
L 408.790769 194.881927 
L 408.131306 194.874213 
L 407.537737 194.866499 
L 407.014278 194.858784 
L 406.564696 194.85107 
L 406.192256 194.843356 
L 405.899688 194.835642 
L 405.68915 194.827928 
L 405.562203 194.820214 
L 405.519792 194.8125 
L 473.855208 194.8125 
L 473.855208 194.8125 
L 473.812797 194.820214 
L 473.68585 194.827928 
L 473.475312 194.835642 
L 473.182744 194.843356 
L 472.810304 194.85107 
L 472.360722 194.858784 
L 471.837263 194.866499 
L 471.243694 194.874213 
L 470.584231 194.881927 
L 469.863498 194.889641 
L 469.086466 194.897355 
L 468.258401 194.905069 
L 467.384802 194.912783 
L 466.471345 194.920497 
L 465.523818 194.928211 
L 464.548064 194.935925 
L 463.549923 194.943639 
L 462.535172 194.951353 
L 461.509479 194.959067 
L 460.478346 194.966781 
L 459.447069 194.974496 
L 458.420697 194.98221 
L 457.403994 194.989924 
L 456.40141 194.997638 
L 455.41706 195.005352 
L 454.4547 195.013066 
L 453.51772 195.02078 
L 452.609129 195.028494 
L 451.731558 195.036208 
L 450.887262 195.043922 
L 450.078123 195.051636 
L 449.305669 195.05935 
L 448.57108 195.067064 
L 447.875213 195.074778 
L 447.218623 195.082493 
L 446.60158 195.090207 
L 446.024104 195.097921 
L 445.485982 195.105635 
L 444.986801 195.113349 
L 444.525974 195.121063 
L 444.102767 195.128777 
L 443.716325 195.136491 
L 443.365696 195.144205 
L 443.049861 195.151919 
L 442.76775 195.159633 
L 442.518268 195.167347 
L 442.300309 195.175061 
L 442.112778 195.182775 
L 441.954601 195.19049 
L 441.824737 195.198204 
L 441.722191 195.205918 
L 441.646019 195.213632 
L 441.595331 195.221346 
L 441.569296 195.22906 
L 441.567141 195.236774 
L 441.58815 195.244488 
L 441.631658 195.252202 
L 441.697048 195.259916 
L 441.783741 195.26763 
L 441.89119 195.275344 
L 442.01887 195.283058 
L 442.166263 195.290772 
L 442.332853 195.298487 
L 442.518108 195.306201 
L 442.721471 195.313915 
L 442.94235 195.321629 
L 443.1801 195.329343 
L 443.434015 195.337057 
L 443.703318 195.344771 
L 443.987152 195.352485 
L 444.284566 195.360199 
L 444.594516 195.367913 
L 444.915853 195.375627 
L 445.247322 195.383341 
L 445.58756 195.391055 
L 445.935097 195.39877 
L 446.288355 195.406484 
L 446.645658 195.414198 
L 447.005232 195.421912 
L 447.36522 195.429626 
L 447.723688 195.43734 
L 448.07864 195.445054 
L 448.428033 195.452768 
L 448.76979 195.460482 
L 449.101821 195.468196 
L 449.422042 195.47591 
L 449.72839 195.483624 
L 450.01885 195.491338 
L 450.29147 195.499052 
L 450.544383 195.506767 
L 450.775829 195.514481 
L 450.984174 195.522195 
L 451.167925 195.529909 
L 451.325753 195.537623 
L 451.456503 195.545337 
L 451.559212 195.553051 
L 451.633117 195.560765 
L 451.677666 195.568479 
L 451.692524 195.576193 
z
" style="fill:#1f77b4;fill-opacity:0.3;"/>
   </g>
   <g id="PolyCollection_4">
    <path clip-path="url(#p9a46702b76)" d="M 587.960708 347.551136 
L 564.755959 347.551136 
L 564.723988 346.008322 
L 564.719276 344.465507 
L 564.740783 342.922693 
L 564.787158 341.379878 
L 564.856747 339.837064 
L 564.947617 338.294249 
L 565.057579 336.751435 
L 565.18422 335.20862 
L 565.324932 333.665806 
L 565.476953 332.122991 
L 565.637399 330.580177 
L 565.803314 329.037362 
L 565.971706 327.494548 
L 566.139591 325.951733 
L 566.30404 324.408919 
L 566.462217 322.866104 
L 566.611425 321.32329 
L 566.74914 319.780475 
L 566.873051 318.237661 
L 566.98109 316.694846 
L 567.071464 315.152032 
L 567.14268 313.609217 
L 567.193559 312.066403 
L 567.223258 310.523588 
L 567.231276 308.980774 
L 567.217457 307.437959 
L 567.181991 305.895145 
L 567.125402 304.35233 
L 567.048539 302.809516 
L 566.952558 301.266701 
L 566.838894 299.723887 
L 566.709235 298.181072 
L 566.56549 296.638258 
L 566.409751 295.095443 
L 566.244254 293.552629 
L 566.071333 292.009814 
L 565.893377 290.467 
L 565.712783 288.924185 
L 565.531908 287.381371 
L 565.353021 285.838556 
L 565.178257 284.295742 
L 565.00957 282.752927 
L 564.84869 281.210112 
L 564.697084 279.667298 
L 564.555918 278.124483 
L 564.426025 276.581669 
L 564.307876 275.038854 
L 564.201559 273.49604 
L 564.106766 271.953225 
L 564.022777 270.410411 
L 563.948461 268.867596 
L 563.882281 267.324782 
L 563.822301 265.781967 
L 563.766208 264.239153 
L 563.711337 262.696338 
L 563.654701 261.153524 
L 563.593031 259.610709 
L 563.522822 258.067895 
L 563.440385 256.52508 
L 563.341901 254.982266 
L 563.223483 253.439451 
L 563.08124 251.896637 
L 562.911346 250.353822 
L 562.710109 248.811008 
L 562.474038 247.268193 
L 562.19992 245.725379 
L 561.884883 244.182564 
L 561.526464 242.63975 
L 561.122676 241.096935 
L 560.67206 239.554121 
L 560.173743 238.011306 
L 559.627481 236.468492 
L 559.033699 234.925677 
L 558.393517 233.382863 
L 557.708771 231.840048 
L 556.982025 230.297234 
L 556.216563 228.754419 
L 555.416382 227.211605 
L 554.586162 225.66879 
L 553.731235 224.125976 
L 552.857534 222.583161 
L 551.971536 221.040347 
L 551.080196 219.497532 
L 550.190864 217.954718 
L 549.311203 216.411903 
L 548.449093 214.869089 
L 547.612534 213.326274 
L 546.809542 211.78346 
L 546.048043 210.240645 
L 545.335765 208.697831 
L 544.680135 207.155016 
L 544.088176 205.612202 
L 543.566409 204.069387 
L 543.12076 202.526573 
L 542.756481 200.983758 
L 542.478072 199.440944 
L 542.289225 197.898129 
L 542.192766 196.355315 
L 542.190625 194.8125 
L 610.526042 194.8125 
L 610.526042 194.8125 
L 610.523901 196.355315 
L 610.427442 197.898129 
L 610.238595 199.440944 
L 609.960186 200.983758 
L 609.595907 202.526573 
L 609.150258 204.069387 
L 608.62849 205.612202 
L 608.036532 207.155016 
L 607.380902 208.697831 
L 606.668624 210.240645 
L 605.907124 211.78346 
L 605.104132 213.326274 
L 604.267574 214.869089 
L 603.405464 216.411903 
L 602.525803 217.954718 
L 601.63647 219.497532 
L 600.74513 221.040347 
L 599.859133 222.583161 
L 598.985432 224.125976 
L 598.130505 225.66879 
L 597.300285 227.211605 
L 596.500103 228.754419 
L 595.734642 230.297234 
L 595.007895 231.840048 
L 594.32315 233.382863 
L 593.682968 234.925677 
L 593.089186 236.468492 
L 592.542924 238.011306 
L 592.044607 239.554121 
L 591.593991 241.096935 
L 591.190203 242.63975 
L 590.831784 244.182564 
L 590.516747 245.725379 
L 590.242629 247.268193 
L 590.006558 248.811008 
L 589.805321 250.353822 
L 589.635427 251.896637 
L 589.493184 253.439451 
L 589.374766 254.982266 
L 589.276282 256.52508 
L 589.193845 258.067895 
L 589.123636 259.610709 
L 589.061966 261.153524 
L 589.005329 262.696338 
L 588.950458 264.239153 
L 588.894366 265.781967 
L 588.834386 267.324782 
L 588.768206 268.867596 
L 588.69389 270.410411 
L 588.609901 271.953225 
L 588.515107 273.49604 
L 588.408791 275.038854 
L 588.290642 276.581669 
L 588.160748 278.124483 
L 588.019582 279.667298 
L 587.867977 281.210112 
L 587.707097 282.752927 
L 587.538409 284.295742 
L 587.363645 285.838556 
L 587.184758 287.381371 
L 587.003884 288.924185 
L 586.82329 290.467 
L 586.645334 292.009814 
L 586.472413 293.552629 
L 586.306915 295.095443 
L 586.151177 296.638258 
L 586.007432 298.181072 
L 585.877773 299.723887 
L 585.764108 301.266701 
L 585.668127 302.809516 
L 585.591265 304.35233 
L 585.534676 305.895145 
L 585.499209 307.437959 
L 585.485391 308.980774 
L 585.493409 310.523588 
L 585.523108 312.066403 
L 585.573987 313.609217 
L 585.645202 315.152032 
L 585.735577 316.694846 
L 585.843616 318.237661 
L 585.967527 319.780475 
L 586.105242 321.32329 
L 586.254449 322.866104 
L 586.412627 324.408919 
L 586.577076 325.951733 
L 586.744961 327.494548 
L 586.913352 329.037362 
L 587.079267 330.580177 
L 587.239714 332.122991 
L 587.391734 333.665806 
L 587.532447 335.20862 
L 587.659088 336.751435 
L 587.76905 338.294249 
L 587.85992 339.837064 
L 587.929508 341.379878 
L 587.975883 342.922693 
L 587.997391 344.465507 
L 587.992679 346.008322 
L 587.960708 347.551136 
z
" style="fill:#1f77b4;fill-opacity:0.3;"/>
   </g>
   <g id="PolyCollection_5">
    <path clip-path="url(#p9a46702b76)" d="M 744.326734 277.291364 
L 681.7316 277.291364 
L 681.120495 275.632838 
L 680.616041 273.974312 
L 680.22191 272.315787 
L 679.940229 270.657261 
L 679.771501 268.998736 
L 679.71455 267.34021 
L 679.766504 265.681684 
L 679.922809 264.023159 
L 680.177279 262.364633 
L 680.522173 260.706108 
L 680.948312 259.047582 
L 681.445222 257.389056 
L 682.001303 255.730531 
L 682.604029 254.072005 
L 683.240156 252.41348 
L 683.895963 250.754954 
L 684.55749 249.096428 
L 685.210789 247.437903 
L 685.842178 245.779377 
L 686.438492 244.120852 
L 686.987319 242.462326 
L 687.477234 240.803801 
L 687.898012 239.145275 
L 688.240815 237.486749 
L 688.498361 235.828224 
L 688.665064 234.169698 
L 688.737138 232.511173 
L 688.712676 230.852647 
L 688.591691 229.194121 
L 688.376117 227.535596 
L 688.069782 225.87707 
L 687.678342 224.218545 
L 687.209179 222.560019 
L 686.671265 220.901493 
L 686.075003 219.242968 
L 685.432028 217.584442 
L 684.754993 215.925917 
L 684.057333 214.267391 
L 683.353007 212.608865 
L 682.656236 210.95034 
L 681.981231 209.291814 
L 681.341923 207.633289 
L 680.751696 205.974763 
L 680.223134 204.316237 
L 679.76778 202.657712 
L 679.395918 200.999186 
L 679.116385 199.340661 
L 678.936403 197.682135 
L 678.861458 196.023609 
L 678.895202 194.365084 
L 679.0394 192.706558 
L 679.293916 191.048033 
L 679.656736 189.389507 
L 680.124026 187.730981 
L 680.690232 186.072456 
L 681.348206 184.41393 
L 682.089371 182.755405 
L 682.9039 181.096879 
L 683.780928 179.438353 
L 684.708771 177.779828 
L 685.675158 176.121302 
L 686.667475 174.462777 
L 687.672999 172.804251 
L 688.679133 171.145725 
L 689.673637 169.4872 
L 690.64483 167.828674 
L 691.581793 166.170149 
L 692.474537 164.511623 
L 693.314155 162.853097 
L 694.092945 161.194572 
L 694.804511 159.536046 
L 695.443832 157.877521 
L 696.007305 156.218995 
L 696.492765 154.560469 
L 696.899469 152.901944 
L 697.228064 151.243418 
L 697.480532 149.584893 
L 697.660103 147.926367 
L 697.771166 146.267841 
L 697.819144 144.609316 
L 697.810372 142.95079 
L 697.751955 141.292265 
L 697.651618 139.633739 
L 697.517552 137.975213 
L 697.358255 136.316688 
L 697.182378 134.658162 
L 696.998567 132.999637 
L 696.815313 131.341111 
L 696.640811 129.682586 
L 696.482828 128.02406 
L 696.348578 126.365534 
L 696.244622 124.707009 
L 696.17677 123.048483 
L 696.150011 121.389958 
L 696.168452 119.731432 
L 696.235283 118.072906 
L 696.35275 116.414381 
L 696.522161 114.755855 
L 696.743891 113.09733 
L 729.314442 113.09733 
L 729.314442 113.09733 
L 729.536173 114.755855 
L 729.705583 116.414381 
L 729.823051 118.072906 
L 729.889881 119.731432 
L 729.908323 121.389958 
L 729.881564 123.048483 
L 729.813712 124.707009 
L 729.709755 126.365534 
L 729.575506 128.02406 
L 729.417522 129.682586 
L 729.24302 131.341111 
L 729.059766 132.999637 
L 728.875955 134.658162 
L 728.700078 136.316688 
L 728.540781 137.975213 
L 728.406715 139.633739 
L 728.306378 141.292265 
L 728.247961 142.95079 
L 728.23919 144.609316 
L 728.287168 146.267841 
L 728.39823 147.926367 
L 728.577802 149.584893 
L 728.830269 151.243418 
L 729.158864 152.901944 
L 729.565568 154.560469 
L 730.051028 156.218995 
L 730.614502 157.877521 
L 731.253823 159.536046 
L 731.965389 161.194572 
L 732.744179 162.853097 
L 733.583796 164.511623 
L 734.47654 166.170149 
L 735.413503 167.828674 
L 736.384697 169.4872 
L 737.3792 171.145725 
L 738.385335 172.804251 
L 739.390858 174.462777 
L 740.383175 176.121302 
L 741.349562 177.779828 
L 742.277405 179.438353 
L 743.154433 181.096879 
L 743.968963 182.755405 
L 744.710127 184.41393 
L 745.368102 186.072456 
L 745.934307 187.730981 
L 746.401597 189.389507 
L 746.764417 191.048033 
L 747.018933 192.706558 
L 747.163132 194.365084 
L 747.196875 196.023609 
L 747.12193 197.682135 
L 746.941948 199.340661 
L 746.662415 200.999186 
L 746.290553 202.657712 
L 745.835199 204.316237 
L 745.306637 205.974763 
L 744.71641 207.633289 
L 744.077102 209.291814 
L 743.402097 210.95034 
L 742.705326 212.608865 
L 742.001 214.267391 
L 741.30334 215.925917 
L 740.626306 217.584442 
L 739.98333 219.242968 
L 739.387068 220.901493 
L 738.849155 222.560019 
L 738.379991 224.218545 
L 737.988551 225.87707 
L 737.682217 227.535596 
L 737.466643 229.194121 
L 737.345657 230.852647 
L 737.321196 232.511173 
L 737.39327 234.169698 
L 737.559972 235.828224 
L 737.817518 237.486749 
L 738.160321 239.145275 
L 738.581099 240.803801 
L 739.071015 242.462326 
L 739.619842 244.120852 
L 740.216155 245.779377 
L 740.847545 247.437903 
L 741.500844 249.096428 
L 742.16237 250.754954 
L 742.818177 252.41348 
L 743.454305 254.072005 
L 744.05703 255.730531 
L 744.613111 257.389056 
L 745.110021 259.047582 
L 745.53616 260.706108 
L 745.881054 262.364633 
L 746.135524 264.023159 
L 746.29183 265.681684 
L 746.343784 267.34021 
L 746.286832 268.998736 
L 746.118104 270.657261 
L 745.836424 272.315787 
L 745.442293 273.974312 
L 744.937838 275.632838 
L 744.326734 277.291364 
z
" style="fill:#1f77b4;fill-opacity:0.3;"/>
   </g>
   <g id="matplotlib.axis_1">
    <g id="xtick_1">
     <g id="line2d_1">
      <defs>
       <path d="M 0 0 
L 0 3.5 
" id="m8d1501c346" style="stroke:#000000;stroke-width:0.8;"/>
      </defs>
      <g>
       <use style="stroke:#000000;stroke-width:0.8;" x="166.345833" xlink:href="#m8d1501c346" y="362.825"/>
      </g>
     </g>
     <g id="text_1">
      <!-- Defector -->
      <defs>
       <path d="M 19.671875 64.796875 
L 19.671875 8.109375 
L 31.59375 8.109375 
Q 46.6875 8.109375 53.6875 14.9375 
Q 60.6875 21.78125 60.6875 36.53125 
Q 60.6875 51.171875 53.6875 57.984375 
Q 46.6875 64.796875 31.59375 64.796875 
z
M 9.8125 72.90625 
L 30.078125 72.90625 
Q 51.265625 72.90625 61.171875 64.09375 
Q 71.09375 55.28125 71.09375 36.53125 
Q 71.09375 17.671875 61.125 8.828125 
Q 51.171875 0 30.078125 0 
L 9.8125 0 
z
" id="DejaVuSans-44"/>
       <path d="M 56.203125 29.59375 
L 56.203125 25.203125 
L 14.890625 25.203125 
Q 15.484375 15.921875 20.484375 11.0625 
Q 25.484375 6.203125 34.421875 6.203125 
Q 39.59375 6.203125 44.453125 7.46875 
Q 49.3125 8.734375 54.109375 11.28125 
L 54.109375 2.78125 
Q 49.265625 0.734375 44.1875 -0.34375 
Q 39.109375 -1.421875 33.890625 -1.421875 
Q 20.796875 -1.421875 13.15625 6.1875 
Q 5.515625 13.8125 5.515625 26.8125 
Q 5.515625 40.234375 12.765625 48.109375 
Q 20.015625 56 32.328125 56 
Q 43.359375 56 49.78125 48.890625 
Q 56.203125 41.796875 56.203125 29.59375 
z
M 47.21875 32.234375 
Q 47.125 39.59375 43.09375 43.984375 
Q 39.0625 48.390625 32.421875 48.390625 
Q 24.90625 48.390625 20.390625 44.140625 
Q 15.875 39.890625 15.1875 32.171875 
z
" id="DejaVuSans-65"/>
       <path d="M 37.109375 75.984375 
L 37.109375 68.5 
L 28.515625 68.5 
Q 23.6875 68.5 21.796875 66.546875 
Q 19.921875 64.59375 19.921875 59.515625 
L 19.921875 54.6875 
L 34.71875 54.6875 
L 34.71875 47.703125 
L 19.921875 47.703125 
L 19.921875 0 
L 10.890625 0 
L 10.890625 47.703125 
L 2.296875 47.703125 
L 2.296875 54.6875 
L 10.890625 54.6875 
L 10.890625 58.5 
Q 10.890625 67.625 15.140625 71.796875 
Q 19.390625 75.984375 28.609375 75.984375 
z
" id="DejaVuSans-66"/>
       <path d="M 48.78125 52.59375 
L 48.78125 44.1875 
Q 44.96875 46.296875 41.140625 47.34375 
Q 37.3125 48.390625 33.40625 48.390625 
Q 24.65625 48.390625 19.8125 42.84375 
Q 14.984375 37.3125 14.984375 27.296875 
Q 14.984375 17.28125 19.8125 11.734375 
Q 24.65625 6.203125 33.40625 6.203125 
Q 37.3125 6.203125 41.140625 7.25 
Q 44.96875 8.296875 48.78125 10.40625 
L 48.78125 2.09375 
Q 45.015625 0.34375 40.984375 -0.53125 
Q 36.96875 -1.421875 32.421875 -1.421875 
Q 20.0625 -1.421875 12.78125 6.34375 
Q 5.515625 14.109375 5.515625 27.296875 
Q 5.515625 40.671875 12.859375 48.328125 
Q 20.21875 56 33.015625 56 
Q 37.15625 56 41.109375 55.140625 
Q 45.0625 54.296875 48.78125 52.59375 
z
" id="DejaVuSans-63"/>
       <path d="M 18.3125 70.21875 
L 18.3125 54.6875 
L 36.8125 54.6875 
L 36.8125 47.703125 
L 18.3125 47.703125 
L 18.3125 18.015625 
Q 18.3125 11.328125 20.140625 9.421875 
Q 21.96875 7.515625 27.59375 7.515625 
L 36.8125 7.515625 
L 36.8125 0 
L 27.59375 0 
Q 17.1875 0 13.234375 3.875 
Q 9.28125 7.765625 9.28125 18.015625 
L 9.28125 47.703125 
L 2.6875 47.703125 
L 2.6875 54.6875 
L 9.28125 54.6875 
L 9.28125 70.21875 
z
" id="DejaVuSans-74"/>
       <path d="M 30.609375 48.390625 
Q 23.390625 48.390625 19.1875 42.75 
Q 14.984375 37.109375 14.984375 27.296875 
Q 14.984375 17.484375 19.15625 11.84375 
Q 23.34375 6.203125 30.609375 6.203125 
Q 37.796875 6.203125 41.984375 11.859375 
Q 46.1875 17.53125 46.1875 27.296875 
Q 46.1875 37.015625 41.984375 42.703125 
Q 37.796875 48.390625 30.609375 48.390625 
z
M 30.609375 56 
Q 42.328125 56 49.015625 48.375 
Q 55.71875 40.765625 55.71875 27.296875 
Q 55.71875 13.875 49.015625 6.21875 
Q 42.328125 -1.421875 30.609375 -1.421875 
Q 18.84375 -1.421875 12.171875 6.21875 
Q 5.515625 13.875 5.515625 27.296875 
Q 5.515625 40.765625 12.171875 48.375 
Q 18.84375 56 30.609375 56 
z
" id="DejaVuSans-6f"/>
       <path d="M 41.109375 46.296875 
Q 39.59375 47.171875 37.8125 47.578125 
Q 36.03125 48 33.890625 48 
Q 26.265625 48 22.1875 43.046875 
Q 18.109375 38.09375 18.109375 28.8125 
L 18.109375 0 
L 9.078125 0 
L 9.078125 54.6875 
L 18.109375 54.6875 
L 18.109375 46.1875 
Q 20.953125 51.171875 25.484375 53.578125 
Q 30.03125 56 36.53125 56 
Q 37.453125 56 38.578125 55.875 
Q 39.703125 55.765625 41.0625 55.515625 
z
" id="DejaVuSans-72"/>
      </defs>
      <g transform="translate(168.553333 404.365)rotate(-90)scale(0.08 -0.08)">
       <use xlink:href="#DejaVuSans-44"/>
       <use x="77.001953" xlink:href="#DejaVuSans-65"/>
       <use x="138.525391" xlink:href="#DejaVuSans-66"/>
       <use x="173.730469" xlink:href="#DejaVuSans-65"/>
       <use x="235.253906" xlink:href="#DejaVuSans-63"/>
       <use x="290.234375" xlink:href="#DejaVuSans-74"/>
       <use x="329.443359" xlink:href="#DejaVuSans-6f"/>
       <use x="390.625" xlink:href="#DejaVuSans-72"/>
      </g>
     </g>
    </g>
    <g id="xtick_2">
     <g id="line2d_2">
      <g>
       <use style="stroke:#000000;stroke-width:0.8;" x="303.016667" xlink:href="#m8d1501c346" y="362.825"/>
      </g>
     </g>
     <g id="text_2">
      <!-- Grudger -->
      <defs>
       <path d="M 59.515625 10.40625 
L 59.515625 29.984375 
L 43.40625 29.984375 
L 43.40625 38.09375 
L 69.28125 38.09375 
L 69.28125 6.78125 
Q 63.578125 2.734375 56.6875 0.65625 
Q 49.8125 -1.421875 42 -1.421875 
Q 24.90625 -1.421875 15.25 8.5625 
Q 5.609375 18.5625 5.609375 36.375 
Q 5.609375 54.25 15.25 64.234375 
Q 24.90625 74.21875 42 74.21875 
Q 49.125 74.21875 55.546875 72.453125 
Q 61.96875 70.703125 67.390625 67.28125 
L 67.390625 56.78125 
Q 61.921875 61.421875 55.765625 63.765625 
Q 49.609375 66.109375 42.828125 66.109375 
Q 29.4375 66.109375 22.71875 58.640625 
Q 16.015625 51.171875 16.015625 36.375 
Q 16.015625 21.625 22.71875 14.15625 
Q 29.4375 6.6875 42.828125 6.6875 
Q 48.046875 6.6875 52.140625 7.59375 
Q 56.25 8.5 59.515625 10.40625 
z
" id="DejaVuSans-47"/>
       <path d="M 8.5 21.578125 
L 8.5 54.6875 
L 17.484375 54.6875 
L 17.484375 21.921875 
Q 17.484375 14.15625 20.5 10.265625 
Q 23.53125 6.390625 29.59375 6.390625 
Q 36.859375 6.390625 41.078125 11.03125 
Q 45.3125 15.671875 45.3125 23.6875 
L 45.3125 54.6875 
L 54.296875 54.6875 
L 54.296875 0 
L 45.3125 0 
L 45.3125 8.40625 
Q 42.046875 3.421875 37.71875 1 
Q 33.40625 -1.421875 27.6875 -1.421875 
Q 18.265625 -1.421875 13.375 4.4375 
Q 8.5 10.296875 8.5 21.578125 
z
M 31.109375 56 
z
" id="DejaVuSans-75"/>
       <path d="M 45.40625 46.390625 
L 45.40625 75.984375 
L 54.390625 75.984375 
L 54.390625 0 
L 45.40625 0 
L 45.40625 8.203125 
Q 42.578125 3.328125 38.25 0.953125 
Q 33.9375 -1.421875 27.875 -1.421875 
Q 17.96875 -1.421875 11.734375 6.484375 
Q 5.515625 14.40625 5.515625 27.296875 
Q 5.515625 40.1875 11.734375 48.09375 
Q 17.96875 56 27.875 56 
Q 33.9375 56 38.25 53.625 
Q 42.578125 51.265625 45.40625 46.390625 
z
M 14.796875 27.296875 
Q 14.796875 17.390625 18.875 11.75 
Q 22.953125 6.109375 30.078125 6.109375 
Q 37.203125 6.109375 41.296875 11.75 
Q 45.40625 17.390625 45.40625 27.296875 
Q 45.40625 37.203125 41.296875 42.84375 
Q 37.203125 48.484375 30.078125 48.484375 
Q 22.953125 48.484375 18.875 42.84375 
Q 14.796875 37.203125 14.796875 27.296875 
z
" id="DejaVuSans-64"/>
       <path d="M 45.40625 27.984375 
Q 45.40625 37.75 41.375 43.109375 
Q 37.359375 48.484375 30.078125 48.484375 
Q 22.859375 48.484375 18.828125 43.109375 
Q 14.796875 37.75 14.796875 27.984375 
Q 14.796875 18.265625 18.828125 12.890625 
Q 22.859375 7.515625 30.078125 7.515625 
Q 37.359375 7.515625 41.375 12.890625 
Q 45.40625 18.265625 45.40625 27.984375 
z
M 54.390625 6.78125 
Q 54.390625 -7.171875 48.1875 -13.984375 
Q 42 -20.796875 29.203125 -20.796875 
Q 24.46875 -20.796875 20.265625 -20.09375 
Q 16.0625 -19.390625 12.109375 -17.921875 
L 12.109375 -9.1875 
Q 16.0625 -11.328125 19.921875 -12.34375 
Q 23.78125 -13.375 27.78125 -13.375 
Q 36.625 -13.375 41.015625 -8.765625 
Q 45.40625 -4.15625 45.40625 5.171875 
L 45.40625 9.625 
Q 42.625 4.78125 38.28125 2.390625 
Q 33.9375 0 27.875 0 
Q 17.828125 0 11.671875 7.65625 
Q 5.515625 15.328125 5.515625 27.984375 
Q 5.515625 40.671875 11.671875 48.328125 
Q 17.828125 56 27.875 56 
Q 33.9375 56 38.28125 53.609375 
Q 42.625 51.21875 45.40625 46.390625 
L 45.40625 54.6875 
L 54.390625 54.6875 
z
" id="DejaVuSans-67"/>
      </defs>
      <g transform="translate(305.224167 402.75125)rotate(-90)scale(0.08 -0.08)">
       <use xlink:href="#DejaVuSans-47"/>
       <use x="77.490234" xlink:href="#DejaVuSans-72"/>
       <use x="118.603516" xlink:href="#DejaVuSans-75"/>
       <use x="181.982422" xlink:href="#DejaVuSans-64"/>
       <use x="245.458984" xlink:href="#DejaVuSans-67"/>
       <use x="308.935547" xlink:href="#DejaVuSans-65"/>
       <use x="370.458984" xlink:href="#DejaVuSans-72"/>
      </g>
     </g>
    </g>
    <g id="xtick_3">
     <g id="line2d_3">
      <g>
       <use style="stroke:#000000;stroke-width:0.8;" x="439.6875" xlink:href="#m8d1501c346" y="362.825"/>
      </g>
     </g>
     <g id="text_3">
      <!-- Tit For Tat -->
      <defs>
       <path d="M -0.296875 72.90625 
L 61.375 72.90625 
L 61.375 64.59375 
L 35.5 64.59375 
L 35.5 0 
L 25.59375 0 
L 25.59375 64.59375 
L -0.296875 64.59375 
z
" id="DejaVuSans-54"/>
       <path d="M 9.421875 54.6875 
L 18.40625 54.6875 
L 18.40625 0 
L 9.421875 0 
z
M 9.421875 75.984375 
L 18.40625 75.984375 
L 18.40625 64.59375 
L 9.421875 64.59375 
z
" id="DejaVuSans-69"/>
       <path id="DejaVuSans-20"/>
       <path d="M 9.8125 72.90625 
L 51.703125 72.90625 
L 51.703125 64.59375 
L 19.671875 64.59375 
L 19.671875 43.109375 
L 48.578125 43.109375 
L 48.578125 34.8125 
L 19.671875 34.8125 
L 19.671875 0 
L 9.8125 0 
z
" id="DejaVuSans-46"/>
       <path d="M 34.28125 27.484375 
Q 23.390625 27.484375 19.1875 25 
Q 14.984375 22.515625 14.984375 16.5 
Q 14.984375 11.71875 18.140625 8.90625 
Q 21.296875 6.109375 26.703125 6.109375 
Q 34.1875 6.109375 38.703125 11.40625 
Q 43.21875 16.703125 43.21875 25.484375 
L 43.21875 27.484375 
z
M 52.203125 31.203125 
L 52.203125 0 
L 43.21875 0 
L 43.21875 8.296875 
Q 40.140625 3.328125 35.546875 0.953125 
Q 30.953125 -1.421875 24.3125 -1.421875 
Q 15.921875 -1.421875 10.953125 3.296875 
Q 6 8.015625 6 15.921875 
Q 6 25.140625 12.171875 29.828125 
Q 18.359375 34.515625 30.609375 34.515625 
L 43.21875 34.515625 
L 43.21875 35.40625 
Q 43.21875 41.609375 39.140625 45 
Q 35.0625 48.390625 27.6875 48.390625 
Q 23 48.390625 18.546875 47.265625 
Q 14.109375 46.140625 10.015625 43.890625 
L 10.015625 52.203125 
Q 14.9375 54.109375 19.578125 55.046875 
Q 24.21875 56 28.609375 56 
Q 40.484375 56 46.34375 49.84375 
Q 52.203125 43.703125 52.203125 31.203125 
z
" id="DejaVuSans-61"/>
      </defs>
      <g transform="translate(441.895 410.8375)rotate(-90)scale(0.08 -0.08)">
       <use xlink:href="#DejaVuSans-54"/>
       <use x="61.037109" xlink:href="#DejaVuSans-69"/>
       <use x="88.820312" xlink:href="#DejaVuSans-74"/>
       <use x="128.029297" xlink:href="#DejaVuSans-20"/>
       <use x="159.816406" xlink:href="#DejaVuSans-46"/>
       <use x="217.289062" xlink:href="#DejaVuSans-6f"/>
       <use x="278.470703" xlink:href="#DejaVuSans-72"/>
       <use x="319.583984" xlink:href="#DejaVuSans-20"/>
       <use x="351.371094" xlink:href="#DejaVuSans-54"/>
       <use x="412.205078" xlink:href="#DejaVuSans-61"/>
       <use x="473.484375" xlink:href="#DejaVuSans-74"/>
      </g>
     </g>
    </g>
    <g id="xtick_4">
     <g id="line2d_4">
      <g>
       <use style="stroke:#000000;stroke-width:0.8;" x="576.358333" xlink:href="#m8d1501c346" y="362.825"/>
      </g>
     </g>
     <g id="text_4">
      <!-- Cooperator -->
      <defs>
       <path d="M 64.40625 67.28125 
L 64.40625 56.890625 
Q 59.421875 61.53125 53.78125 63.8125 
Q 48.140625 66.109375 41.796875 66.109375 
Q 29.296875 66.109375 22.65625 58.46875 
Q 16.015625 50.828125 16.015625 36.375 
Q 16.015625 21.96875 22.65625 14.328125 
Q 29.296875 6.6875 41.796875 6.6875 
Q 48.140625 6.6875 53.78125 8.984375 
Q 59.421875 11.28125 64.40625 15.921875 
L 64.40625 5.609375 
Q 59.234375 2.09375 53.4375 0.328125 
Q 47.65625 -1.421875 41.21875 -1.421875 
Q 24.65625 -1.421875 15.125 8.703125 
Q 5.609375 18.84375 5.609375 36.375 
Q 5.609375 53.953125 15.125 64.078125 
Q 24.65625 74.21875 41.21875 74.21875 
Q 47.75 74.21875 53.53125 72.484375 
Q 59.328125 70.75 64.40625 67.28125 
z
" id="DejaVuSans-43"/>
       <path d="M 18.109375 8.203125 
L 18.109375 -20.796875 
L 9.078125 -20.796875 
L 9.078125 54.6875 
L 18.109375 54.6875 
L 18.109375 46.390625 
Q 20.953125 51.265625 25.265625 53.625 
Q 29.59375 56 35.59375 56 
Q 45.5625 56 51.78125 48.09375 
Q 58.015625 40.1875 58.015625 27.296875 
Q 58.015625 14.40625 51.78125 6.484375 
Q 45.5625 -1.421875 35.59375 -1.421875 
Q 29.59375 -1.421875 25.265625 0.953125 
Q 20.953125 3.328125 18.109375 8.203125 
z
M 48.6875 27.296875 
Q 48.6875 37.203125 44.609375 42.84375 
Q 40.53125 48.484375 33.40625 48.484375 
Q 26.265625 48.484375 22.1875 42.84375 
Q 18.109375 37.203125 18.109375 27.296875 
Q 18.109375 17.390625 22.1875 11.75 
Q 26.265625 6.109375 33.40625 6.109375 
Q 40.53125 6.109375 44.609375 11.75 
Q 48.6875 17.390625 48.6875 27.296875 
z
" id="DejaVuSans-70"/>
      </defs>
      <g transform="translate(578.565833 414.71375)rotate(-90)scale(0.08 -0.08)">
       <use xlink:href="#DejaVuSans-43"/>
       <use x="69.824219" xlink:href="#DejaVuSans-6f"/>
       <use x="131.005859" xlink:href="#DejaVuSans-6f"/>
       <use x="192.1875" xlink:href="#DejaVuSans-70"/>
       <use x="255.664062" xlink:href="#DejaVuSans-65"/>
       <use x="317.1875" xlink:href="#DejaVuSans-72"/>
       <use x="358.300781" xlink:href="#DejaVuSans-61"/>
       <use x="419.580078" xlink:href="#DejaVuSans-74"/>
       <use x="458.789062" xlink:href="#DejaVuSans-6f"/>
       <use x="519.970703" xlink:href="#DejaVuSans-72"/>
      </g>
     </g>
    </g>
    <g id="xtick_5">
     <g id="line2d_5">
      <g>
       <use style="stroke:#000000;stroke-width:0.8;" x="713.029167" xlink:href="#m8d1501c346" y="362.825"/>
      </g>
     </g>
     <g id="text_5">
      <!-- Random: 0.5 -->
      <defs>
       <path d="M 44.390625 34.1875 
Q 47.5625 33.109375 50.5625 29.59375 
Q 53.5625 26.078125 56.59375 19.921875 
L 66.609375 0 
L 56 0 
L 46.6875 18.703125 
Q 43.0625 26.03125 39.671875 28.421875 
Q 36.28125 30.8125 30.421875 30.8125 
L 19.671875 30.8125 
L 19.671875 0 
L 9.8125 0 
L 9.8125 72.90625 
L 32.078125 72.90625 
Q 44.578125 72.90625 50.734375 67.671875 
Q 56.890625 62.453125 56.890625 51.90625 
Q 56.890625 45.015625 53.6875 40.46875 
Q 50.484375 35.9375 44.390625 34.1875 
z
M 19.671875 64.796875 
L 19.671875 38.921875 
L 32.078125 38.921875 
Q 39.203125 38.921875 42.84375 42.21875 
Q 46.484375 45.515625 46.484375 51.90625 
Q 46.484375 58.296875 42.84375 61.546875 
Q 39.203125 64.796875 32.078125 64.796875 
z
" id="DejaVuSans-52"/>
       <path d="M 54.890625 33.015625 
L 54.890625 0 
L 45.90625 0 
L 45.90625 32.71875 
Q 45.90625 40.484375 42.875 44.328125 
Q 39.84375 48.1875 33.796875 48.1875 
Q 26.515625 48.1875 22.3125 43.546875 
Q 18.109375 38.921875 18.109375 30.90625 
L 18.109375 0 
L 9.078125 0 
L 9.078125 54.6875 
L 18.109375 54.6875 
L 18.109375 46.1875 
Q 21.34375 51.125 25.703125 53.5625 
Q 30.078125 56 35.796875 56 
Q 45.21875 56 50.046875 50.171875 
Q 54.890625 44.34375 54.890625 33.015625 
z
" id="DejaVuSans-6e"/>
       <path d="M 52 44.1875 
Q 55.375 50.25 60.0625 53.125 
Q 64.75 56 71.09375 56 
Q 79.640625 56 84.28125 50.015625 
Q 88.921875 44.046875 88.921875 33.015625 
L 88.921875 0 
L 79.890625 0 
L 79.890625 32.71875 
Q 79.890625 40.578125 77.09375 44.375 
Q 74.3125 48.1875 68.609375 48.1875 
Q 61.625 48.1875 57.5625 43.546875 
Q 53.515625 38.921875 53.515625 30.90625 
L 53.515625 0 
L 44.484375 0 
L 44.484375 32.71875 
Q 44.484375 40.625 41.703125 44.40625 
Q 38.921875 48.1875 33.109375 48.1875 
Q 26.21875 48.1875 22.15625 43.53125 
Q 18.109375 38.875 18.109375 30.90625 
L 18.109375 0 
L 9.078125 0 
L 9.078125 54.6875 
L 18.109375 54.6875 
L 18.109375 46.1875 
Q 21.1875 51.21875 25.484375 53.609375 
Q 29.78125 56 35.6875 56 
Q 41.65625 56 45.828125 52.96875 
Q 50 49.953125 52 44.1875 
z
" id="DejaVuSans-6d"/>
       <path d="M 11.71875 12.40625 
L 22.015625 12.40625 
L 22.015625 0 
L 11.71875 0 
z
M 11.71875 51.703125 
L 22.015625 51.703125 
L 22.015625 39.3125 
L 11.71875 39.3125 
z
" id="DejaVuSans-3a"/>
       <path d="M 31.78125 66.40625 
Q 24.171875 66.40625 20.328125 58.90625 
Q 16.5 51.421875 16.5 36.375 
Q 16.5 21.390625 20.328125 13.890625 
Q 24.171875 6.390625 31.78125 6.390625 
Q 39.453125 6.390625 43.28125 13.890625 
Q 47.125 21.390625 47.125 36.375 
Q 47.125 51.421875 43.28125 58.90625 
Q 39.453125 66.40625 31.78125 66.40625 
z
M 31.78125 74.21875 
Q 44.046875 74.21875 50.515625 64.515625 
Q 56.984375 54.828125 56.984375 36.375 
Q 56.984375 17.96875 50.515625 8.265625 
Q 44.046875 -1.421875 31.78125 -1.421875 
Q 19.53125 -1.421875 13.0625 8.265625 
Q 6.59375 17.96875 6.59375 36.375 
Q 6.59375 54.828125 13.0625 64.515625 
Q 19.53125 74.21875 31.78125 74.21875 
z
" id="DejaVuSans-30"/>
       <path d="M 10.6875 12.40625 
L 21 12.40625 
L 21 0 
L 10.6875 0 
z
" id="DejaVuSans-2e"/>
       <path d="M 10.796875 72.90625 
L 49.515625 72.90625 
L 49.515625 64.59375 
L 19.828125 64.59375 
L 19.828125 46.734375 
Q 21.96875 47.46875 24.109375 47.828125 
Q 26.265625 48.1875 28.421875 48.1875 
Q 40.625 48.1875 47.75 41.5 
Q 54.890625 34.8125 54.890625 23.390625 
Q 54.890625 11.625 47.5625 5.09375 
Q 40.234375 -1.421875 26.90625 -1.421875 
Q 22.3125 -1.421875 17.546875 -0.640625 
Q 12.796875 0.140625 7.71875 1.703125 
L 7.71875 11.625 
Q 12.109375 9.234375 16.796875 8.0625 
Q 21.484375 6.890625 26.703125 6.890625 
Q 35.15625 6.890625 40.078125 11.328125 
Q 45.015625 15.765625 45.015625 23.390625 
Q 45.015625 31 40.078125 35.4375 
Q 35.15625 39.890625 26.703125 39.890625 
Q 22.75 39.890625 18.8125 39.015625 
Q 14.890625 38.140625 10.796875 36.28125 
z
" id="DejaVuSans-35"/>
      </defs>
      <g transform="translate(715.236667 421.08)rotate(-90)scale(0.08 -0.08)">
       <use xlink:href="#DejaVuSans-52"/>
       <use x="69.451172" xlink:href="#DejaVuSans-61"/>
       <use x="130.730469" xlink:href="#DejaVuSans-6e"/>
       <use x="194.109375" xlink:href="#DejaVuSans-64"/>
       <use x="257.585938" xlink:href="#DejaVuSans-6f"/>
       <use x="318.767578" xlink:href="#DejaVuSans-6d"/>
       <use x="416.179688" xlink:href="#DejaVuSans-3a"/>
       <use x="449.871094" xlink:href="#DejaVuSans-20"/>
       <use x="481.658203" xlink:href="#DejaVuSans-30"/>
       <use x="545.28125" xlink:href="#DejaVuSans-2e"/>
       <use x="577.068359" xlink:href="#DejaVuSans-35"/>
      </g>
     </g>
    </g>
   </g>
   <g id="matplotlib.axis_2">
    <g id="ytick_1">
     <g id="line2d_6">
      <defs>
       <path d="M 0 0 
L -3.5 0 
" id="meedcf8caaa" style="stroke:#000000;stroke-width:0.8;"/>
      </defs>
      <g>
       <use style="stroke:#000000;stroke-width:0.8;" x="29.675" xlink:href="#meedcf8caaa" y="317.003409"/>
      </g>
     </g>
     <g id="text_6">
      <!-- −4 -->
      <defs>
       <path d="M 10.59375 35.5 
L 73.1875 35.5 
L 73.1875 27.203125 
L 10.59375 27.203125 
z
" id="DejaVuSans-2212"/>
       <path d="M 37.796875 64.3125 
L 12.890625 25.390625 
L 37.796875 25.390625 
z
M 35.203125 72.90625 
L 47.609375 72.90625 
L 47.609375 25.390625 
L 58.015625 25.390625 
L 58.015625 17.1875 
L 47.609375 17.1875 
L 47.609375 0 
L 37.796875 0 
L 37.796875 17.1875 
L 4.890625 17.1875 
L 4.890625 26.703125 
z
" id="DejaVuSans-34"/>
      </defs>
      <g transform="translate(10.88125 320.042784)scale(0.08 -0.08)">
       <use xlink:href="#DejaVuSans-2212"/>
       <use x="83.789062" xlink:href="#DejaVuSans-34"/>
      </g>
     </g>
    </g>
    <g id="ytick_2">
     <g id="line2d_7">
      <g>
       <use style="stroke:#000000;stroke-width:0.8;" x="29.675" xlink:href="#meedcf8caaa" y="255.907955"/>
      </g>
     </g>
     <g id="text_7">
      <!-- −2 -->
      <defs>
       <path d="M 19.1875 8.296875 
L 53.609375 8.296875 
L 53.609375 0 
L 7.328125 0 
L 7.328125 8.296875 
Q 12.9375 14.109375 22.625 23.890625 
Q 32.328125 33.6875 34.8125 36.53125 
Q 39.546875 41.84375 41.421875 45.53125 
Q 43.3125 49.21875 43.3125 52.78125 
Q 43.3125 58.59375 39.234375 62.25 
Q 35.15625 65.921875 28.609375 65.921875 
Q 23.96875 65.921875 18.8125 64.3125 
Q 13.671875 62.703125 7.8125 59.421875 
L 7.8125 69.390625 
Q 13.765625 71.78125 18.9375 73 
Q 24.125 74.21875 28.421875 74.21875 
Q 39.75 74.21875 46.484375 68.546875 
Q 53.21875 62.890625 53.21875 53.421875 
Q 53.21875 48.921875 51.53125 44.890625 
Q 49.859375 40.875 45.40625 35.40625 
Q 44.1875 33.984375 37.640625 27.21875 
Q 31.109375 20.453125 19.1875 8.296875 
z
" id="DejaVuSans-32"/>
      </defs>
      <g transform="translate(10.88125 258.94733)scale(0.08 -0.08)">
       <use xlink:href="#DejaVuSans-2212"/>
       <use x="83.789062" xlink:href="#DejaVuSans-32"/>
      </g>
     </g>
    </g>
    <g id="ytick_3">
     <g id="line2d_8">
      <g>
       <use style="stroke:#000000;stroke-width:0.8;" x="29.675" xlink:href="#meedcf8caaa" y="194.8125"/>
      </g>
     </g>
     <g id="text_8">
      <!-- 0 -->
      <g transform="translate(17.585 197.851875)scale(0.08 -0.08)">
       <use xlink:href="#DejaVuSans-30"/>
      </g>
     </g>
    </g>
    <g id="ytick_4">
     <g id="line2d_9">
      <g>
       <use style="stroke:#000000;stroke-width:0.8;" x="29.675" xlink:href="#meedcf8caaa" y="133.717045"/>
      </g>
     </g>
     <g id="text_9">
      <!-- 2 -->
      <g transform="translate(17.585 136.75642)scale(0.08 -0.08)">
       <use xlink:href="#DejaVuSans-32"/>
      </g>
     </g>
    </g>
    <g id="ytick_5">
     <g id="line2d_10">
      <g>
       <use style="stroke:#000000;stroke-width:0.8;" x="29.675" xlink:href="#meedcf8caaa" y="72.621591"/>
      </g>
     </g>
     <g id="text_10">
      <!-- 4 -->
      <g transform="translate(17.585 75.660966)scale(0.08 -0.08)">
       <use xlink:href="#DejaVuSans-34"/>
      </g>
     </g>
    </g>
   </g>
   <g id="LineCollection_1">
    <path clip-path="url(#p9a46702b76)" d="M 149.261979 194.048807 
L 183.429688 194.048807 
" style="fill:none;stroke:#1f77b4;stroke-width:1.5;"/>
    <path clip-path="url(#p9a46702b76)" d="M 285.932813 194.8125 
L 320.100521 194.8125 
" style="fill:none;stroke:#1f77b4;stroke-width:1.5;"/>
    <path clip-path="url(#p9a46702b76)" d="M 422.603646 194.8125 
L 456.771354 194.8125 
" style="fill:none;stroke:#1f77b4;stroke-width:1.5;"/>
    <path clip-path="url(#p9a46702b76)" d="M 559.274479 194.8125 
L 593.442188 194.8125 
" style="fill:none;stroke:#1f77b4;stroke-width:1.5;"/>
    <path clip-path="url(#p9a46702b76)" d="M 695.945312 194.8125 
L 730.113021 194.8125 
" style="fill:none;stroke:#1f77b4;stroke-width:1.5;"/>
   </g>
   <g id="patch_3">
    <path d="M 29.675 362.825 
L 29.675 26.8 
" style="fill:none;stroke:#000000;stroke-linecap:square;stroke-linejoin:miter;stroke-width:0.8;"/>
   </g>
   <g id="patch_4">
    <path d="M 849.7 362.825 
L 849.7 26.8 
" style="fill:none;stroke:#000000;stroke-linecap:square;stroke-linejoin:miter;stroke-width:0.8;"/>
   </g>
   <g id="patch_5">
    <path d="M 29.675 362.825 
L 849.7 362.825 
" style="fill:none;stroke:#000000;stroke-linecap:square;stroke-linejoin:miter;stroke-width:0.8;"/>
   </g>
   <g id="patch_6">
    <path d="M 29.675 26.8 
L 849.7 26.8 
" style="fill:none;stroke:#000000;stroke-linecap:square;stroke-linejoin:miter;stroke-width:0.8;"/>
   </g>
   <g id="text_11">
    <!-- axelrod - Payoff differences -->
    <defs>
     <path d="M 54.890625 54.6875 
L 35.109375 28.078125 
L 55.90625 0 
L 45.3125 0 
L 29.390625 21.484375 
L 13.484375 0 
L 2.875 0 
L 24.125 28.609375 
L 4.6875 54.6875 
L 15.28125 54.6875 
L 29.78125 35.203125 
L 44.28125 54.6875 
z
" id="DejaVuSans-78"/>
     <path d="M 9.421875 75.984375 
L 18.40625 75.984375 
L 18.40625 0 
L 9.421875 0 
z
" id="DejaVuSans-6c"/>
     <path d="M 4.890625 31.390625 
L 31.203125 31.390625 
L 31.203125 23.390625 
L 4.890625 23.390625 
z
" id="DejaVuSans-2d"/>
     <path d="M 19.671875 64.796875 
L 19.671875 37.40625 
L 32.078125 37.40625 
Q 38.96875 37.40625 42.71875 40.96875 
Q 46.484375 44.53125 46.484375 51.125 
Q 46.484375 57.671875 42.71875 61.234375 
Q 38.96875 64.796875 32.078125 64.796875 
z
M 9.8125 72.90625 
L 32.078125 72.90625 
Q 44.34375 72.90625 50.609375 67.359375 
Q 56.890625 61.8125 56.890625 51.125 
Q 56.890625 40.328125 50.609375 34.8125 
Q 44.34375 29.296875 32.078125 29.296875 
L 19.671875 29.296875 
L 19.671875 0 
L 9.8125 0 
z
" id="DejaVuSans-50"/>
     <path d="M 32.171875 -5.078125 
Q 28.375 -14.84375 24.75 -17.8125 
Q 21.140625 -20.796875 15.09375 -20.796875 
L 7.90625 -20.796875 
L 7.90625 -13.28125 
L 13.1875 -13.28125 
Q 16.890625 -13.28125 18.9375 -11.515625 
Q 21 -9.765625 23.484375 -3.21875 
L 25.09375 0.875 
L 2.984375 54.6875 
L 12.5 54.6875 
L 29.59375 11.921875 
L 46.6875 54.6875 
L 56.203125 54.6875 
z
" id="DejaVuSans-79"/>
     <path d="M 44.28125 53.078125 
L 44.28125 44.578125 
Q 40.484375 46.53125 36.375 47.5 
Q 32.28125 48.484375 27.875 48.484375 
Q 21.1875 48.484375 17.84375 46.4375 
Q 14.5 44.390625 14.5 40.28125 
Q 14.5 37.15625 16.890625 35.375 
Q 19.28125 33.59375 26.515625 31.984375 
L 29.59375 31.296875 
Q 39.15625 29.25 43.1875 25.515625 
Q 47.21875 21.78125 47.21875 15.09375 
Q 47.21875 7.46875 41.1875 3.015625 
Q 35.15625 -1.421875 24.609375 -1.421875 
Q 20.21875 -1.421875 15.453125 -0.5625 
Q 10.6875 0.296875 5.421875 2 
L 5.421875 11.28125 
Q 10.40625 8.6875 15.234375 7.390625 
Q 20.0625 6.109375 24.8125 6.109375 
Q 31.15625 6.109375 34.5625 8.28125 
Q 37.984375 10.453125 37.984375 14.40625 
Q 37.984375 18.0625 35.515625 20.015625 
Q 33.0625 21.96875 24.703125 23.78125 
L 21.578125 24.515625 
Q 13.234375 26.265625 9.515625 29.90625 
Q 5.8125 33.546875 5.8125 39.890625 
Q 5.8125 47.609375 11.28125 51.796875 
Q 16.75 56 26.8125 56 
Q 31.78125 56 36.171875 55.265625 
Q 40.578125 54.546875 44.28125 53.078125 
z
" id="DejaVuSans-73"/>
    </defs>
    <g transform="translate(357.0675 20.8)scale(0.12 -0.12)">
     <use xlink:href="#DejaVuSans-61"/>
     <use x="61.279297" xlink:href="#DejaVuSans-78"/>
     <use x="120.412109" xlink:href="#DejaVuSans-65"/>
     <use x="181.935547" xlink:href="#DejaVuSans-6c"/>
     <use x="209.71875" xlink:href="#DejaVuSans-72"/>
     <use x="250.800781" xlink:href="#DejaVuSans-6f"/>
     <use x="311.982422" xlink:href="#DejaVuSans-64"/>
     <use x="375.458984" xlink:href="#DejaVuSans-20"/>
     <use x="407.246094" xlink:href="#DejaVuSans-2d"/>
     <use x="443.330078" xlink:href="#DejaVuSans-20"/>
     <use x="475.117188" xlink:href="#DejaVuSans-50"/>
     <use x="535.357422" xlink:href="#DejaVuSans-61"/>
     <use x="596.636719" xlink:href="#DejaVuSans-79"/>
     <use x="655.816406" xlink:href="#DejaVuSans-6f"/>
     <use x="716.998047" xlink:href="#DejaVuSans-66"/>
     <use x="752.203125" xlink:href="#DejaVuSans-66"/>
     <use x="787.408203" xlink:href="#DejaVuSans-20"/>
     <use x="819.195312" xlink:href="#DejaVuSans-64"/>
     <use x="882.671875" xlink:href="#DejaVuSans-69"/>
     <use x="910.455078" xlink:href="#DejaVuSans-66"/>
     <use x="945.660156" xlink:href="#DejaVuSans-66"/>
     <use x="980.865234" xlink:href="#DejaVuSans-65"/>
     <use x="1042.388672" xlink:href="#DejaVuSans-72"/>
     <use x="1083.470703" xlink:href="#DejaVuSans-65"/>
     <use x="1144.994141" xlink:href="#DejaVuSans-6e"/>
     <use x="1208.373047" xlink:href="#DejaVuSans-63"/>
     <use x="1263.353516" xlink:href="#DejaVuSans-65"/>
     <use x="1324.876953" xlink:href="#DejaVuSans-73"/>
    </g>
   </g>
  </g>
 </g>
 <defs>
  <clipPath id="p9a46702b76">
   <rect height="336.025" width="820.025" x="29.675" y="26.8"/>
  </clipPath>
 </defs>
</svg>
