<?xml version="1.0" encoding="utf-8" standalone="no"?>
<!DOCTYPE svg PUBLIC "-//W3C//DTD SVG 1.1//EN"
  "http://www.w3.org/Graphics/SVG/1.1/DTD/svg11.dtd">
<!-- Created with matplotlib (http://matplotlib.org/) -->
<svg height="432pt" version="1.1" viewBox="0 0 864 432" width="864pt" xmlns="http://www.w3.org/2000/svg" xmlns:xlink="http://www.w3.org/1999/xlink">
 <defs>
  <style type="text/css">
*{stroke-linecap:butt;stroke-linejoin:round;}
  </style>
 </defs>
 <g id="figure_1">
  <g id="patch_1">
   <path d="M 0 432 
L 864 432 
L 864 0 
L 0 0 
z
" style="fill:#ffffff;"/>
  </g>
  <g id="axes_1">
   <g id="patch_2">
    <path d="M 30.55 362.825 
L 849.7 362.825 
L 849.7 26.8 
L 30.55 26.8 
z
" style="fill:#ffffff;"/>
   </g>
   <g id="PolyCollection_1">
    <path clip-path="url(#p3971f9046e)" d="M 177.204306 84.102616 
L 156.945694 84.102616 
L 156.431511 83.688438 
L 155.89683 83.274259 
L 155.340717 82.860081 
L 154.762325 82.445902 
L 154.160937 82.031724 
L 153.535994 81.617546 
L 152.887144 81.203367 
L 152.214267 80.789189 
L 151.517518 80.37501 
L 150.797358 79.960832 
L 150.054577 79.546654 
L 149.290326 79.132475 
L 148.506128 78.718297 
L 147.703896 78.304118 
L 146.885935 77.88994 
L 146.054945 77.475762 
L 145.21401 77.061583 
L 144.366583 76.647405 
L 143.516464 76.233226 
L 142.667771 75.819048 
L 141.824899 75.40487 
L 140.992485 74.990691 
L 140.175353 74.576513 
L 139.378465 74.162335 
L 138.606862 73.748156 
L 137.865607 73.333978 
L 137.159721 72.919799 
L 136.49412 72.505621 
L 135.873557 72.091443 
L 135.302555 71.677264 
L 134.785351 71.263086 
L 134.325844 70.848907 
L 133.927535 70.434729 
L 133.59349 70.020551 
L 133.326291 69.606372 
L 133.12801 69.192194 
L 133.000174 68.778015 
L 132.94375 68.363837 
L 132.959133 67.949659 
L 133.046138 67.53548 
L 133.204009 67.121302 
L 133.431425 66.707123 
L 133.726523 66.292945 
L 134.086921 65.878767 
L 134.509753 65.464588 
L 134.991708 65.05041 
L 135.529071 64.636232 
L 136.117774 64.222053 
L 136.753446 63.807875 
L 137.431471 63.393696 
L 138.14704 62.979518 
L 138.895212 62.56534 
L 139.670967 62.151161 
L 140.469264 61.736983 
L 141.285094 61.322804 
L 142.11353 60.908626 
L 142.949772 60.494448 
L 143.789195 60.080269 
L 144.62738 59.666091 
L 145.460153 59.251912 
L 146.283608 58.837734 
L 147.094133 58.423556 
L 147.888425 58.009377 
L 148.663503 57.595199 
L 149.416715 57.18102 
L 150.145738 56.766842 
L 150.848585 56.352664 
L 151.523592 55.938485 
L 152.169412 55.524307 
L 152.785011 55.110129 
L 153.369648 54.69595 
L 153.922869 54.281772 
L 154.444485 53.867593 
L 154.934567 53.453415 
L 155.39342 53.039237 
L 155.821576 52.625058 
L 156.219774 52.21088 
L 156.588946 51.796701 
L 156.930203 51.382523 
L 157.244818 50.968345 
L 157.534211 50.554166 
L 157.799933 50.139988 
L 158.043651 49.725809 
L 158.267131 49.311631 
L 158.47222 48.897453 
L 158.660832 48.483274 
L 158.834921 48.069096 
L 158.996472 47.654917 
L 159.14747 47.240739 
L 159.289891 46.826561 
L 159.42567 46.412382 
L 159.556687 45.998204 
L 159.684745 45.584026 
L 159.811548 45.169847 
L 159.938683 44.755669 
L 160.067603 44.34149 
L 160.199612 43.927312 
L 160.335846 43.513134 
L 160.477269 43.098955 
L 173.672731 43.098955 
L 173.672731 43.098955 
L 173.814154 43.513134 
L 173.950388 43.927312 
L 174.082397 44.34149 
L 174.211317 44.755669 
L 174.338452 45.169847 
L 174.465255 45.584026 
L 174.593313 45.998204 
L 174.72433 46.412382 
L 174.860109 46.826561 
L 175.00253 47.240739 
L 175.153528 47.654917 
L 175.315079 48.069096 
L 175.489168 48.483274 
L 175.67778 48.897453 
L 175.882869 49.311631 
L 176.106349 49.725809 
L 176.350067 50.139988 
L 176.615789 50.554166 
L 176.905182 50.968345 
L 177.219797 51.382523 
L 177.561054 51.796701 
L 177.930226 52.21088 
L 178.328424 52.625058 
L 178.75658 53.039237 
L 179.215433 53.453415 
L 179.705515 53.867593 
L 180.227131 54.281772 
L 180.780352 54.69595 
L 181.364989 55.110129 
L 181.980588 55.524307 
L 182.626408 55.938485 
L 183.301415 56.352664 
L 184.004262 56.766842 
L 184.733285 57.18102 
L 185.486497 57.595199 
L 186.261575 58.009377 
L 187.055867 58.423556 
L 187.866392 58.837734 
L 188.689847 59.251912 
L 189.52262 59.666091 
L 190.360805 60.080269 
L 191.200228 60.494448 
L 192.03647 60.908626 
L 192.864906 61.322804 
L 193.680736 61.736983 
L 194.479033 62.151161 
L 195.254788 62.56534 
L 196.00296 62.979518 
L 196.718529 63.393696 
L 197.396554 63.807875 
L 198.032226 64.222053 
L 198.620929 64.636232 
L 199.158292 65.05041 
L 199.640247 65.464588 
L 200.063079 65.878767 
L 200.423477 66.292945 
L 200.718575 66.707123 
L 200.945991 67.121302 
L 201.103862 67.53548 
L 201.190867 67.949659 
L 201.20625 68.363837 
L 201.149826 68.778015 
L 201.02199 69.192194 
L 200.823709 69.606372 
L 200.55651 70.020551 
L 200.222465 70.434729 
L 199.824156 70.848907 
L 199.364649 71.263086 
L 198.847445 71.677264 
L 198.276443 72.091443 
L 197.65588 72.505621 
L 196.990279 72.919799 
L 196.284393 73.333978 
L 195.543138 73.748156 
L 194.771535 74.162335 
L 193.974647 74.576513 
L 193.157515 74.990691 
L 192.325101 75.40487 
L 191.482229 75.819048 
L 190.633536 76.233226 
L 189.783417 76.647405 
L 188.93599 77.061583 
L 188.095055 77.475762 
L 187.264065 77.88994 
L 186.446104 78.304118 
L 185.643872 78.718297 
L 184.859674 79.132475 
L 184.095423 79.546654 
L 183.352642 79.960832 
L 182.632482 80.37501 
L 181.935733 80.789189 
L 181.262856 81.203367 
L 180.614006 81.617546 
L 179.989063 82.031724 
L 179.387675 82.445902 
L 178.809283 82.860081 
L 178.25317 83.274259 
L 177.718489 83.688438 
L 177.204306 84.102616 
z
" style="fill:#1f77b4;fill-opacity:0.3;"/>
   </g>
   <g id="PolyCollection_2">
    <path clip-path="url(#p3971f9046e)" d="M 328.582907 88.202982 
L 278.617093 88.202982 
L 278.126199 87.737031 
L 277.655432 87.271081 
L 277.205007 86.80513 
L 276.774975 86.339179 
L 276.36523 85.873229 
L 275.975514 85.407278 
L 275.60543 84.941327 
L 275.254451 84.475376 
L 274.92193 84.009426 
L 274.607119 83.543475 
L 274.309181 83.077524 
L 274.027208 82.611574 
L 273.760239 82.145623 
L 273.507275 81.679672 
L 273.267299 81.213722 
L 273.039291 80.747771 
L 272.822251 80.28182 
L 272.615207 79.81587 
L 272.417237 79.349919 
L 272.227478 78.883968 
L 272.045142 78.418017 
L 271.869527 77.952067 
L 271.700023 77.486116 
L 271.536118 77.020165 
L 271.377408 76.554215 
L 271.223597 76.088264 
L 271.074494 75.622313 
L 270.930019 75.156363 
L 270.790191 74.690412 
L 270.655129 74.224461 
L 270.525044 73.758511 
L 270.400228 73.29256 
L 270.281045 72.826609 
L 270.167921 72.360659 
L 270.061331 71.894708 
L 269.96179 71.428757 
L 269.869832 70.962806 
L 269.786009 70.496856 
L 269.710868 70.030905 
L 269.644945 69.564954 
L 269.588752 69.099004 
L 269.542766 68.633053 
L 269.50742 68.167102 
L 269.483097 67.701152 
L 269.47012 67.235201 
L 269.46875 66.76925 
L 269.47918 66.3033 
L 269.501536 65.837349 
L 269.535874 65.371398 
L 269.582183 64.905447 
L 269.640387 64.439497 
L 269.710349 63.973546 
L 269.79188 63.507595 
L 269.884739 63.041645 
L 269.988647 62.575694 
L 270.103291 62.109743 
L 270.228337 61.643793 
L 270.363435 61.177842 
L 270.508233 60.711891 
L 270.662381 60.245941 
L 270.825545 59.77999 
L 270.997415 59.314039 
L 271.177711 58.848088 
L 271.36619 58.382138 
L 271.562656 57.916187 
L 271.766962 57.450236 
L 271.979015 56.984286 
L 272.198779 56.518335 
L 272.426278 56.052384 
L 272.661591 55.586434 
L 272.90486 55.120483 
L 273.156276 54.654532 
L 273.416086 54.188582 
L 273.684582 53.722631 
L 273.962097 53.25668 
L 274.248995 52.79073 
L 274.545671 52.324779 
L 274.852532 51.858828 
L 275.169997 51.392877 
L 275.498482 50.926927 
L 275.838392 50.460976 
L 276.190113 49.995025 
L 276.553999 49.529075 
L 276.930365 49.063124 
L 277.319479 48.597173 
L 277.721548 48.131223 
L 278.136718 47.665272 
L 278.565062 47.199321 
L 279.006574 46.733371 
L 279.461168 46.26742 
L 279.928669 45.801469 
L 280.408813 45.335518 
L 280.901245 44.869568 
L 281.40552 44.403617 
L 281.921098 43.937666 
L 282.447353 43.471716 
L 282.983573 43.005765 
L 283.528962 42.539814 
L 284.082646 42.073864 
L 323.117354 42.073864 
L 323.117354 42.073864 
L 323.671038 42.539814 
L 324.216427 43.005765 
L 324.752647 43.471716 
L 325.278902 43.937666 
L 325.79448 44.403617 
L 326.298755 44.869568 
L 326.791187 45.335518 
L 327.271331 45.801469 
L 327.738832 46.26742 
L 328.193426 46.733371 
L 328.634938 47.199321 
L 329.063282 47.665272 
L 329.478452 48.131223 
L 329.880521 48.597173 
L 330.269635 49.063124 
L 330.646001 49.529075 
L 331.009887 49.995025 
L 331.361608 50.460976 
L 331.701518 50.926927 
L 332.030003 51.392877 
L 332.347468 51.858828 
L 332.654329 52.324779 
L 332.951005 52.79073 
L 333.237903 53.25668 
L 333.515418 53.722631 
L 333.783914 54.188582 
L 334.043724 54.654532 
L 334.29514 55.120483 
L 334.538409 55.586434 
L 334.773722 56.052384 
L 335.001221 56.518335 
L 335.220985 56.984286 
L 335.433038 57.450236 
L 335.637344 57.916187 
L 335.83381 58.382138 
L 336.022289 58.848088 
L 336.202585 59.314039 
L 336.374455 59.77999 
L 336.537619 60.245941 
L 336.691767 60.711891 
L 336.836565 61.177842 
L 336.971663 61.643793 
L 337.096709 62.109743 
L 337.211353 62.575694 
L 337.315261 63.041645 
L 337.40812 63.507595 
L 337.489651 63.973546 
L 337.559613 64.439497 
L 337.617817 64.905447 
L 337.664126 65.371398 
L 337.698464 65.837349 
L 337.72082 66.3033 
L 337.73125 66.76925 
L 337.72988 67.235201 
L 337.716903 67.701152 
L 337.69258 68.167102 
L 337.657234 68.633053 
L 337.611248 69.099004 
L 337.555055 69.564954 
L 337.489132 70.030905 
L 337.413991 70.496856 
L 337.330168 70.962806 
L 337.23821 71.428757 
L 337.138669 71.894708 
L 337.032079 72.360659 
L 336.918955 72.826609 
L 336.799772 73.29256 
L 336.674956 73.758511 
L 336.544871 74.224461 
L 336.409809 74.690412 
L 336.269981 75.156363 
L 336.125506 75.622313 
L 335.976403 76.088264 
L 335.822592 76.554215 
L 335.663882 77.020165 
L 335.499977 77.486116 
L 335.330473 77.952067 
L 335.154858 78.418017 
L 334.972522 78.883968 
L 334.782763 79.349919 
L 334.584793 79.81587 
L 334.377749 80.28182 
L 334.160709 80.747771 
L 333.932701 81.213722 
L 333.692725 81.679672 
L 333.439761 82.145623 
L 333.172792 82.611574 
L 332.890819 83.077524 
L 332.592881 83.543475 
L 332.27807 84.009426 
L 331.945549 84.475376 
L 331.59457 84.941327 
L 331.224486 85.407278 
L 330.83477 85.873229 
L 330.425025 86.339179 
L 329.994993 86.80513 
L 329.544568 87.271081 
L 329.073801 87.737031 
L 328.582907 88.202982 
z
" style="fill:#1f77b4;fill-opacity:0.3;"/>
   </g>
   <g id="PolyCollection_3">
    <path clip-path="url(#p3971f9046e)" d="M 451.887732 153.808839 
L 428.362268 153.808839 
L 427.900827 153.549978 
L 427.434011 153.291116 
L 426.961219 153.032255 
L 426.481728 152.773393 
L 425.994709 152.514532 
L 425.499245 152.25567 
L 424.994357 151.996809 
L 424.479034 151.737947 
L 423.952262 151.479086 
L 423.413059 151.220224 
L 422.860515 150.961363 
L 422.293828 150.702501 
L 421.712348 150.44364 
L 421.115612 150.184778 
L 420.503386 149.925917 
L 419.875704 149.667055 
L 419.232899 149.408194 
L 418.575637 149.149332 
L 417.904941 148.890471 
L 417.222214 148.631609 
L 416.52925 148.372748 
L 415.828243 148.113886 
L 415.121789 147.855025 
L 414.412871 147.596163 
L 413.70485 147.337302 
L 413.001435 147.07844 
L 412.30665 146.819579 
L 411.624795 146.560717 
L 410.960396 146.301856 
L 410.318151 146.042994 
L 409.702867 145.784133 
L 409.119399 145.525271 
L 408.572572 145.26641 
L 408.067121 145.007548 
L 407.607609 144.748687 
L 407.198362 144.489825 
L 406.843393 144.230964 
L 406.546344 143.972102 
L 406.310417 143.713241 
L 406.138324 143.454379 
L 406.032237 143.195518 
L 405.99375 142.936656 
L 406.023849 142.677795 
L 406.122891 142.418933 
L 406.290595 142.160072 
L 406.526044 141.90121 
L 406.827694 141.642349 
L 407.193396 141.383487 
L 407.620429 141.124626 
L 408.105539 140.865764 
L 408.644987 140.606903 
L 409.234604 140.348042 
L 409.869853 140.08918 
L 410.545892 139.830319 
L 411.257648 139.571457 
L 411.999879 139.312596 
L 412.767255 139.053734 
L 413.554416 138.794873 
L 414.35605 138.536011 
L 415.166949 138.27715 
L 415.982073 138.018288 
L 416.796601 137.759427 
L 417.605984 137.500565 
L 418.405978 137.241704 
L 419.192688 136.982842 
L 419.962588 136.723981 
L 420.712545 136.465119 
L 421.439831 136.206258 
L 422.14213 135.947396 
L 422.817539 135.688535 
L 423.464561 135.429673 
L 424.082097 135.170812 
L 424.669428 134.91195 
L 425.226198 134.653089 
L 425.75239 134.394227 
L 426.248303 134.135366 
L 426.714527 133.876504 
L 427.151908 133.617643 
L 427.561529 133.358781 
L 427.944672 133.09992 
L 428.302794 132.841058 
L 428.637495 132.582197 
L 428.950494 132.323335 
L 429.243596 132.064474 
L 429.51867 131.805612 
L 429.777623 131.546751 
L 430.022375 131.287889 
L 430.254835 131.029028 
L 430.476883 130.770166 
L 430.690348 130.511305 
L 430.89699 130.252443 
L 431.098483 129.993582 
L 431.296399 129.73472 
L 431.492195 129.475859 
L 431.6872 129.216997 
L 431.882605 128.958136 
L 432.079457 128.699274 
L 432.278648 128.440413 
L 432.480913 128.181551 
L 447.769087 128.181551 
L 447.769087 128.181551 
L 447.971352 128.440413 
L 448.170543 128.699274 
L 448.367395 128.958136 
L 448.5628 129.216997 
L 448.757805 129.475859 
L 448.953601 129.73472 
L 449.151517 129.993582 
L 449.35301 130.252443 
L 449.559652 130.511305 
L 449.773117 130.770166 
L 449.995165 131.029028 
L 450.227625 131.287889 
L 450.472377 131.546751 
L 450.73133 131.805612 
L 451.006404 132.064474 
L 451.299506 132.323335 
L 451.612505 132.582197 
L 451.947206 132.841058 
L 452.305328 133.09992 
L 452.688471 133.358781 
L 453.098092 133.617643 
L 453.535473 133.876504 
L 454.001697 134.135366 
L 454.49761 134.394227 
L 455.023802 134.653089 
L 455.580572 134.91195 
L 456.167903 135.170812 
L 456.785439 135.429673 
L 457.432461 135.688535 
L 458.10787 135.947396 
L 458.810169 136.206258 
L 459.537455 136.465119 
L 460.287412 136.723981 
L 461.057312 136.982842 
L 461.844022 137.241704 
L 462.644016 137.500565 
L 463.453399 137.759427 
L 464.267927 138.018288 
L 465.083051 138.27715 
L 465.89395 138.536011 
L 466.695584 138.794873 
L 467.482745 139.053734 
L 468.250121 139.312596 
L 468.992352 139.571457 
L 469.704108 139.830319 
L 470.380147 140.08918 
L 471.015396 140.348042 
L 471.605013 140.606903 
L 472.144461 140.865764 
L 472.629571 141.124626 
L 473.056604 141.383487 
L 473.422306 141.642349 
L 473.723956 141.90121 
L 473.959405 142.160072 
L 474.127109 142.418933 
L 474.226151 142.677795 
L 474.25625 142.936656 
L 474.217763 143.195518 
L 474.111676 143.454379 
L 473.939583 143.713241 
L 473.703656 143.972102 
L 473.406607 144.230964 
L 473.051638 144.489825 
L 472.642391 144.748687 
L 472.182879 145.007548 
L 471.677428 145.26641 
L 471.130601 145.525271 
L 470.547133 145.784133 
L 469.931849 146.042994 
L 469.289604 146.301856 
L 468.625205 146.560717 
L 467.94335 146.819579 
L 467.248565 147.07844 
L 466.54515 147.337302 
L 465.837129 147.596163 
L 465.128211 147.855025 
L 464.421757 148.113886 
L 463.72075 148.372748 
L 463.027786 148.631609 
L 462.345059 148.890471 
L 461.674363 149.149332 
L 461.017101 149.408194 
L 460.374296 149.667055 
L 459.746614 149.925917 
L 459.134388 150.184778 
L 458.537652 150.44364 
L 457.956172 150.702501 
L 457.389485 150.961363 
L 456.836941 151.220224 
L 456.297738 151.479086 
L 455.770966 151.737947 
L 455.255643 151.996809 
L 454.750755 152.25567 
L 454.255291 152.514532 
L 453.768272 152.773393 
L 453.288781 153.032255 
L 452.815989 153.291116 
L 452.349173 153.549978 
L 451.887732 153.808839 
z
" style="fill:#1f77b4;fill-opacity:0.3;"/>
   </g>
   <g id="PolyCollection_4">
    <path clip-path="url(#p3971f9046e)" d="M 607.349071 330.637126 
L 545.950929 330.637126 
L 545.442954 330.357556 
L 544.973524 330.077985 
L 544.543823 329.798415 
L 544.1548 329.518845 
L 543.807161 329.239274 
L 543.501363 328.959704 
L 543.237613 328.680133 
L 543.015869 328.400563 
L 542.83584 328.120993 
L 542.696993 327.841422 
L 542.598561 327.561852 
L 542.539549 327.282281 
L 542.51875 327.002711 
L 542.534753 326.72314 
L 542.585963 326.44357 
L 542.670614 326.164 
L 542.78679 325.884429 
L 542.932439 325.604859 
L 543.105398 325.325288 
L 543.303411 325.045718 
L 543.524147 324.766148 
L 543.765229 324.486577 
L 544.024243 324.207007 
L 544.298769 323.927436 
L 544.586395 323.647866 
L 544.884738 323.368296 
L 545.191464 323.088725 
L 545.504301 322.809155 
L 545.821059 322.529584 
L 546.139644 322.250014 
L 546.45807 321.970443 
L 546.774473 321.690873 
L 547.08712 321.411303 
L 547.394418 321.131732 
L 547.694923 320.852162 
L 547.987343 320.572591 
L 548.270546 320.293021 
L 548.543557 320.013451 
L 548.805565 319.73388 
L 549.055921 319.45431 
L 549.294133 319.174739 
L 549.51987 318.895169 
L 549.732952 318.615598 
L 549.933345 318.336028 
L 550.121163 318.056458 
L 550.296649 317.776887 
L 550.460177 317.497317 
L 550.612241 317.217746 
L 550.753443 316.938176 
L 550.884487 316.658606 
L 551.006169 316.379035 
L 551.119364 316.099465 
L 551.225021 315.819894 
L 551.324147 315.540324 
L 551.4178 315.260754 
L 551.507079 314.981183 
L 551.593109 314.701613 
L 551.67704 314.422042 
L 551.760027 314.142472 
L 551.843229 313.862901 
L 551.927792 313.583331 
L 552.014849 313.303761 
L 552.105505 313.02419 
L 552.200833 312.74462 
L 552.301863 312.465049 
L 552.409581 312.185479 
L 552.524919 311.905909 
L 552.648748 311.626338 
L 552.78188 311.346768 
L 552.925057 311.067197 
L 553.07895 310.787627 
L 553.244157 310.508056 
L 553.421201 310.228486 
L 553.610527 309.948916 
L 553.8125 309.669345 
L 554.027408 309.389775 
L 554.255461 309.110204 
L 554.496787 308.830634 
L 554.751443 308.551064 
L 555.019406 308.271493 
L 555.300584 307.991923 
L 555.59481 307.712352 
L 555.901854 307.432782 
L 556.221418 307.153211 
L 556.553144 306.873641 
L 556.896618 306.594071 
L 557.251368 306.3145 
L 557.616878 306.03493 
L 557.99258 305.755359 
L 558.377869 305.475789 
L 558.7721 305.196219 
L 559.174595 304.916648 
L 559.584647 304.637078 
L 560.001522 304.357507 
L 560.424468 304.077937 
L 560.852713 303.798367 
L 561.285471 303.518796 
L 561.721949 303.239226 
L 562.161345 302.959655 
L 591.138655 302.959655 
L 591.138655 302.959655 
L 591.578051 303.239226 
L 592.014529 303.518796 
L 592.447287 303.798367 
L 592.875532 304.077937 
L 593.298478 304.357507 
L 593.715353 304.637078 
L 594.125405 304.916648 
L 594.5279 305.196219 
L 594.922131 305.475789 
L 595.30742 305.755359 
L 595.683122 306.03493 
L 596.048632 306.3145 
L 596.403382 306.594071 
L 596.746856 306.873641 
L 597.078582 307.153211 
L 597.398146 307.432782 
L 597.70519 307.712352 
L 597.999416 307.991923 
L 598.280594 308.271493 
L 598.548557 308.551064 
L 598.803213 308.830634 
L 599.044539 309.110204 
L 599.272592 309.389775 
L 599.4875 309.669345 
L 599.689473 309.948916 
L 599.878799 310.228486 
L 600.055843 310.508056 
L 600.22105 310.787627 
L 600.374943 311.067197 
L 600.51812 311.346768 
L 600.651252 311.626338 
L 600.775081 311.905909 
L 600.890419 312.185479 
L 600.998137 312.465049 
L 601.099167 312.74462 
L 601.194495 313.02419 
L 601.285151 313.303761 
L 601.372208 313.583331 
L 601.456771 313.862901 
L 601.539973 314.142472 
L 601.62296 314.422042 
L 601.706891 314.701613 
L 601.792921 314.981183 
L 601.8822 315.260754 
L 601.975853 315.540324 
L 602.074979 315.819894 
L 602.180636 316.099465 
L 602.293831 316.379035 
L 602.415513 316.658606 
L 602.546557 316.938176 
L 602.687759 317.217746 
L 602.839823 317.497317 
L 603.003351 317.776887 
L 603.178837 318.056458 
L 603.366655 318.336028 
L 603.567048 318.615598 
L 603.78013 318.895169 
L 604.005867 319.174739 
L 604.244079 319.45431 
L 604.494435 319.73388 
L 604.756443 320.013451 
L 605.029454 320.293021 
L 605.312657 320.572591 
L 605.605077 320.852162 
L 605.905582 321.131732 
L 606.21288 321.411303 
L 606.525527 321.690873 
L 606.84193 321.970443 
L 607.160356 322.250014 
L 607.478941 322.529584 
L 607.795699 322.809155 
L 608.108536 323.088725 
L 608.415262 323.368296 
L 608.713605 323.647866 
L 609.001231 323.927436 
L 609.275757 324.207007 
L 609.534771 324.486577 
L 609.775853 324.766148 
L 609.996589 325.045718 
L 610.194602 325.325288 
L 610.367561 325.604859 
L 610.51321 325.884429 
L 610.629386 326.164 
L 610.714037 326.44357 
L 610.765247 326.72314 
L 610.78125 327.002711 
L 610.760451 327.282281 
L 610.701439 327.561852 
L 610.603007 327.841422 
L 610.46416 328.120993 
L 610.284131 328.400563 
L 610.062387 328.680133 
L 609.798637 328.959704 
L 609.492839 329.239274 
L 609.1452 329.518845 
L 608.756177 329.798415 
L 608.326476 330.077985 
L 607.857046 330.357556 
L 607.349071 330.637126 
z
" style="fill:#1f77b4;fill-opacity:0.3;"/>
   </g>
   <g id="PolyCollection_5">
    <path clip-path="url(#p3971f9046e)" d="M 733.791647 347.551136 
L 692.558353 347.551136 
L 691.629693 347.318161 
L 690.707826 347.085186 
L 689.796641 346.85221 
L 688.900054 346.619235 
L 688.02197 346.38626 
L 687.166257 346.153284 
L 686.336708 345.920309 
L 685.537015 345.687334 
L 684.770737 345.454358 
L 684.041272 345.221383 
L 683.351834 344.988408 
L 682.705428 344.755432 
L 682.104833 344.522457 
L 681.552583 344.289482 
L 681.050956 344.056506 
L 680.601962 343.823531 
L 680.207339 343.590555 
L 679.868545 343.35758 
L 679.586761 343.124605 
L 679.362892 342.891629 
L 679.197567 342.658654 
L 679.091152 342.425679 
L 679.04375 342.192703 
L 679.055216 341.959728 
L 679.125164 341.726753 
L 679.252974 341.493777 
L 679.437807 341.260802 
L 679.678614 341.027827 
L 679.974143 340.794851 
L 680.322951 340.561876 
L 680.723412 340.328901 
L 681.173725 340.095925 
L 681.67192 339.86295 
L 682.21587 339.629975 
L 682.803289 339.396999 
L 683.431748 339.164024 
L 684.098674 338.931049 
L 684.801361 338.698073 
L 685.536977 338.465098 
L 686.302567 338.232123 
L 687.095072 337.999147 
L 687.91133 337.766172 
L 688.74809 337.533197 
L 689.602028 337.300221 
L 690.469757 337.067246 
L 691.347849 336.83427 
L 692.232843 336.601295 
L 693.121274 336.36832 
L 694.009684 336.135344 
L 694.894648 335.902369 
L 695.772794 335.669394 
L 696.640821 335.436418 
L 697.495528 335.203443 
L 698.333828 334.970468 
L 699.152772 334.737492 
L 699.949569 334.504517 
L 700.721602 334.271542 
L 701.46645 334.038566 
L 702.181897 333.805591 
L 702.865952 333.572616 
L 703.516855 333.33964 
L 704.133089 333.106665 
L 704.713385 332.87369 
L 705.256732 332.640714 
L 705.762373 332.407739 
L 706.229809 332.174764 
L 706.658797 331.941788 
L 707.049348 331.708813 
L 707.401717 331.475838 
L 707.716403 331.242862 
L 707.994132 331.009887 
L 708.235855 330.776912 
L 708.442731 330.543936 
L 708.616117 330.310961 
L 708.757554 330.077985 
L 708.868751 329.84501 
L 708.95157 329.612035 
L 709.008013 329.379059 
L 709.040197 329.146084 
L 709.050345 328.913109 
L 709.040758 328.680133 
L 709.013806 328.447158 
L 708.971899 328.214183 
L 708.917472 327.981207 
L 708.852964 327.748232 
L 708.780796 327.515257 
L 708.703353 327.282281 
L 708.622959 327.049306 
L 708.541863 326.816331 
L 708.462214 326.583355 
L 708.386048 326.35038 
L 708.315267 326.117405 
L 708.251622 325.884429 
L 708.196704 325.651454 
L 708.151926 325.418479 
L 708.118515 325.185503 
L 708.097504 324.952528 
L 708.089724 324.719553 
L 708.095806 324.486577 
L 718.254194 324.486577 
L 718.254194 324.486577 
L 718.260276 324.719553 
L 718.252496 324.952528 
L 718.231485 325.185503 
L 718.198074 325.418479 
L 718.153296 325.651454 
L 718.098378 325.884429 
L 718.034733 326.117405 
L 717.963952 326.35038 
L 717.887786 326.583355 
L 717.808137 326.816331 
L 717.727041 327.049306 
L 717.646647 327.282281 
L 717.569204 327.515257 
L 717.497036 327.748232 
L 717.432528 327.981207 
L 717.378101 328.214183 
L 717.336194 328.447158 
L 717.309242 328.680133 
L 717.299655 328.913109 
L 717.309803 329.146084 
L 717.341987 329.379059 
L 717.39843 329.612035 
L 717.481249 329.84501 
L 717.592446 330.077985 
L 717.733883 330.310961 
L 717.907269 330.543936 
L 718.114145 330.776912 
L 718.355868 331.009887 
L 718.633597 331.242862 
L 718.948283 331.475838 
L 719.300652 331.708813 
L 719.691203 331.941788 
L 720.120191 332.174764 
L 720.587627 332.407739 
L 721.093268 332.640714 
L 721.636615 332.87369 
L 722.216911 333.106665 
L 722.833145 333.33964 
L 723.484048 333.572616 
L 724.168103 333.805591 
L 724.88355 334.038566 
L 725.628398 334.271542 
L 726.400431 334.504517 
L 727.197228 334.737492 
L 728.016172 334.970468 
L 728.854472 335.203443 
L 729.709179 335.436418 
L 730.577206 335.669394 
L 731.455352 335.902369 
L 732.340316 336.135344 
L 733.228726 336.36832 
L 734.117157 336.601295 
L 735.002151 336.83427 
L 735.880243 337.067246 
L 736.747972 337.300221 
L 737.60191 337.533197 
L 738.43867 337.766172 
L 739.254928 337.999147 
L 740.047433 338.232123 
L 740.813023 338.465098 
L 741.548639 338.698073 
L 742.251326 338.931049 
L 742.918252 339.164024 
L 743.546711 339.396999 
L 744.13413 339.629975 
L 744.67808 339.86295 
L 745.176275 340.095925 
L 745.626588 340.328901 
L 746.027049 340.561876 
L 746.375857 340.794851 
L 746.671386 341.027827 
L 746.912193 341.260802 
L 747.097026 341.493777 
L 747.224836 341.726753 
L 747.294784 341.959728 
L 747.30625 342.192703 
L 747.258848 342.425679 
L 747.152433 342.658654 
L 746.987108 342.891629 
L 746.763239 343.124605 
L 746.481455 343.35758 
L 746.142661 343.590555 
L 745.748038 343.823531 
L 745.299044 344.056506 
L 744.797417 344.289482 
L 744.245167 344.522457 
L 743.644572 344.755432 
L 742.998166 344.988408 
L 742.308728 345.221383 
L 741.579263 345.454358 
L 740.812985 345.687334 
L 740.013292 345.920309 
L 739.183743 346.153284 
L 738.32803 346.38626 
L 737.449946 346.619235 
L 736.553359 346.85221 
L 735.642174 347.085186 
L 734.720307 347.318161 
L 733.791647 347.551136 
z
" style="fill:#1f77b4;fill-opacity:0.3;"/>
   </g>
   <g id="matplotlib.axis_1">
    <g id="xtick_1">
     <g id="line2d_1">
      <defs>
       <path d="M 0 0 
L 0 3.5 
" id="mba703b4bc7" style="stroke:#000000;stroke-width:0.8;"/>
      </defs>
      <g>
       <use style="stroke:#000000;stroke-width:0.8;" x="167.075" xlink:href="#mba703b4bc7" y="362.825"/>
      </g>
     </g>
     <g id="text_1">
      <!-- Defector -->
      <defs>
       <path d="M 19.671875 64.796875 
L 19.671875 8.109375 
L 31.59375 8.109375 
Q 46.6875 8.109375 53.6875 14.9375 
Q 60.6875 21.78125 60.6875 36.53125 
Q 60.6875 51.171875 53.6875 57.984375 
Q 46.6875 64.796875 31.59375 64.796875 
z
M 9.8125 72.90625 
L 30.078125 72.90625 
Q 51.265625 72.90625 61.171875 64.09375 
Q 71.09375 55.28125 71.09375 36.53125 
Q 71.09375 17.671875 61.125 8.828125 
Q 51.171875 0 30.078125 0 
L 9.8125 0 
z
" id="DejaVuSans-44"/>
       <path d="M 56.203125 29.59375 
L 56.203125 25.203125 
L 14.890625 25.203125 
Q 15.484375 15.921875 20.484375 11.0625 
Q 25.484375 6.203125 34.421875 6.203125 
Q 39.59375 6.203125 44.453125 7.46875 
Q 49.3125 8.734375 54.109375 11.28125 
L 54.109375 2.78125 
Q 49.265625 0.734375 44.1875 -0.34375 
Q 39.109375 -1.421875 33.890625 -1.421875 
Q 20.796875 -1.421875 13.15625 6.1875 
Q 5.515625 13.8125 5.515625 26.8125 
Q 5.515625 40.234375 12.765625 48.109375 
Q 20.015625 56 32.328125 56 
Q 43.359375 56 49.78125 48.890625 
Q 56.203125 41.796875 56.203125 29.59375 
z
M 47.21875 32.234375 
Q 47.125 39.59375 43.09375 43.984375 
Q 39.0625 48.390625 32.421875 48.390625 
Q 24.90625 48.390625 20.390625 44.140625 
Q 15.875 39.890625 15.1875 32.171875 
z
" id="DejaVuSans-65"/>
       <path d="M 37.109375 75.984375 
L 37.109375 68.5 
L 28.515625 68.5 
Q 23.6875 68.5 21.796875 66.546875 
Q 19.921875 64.59375 19.921875 59.515625 
L 19.921875 54.6875 
L 34.71875 54.6875 
L 34.71875 47.703125 
L 19.921875 47.703125 
L 19.921875 0 
L 10.890625 0 
L 10.890625 47.703125 
L 2.296875 47.703125 
L 2.296875 54.6875 
L 10.890625 54.6875 
L 10.890625 58.5 
Q 10.890625 67.625 15.140625 71.796875 
Q 19.390625 75.984375 28.609375 75.984375 
z
" id="DejaVuSans-66"/>
       <path d="M 48.78125 52.59375 
L 48.78125 44.1875 
Q 44.96875 46.296875 41.140625 47.34375 
Q 37.3125 48.390625 33.40625 48.390625 
Q 24.65625 48.390625 19.8125 42.84375 
Q 14.984375 37.3125 14.984375 27.296875 
Q 14.984375 17.28125 19.8125 11.734375 
Q 24.65625 6.203125 33.40625 6.203125 
Q 37.3125 6.203125 41.140625 7.25 
Q 44.96875 8.296875 48.78125 10.40625 
L 48.78125 2.09375 
Q 45.015625 0.34375 40.984375 -0.53125 
Q 36.96875 -1.421875 32.421875 -1.421875 
Q 20.0625 -1.421875 12.78125 6.34375 
Q 5.515625 14.109375 5.515625 27.296875 
Q 5.515625 40.671875 12.859375 48.328125 
Q 20.21875 56 33.015625 56 
Q 37.15625 56 41.109375 55.140625 
Q 45.0625 54.296875 48.78125 52.59375 
z
" id="DejaVuSans-63"/>
       <path d="M 18.3125 70.21875 
L 18.3125 54.6875 
L 36.8125 54.6875 
L 36.8125 47.703125 
L 18.3125 47.703125 
L 18.3125 18.015625 
Q 18.3125 11.328125 20.140625 9.421875 
Q 21.96875 7.515625 27.59375 7.515625 
L 36.8125 7.515625 
L 36.8125 0 
L 27.59375 0 
Q 17.1875 0 13.234375 3.875 
Q 9.28125 7.765625 9.28125 18.015625 
L 9.28125 47.703125 
L 2.6875 47.703125 
L 2.6875 54.6875 
L 9.28125 54.6875 
L 9.28125 70.21875 
z
" id="DejaVuSans-74"/>
       <path d="M 30.609375 48.390625 
Q 23.390625 48.390625 19.1875 42.75 
Q 14.984375 37.109375 14.984375 27.296875 
Q 14.984375 17.484375 19.15625 11.84375 
Q 23.34375 6.203125 30.609375 6.203125 
Q 37.796875 6.203125 41.984375 11.859375 
Q 46.1875 17.53125 46.1875 27.296875 
Q 46.1875 37.015625 41.984375 42.703125 
Q 37.796875 48.390625 30.609375 48.390625 
z
M 30.609375 56 
Q 42.328125 56 49.015625 48.375 
Q 55.71875 40.765625 55.71875 27.296875 
Q 55.71875 13.875 49.015625 6.21875 
Q 42.328125 -1.421875 30.609375 -1.421875 
Q 18.84375 -1.421875 12.171875 6.21875 
Q 5.515625 13.875 5.515625 27.296875 
Q 5.515625 40.765625 12.171875 48.375 
Q 18.84375 56 30.609375 56 
z
" id="DejaVuSans-6f"/>
       <path d="M 41.109375 46.296875 
Q 39.59375 47.171875 37.8125 47.578125 
Q 36.03125 48 33.890625 48 
Q 26.265625 48 22.1875 43.046875 
Q 18.109375 38.09375 18.109375 28.8125 
L 18.109375 0 
L 9.078125 0 
L 9.078125 54.6875 
L 18.109375 54.6875 
L 18.109375 46.1875 
Q 20.953125 51.171875 25.484375 53.578125 
Q 30.03125 56 36.53125 56 
Q 37.453125 56 38.578125 55.875 
Q 39.703125 55.765625 41.0625 55.515625 
z
" id="DejaVuSans-72"/>
      </defs>
      <g transform="translate(169.2825 404.365)rotate(-90)scale(0.08 -0.08)">
       <use xlink:href="#DejaVuSans-44"/>
       <use x="77.001953" xlink:href="#DejaVuSans-65"/>
       <use x="138.525391" xlink:href="#DejaVuSans-66"/>
       <use x="173.730469" xlink:href="#DejaVuSans-65"/>
       <use x="235.253906" xlink:href="#DejaVuSans-63"/>
       <use x="290.234375" xlink:href="#DejaVuSans-74"/>
       <use x="329.443359" xlink:href="#DejaVuSans-6f"/>
       <use x="390.625" xlink:href="#DejaVuSans-72"/>
      </g>
     </g>
    </g>
    <g id="xtick_2">
     <g id="line2d_2">
      <g>
       <use style="stroke:#000000;stroke-width:0.8;" x="303.6" xlink:href="#mba703b4bc7" y="362.825"/>
      </g>
     </g>
     <g id="text_2">
      <!-- Grudger -->
      <defs>
       <path d="M 59.515625 10.40625 
L 59.515625 29.984375 
L 43.40625 29.984375 
L 43.40625 38.09375 
L 69.28125 38.09375 
L 69.28125 6.78125 
Q 63.578125 2.734375 56.6875 0.65625 
Q 49.8125 -1.421875 42 -1.421875 
Q 24.90625 -1.421875 15.25 8.5625 
Q 5.609375 18.5625 5.609375 36.375 
Q 5.609375 54.25 15.25 64.234375 
Q 24.90625 74.21875 42 74.21875 
Q 49.125 74.21875 55.546875 72.453125 
Q 61.96875 70.703125 67.390625 67.28125 
L 67.390625 56.78125 
Q 61.921875 61.421875 55.765625 63.765625 
Q 49.609375 66.109375 42.828125 66.109375 
Q 29.4375 66.109375 22.71875 58.640625 
Q 16.015625 51.171875 16.015625 36.375 
Q 16.015625 21.625 22.71875 14.15625 
Q 29.4375 6.6875 42.828125 6.6875 
Q 48.046875 6.6875 52.140625 7.59375 
Q 56.25 8.5 59.515625 10.40625 
z
" id="DejaVuSans-47"/>
       <path d="M 8.5 21.578125 
L 8.5 54.6875 
L 17.484375 54.6875 
L 17.484375 21.921875 
Q 17.484375 14.15625 20.5 10.265625 
Q 23.53125 6.390625 29.59375 6.390625 
Q 36.859375 6.390625 41.078125 11.03125 
Q 45.3125 15.671875 45.3125 23.6875 
L 45.3125 54.6875 
L 54.296875 54.6875 
L 54.296875 0 
L 45.3125 0 
L 45.3125 8.40625 
Q 42.046875 3.421875 37.71875 1 
Q 33.40625 -1.421875 27.6875 -1.421875 
Q 18.265625 -1.421875 13.375 4.4375 
Q 8.5 10.296875 8.5 21.578125 
z
M 31.109375 56 
z
" id="DejaVuSans-75"/>
       <path d="M 45.40625 46.390625 
L 45.40625 75.984375 
L 54.390625 75.984375 
L 54.390625 0 
L 45.40625 0 
L 45.40625 8.203125 
Q 42.578125 3.328125 38.25 0.953125 
Q 33.9375 -1.421875 27.875 -1.421875 
Q 17.96875 -1.421875 11.734375 6.484375 
Q 5.515625 14.40625 5.515625 27.296875 
Q 5.515625 40.1875 11.734375 48.09375 
Q 17.96875 56 27.875 56 
Q 33.9375 56 38.25 53.625 
Q 42.578125 51.265625 45.40625 46.390625 
z
M 14.796875 27.296875 
Q 14.796875 17.390625 18.875 11.75 
Q 22.953125 6.109375 30.078125 6.109375 
Q 37.203125 6.109375 41.296875 11.75 
Q 45.40625 17.390625 45.40625 27.296875 
Q 45.40625 37.203125 41.296875 42.84375 
Q 37.203125 48.484375 30.078125 48.484375 
Q 22.953125 48.484375 18.875 42.84375 
Q 14.796875 37.203125 14.796875 27.296875 
z
" id="DejaVuSans-64"/>
       <path d="M 45.40625 27.984375 
Q 45.40625 37.75 41.375 43.109375 
Q 37.359375 48.484375 30.078125 48.484375 
Q 22.859375 48.484375 18.828125 43.109375 
Q 14.796875 37.75 14.796875 27.984375 
Q 14.796875 18.265625 18.828125 12.890625 
Q 22.859375 7.515625 30.078125 7.515625 
Q 37.359375 7.515625 41.375 12.890625 
Q 45.40625 18.265625 45.40625 27.984375 
z
M 54.390625 6.78125 
Q 54.390625 -7.171875 48.1875 -13.984375 
Q 42 -20.796875 29.203125 -20.796875 
Q 24.46875 -20.796875 20.265625 -20.09375 
Q 16.0625 -19.390625 12.109375 -17.921875 
L 12.109375 -9.1875 
Q 16.0625 -11.328125 19.921875 -12.34375 
Q 23.78125 -13.375 27.78125 -13.375 
Q 36.625 -13.375 41.015625 -8.765625 
Q 45.40625 -4.15625 45.40625 5.171875 
L 45.40625 9.625 
Q 42.625 4.78125 38.28125 2.390625 
Q 33.9375 0 27.875 0 
Q 17.828125 0 11.671875 7.65625 
Q 5.515625 15.328125 5.515625 27.984375 
Q 5.515625 40.671875 11.671875 48.328125 
Q 17.828125 56 27.875 56 
Q 33.9375 56 38.28125 53.609375 
Q 42.625 51.21875 45.40625 46.390625 
L 45.40625 54.6875 
L 54.390625 54.6875 
z
" id="DejaVuSans-67"/>
      </defs>
      <g transform="translate(305.8075 402.75125)rotate(-90)scale(0.08 -0.08)">
       <use xlink:href="#DejaVuSans-47"/>
       <use x="77.490234" xlink:href="#DejaVuSans-72"/>
       <use x="118.603516" xlink:href="#DejaVuSans-75"/>
       <use x="181.982422" xlink:href="#DejaVuSans-64"/>
       <use x="245.458984" xlink:href="#DejaVuSans-67"/>
       <use x="308.935547" xlink:href="#DejaVuSans-65"/>
       <use x="370.458984" xlink:href="#DejaVuSans-72"/>
      </g>
     </g>
    </g>
    <g id="xtick_3">
     <g id="line2d_3">
      <g>
       <use style="stroke:#000000;stroke-width:0.8;" x="440.125" xlink:href="#mba703b4bc7" y="362.825"/>
      </g>
     </g>
     <g id="text_3">
      <!-- Tit For Tat -->
      <defs>
       <path d="M -0.296875 72.90625 
L 61.375 72.90625 
L 61.375 64.59375 
L 35.5 64.59375 
L 35.5 0 
L 25.59375 0 
L 25.59375 64.59375 
L -0.296875 64.59375 
z
" id="DejaVuSans-54"/>
       <path d="M 9.421875 54.6875 
L 18.40625 54.6875 
L 18.40625 0 
L 9.421875 0 
z
M 9.421875 75.984375 
L 18.40625 75.984375 
L 18.40625 64.59375 
L 9.421875 64.59375 
z
" id="DejaVuSans-69"/>
       <path id="DejaVuSans-20"/>
       <path d="M 9.8125 72.90625 
L 51.703125 72.90625 
L 51.703125 64.59375 
L 19.671875 64.59375 
L 19.671875 43.109375 
L 48.578125 43.109375 
L 48.578125 34.8125 
L 19.671875 34.8125 
L 19.671875 0 
L 9.8125 0 
z
" id="DejaVuSans-46"/>
       <path d="M 34.28125 27.484375 
Q 23.390625 27.484375 19.1875 25 
Q 14.984375 22.515625 14.984375 16.5 
Q 14.984375 11.71875 18.140625 8.90625 
Q 21.296875 6.109375 26.703125 6.109375 
Q 34.1875 6.109375 38.703125 11.40625 
Q 43.21875 16.703125 43.21875 25.484375 
L 43.21875 27.484375 
z
M 52.203125 31.203125 
L 52.203125 0 
L 43.21875 0 
L 43.21875 8.296875 
Q 40.140625 3.328125 35.546875 0.953125 
Q 30.953125 -1.421875 24.3125 -1.421875 
Q 15.921875 -1.421875 10.953125 3.296875 
Q 6 8.015625 6 15.921875 
Q 6 25.140625 12.171875 29.828125 
Q 18.359375 34.515625 30.609375 34.515625 
L 43.21875 34.515625 
L 43.21875 35.40625 
Q 43.21875 41.609375 39.140625 45 
Q 35.0625 48.390625 27.6875 48.390625 
Q 23 48.390625 18.546875 47.265625 
Q 14.109375 46.140625 10.015625 43.890625 
L 10.015625 52.203125 
Q 14.9375 54.109375 19.578125 55.046875 
Q 24.21875 56 28.609375 56 
Q 40.484375 56 46.34375 49.84375 
Q 52.203125 43.703125 52.203125 31.203125 
z
" id="DejaVuSans-61"/>
      </defs>
      <g transform="translate(442.3325 410.8375)rotate(-90)scale(0.08 -0.08)">
       <use xlink:href="#DejaVuSans-54"/>
       <use x="61.037109" xlink:href="#DejaVuSans-69"/>
       <use x="88.820312" xlink:href="#DejaVuSans-74"/>
       <use x="128.029297" xlink:href="#DejaVuSans-20"/>
       <use x="159.816406" xlink:href="#DejaVuSans-46"/>
       <use x="217.289062" xlink:href="#DejaVuSans-6f"/>
       <use x="278.470703" xlink:href="#DejaVuSans-72"/>
       <use x="319.583984" xlink:href="#DejaVuSans-20"/>
       <use x="351.371094" xlink:href="#DejaVuSans-54"/>
       <use x="412.205078" xlink:href="#DejaVuSans-61"/>
       <use x="473.484375" xlink:href="#DejaVuSans-74"/>
      </g>
     </g>
    </g>
    <g id="xtick_4">
     <g id="line2d_4">
      <g>
       <use style="stroke:#000000;stroke-width:0.8;" x="576.65" xlink:href="#mba703b4bc7" y="362.825"/>
      </g>
     </g>
     <g id="text_4">
      <!-- Cooperator -->
      <defs>
       <path d="M 64.40625 67.28125 
L 64.40625 56.890625 
Q 59.421875 61.53125 53.78125 63.8125 
Q 48.140625 66.109375 41.796875 66.109375 
Q 29.296875 66.109375 22.65625 58.46875 
Q 16.015625 50.828125 16.015625 36.375 
Q 16.015625 21.96875 22.65625 14.328125 
Q 29.296875 6.6875 41.796875 6.6875 
Q 48.140625 6.6875 53.78125 8.984375 
Q 59.421875 11.28125 64.40625 15.921875 
L 64.40625 5.609375 
Q 59.234375 2.09375 53.4375 0.328125 
Q 47.65625 -1.421875 41.21875 -1.421875 
Q 24.65625 -1.421875 15.125 8.703125 
Q 5.609375 18.84375 5.609375 36.375 
Q 5.609375 53.953125 15.125 64.078125 
Q 24.65625 74.21875 41.21875 74.21875 
Q 47.75 74.21875 53.53125 72.484375 
Q 59.328125 70.75 64.40625 67.28125 
z
" id="DejaVuSans-43"/>
       <path d="M 18.109375 8.203125 
L 18.109375 -20.796875 
L 9.078125 -20.796875 
L 9.078125 54.6875 
L 18.109375 54.6875 
L 18.109375 46.390625 
Q 20.953125 51.265625 25.265625 53.625 
Q 29.59375 56 35.59375 56 
Q 45.5625 56 51.78125 48.09375 
Q 58.015625 40.1875 58.015625 27.296875 
Q 58.015625 14.40625 51.78125 6.484375 
Q 45.5625 -1.421875 35.59375 -1.421875 
Q 29.59375 -1.421875 25.265625 0.953125 
Q 20.953125 3.328125 18.109375 8.203125 
z
M 48.6875 27.296875 
Q 48.6875 37.203125 44.609375 42.84375 
Q 40.53125 48.484375 33.40625 48.484375 
Q 26.265625 48.484375 22.1875 42.84375 
Q 18.109375 37.203125 18.109375 27.296875 
Q 18.109375 17.390625 22.1875 11.75 
Q 26.265625 6.109375 33.40625 6.109375 
Q 40.53125 6.109375 44.609375 11.75 
Q 48.6875 17.390625 48.6875 27.296875 
z
" id="DejaVuSans-70"/>
      </defs>
      <g transform="translate(578.8575 414.71375)rotate(-90)scale(0.08 -0.08)">
       <use xlink:href="#DejaVuSans-43"/>
       <use x="69.824219" xlink:href="#DejaVuSans-6f"/>
       <use x="131.005859" xlink:href="#DejaVuSans-6f"/>
       <use x="192.1875" xlink:href="#DejaVuSans-70"/>
       <use x="255.664062" xlink:href="#DejaVuSans-65"/>
       <use x="317.1875" xlink:href="#DejaVuSans-72"/>
       <use x="358.300781" xlink:href="#DejaVuSans-61"/>
       <use x="419.580078" xlink:href="#DejaVuSans-74"/>
       <use x="458.789062" xlink:href="#DejaVuSans-6f"/>
       <use x="519.970703" xlink:href="#DejaVuSans-72"/>
      </g>
     </g>
    </g>
    <g id="xtick_5">
     <g id="line2d_5">
      <g>
       <use style="stroke:#000000;stroke-width:0.8;" x="713.175" xlink:href="#mba703b4bc7" y="362.825"/>
      </g>
     </g>
     <g id="text_5">
      <!-- Random: 0.5 -->
      <defs>
       <path d="M 44.390625 34.1875 
Q 47.5625 33.109375 50.5625 29.59375 
Q 53.5625 26.078125 56.59375 19.921875 
L 66.609375 0 
L 56 0 
L 46.6875 18.703125 
Q 43.0625 26.03125 39.671875 28.421875 
Q 36.28125 30.8125 30.421875 30.8125 
L 19.671875 30.8125 
L 19.671875 0 
L 9.8125 0 
L 9.8125 72.90625 
L 32.078125 72.90625 
Q 44.578125 72.90625 50.734375 67.671875 
Q 56.890625 62.453125 56.890625 51.90625 
Q 56.890625 45.015625 53.6875 40.46875 
Q 50.484375 35.9375 44.390625 34.1875 
z
M 19.671875 64.796875 
L 19.671875 38.921875 
L 32.078125 38.921875 
Q 39.203125 38.921875 42.84375 42.21875 
Q 46.484375 45.515625 46.484375 51.90625 
Q 46.484375 58.296875 42.84375 61.546875 
Q 39.203125 64.796875 32.078125 64.796875 
z
" id="DejaVuSans-52"/>
       <path d="M 54.890625 33.015625 
L 54.890625 0 
L 45.90625 0 
L 45.90625 32.71875 
Q 45.90625 40.484375 42.875 44.328125 
Q 39.84375 48.1875 33.796875 48.1875 
Q 26.515625 48.1875 22.3125 43.546875 
Q 18.109375 38.921875 18.109375 30.90625 
L 18.109375 0 
L 9.078125 0 
L 9.078125 54.6875 
L 18.109375 54.6875 
L 18.109375 46.1875 
Q 21.34375 51.125 25.703125 53.5625 
Q 30.078125 56 35.796875 56 
Q 45.21875 56 50.046875 50.171875 
Q 54.890625 44.34375 54.890625 33.015625 
z
" id="DejaVuSans-6e"/>
       <path d="M 52 44.1875 
Q 55.375 50.25 60.0625 53.125 
Q 64.75 56 71.09375 56 
Q 79.640625 56 84.28125 50.015625 
Q 88.921875 44.046875 88.921875 33.015625 
L 88.921875 0 
L 79.890625 0 
L 79.890625 32.71875 
Q 79.890625 40.578125 77.09375 44.375 
Q 74.3125 48.1875 68.609375 48.1875 
Q 61.625 48.1875 57.5625 43.546875 
Q 53.515625 38.921875 53.515625 30.90625 
L 53.515625 0 
L 44.484375 0 
L 44.484375 32.71875 
Q 44.484375 40.625 41.703125 44.40625 
Q 38.921875 48.1875 33.109375 48.1875 
Q 26.21875 48.1875 22.15625 43.53125 
Q 18.109375 38.875 18.109375 30.90625 
L 18.109375 0 
L 9.078125 0 
L 9.078125 54.6875 
L 18.109375 54.6875 
L 18.109375 46.1875 
Q 21.1875 51.21875 25.484375 53.609375 
Q 29.78125 56 35.6875 56 
Q 41.65625 56 45.828125 52.96875 
Q 50 49.953125 52 44.1875 
z
" id="DejaVuSans-6d"/>
       <path d="M 11.71875 12.40625 
L 22.015625 12.40625 
L 22.015625 0 
L 11.71875 0 
z
M 11.71875 51.703125 
L 22.015625 51.703125 
L 22.015625 39.3125 
L 11.71875 39.3125 
z
" id="DejaVuSans-3a"/>
       <path d="M 31.78125 66.40625 
Q 24.171875 66.40625 20.328125 58.90625 
Q 16.5 51.421875 16.5 36.375 
Q 16.5 21.390625 20.328125 13.890625 
Q 24.171875 6.390625 31.78125 6.390625 
Q 39.453125 6.390625 43.28125 13.890625 
Q 47.125 21.390625 47.125 36.375 
Q 47.125 51.421875 43.28125 58.90625 
Q 39.453125 66.40625 31.78125 66.40625 
z
M 31.78125 74.21875 
Q 44.046875 74.21875 50.515625 64.515625 
Q 56.984375 54.828125 56.984375 36.375 
Q 56.984375 17.96875 50.515625 8.265625 
Q 44.046875 -1.421875 31.78125 -1.421875 
Q 19.53125 -1.421875 13.0625 8.265625 
Q 6.59375 17.96875 6.59375 36.375 
Q 6.59375 54.828125 13.0625 64.515625 
Q 19.53125 74.21875 31.78125 74.21875 
z
" id="DejaVuSans-30"/>
       <path d="M 10.6875 12.40625 
L 21 12.40625 
L 21 0 
L 10.6875 0 
z
" id="DejaVuSans-2e"/>
       <path d="M 10.796875 72.90625 
L 49.515625 72.90625 
L 49.515625 64.59375 
L 19.828125 64.59375 
L 19.828125 46.734375 
Q 21.96875 47.46875 24.109375 47.828125 
Q 26.265625 48.1875 28.421875 48.1875 
Q 40.625 48.1875 47.75 41.5 
Q 54.890625 34.8125 54.890625 23.390625 
Q 54.890625 11.625 47.5625 5.09375 
Q 40.234375 -1.421875 26.90625 -1.421875 
Q 22.3125 -1.421875 17.546875 -0.640625 
Q 12.796875 0.140625 7.71875 1.703125 
L 7.71875 11.625 
Q 12.109375 9.234375 16.796875 8.0625 
Q 21.484375 6.890625 26.703125 6.890625 
Q 35.15625 6.890625 40.078125 11.328125 
Q 45.015625 15.765625 45.015625 23.390625 
Q 45.015625 31 40.078125 35.4375 
Q 35.15625 39.890625 26.703125 39.890625 
Q 22.75 39.890625 18.8125 39.015625 
Q 14.890625 38.140625 10.796875 36.28125 
z
" id="DejaVuSans-35"/>
      </defs>
      <g transform="translate(715.3825 421.08)rotate(-90)scale(0.08 -0.08)">
       <use xlink:href="#DejaVuSans-52"/>
       <use x="69.451172" xlink:href="#DejaVuSans-61"/>
       <use x="130.730469" xlink:href="#DejaVuSans-6e"/>
       <use x="194.109375" xlink:href="#DejaVuSans-64"/>
       <use x="257.585938" xlink:href="#DejaVuSans-6f"/>
       <use x="318.767578" xlink:href="#DejaVuSans-6d"/>
       <use x="416.179688" xlink:href="#DejaVuSans-3a"/>
       <use x="449.871094" xlink:href="#DejaVuSans-20"/>
       <use x="481.658203" xlink:href="#DejaVuSans-30"/>
       <use x="545.28125" xlink:href="#DejaVuSans-2e"/>
       <use x="577.068359" xlink:href="#DejaVuSans-35"/>
      </g>
     </g>
    </g>
   </g>
   <g id="matplotlib.axis_2">
    <g id="ytick_1">
     <g id="line2d_6">
      <defs>
       <path d="M 0 0 
L -3.5 0 
" id="m8582a47730" style="stroke:#000000;stroke-width:0.8;"/>
      </defs>
      <g>
       <use style="stroke:#000000;stroke-width:0.8;" x="30.55" xlink:href="#m8582a47730" y="350.626411"/>
      </g>
     </g>
     <g id="text_6">
      <!-- 1.8 -->
      <defs>
       <path d="M 12.40625 8.296875 
L 28.515625 8.296875 
L 28.515625 63.921875 
L 10.984375 60.40625 
L 10.984375 69.390625 
L 28.421875 72.90625 
L 38.28125 72.90625 
L 38.28125 8.296875 
L 54.390625 8.296875 
L 54.390625 0 
L 12.40625 0 
z
" id="DejaVuSans-31"/>
       <path d="M 31.78125 34.625 
Q 24.75 34.625 20.71875 30.859375 
Q 16.703125 27.09375 16.703125 20.515625 
Q 16.703125 13.921875 20.71875 10.15625 
Q 24.75 6.390625 31.78125 6.390625 
Q 38.8125 6.390625 42.859375 10.171875 
Q 46.921875 13.96875 46.921875 20.515625 
Q 46.921875 27.09375 42.890625 30.859375 
Q 38.875 34.625 31.78125 34.625 
z
M 21.921875 38.8125 
Q 15.578125 40.375 12.03125 44.71875 
Q 8.5 49.078125 8.5 55.328125 
Q 8.5 64.0625 14.71875 69.140625 
Q 20.953125 74.21875 31.78125 74.21875 
Q 42.671875 74.21875 48.875 69.140625 
Q 55.078125 64.0625 55.078125 55.328125 
Q 55.078125 49.078125 51.53125 44.71875 
Q 48 40.375 41.703125 38.8125 
Q 48.828125 37.15625 52.796875 32.3125 
Q 56.78125 27.484375 56.78125 20.515625 
Q 56.78125 9.90625 50.3125 4.234375 
Q 43.84375 -1.421875 31.78125 -1.421875 
Q 19.734375 -1.421875 13.25 4.234375 
Q 6.78125 9.90625 6.78125 20.515625 
Q 6.78125 27.484375 10.78125 32.3125 
Q 14.796875 37.15625 21.921875 38.8125 
z
M 18.3125 54.390625 
Q 18.3125 48.734375 21.84375 45.5625 
Q 25.390625 42.390625 31.78125 42.390625 
Q 38.140625 42.390625 41.71875 45.5625 
Q 45.3125 48.734375 45.3125 54.390625 
Q 45.3125 60.0625 41.71875 63.234375 
Q 38.140625 66.40625 31.78125 66.40625 
Q 25.390625 66.40625 21.84375 63.234375 
Q 18.3125 60.0625 18.3125 54.390625 
z
" id="DejaVuSans-38"/>
      </defs>
      <g transform="translate(10.8275 353.665786)scale(0.08 -0.08)">
       <use xlink:href="#DejaVuSans-31"/>
       <use x="63.623047" xlink:href="#DejaVuSans-2e"/>
       <use x="95.410156" xlink:href="#DejaVuSans-38"/>
      </g>
     </g>
    </g>
    <g id="ytick_2">
     <g id="line2d_7">
      <g>
       <use style="stroke:#000000;stroke-width:0.8;" x="30.55" xlink:href="#m8582a47730" y="309.62275"/>
      </g>
     </g>
     <g id="text_7">
      <!-- 1.9 -->
      <defs>
       <path d="M 10.984375 1.515625 
L 10.984375 10.5 
Q 14.703125 8.734375 18.5 7.8125 
Q 22.3125 6.890625 25.984375 6.890625 
Q 35.75 6.890625 40.890625 13.453125 
Q 46.046875 20.015625 46.78125 33.40625 
Q 43.953125 29.203125 39.59375 26.953125 
Q 35.25 24.703125 29.984375 24.703125 
Q 19.046875 24.703125 12.671875 31.3125 
Q 6.296875 37.9375 6.296875 49.421875 
Q 6.296875 60.640625 12.9375 67.421875 
Q 19.578125 74.21875 30.609375 74.21875 
Q 43.265625 74.21875 49.921875 64.515625 
Q 56.59375 54.828125 56.59375 36.375 
Q 56.59375 19.140625 48.40625 8.859375 
Q 40.234375 -1.421875 26.421875 -1.421875 
Q 22.703125 -1.421875 18.890625 -0.6875 
Q 15.09375 0.046875 10.984375 1.515625 
z
M 30.609375 32.421875 
Q 37.25 32.421875 41.125 36.953125 
Q 45.015625 41.5 45.015625 49.421875 
Q 45.015625 57.28125 41.125 61.84375 
Q 37.25 66.40625 30.609375 66.40625 
Q 23.96875 66.40625 20.09375 61.84375 
Q 16.21875 57.28125 16.21875 49.421875 
Q 16.21875 41.5 20.09375 36.953125 
Q 23.96875 32.421875 30.609375 32.421875 
z
" id="DejaVuSans-39"/>
      </defs>
      <g transform="translate(10.8275 312.662125)scale(0.08 -0.08)">
       <use xlink:href="#DejaVuSans-31"/>
       <use x="63.623047" xlink:href="#DejaVuSans-2e"/>
       <use x="95.410156" xlink:href="#DejaVuSans-39"/>
      </g>
     </g>
    </g>
    <g id="ytick_3">
     <g id="line2d_8">
      <g>
       <use style="stroke:#000000;stroke-width:0.8;" x="30.55" xlink:href="#m8582a47730" y="268.619089"/>
      </g>
     </g>
     <g id="text_8">
      <!-- 2.0 -->
      <defs>
       <path d="M 19.1875 8.296875 
L 53.609375 8.296875 
L 53.609375 0 
L 7.328125 0 
L 7.328125 8.296875 
Q 12.9375 14.109375 22.625 23.890625 
Q 32.328125 33.6875 34.8125 36.53125 
Q 39.546875 41.84375 41.421875 45.53125 
Q 43.3125 49.21875 43.3125 52.78125 
Q 43.3125 58.59375 39.234375 62.25 
Q 35.15625 65.921875 28.609375 65.921875 
Q 23.96875 65.921875 18.8125 64.3125 
Q 13.671875 62.703125 7.8125 59.421875 
L 7.8125 69.390625 
Q 13.765625 71.78125 18.9375 73 
Q 24.125 74.21875 28.421875 74.21875 
Q 39.75 74.21875 46.484375 68.546875 
Q 53.21875 62.890625 53.21875 53.421875 
Q 53.21875 48.921875 51.53125 44.890625 
Q 49.859375 40.875 45.40625 35.40625 
Q 44.1875 33.984375 37.640625 27.21875 
Q 31.109375 20.453125 19.1875 8.296875 
z
" id="DejaVuSans-32"/>
      </defs>
      <g transform="translate(10.8275 271.658464)scale(0.08 -0.08)">
       <use xlink:href="#DejaVuSans-32"/>
       <use x="63.623047" xlink:href="#DejaVuSans-2e"/>
       <use x="95.410156" xlink:href="#DejaVuSans-30"/>
      </g>
     </g>
    </g>
    <g id="ytick_4">
     <g id="line2d_9">
      <g>
       <use style="stroke:#000000;stroke-width:0.8;" x="30.55" xlink:href="#m8582a47730" y="227.615429"/>
      </g>
     </g>
     <g id="text_9">
      <!-- 2.1 -->
      <g transform="translate(10.8275 230.654804)scale(0.08 -0.08)">
       <use xlink:href="#DejaVuSans-32"/>
       <use x="63.623047" xlink:href="#DejaVuSans-2e"/>
       <use x="95.410156" xlink:href="#DejaVuSans-31"/>
      </g>
     </g>
    </g>
    <g id="ytick_5">
     <g id="line2d_10">
      <g>
       <use style="stroke:#000000;stroke-width:0.8;" x="30.55" xlink:href="#m8582a47730" y="186.611768"/>
      </g>
     </g>
     <g id="text_10">
      <!-- 2.2 -->
      <g transform="translate(10.8275 189.651143)scale(0.08 -0.08)">
       <use xlink:href="#DejaVuSans-32"/>
       <use x="63.623047" xlink:href="#DejaVuSans-2e"/>
       <use x="95.410156" xlink:href="#DejaVuSans-32"/>
      </g>
     </g>
    </g>
    <g id="ytick_6">
     <g id="line2d_11">
      <g>
       <use style="stroke:#000000;stroke-width:0.8;" x="30.55" xlink:href="#m8582a47730" y="145.608107"/>
      </g>
     </g>
     <g id="text_11">
      <!-- 2.3 -->
      <defs>
       <path d="M 40.578125 39.3125 
Q 47.65625 37.796875 51.625 33 
Q 55.609375 28.21875 55.609375 21.1875 
Q 55.609375 10.40625 48.1875 4.484375 
Q 40.765625 -1.421875 27.09375 -1.421875 
Q 22.515625 -1.421875 17.65625 -0.515625 
Q 12.796875 0.390625 7.625 2.203125 
L 7.625 11.71875 
Q 11.71875 9.328125 16.59375 8.109375 
Q 21.484375 6.890625 26.8125 6.890625 
Q 36.078125 6.890625 40.9375 10.546875 
Q 45.796875 14.203125 45.796875 21.1875 
Q 45.796875 27.640625 41.28125 31.265625 
Q 36.765625 34.90625 28.71875 34.90625 
L 20.21875 34.90625 
L 20.21875 43.015625 
L 29.109375 43.015625 
Q 36.375 43.015625 40.234375 45.921875 
Q 44.09375 48.828125 44.09375 54.296875 
Q 44.09375 59.90625 40.109375 62.90625 
Q 36.140625 65.921875 28.71875 65.921875 
Q 24.65625 65.921875 20.015625 65.03125 
Q 15.375 64.15625 9.8125 62.3125 
L 9.8125 71.09375 
Q 15.4375 72.65625 20.34375 73.4375 
Q 25.25 74.21875 29.59375 74.21875 
Q 40.828125 74.21875 47.359375 69.109375 
Q 53.90625 64.015625 53.90625 55.328125 
Q 53.90625 49.265625 50.4375 45.09375 
Q 46.96875 40.921875 40.578125 39.3125 
z
" id="DejaVuSans-33"/>
      </defs>
      <g transform="translate(10.8275 148.647482)scale(0.08 -0.08)">
       <use xlink:href="#DejaVuSans-32"/>
       <use x="63.623047" xlink:href="#DejaVuSans-2e"/>
       <use x="95.410156" xlink:href="#DejaVuSans-33"/>
      </g>
     </g>
    </g>
    <g id="ytick_7">
     <g id="line2d_12">
      <g>
       <use style="stroke:#000000;stroke-width:0.8;" x="30.55" xlink:href="#m8582a47730" y="104.604446"/>
      </g>
     </g>
     <g id="text_12">
      <!-- 2.4 -->
      <defs>
       <path d="M 37.796875 64.3125 
L 12.890625 25.390625 
L 37.796875 25.390625 
z
M 35.203125 72.90625 
L 47.609375 72.90625 
L 47.609375 25.390625 
L 58.015625 25.390625 
L 58.015625 17.1875 
L 47.609375 17.1875 
L 47.609375 0 
L 37.796875 0 
L 37.796875 17.1875 
L 4.890625 17.1875 
L 4.890625 26.703125 
z
" id="DejaVuSans-34"/>
      </defs>
      <g transform="translate(10.8275 107.643821)scale(0.08 -0.08)">
       <use xlink:href="#DejaVuSans-32"/>
       <use x="63.623047" xlink:href="#DejaVuSans-2e"/>
       <use x="95.410156" xlink:href="#DejaVuSans-34"/>
      </g>
     </g>
    </g>
    <g id="ytick_8">
     <g id="line2d_13">
      <g>
       <use style="stroke:#000000;stroke-width:0.8;" x="30.55" xlink:href="#m8582a47730" y="63.600786"/>
      </g>
     </g>
     <g id="text_13">
      <!-- 2.5 -->
      <g transform="translate(10.8275 66.640161)scale(0.08 -0.08)">
       <use xlink:href="#DejaVuSans-32"/>
       <use x="63.623047" xlink:href="#DejaVuSans-2e"/>
       <use x="95.410156" xlink:href="#DejaVuSans-35"/>
      </g>
     </g>
    </g>
   </g>
   <g id="LineCollection_1">
    <path clip-path="url(#p3971f9046e)" d="M 150.009375 66.67606 
L 184.140625 66.67606 
" style="fill:none;stroke:#1f77b4;stroke-width:1.5;"/>
    <path clip-path="url(#p3971f9046e)" d="M 286.534375 67.701152 
L 320.665625 67.701152 
" style="fill:none;stroke:#1f77b4;stroke-width:1.5;"/>
    <path clip-path="url(#p3971f9046e)" d="M 423.059375 142.27656 
L 457.190625 142.27656 
" style="fill:none;stroke:#1f77b4;stroke-width:1.5;"/>
    <path clip-path="url(#p3971f9046e)" d="M 559.584375 322.180121 
L 593.715625 322.180121 
" style="fill:none;stroke:#1f77b4;stroke-width:1.5;"/>
    <path clip-path="url(#p3971f9046e)" d="M 696.109375 341.65686 
L 730.240625 341.65686 
" style="fill:none;stroke:#1f77b4;stroke-width:1.5;"/>
   </g>
   <g id="patch_3">
    <path d="M 30.55 362.825 
L 30.55 26.8 
" style="fill:none;stroke:#000000;stroke-linecap:square;stroke-linejoin:miter;stroke-width:0.8;"/>
   </g>
   <g id="patch_4">
    <path d="M 849.7 362.825 
L 849.7 26.8 
" style="fill:none;stroke:#000000;stroke-linecap:square;stroke-linejoin:miter;stroke-width:0.8;"/>
   </g>
   <g id="patch_5">
    <path d="M 30.55 362.825 
L 849.7 362.825 
" style="fill:none;stroke:#000000;stroke-linecap:square;stroke-linejoin:miter;stroke-width:0.8;"/>
   </g>
   <g id="patch_6">
    <path d="M 30.55 26.8 
L 849.7 26.8 
" style="fill:none;stroke:#000000;stroke-linecap:square;stroke-linejoin:miter;stroke-width:0.8;"/>
   </g>
   <g id="text_14">
    <!-- axelrod - Payoff -->
    <defs>
     <path d="M 54.890625 54.6875 
L 35.109375 28.078125 
L 55.90625 0 
L 45.3125 0 
L 29.390625 21.484375 
L 13.484375 0 
L 2.875 0 
L 24.125 28.609375 
L 4.6875 54.6875 
L 15.28125 54.6875 
L 29.78125 35.203125 
L 44.28125 54.6875 
z
" id="DejaVuSans-78"/>
     <path d="M 9.421875 75.984375 
L 18.40625 75.984375 
L 18.40625 0 
L 9.421875 0 
z
" id="DejaVuSans-6c"/>
     <path d="M 4.890625 31.390625 
L 31.203125 31.390625 
L 31.203125 23.390625 
L 4.890625 23.390625 
z
" id="DejaVuSans-2d"/>
     <path d="M 19.671875 64.796875 
L 19.671875 37.40625 
L 32.078125 37.40625 
Q 38.96875 37.40625 42.71875 40.96875 
Q 46.484375 44.53125 46.484375 51.125 
Q 46.484375 57.671875 42.71875 61.234375 
Q 38.96875 64.796875 32.078125 64.796875 
z
M 9.8125 72.90625 
L 32.078125 72.90625 
Q 44.34375 72.90625 50.609375 67.359375 
Q 56.890625 61.8125 56.890625 51.125 
Q 56.890625 40.328125 50.609375 34.8125 
Q 44.34375 29.296875 32.078125 29.296875 
L 19.671875 29.296875 
L 19.671875 0 
L 9.8125 0 
z
" id="DejaVuSans-50"/>
     <path d="M 32.171875 -5.078125 
Q 28.375 -14.84375 24.75 -17.8125 
Q 21.140625 -20.796875 15.09375 -20.796875 
L 7.90625 -20.796875 
L 7.90625 -13.28125 
L 13.1875 -13.28125 
Q 16.890625 -13.28125 18.9375 -11.515625 
Q 21 -9.765625 23.484375 -3.21875 
L 25.09375 0.875 
L 2.984375 54.6875 
L 12.5 54.6875 
L 29.59375 11.921875 
L 46.6875 54.6875 
L 56.203125 54.6875 
z
" id="DejaVuSans-79"/>
    </defs>
    <g transform="translate(392.879687 20.8)scale(0.12 -0.12)">
     <use xlink:href="#DejaVuSans-61"/>
     <use x="61.279297" xlink:href="#DejaVuSans-78"/>
     <use x="120.412109" xlink:href="#DejaVuSans-65"/>
     <use x="181.935547" xlink:href="#DejaVuSans-6c"/>
     <use x="209.71875" xlink:href="#DejaVuSans-72"/>
     <use x="250.800781" xlink:href="#DejaVuSans-6f"/>
     <use x="311.982422" xlink:href="#DejaVuSans-64"/>
     <use x="375.458984" xlink:href="#DejaVuSans-20"/>
     <use x="407.246094" xlink:href="#DejaVuSans-2d"/>
     <use x="443.330078" xlink:href="#DejaVuSans-20"/>
     <use x="475.117188" xlink:href="#DejaVuSans-50"/>
     <use x="535.357422" xlink:href="#DejaVuSans-61"/>
     <use x="596.636719" xlink:href="#DejaVuSans-79"/>
     <use x="655.816406" xlink:href="#DejaVuSans-6f"/>
     <use x="716.998047" xlink:href="#DejaVuSans-66"/>
     <use x="752.203125" xlink:href="#DejaVuSans-66"/>
    </g>
   </g>
  </g>
 </g>
 <defs>
  <clipPath id="p3971f9046e">
   <rect height="336.025" width="819.15" x="30.55" y="26.8"/>
  </clipPath>
 </defs>
</svg>
