<?xml version="1.0" encoding="utf-8" standalone="no"?>
<!DOCTYPE svg PUBLIC "-//W3C//DTD SVG 1.1//EN"
  "http://www.w3.org/Graphics/SVG/1.1/DTD/svg11.dtd">
<!-- Created with matplotlib (http://matplotlib.org/) -->
<svg height="432pt" version="1.1" viewBox="0 0 864 432" width="864pt" xmlns="http://www.w3.org/2000/svg" xmlns:xlink="http://www.w3.org/1999/xlink">
 <defs>
  <style type="text/css">
*{stroke-linecap:butt;stroke-linejoin:round;}
  </style>
 </defs>
 <g id="figure_1">
  <g id="patch_1">
   <path d="M 0 432 
L 864 432 
L 864 0 
L 0 0 
z
" style="fill:#ffffff;"/>
  </g>
  <g id="axes_1">
   <g id="patch_2">
    <path d="M 29.675 368.575 
L 849.7 368.575 
L 849.7 26.8 
L 29.675 26.8 
z
" style="fill:#ffffff;"/>
   </g>
   <g id="PolyCollection_1">
    <path clip-path="url(#p319a96a145)" d="M 234.68125 197.6875 
L 152.67875 197.6875 
L 152.694987 196.118285 
L 152.806782 194.54907 
L 153.01335 192.979855 
L 153.313249 191.41064 
L 153.704391 189.841426 
L 154.184072 188.272211 
L 154.749001 186.702996 
L 155.395333 185.133781 
L 156.118719 183.564566 
L 156.91435 181.995351 
L 157.777011 180.426136 
L 158.701138 178.856921 
L 159.680875 177.287707 
L 160.710138 175.718492 
L 161.782674 174.149277 
L 162.892125 172.580062 
L 164.032088 171.010847 
L 165.196172 169.441632 
L 166.378061 167.872417 
L 167.571563 166.303202 
L 168.77066 164.733988 
L 169.969556 163.164773 
L 171.16272 161.595558 
L 172.344915 160.026343 
L 173.511235 158.457128 
L 174.657127 156.887913 
L 175.778414 155.318698 
L 176.871304 153.749483 
L 177.9324 152.180269 
L 178.958706 150.611054 
L 179.947622 149.041839 
L 180.896941 147.472624 
L 181.804833 145.903409 
L 182.669836 144.334194 
L 183.490836 142.764979 
L 184.267044 141.195764 
L 184.997979 139.62655 
L 185.683435 138.057335 
L 186.323463 136.48812 
L 186.918338 134.918905 
L 187.468535 133.34969 
L 187.974698 131.780475 
L 188.437619 130.21126 
L 188.858207 128.642045 
L 189.237465 127.072831 
L 189.576467 125.503616 
L 189.876339 123.934401 
L 190.138234 122.365186 
L 190.363322 120.795971 
L 190.552768 119.226756 
L 190.707727 117.657541 
L 190.829328 116.088326 
L 190.918668 114.519112 
L 190.976812 112.949897 
L 191.00478 111.380682 
L 191.003558 109.811467 
L 190.974089 108.242252 
L 190.917284 106.673037 
L 190.834024 105.103822 
L 190.725167 103.534607 
L 190.591555 101.965393 
L 190.434026 100.396178 
L 190.25342 98.826963 
L 190.050593 97.257748 
L 189.826427 95.688533 
L 189.581837 94.119318 
L 189.317789 92.550103 
L 189.035302 90.980888 
L 188.735465 89.411674 
L 188.419439 87.842459 
L 188.088469 86.273244 
L 187.743889 84.704029 
L 187.387123 83.134814 
L 187.019693 81.565599 
L 186.643217 79.996384 
L 186.259408 78.427169 
L 185.87007 76.857955 
L 185.477098 75.28874 
L 185.082465 73.719525 
L 184.688214 72.15031 
L 184.296451 70.581095 
L 183.909328 69.01188 
L 183.529032 67.442665 
L 183.157765 65.87345 
L 182.797731 64.304236 
L 182.451114 62.735021 
L 182.120064 61.165806 
L 181.806671 59.596591 
L 181.512953 58.027376 
L 181.240828 56.458161 
L 180.992101 54.888946 
L 180.768445 53.319731 
L 180.571381 51.750517 
L 180.402262 50.181302 
L 180.262261 48.612087 
L 180.152357 47.042872 
L 180.073323 45.473657 
L 180.025718 43.904442 
L 180.009884 42.335227 
L 207.350116 42.335227 
L 207.350116 42.335227 
L 207.334282 43.904442 
L 207.286677 45.473657 
L 207.207643 47.042872 
L 207.097739 48.612087 
L 206.957738 50.181302 
L 206.788619 51.750517 
L 206.591555 53.319731 
L 206.367899 54.888946 
L 206.119172 56.458161 
L 205.847047 58.027376 
L 205.553329 59.596591 
L 205.239936 61.165806 
L 204.908886 62.735021 
L 204.562269 64.304236 
L 204.202235 65.87345 
L 203.830968 67.442665 
L 203.450672 69.01188 
L 203.063549 70.581095 
L 202.671786 72.15031 
L 202.277535 73.719525 
L 201.882902 75.28874 
L 201.48993 76.857955 
L 201.100592 78.427169 
L 200.716783 79.996384 
L 200.340307 81.565599 
L 199.972877 83.134814 
L 199.616111 84.704029 
L 199.271531 86.273244 
L 198.940561 87.842459 
L 198.624535 89.411674 
L 198.324698 90.980888 
L 198.042211 92.550103 
L 197.778163 94.119318 
L 197.533573 95.688533 
L 197.309407 97.257748 
L 197.10658 98.826963 
L 196.925974 100.396178 
L 196.768445 101.965393 
L 196.634833 103.534607 
L 196.525976 105.103822 
L 196.442716 106.673037 
L 196.385911 108.242252 
L 196.356442 109.811467 
L 196.35522 111.380682 
L 196.383188 112.949897 
L 196.441332 114.519112 
L 196.530672 116.088326 
L 196.652273 117.657541 
L 196.807232 119.226756 
L 196.996678 120.795971 
L 197.221766 122.365186 
L 197.483661 123.934401 
L 197.783533 125.503616 
L 198.122535 127.072831 
L 198.501793 128.642045 
L 198.922381 130.21126 
L 199.385302 131.780475 
L 199.891465 133.34969 
L 200.441662 134.918905 
L 201.036537 136.48812 
L 201.676565 138.057335 
L 202.362021 139.62655 
L 203.092956 141.195764 
L 203.869164 142.764979 
L 204.690164 144.334194 
L 205.555167 145.903409 
L 206.463059 147.472624 
L 207.412378 149.041839 
L 208.401294 150.611054 
L 209.4276 152.180269 
L 210.488696 153.749483 
L 211.581586 155.318698 
L 212.702873 156.887913 
L 213.848765 158.457128 
L 215.015085 160.026343 
L 216.19728 161.595558 
L 217.390444 163.164773 
L 218.58934 164.733988 
L 219.788437 166.303202 
L 220.981939 167.872417 
L 222.163828 169.441632 
L 223.327912 171.010847 
L 224.467875 172.580062 
L 225.577326 174.149277 
L 226.649862 175.718492 
L 227.679125 177.287707 
L 228.658862 178.856921 
L 229.582989 180.426136 
L 230.44565 181.995351 
L 231.241281 183.564566 
L 231.964667 185.133781 
L 232.610999 186.702996 
L 233.175928 188.272211 
L 233.655609 189.841426 
L 234.046751 191.41064 
L 234.34665 192.979855 
L 234.553218 194.54907 
L 234.665013 196.118285 
L 234.68125 197.6875 
z
" style="fill:#1f77b4;fill-opacity:0.3;"/>
   </g>
   <g id="PolyCollection_2">
    <path clip-path="url(#p319a96a145)" d="M 371.352503 198.464261 
L 344.017497 198.464261 
L 344.033222 198.456415 
L 344.080503 198.448569 
L 344.159002 198.440723 
L 344.268167 198.432877 
L 344.407235 198.425031 
L 344.57524 198.417185 
L 344.771026 198.409339 
L 344.993254 198.401493 
L 345.240425 198.393647 
L 345.510887 198.385801 
L 345.802856 198.377955 
L 346.114437 198.370108 
L 346.443637 198.362262 
L 346.788388 198.354416 
L 347.146566 198.34657 
L 347.51601 198.338724 
L 347.894537 198.330878 
L 348.279968 198.323032 
L 348.670138 198.315186 
L 349.062913 198.30734 
L 349.456205 198.299494 
L 349.847988 198.291648 
L 350.236302 198.283802 
L 350.619268 198.275956 
L 350.995091 198.26811 
L 351.362069 198.260263 
L 351.718591 198.252417 
L 352.063145 198.244571 
L 352.39431 198.236725 
L 352.710758 198.228879 
L 353.01125 198.221033 
L 353.294626 198.213187 
L 353.559804 198.205341 
L 353.805767 198.197495 
L 354.031554 198.189649 
L 354.236253 198.181803 
L 354.41899 198.173957 
L 354.578913 198.166111 
L 354.715191 198.158264 
L 354.826994 198.150418 
L 354.91349 198.142572 
L 354.973831 198.134726 
L 355.007151 198.12688 
L 355.012552 198.119034 
L 354.989103 198.111188 
L 354.935838 198.103342 
L 354.851749 198.095496 
L 354.735791 198.08765 
L 354.586881 198.079804 
L 354.403906 198.071958 
L 354.185727 198.064112 
L 353.931189 198.056265 
L 353.639136 198.048419 
L 353.308419 198.040573 
L 352.937919 198.032727 
L 352.526561 198.024881 
L 352.073336 198.017035 
L 351.577324 198.009189 
L 351.037717 198.001343 
L 350.453845 197.993497 
L 349.825202 197.985651 
L 349.151473 197.977805 
L 348.432559 197.969959 
L 347.668608 197.962113 
L 346.860035 197.954267 
L 346.007553 197.94642 
L 345.112193 197.938574 
L 344.175322 197.930728 
L 343.198668 197.922882 
L 342.184329 197.915036 
L 341.134788 197.90719 
L 340.052918 197.899344 
L 338.941986 197.891498 
L 337.805653 197.883652 
L 336.64796 197.875806 
L 335.473326 197.86796 
L 334.286521 197.860114 
L 333.092647 197.852268 
L 331.89711 197.844421 
L 330.705584 197.836575 
L 329.523972 197.828729 
L 328.358363 197.820883 
L 327.214983 197.813037 
L 326.100144 197.805191 
L 325.020189 197.797345 
L 323.981433 197.789499 
L 322.990101 197.781653 
L 322.052274 197.773807 
L 321.173821 197.765961 
L 320.360343 197.758115 
L 319.617113 197.750269 
L 318.949021 197.742423 
L 318.360516 197.734576 
L 317.855565 197.72673 
L 317.4376 197.718884 
L 317.109489 197.711038 
L 316.873494 197.703192 
L 316.731251 197.695346 
L 316.68375 197.6875 
L 398.68625 197.6875 
L 398.68625 197.6875 
L 398.638749 197.695346 
L 398.496506 197.703192 
L 398.260511 197.711038 
L 397.9324 197.718884 
L 397.514435 197.72673 
L 397.009484 197.734576 
L 396.420979 197.742423 
L 395.752887 197.750269 
L 395.009657 197.758115 
L 394.196179 197.765961 
L 393.317726 197.773807 
L 392.379899 197.781653 
L 391.388567 197.789499 
L 390.349811 197.797345 
L 389.269856 197.805191 
L 388.155017 197.813037 
L 387.011637 197.820883 
L 385.846028 197.828729 
L 384.664416 197.836575 
L 383.47289 197.844421 
L 382.277353 197.852268 
L 381.083479 197.860114 
L 379.896674 197.86796 
L 378.72204 197.875806 
L 377.564347 197.883652 
L 376.428014 197.891498 
L 375.317082 197.899344 
L 374.235212 197.90719 
L 373.185671 197.915036 
L 372.171332 197.922882 
L 371.194678 197.930728 
L 370.257807 197.938574 
L 369.362447 197.94642 
L 368.509965 197.954267 
L 367.701392 197.962113 
L 366.937441 197.969959 
L 366.218527 197.977805 
L 365.544798 197.985651 
L 364.916155 197.993497 
L 364.332283 198.001343 
L 363.792676 198.009189 
L 363.296664 198.017035 
L 362.843439 198.024881 
L 362.432081 198.032727 
L 362.061581 198.040573 
L 361.730864 198.048419 
L 361.438811 198.056265 
L 361.184273 198.064112 
L 360.966094 198.071958 
L 360.783119 198.079804 
L 360.634209 198.08765 
L 360.518251 198.095496 
L 360.434162 198.103342 
L 360.380897 198.111188 
L 360.357448 198.119034 
L 360.362849 198.12688 
L 360.396169 198.134726 
L 360.45651 198.142572 
L 360.543006 198.150418 
L 360.654809 198.158264 
L 360.791087 198.166111 
L 360.95101 198.173957 
L 361.133747 198.181803 
L 361.338446 198.189649 
L 361.564233 198.197495 
L 361.810196 198.205341 
L 362.075374 198.213187 
L 362.35875 198.221033 
L 362.659242 198.228879 
L 362.97569 198.236725 
L 363.306855 198.244571 
L 363.651409 198.252417 
L 364.007931 198.260263 
L 364.374909 198.26811 
L 364.750732 198.275956 
L 365.133698 198.283802 
L 365.522012 198.291648 
L 365.913795 198.299494 
L 366.307087 198.30734 
L 366.699862 198.315186 
L 367.090032 198.323032 
L 367.475463 198.330878 
L 367.85399 198.338724 
L 368.223434 198.34657 
L 368.581612 198.354416 
L 368.926363 198.362262 
L 369.255563 198.370108 
L 369.567144 198.377955 
L 369.859113 198.385801 
L 370.129575 198.393647 
L 370.376746 198.401493 
L 370.598974 198.409339 
L 370.79476 198.417185 
L 370.962765 198.425031 
L 371.101833 198.432877 
L 371.210998 198.440723 
L 371.289497 198.448569 
L 371.336778 198.456415 
L 371.352503 198.464261 
z
" style="fill:#1f77b4;fill-opacity:0.3;"/>
   </g>
   <g id="PolyCollection_3">
    <path clip-path="url(#p319a96a145)" d="M 535.357503 198.464261 
L 508.022497 198.464261 
L 508.038222 198.456415 
L 508.085503 198.448569 
L 508.164002 198.440723 
L 508.273167 198.432877 
L 508.412235 198.425031 
L 508.58024 198.417185 
L 508.776026 198.409339 
L 508.998254 198.401493 
L 509.245425 198.393647 
L 509.515887 198.385801 
L 509.807856 198.377955 
L 510.119437 198.370108 
L 510.448637 198.362262 
L 510.793388 198.354416 
L 511.151566 198.34657 
L 511.52101 198.338724 
L 511.899537 198.330878 
L 512.284968 198.323032 
L 512.675138 198.315186 
L 513.067913 198.30734 
L 513.461205 198.299494 
L 513.852988 198.291648 
L 514.241302 198.283802 
L 514.624268 198.275956 
L 515.000091 198.26811 
L 515.367069 198.260263 
L 515.723591 198.252417 
L 516.068145 198.244571 
L 516.39931 198.236725 
L 516.715758 198.228879 
L 517.01625 198.221033 
L 517.299626 198.213187 
L 517.564804 198.205341 
L 517.810767 198.197495 
L 518.036554 198.189649 
L 518.241253 198.181803 
L 518.42399 198.173957 
L 518.583913 198.166111 
L 518.720191 198.158264 
L 518.831994 198.150418 
L 518.91849 198.142572 
L 518.978831 198.134726 
L 519.012151 198.12688 
L 519.017552 198.119034 
L 518.994103 198.111188 
L 518.940838 198.103342 
L 518.856749 198.095496 
L 518.740791 198.08765 
L 518.591881 198.079804 
L 518.408906 198.071958 
L 518.190727 198.064112 
L 517.936189 198.056265 
L 517.644136 198.048419 
L 517.313419 198.040573 
L 516.942919 198.032727 
L 516.531561 198.024881 
L 516.078336 198.017035 
L 515.582324 198.009189 
L 515.042717 198.001343 
L 514.458845 197.993497 
L 513.830202 197.985651 
L 513.156473 197.977805 
L 512.437559 197.969959 
L 511.673608 197.962113 
L 510.865035 197.954267 
L 510.012553 197.94642 
L 509.117193 197.938574 
L 508.180322 197.930728 
L 507.203668 197.922882 
L 506.189329 197.915036 
L 505.139788 197.90719 
L 504.057918 197.899344 
L 502.946986 197.891498 
L 501.810653 197.883652 
L 500.65296 197.875806 
L 499.478326 197.86796 
L 498.291521 197.860114 
L 497.097647 197.852268 
L 495.90211 197.844421 
L 494.710584 197.836575 
L 493.528972 197.828729 
L 492.363363 197.820883 
L 491.219983 197.813037 
L 490.105144 197.805191 
L 489.025189 197.797345 
L 487.986433 197.789499 
L 486.995101 197.781653 
L 486.057274 197.773807 
L 485.178821 197.765961 
L 484.365343 197.758115 
L 483.622113 197.750269 
L 482.954021 197.742423 
L 482.365516 197.734576 
L 481.860565 197.72673 
L 481.4426 197.718884 
L 481.114489 197.711038 
L 480.878494 197.703192 
L 480.736251 197.695346 
L 480.68875 197.6875 
L 562.69125 197.6875 
L 562.69125 197.6875 
L 562.643749 197.695346 
L 562.501506 197.703192 
L 562.265511 197.711038 
L 561.9374 197.718884 
L 561.519435 197.72673 
L 561.014484 197.734576 
L 560.425979 197.742423 
L 559.757887 197.750269 
L 559.014657 197.758115 
L 558.201179 197.765961 
L 557.322726 197.773807 
L 556.384899 197.781653 
L 555.393567 197.789499 
L 554.354811 197.797345 
L 553.274856 197.805191 
L 552.160017 197.813037 
L 551.016637 197.820883 
L 549.851028 197.828729 
L 548.669416 197.836575 
L 547.47789 197.844421 
L 546.282353 197.852268 
L 545.088479 197.860114 
L 543.901674 197.86796 
L 542.72704 197.875806 
L 541.569347 197.883652 
L 540.433014 197.891498 
L 539.322082 197.899344 
L 538.240212 197.90719 
L 537.190671 197.915036 
L 536.176332 197.922882 
L 535.199678 197.930728 
L 534.262807 197.938574 
L 533.367447 197.94642 
L 532.514965 197.954267 
L 531.706392 197.962113 
L 530.942441 197.969959 
L 530.223527 197.977805 
L 529.549798 197.985651 
L 528.921155 197.993497 
L 528.337283 198.001343 
L 527.797676 198.009189 
L 527.301664 198.017035 
L 526.848439 198.024881 
L 526.437081 198.032727 
L 526.066581 198.040573 
L 525.735864 198.048419 
L 525.443811 198.056265 
L 525.189273 198.064112 
L 524.971094 198.071958 
L 524.788119 198.079804 
L 524.639209 198.08765 
L 524.523251 198.095496 
L 524.439162 198.103342 
L 524.385897 198.111188 
L 524.362448 198.119034 
L 524.367849 198.12688 
L 524.401169 198.134726 
L 524.46151 198.142572 
L 524.548006 198.150418 
L 524.659809 198.158264 
L 524.796087 198.166111 
L 524.95601 198.173957 
L 525.138747 198.181803 
L 525.343446 198.189649 
L 525.569233 198.197495 
L 525.815196 198.205341 
L 526.080374 198.213187 
L 526.36375 198.221033 
L 526.664242 198.228879 
L 526.98069 198.236725 
L 527.311855 198.244571 
L 527.656409 198.252417 
L 528.012931 198.260263 
L 528.379909 198.26811 
L 528.755732 198.275956 
L 529.138698 198.283802 
L 529.527012 198.291648 
L 529.918795 198.299494 
L 530.312087 198.30734 
L 530.704862 198.315186 
L 531.095032 198.323032 
L 531.480463 198.330878 
L 531.85899 198.338724 
L 532.228434 198.34657 
L 532.586612 198.354416 
L 532.931363 198.362262 
L 533.260563 198.370108 
L 533.572144 198.377955 
L 533.864113 198.385801 
L 534.134575 198.393647 
L 534.381746 198.401493 
L 534.603974 198.409339 
L 534.79976 198.417185 
L 534.967765 198.425031 
L 535.106833 198.432877 
L 535.215998 198.440723 
L 535.294497 198.448569 
L 535.341778 198.456415 
L 535.357503 198.464261 
z
" style="fill:#1f77b4;fill-opacity:0.3;"/>
   </g>
   <g id="PolyCollection_4">
    <path clip-path="url(#p319a96a145)" d="M 699.362503 353.039773 
L 672.027497 353.039773 
L 672.043222 351.470558 
L 672.090503 349.901343 
L 672.169002 348.332128 
L 672.278167 346.762913 
L 672.417235 345.193698 
L 672.58524 343.624483 
L 672.781026 342.055269 
L 673.003254 340.486054 
L 673.250425 338.916839 
L 673.520887 337.347624 
L 673.812856 335.778409 
L 674.124437 334.209194 
L 674.453637 332.639979 
L 674.798388 331.070764 
L 675.156566 329.50155 
L 675.52601 327.932335 
L 675.904537 326.36312 
L 676.289968 324.793905 
L 676.680138 323.22469 
L 677.072913 321.655475 
L 677.466205 320.08626 
L 677.857988 318.517045 
L 678.246302 316.947831 
L 678.629268 315.378616 
L 679.005091 313.809401 
L 679.372069 312.240186 
L 679.728591 310.670971 
L 680.073145 309.101756 
L 680.40431 307.532541 
L 680.720758 305.963326 
L 681.02125 304.394112 
L 681.304626 302.824897 
L 681.569804 301.255682 
L 681.815767 299.686467 
L 682.041554 298.117252 
L 682.246253 296.548037 
L 682.42899 294.978822 
L 682.588913 293.409607 
L 682.725191 291.840393 
L 682.836994 290.271178 
L 682.92349 288.701963 
L 682.983831 287.132748 
L 683.017151 285.563533 
L 683.022552 283.994318 
L 682.999103 282.425103 
L 682.945838 280.855888 
L 682.861749 279.286674 
L 682.745791 277.717459 
L 682.596881 276.148244 
L 682.413906 274.579029 
L 682.195727 273.009814 
L 681.941189 271.440599 
L 681.649136 269.871384 
L 681.318419 268.302169 
L 680.947919 266.732955 
L 680.536561 265.16374 
L 680.083336 263.594525 
L 679.587324 262.02531 
L 679.047717 260.456095 
L 678.463845 258.88688 
L 677.835202 257.317665 
L 677.161473 255.74845 
L 676.442559 254.179236 
L 675.678608 252.610021 
L 674.870035 251.040806 
L 674.017553 249.471591 
L 673.122193 247.902376 
L 672.185322 246.333161 
L 671.208668 244.763946 
L 670.194329 243.194731 
L 669.144788 241.625517 
L 668.062918 240.056302 
L 666.951986 238.487087 
L 665.815653 236.917872 
L 664.65796 235.348657 
L 663.483326 233.779442 
L 662.296521 232.210227 
L 661.102647 230.641012 
L 659.90711 229.071798 
L 658.715584 227.502583 
L 657.533972 225.933368 
L 656.368363 224.364153 
L 655.224983 222.794938 
L 654.110144 221.225723 
L 653.030189 219.656508 
L 651.991433 218.087293 
L 651.000101 216.518079 
L 650.062274 214.948864 
L 649.183821 213.379649 
L 648.370343 211.810434 
L 647.627113 210.241219 
L 646.959021 208.672004 
L 646.370516 207.102789 
L 645.865565 205.533574 
L 645.4476 203.96436 
L 645.119489 202.395145 
L 644.883494 200.82593 
L 644.741251 199.256715 
L 644.69375 197.6875 
L 726.69625 197.6875 
L 726.69625 197.6875 
L 726.648749 199.256715 
L 726.506506 200.82593 
L 726.270511 202.395145 
L 725.9424 203.96436 
L 725.524435 205.533574 
L 725.019484 207.102789 
L 724.430979 208.672004 
L 723.762887 210.241219 
L 723.019657 211.810434 
L 722.206179 213.379649 
L 721.327726 214.948864 
L 720.389899 216.518079 
L 719.398567 218.087293 
L 718.359811 219.656508 
L 717.279856 221.225723 
L 716.165017 222.794938 
L 715.021637 224.364153 
L 713.856028 225.933368 
L 712.674416 227.502583 
L 711.48289 229.071798 
L 710.287353 230.641012 
L 709.093479 232.210227 
L 707.906674 233.779442 
L 706.73204 235.348657 
L 705.574347 236.917872 
L 704.438014 238.487087 
L 703.327082 240.056302 
L 702.245212 241.625517 
L 701.195671 243.194731 
L 700.181332 244.763946 
L 699.204678 246.333161 
L 698.267807 247.902376 
L 697.372447 249.471591 
L 696.519965 251.040806 
L 695.711392 252.610021 
L 694.947441 254.179236 
L 694.228527 255.74845 
L 693.554798 257.317665 
L 692.926155 258.88688 
L 692.342283 260.456095 
L 691.802676 262.02531 
L 691.306664 263.594525 
L 690.853439 265.16374 
L 690.442081 266.732955 
L 690.071581 268.302169 
L 689.740864 269.871384 
L 689.448811 271.440599 
L 689.194273 273.009814 
L 688.976094 274.579029 
L 688.793119 276.148244 
L 688.644209 277.717459 
L 688.528251 279.286674 
L 688.444162 280.855888 
L 688.390897 282.425103 
L 688.367448 283.994318 
L 688.372849 285.563533 
L 688.406169 287.132748 
L 688.46651 288.701963 
L 688.553006 290.271178 
L 688.664809 291.840393 
L 688.801087 293.409607 
L 688.96101 294.978822 
L 689.143747 296.548037 
L 689.348446 298.117252 
L 689.574233 299.686467 
L 689.820196 301.255682 
L 690.085374 302.824897 
L 690.36875 304.394112 
L 690.669242 305.963326 
L 690.98569 307.532541 
L 691.316855 309.101756 
L 691.661409 310.670971 
L 692.017931 312.240186 
L 692.384909 313.809401 
L 692.760732 315.378616 
L 693.143698 316.947831 
L 693.532012 318.517045 
L 693.923795 320.08626 
L 694.317087 321.655475 
L 694.709862 323.22469 
L 695.100032 324.793905 
L 695.485463 326.36312 
L 695.86399 327.932335 
L 696.233434 329.50155 
L 696.591612 331.070764 
L 696.936363 332.639979 
L 697.265563 334.209194 
L 697.577144 335.778409 
L 697.869113 337.347624 
L 698.139575 338.916839 
L 698.386746 340.486054 
L 698.608974 342.055269 
L 698.80476 343.624483 
L 698.972765 345.193698 
L 699.111833 346.762913 
L 699.220998 348.332128 
L 699.299497 349.901343 
L 699.346778 351.470558 
L 699.362503 353.039773 
z
" style="fill:#1f77b4;fill-opacity:0.3;"/>
   </g>
   <g id="matplotlib.axis_1">
    <g id="xtick_1">
     <g id="line2d_1">
      <defs>
       <path d="M 0 0 
L 0 3.5 
" id="macf47ddd29" style="stroke:#000000;stroke-width:0.8;"/>
      </defs>
      <g>
       <use style="stroke:#000000;stroke-width:0.8;" x="193.68" xlink:href="#macf47ddd29" y="368.575"/>
      </g>
     </g>
     <g id="text_1">
      <!-- Defector -->
      <defs>
       <path d="M 19.671875 64.796875 
L 19.671875 8.109375 
L 31.59375 8.109375 
Q 46.6875 8.109375 53.6875 14.9375 
Q 60.6875 21.78125 60.6875 36.53125 
Q 60.6875 51.171875 53.6875 57.984375 
Q 46.6875 64.796875 31.59375 64.796875 
z
M 9.8125 72.90625 
L 30.078125 72.90625 
Q 51.265625 72.90625 61.171875 64.09375 
Q 71.09375 55.28125 71.09375 36.53125 
Q 71.09375 17.671875 61.125 8.828125 
Q 51.171875 0 30.078125 0 
L 9.8125 0 
z
" id="DejaVuSans-44"/>
       <path d="M 56.203125 29.59375 
L 56.203125 25.203125 
L 14.890625 25.203125 
Q 15.484375 15.921875 20.484375 11.0625 
Q 25.484375 6.203125 34.421875 6.203125 
Q 39.59375 6.203125 44.453125 7.46875 
Q 49.3125 8.734375 54.109375 11.28125 
L 54.109375 2.78125 
Q 49.265625 0.734375 44.1875 -0.34375 
Q 39.109375 -1.421875 33.890625 -1.421875 
Q 20.796875 -1.421875 13.15625 6.1875 
Q 5.515625 13.8125 5.515625 26.8125 
Q 5.515625 40.234375 12.765625 48.109375 
Q 20.015625 56 32.328125 56 
Q 43.359375 56 49.78125 48.890625 
Q 56.203125 41.796875 56.203125 29.59375 
z
M 47.21875 32.234375 
Q 47.125 39.59375 43.09375 43.984375 
Q 39.0625 48.390625 32.421875 48.390625 
Q 24.90625 48.390625 20.390625 44.140625 
Q 15.875 39.890625 15.1875 32.171875 
z
" id="DejaVuSans-65"/>
       <path d="M 37.109375 75.984375 
L 37.109375 68.5 
L 28.515625 68.5 
Q 23.6875 68.5 21.796875 66.546875 
Q 19.921875 64.59375 19.921875 59.515625 
L 19.921875 54.6875 
L 34.71875 54.6875 
L 34.71875 47.703125 
L 19.921875 47.703125 
L 19.921875 0 
L 10.890625 0 
L 10.890625 47.703125 
L 2.296875 47.703125 
L 2.296875 54.6875 
L 10.890625 54.6875 
L 10.890625 58.5 
Q 10.890625 67.625 15.140625 71.796875 
Q 19.390625 75.984375 28.609375 75.984375 
z
" id="DejaVuSans-66"/>
       <path d="M 48.78125 52.59375 
L 48.78125 44.1875 
Q 44.96875 46.296875 41.140625 47.34375 
Q 37.3125 48.390625 33.40625 48.390625 
Q 24.65625 48.390625 19.8125 42.84375 
Q 14.984375 37.3125 14.984375 27.296875 
Q 14.984375 17.28125 19.8125 11.734375 
Q 24.65625 6.203125 33.40625 6.203125 
Q 37.3125 6.203125 41.140625 7.25 
Q 44.96875 8.296875 48.78125 10.40625 
L 48.78125 2.09375 
Q 45.015625 0.34375 40.984375 -0.53125 
Q 36.96875 -1.421875 32.421875 -1.421875 
Q 20.0625 -1.421875 12.78125 6.34375 
Q 5.515625 14.109375 5.515625 27.296875 
Q 5.515625 40.671875 12.859375 48.328125 
Q 20.21875 56 33.015625 56 
Q 37.15625 56 41.109375 55.140625 
Q 45.0625 54.296875 48.78125 52.59375 
z
" id="DejaVuSans-63"/>
       <path d="M 18.3125 70.21875 
L 18.3125 54.6875 
L 36.8125 54.6875 
L 36.8125 47.703125 
L 18.3125 47.703125 
L 18.3125 18.015625 
Q 18.3125 11.328125 20.140625 9.421875 
Q 21.96875 7.515625 27.59375 7.515625 
L 36.8125 7.515625 
L 36.8125 0 
L 27.59375 0 
Q 17.1875 0 13.234375 3.875 
Q 9.28125 7.765625 9.28125 18.015625 
L 9.28125 47.703125 
L 2.6875 47.703125 
L 2.6875 54.6875 
L 9.28125 54.6875 
L 9.28125 70.21875 
z
" id="DejaVuSans-74"/>
       <path d="M 30.609375 48.390625 
Q 23.390625 48.390625 19.1875 42.75 
Q 14.984375 37.109375 14.984375 27.296875 
Q 14.984375 17.484375 19.15625 11.84375 
Q 23.34375 6.203125 30.609375 6.203125 
Q 37.796875 6.203125 41.984375 11.859375 
Q 46.1875 17.53125 46.1875 27.296875 
Q 46.1875 37.015625 41.984375 42.703125 
Q 37.796875 48.390625 30.609375 48.390625 
z
M 30.609375 56 
Q 42.328125 56 49.015625 48.375 
Q 55.71875 40.765625 55.71875 27.296875 
Q 55.71875 13.875 49.015625 6.21875 
Q 42.328125 -1.421875 30.609375 -1.421875 
Q 18.84375 -1.421875 12.171875 6.21875 
Q 5.515625 13.875 5.515625 27.296875 
Q 5.515625 40.765625 12.171875 48.375 
Q 18.84375 56 30.609375 56 
z
" id="DejaVuSans-6f"/>
       <path d="M 41.109375 46.296875 
Q 39.59375 47.171875 37.8125 47.578125 
Q 36.03125 48 33.890625 48 
Q 26.265625 48 22.1875 43.046875 
Q 18.109375 38.09375 18.109375 28.8125 
L 18.109375 0 
L 9.078125 0 
L 9.078125 54.6875 
L 18.109375 54.6875 
L 18.109375 46.1875 
Q 20.953125 51.171875 25.484375 53.578125 
Q 30.03125 56 36.53125 56 
Q 37.453125 56 38.578125 55.875 
Q 39.703125 55.765625 41.0625 55.515625 
z
" id="DejaVuSans-72"/>
      </defs>
      <g transform="translate(195.8875 410.115)rotate(-90)scale(0.08 -0.08)">
       <use xlink:href="#DejaVuSans-44"/>
       <use x="77.001953" xlink:href="#DejaVuSans-65"/>
       <use x="138.525391" xlink:href="#DejaVuSans-66"/>
       <use x="173.730469" xlink:href="#DejaVuSans-65"/>
       <use x="235.253906" xlink:href="#DejaVuSans-63"/>
       <use x="290.234375" xlink:href="#DejaVuSans-74"/>
       <use x="329.443359" xlink:href="#DejaVuSans-6f"/>
       <use x="390.625" xlink:href="#DejaVuSans-72"/>
      </g>
     </g>
    </g>
    <g id="xtick_2">
     <g id="line2d_2">
      <g>
       <use style="stroke:#000000;stroke-width:0.8;" x="357.685" xlink:href="#macf47ddd29" y="368.575"/>
      </g>
     </g>
     <g id="text_2">
      <!-- Tit For Tat -->
      <defs>
       <path d="M -0.296875 72.90625 
L 61.375 72.90625 
L 61.375 64.59375 
L 35.5 64.59375 
L 35.5 0 
L 25.59375 0 
L 25.59375 64.59375 
L -0.296875 64.59375 
z
" id="DejaVuSans-54"/>
       <path d="M 9.421875 54.6875 
L 18.40625 54.6875 
L 18.40625 0 
L 9.421875 0 
z
M 9.421875 75.984375 
L 18.40625 75.984375 
L 18.40625 64.59375 
L 9.421875 64.59375 
z
" id="DejaVuSans-69"/>
       <path id="DejaVuSans-20"/>
       <path d="M 9.8125 72.90625 
L 51.703125 72.90625 
L 51.703125 64.59375 
L 19.671875 64.59375 
L 19.671875 43.109375 
L 48.578125 43.109375 
L 48.578125 34.8125 
L 19.671875 34.8125 
L 19.671875 0 
L 9.8125 0 
z
" id="DejaVuSans-46"/>
       <path d="M 34.28125 27.484375 
Q 23.390625 27.484375 19.1875 25 
Q 14.984375 22.515625 14.984375 16.5 
Q 14.984375 11.71875 18.140625 8.90625 
Q 21.296875 6.109375 26.703125 6.109375 
Q 34.1875 6.109375 38.703125 11.40625 
Q 43.21875 16.703125 43.21875 25.484375 
L 43.21875 27.484375 
z
M 52.203125 31.203125 
L 52.203125 0 
L 43.21875 0 
L 43.21875 8.296875 
Q 40.140625 3.328125 35.546875 0.953125 
Q 30.953125 -1.421875 24.3125 -1.421875 
Q 15.921875 -1.421875 10.953125 3.296875 
Q 6 8.015625 6 15.921875 
Q 6 25.140625 12.171875 29.828125 
Q 18.359375 34.515625 30.609375 34.515625 
L 43.21875 34.515625 
L 43.21875 35.40625 
Q 43.21875 41.609375 39.140625 45 
Q 35.0625 48.390625 27.6875 48.390625 
Q 23 48.390625 18.546875 47.265625 
Q 14.109375 46.140625 10.015625 43.890625 
L 10.015625 52.203125 
Q 14.9375 54.109375 19.578125 55.046875 
Q 24.21875 56 28.609375 56 
Q 40.484375 56 46.34375 49.84375 
Q 52.203125 43.703125 52.203125 31.203125 
z
" id="DejaVuSans-61"/>
      </defs>
      <g transform="translate(359.8925 416.5875)rotate(-90)scale(0.08 -0.08)">
       <use xlink:href="#DejaVuSans-54"/>
       <use x="61.037109" xlink:href="#DejaVuSans-69"/>
       <use x="88.820312" xlink:href="#DejaVuSans-74"/>
       <use x="128.029297" xlink:href="#DejaVuSans-20"/>
       <use x="159.816406" xlink:href="#DejaVuSans-46"/>
       <use x="217.289062" xlink:href="#DejaVuSans-6f"/>
       <use x="278.470703" xlink:href="#DejaVuSans-72"/>
       <use x="319.583984" xlink:href="#DejaVuSans-20"/>
       <use x="351.371094" xlink:href="#DejaVuSans-54"/>
       <use x="412.205078" xlink:href="#DejaVuSans-61"/>
       <use x="473.484375" xlink:href="#DejaVuSans-74"/>
      </g>
     </g>
    </g>
    <g id="xtick_3">
     <g id="line2d_3">
      <g>
       <use style="stroke:#000000;stroke-width:0.8;" x="521.69" xlink:href="#macf47ddd29" y="368.575"/>
      </g>
     </g>
     <g id="text_3">
      <!-- Grudger -->
      <defs>
       <path d="M 59.515625 10.40625 
L 59.515625 29.984375 
L 43.40625 29.984375 
L 43.40625 38.09375 
L 69.28125 38.09375 
L 69.28125 6.78125 
Q 63.578125 2.734375 56.6875 0.65625 
Q 49.8125 -1.421875 42 -1.421875 
Q 24.90625 -1.421875 15.25 8.5625 
Q 5.609375 18.5625 5.609375 36.375 
Q 5.609375 54.25 15.25 64.234375 
Q 24.90625 74.21875 42 74.21875 
Q 49.125 74.21875 55.546875 72.453125 
Q 61.96875 70.703125 67.390625 67.28125 
L 67.390625 56.78125 
Q 61.921875 61.421875 55.765625 63.765625 
Q 49.609375 66.109375 42.828125 66.109375 
Q 29.4375 66.109375 22.71875 58.640625 
Q 16.015625 51.171875 16.015625 36.375 
Q 16.015625 21.625 22.71875 14.15625 
Q 29.4375 6.6875 42.828125 6.6875 
Q 48.046875 6.6875 52.140625 7.59375 
Q 56.25 8.5 59.515625 10.40625 
z
" id="DejaVuSans-47"/>
       <path d="M 8.5 21.578125 
L 8.5 54.6875 
L 17.484375 54.6875 
L 17.484375 21.921875 
Q 17.484375 14.15625 20.5 10.265625 
Q 23.53125 6.390625 29.59375 6.390625 
Q 36.859375 6.390625 41.078125 11.03125 
Q 45.3125 15.671875 45.3125 23.6875 
L 45.3125 54.6875 
L 54.296875 54.6875 
L 54.296875 0 
L 45.3125 0 
L 45.3125 8.40625 
Q 42.046875 3.421875 37.71875 1 
Q 33.40625 -1.421875 27.6875 -1.421875 
Q 18.265625 -1.421875 13.375 4.4375 
Q 8.5 10.296875 8.5 21.578125 
z
M 31.109375 56 
z
" id="DejaVuSans-75"/>
       <path d="M 45.40625 46.390625 
L 45.40625 75.984375 
L 54.390625 75.984375 
L 54.390625 0 
L 45.40625 0 
L 45.40625 8.203125 
Q 42.578125 3.328125 38.25 0.953125 
Q 33.9375 -1.421875 27.875 -1.421875 
Q 17.96875 -1.421875 11.734375 6.484375 
Q 5.515625 14.40625 5.515625 27.296875 
Q 5.515625 40.1875 11.734375 48.09375 
Q 17.96875 56 27.875 56 
Q 33.9375 56 38.25 53.625 
Q 42.578125 51.265625 45.40625 46.390625 
z
M 14.796875 27.296875 
Q 14.796875 17.390625 18.875 11.75 
Q 22.953125 6.109375 30.078125 6.109375 
Q 37.203125 6.109375 41.296875 11.75 
Q 45.40625 17.390625 45.40625 27.296875 
Q 45.40625 37.203125 41.296875 42.84375 
Q 37.203125 48.484375 30.078125 48.484375 
Q 22.953125 48.484375 18.875 42.84375 
Q 14.796875 37.203125 14.796875 27.296875 
z
" id="DejaVuSans-64"/>
       <path d="M 45.40625 27.984375 
Q 45.40625 37.75 41.375 43.109375 
Q 37.359375 48.484375 30.078125 48.484375 
Q 22.859375 48.484375 18.828125 43.109375 
Q 14.796875 37.75 14.796875 27.984375 
Q 14.796875 18.265625 18.828125 12.890625 
Q 22.859375 7.515625 30.078125 7.515625 
Q 37.359375 7.515625 41.375 12.890625 
Q 45.40625 18.265625 45.40625 27.984375 
z
M 54.390625 6.78125 
Q 54.390625 -7.171875 48.1875 -13.984375 
Q 42 -20.796875 29.203125 -20.796875 
Q 24.46875 -20.796875 20.265625 -20.09375 
Q 16.0625 -19.390625 12.109375 -17.921875 
L 12.109375 -9.1875 
Q 16.0625 -11.328125 19.921875 -12.34375 
Q 23.78125 -13.375 27.78125 -13.375 
Q 36.625 -13.375 41.015625 -8.765625 
Q 45.40625 -4.15625 45.40625 5.171875 
L 45.40625 9.625 
Q 42.625 4.78125 38.28125 2.390625 
Q 33.9375 0 27.875 0 
Q 17.828125 0 11.671875 7.65625 
Q 5.515625 15.328125 5.515625 27.984375 
Q 5.515625 40.671875 11.671875 48.328125 
Q 17.828125 56 27.875 56 
Q 33.9375 56 38.28125 53.609375 
Q 42.625 51.21875 45.40625 46.390625 
L 45.40625 54.6875 
L 54.390625 54.6875 
z
" id="DejaVuSans-67"/>
      </defs>
      <g transform="translate(523.8975 408.50125)rotate(-90)scale(0.08 -0.08)">
       <use xlink:href="#DejaVuSans-47"/>
       <use x="77.490234" xlink:href="#DejaVuSans-72"/>
       <use x="118.603516" xlink:href="#DejaVuSans-75"/>
       <use x="181.982422" xlink:href="#DejaVuSans-64"/>
       <use x="245.458984" xlink:href="#DejaVuSans-67"/>
       <use x="308.935547" xlink:href="#DejaVuSans-65"/>
       <use x="370.458984" xlink:href="#DejaVuSans-72"/>
      </g>
     </g>
    </g>
    <g id="xtick_4">
     <g id="line2d_4">
      <g>
       <use style="stroke:#000000;stroke-width:0.8;" x="685.695" xlink:href="#macf47ddd29" y="368.575"/>
      </g>
     </g>
     <g id="text_4">
      <!-- Cooperator -->
      <defs>
       <path d="M 64.40625 67.28125 
L 64.40625 56.890625 
Q 59.421875 61.53125 53.78125 63.8125 
Q 48.140625 66.109375 41.796875 66.109375 
Q 29.296875 66.109375 22.65625 58.46875 
Q 16.015625 50.828125 16.015625 36.375 
Q 16.015625 21.96875 22.65625 14.328125 
Q 29.296875 6.6875 41.796875 6.6875 
Q 48.140625 6.6875 53.78125 8.984375 
Q 59.421875 11.28125 64.40625 15.921875 
L 64.40625 5.609375 
Q 59.234375 2.09375 53.4375 0.328125 
Q 47.65625 -1.421875 41.21875 -1.421875 
Q 24.65625 -1.421875 15.125 8.703125 
Q 5.609375 18.84375 5.609375 36.375 
Q 5.609375 53.953125 15.125 64.078125 
Q 24.65625 74.21875 41.21875 74.21875 
Q 47.75 74.21875 53.53125 72.484375 
Q 59.328125 70.75 64.40625 67.28125 
z
" id="DejaVuSans-43"/>
       <path d="M 18.109375 8.203125 
L 18.109375 -20.796875 
L 9.078125 -20.796875 
L 9.078125 54.6875 
L 18.109375 54.6875 
L 18.109375 46.390625 
Q 20.953125 51.265625 25.265625 53.625 
Q 29.59375 56 35.59375 56 
Q 45.5625 56 51.78125 48.09375 
Q 58.015625 40.1875 58.015625 27.296875 
Q 58.015625 14.40625 51.78125 6.484375 
Q 45.5625 -1.421875 35.59375 -1.421875 
Q 29.59375 -1.421875 25.265625 0.953125 
Q 20.953125 3.328125 18.109375 8.203125 
z
M 48.6875 27.296875 
Q 48.6875 37.203125 44.609375 42.84375 
Q 40.53125 48.484375 33.40625 48.484375 
Q 26.265625 48.484375 22.1875 42.84375 
Q 18.109375 37.203125 18.109375 27.296875 
Q 18.109375 17.390625 22.1875 11.75 
Q 26.265625 6.109375 33.40625 6.109375 
Q 40.53125 6.109375 44.609375 11.75 
Q 48.6875 17.390625 48.6875 27.296875 
z
" id="DejaVuSans-70"/>
      </defs>
      <g transform="translate(687.9025 420.46375)rotate(-90)scale(0.08 -0.08)">
       <use xlink:href="#DejaVuSans-43"/>
       <use x="69.824219" xlink:href="#DejaVuSans-6f"/>
       <use x="131.005859" xlink:href="#DejaVuSans-6f"/>
       <use x="192.1875" xlink:href="#DejaVuSans-70"/>
       <use x="255.664062" xlink:href="#DejaVuSans-65"/>
       <use x="317.1875" xlink:href="#DejaVuSans-72"/>
       <use x="358.300781" xlink:href="#DejaVuSans-61"/>
       <use x="419.580078" xlink:href="#DejaVuSans-74"/>
       <use x="458.789062" xlink:href="#DejaVuSans-6f"/>
       <use x="519.970703" xlink:href="#DejaVuSans-72"/>
      </g>
     </g>
    </g>
   </g>
   <g id="matplotlib.axis_2">
    <g id="ytick_1">
     <g id="line2d_5">
      <defs>
       <path d="M 0 0 
L -3.5 0 
" id="m1120c70efd" style="stroke:#000000;stroke-width:0.8;"/>
      </defs>
      <g>
       <use style="stroke:#000000;stroke-width:0.8;" x="29.675" xlink:href="#m1120c70efd" y="321.969318"/>
      </g>
     </g>
     <g id="text_5">
      <!-- −4 -->
      <defs>
       <path d="M 10.59375 35.5 
L 73.1875 35.5 
L 73.1875 27.203125 
L 10.59375 27.203125 
z
" id="DejaVuSans-2212"/>
       <path d="M 37.796875 64.3125 
L 12.890625 25.390625 
L 37.796875 25.390625 
z
M 35.203125 72.90625 
L 47.609375 72.90625 
L 47.609375 25.390625 
L 58.015625 25.390625 
L 58.015625 17.1875 
L 47.609375 17.1875 
L 47.609375 0 
L 37.796875 0 
L 37.796875 17.1875 
L 4.890625 17.1875 
L 4.890625 26.703125 
z
" id="DejaVuSans-34"/>
      </defs>
      <g transform="translate(10.88125 325.008693)scale(0.08 -0.08)">
       <use xlink:href="#DejaVuSans-2212"/>
       <use x="83.789062" xlink:href="#DejaVuSans-34"/>
      </g>
     </g>
    </g>
    <g id="ytick_2">
     <g id="line2d_6">
      <g>
       <use style="stroke:#000000;stroke-width:0.8;" x="29.675" xlink:href="#m1120c70efd" y="259.828409"/>
      </g>
     </g>
     <g id="text_6">
      <!-- −2 -->
      <defs>
       <path d="M 19.1875 8.296875 
L 53.609375 8.296875 
L 53.609375 0 
L 7.328125 0 
L 7.328125 8.296875 
Q 12.9375 14.109375 22.625 23.890625 
Q 32.328125 33.6875 34.8125 36.53125 
Q 39.546875 41.84375 41.421875 45.53125 
Q 43.3125 49.21875 43.3125 52.78125 
Q 43.3125 58.59375 39.234375 62.25 
Q 35.15625 65.921875 28.609375 65.921875 
Q 23.96875 65.921875 18.8125 64.3125 
Q 13.671875 62.703125 7.8125 59.421875 
L 7.8125 69.390625 
Q 13.765625 71.78125 18.9375 73 
Q 24.125 74.21875 28.421875 74.21875 
Q 39.75 74.21875 46.484375 68.546875 
Q 53.21875 62.890625 53.21875 53.421875 
Q 53.21875 48.921875 51.53125 44.890625 
Q 49.859375 40.875 45.40625 35.40625 
Q 44.1875 33.984375 37.640625 27.21875 
Q 31.109375 20.453125 19.1875 8.296875 
z
" id="DejaVuSans-32"/>
      </defs>
      <g transform="translate(10.88125 262.867784)scale(0.08 -0.08)">
       <use xlink:href="#DejaVuSans-2212"/>
       <use x="83.789062" xlink:href="#DejaVuSans-32"/>
      </g>
     </g>
    </g>
    <g id="ytick_3">
     <g id="line2d_7">
      <g>
       <use style="stroke:#000000;stroke-width:0.8;" x="29.675" xlink:href="#m1120c70efd" y="197.6875"/>
      </g>
     </g>
     <g id="text_7">
      <!-- 0 -->
      <defs>
       <path d="M 31.78125 66.40625 
Q 24.171875 66.40625 20.328125 58.90625 
Q 16.5 51.421875 16.5 36.375 
Q 16.5 21.390625 20.328125 13.890625 
Q 24.171875 6.390625 31.78125 6.390625 
Q 39.453125 6.390625 43.28125 13.890625 
Q 47.125 21.390625 47.125 36.375 
Q 47.125 51.421875 43.28125 58.90625 
Q 39.453125 66.40625 31.78125 66.40625 
z
M 31.78125 74.21875 
Q 44.046875 74.21875 50.515625 64.515625 
Q 56.984375 54.828125 56.984375 36.375 
Q 56.984375 17.96875 50.515625 8.265625 
Q 44.046875 -1.421875 31.78125 -1.421875 
Q 19.53125 -1.421875 13.0625 8.265625 
Q 6.59375 17.96875 6.59375 36.375 
Q 6.59375 54.828125 13.0625 64.515625 
Q 19.53125 74.21875 31.78125 74.21875 
z
" id="DejaVuSans-30"/>
      </defs>
      <g transform="translate(17.585 200.726875)scale(0.08 -0.08)">
       <use xlink:href="#DejaVuSans-30"/>
      </g>
     </g>
    </g>
    <g id="ytick_4">
     <g id="line2d_8">
      <g>
       <use style="stroke:#000000;stroke-width:0.8;" x="29.675" xlink:href="#m1120c70efd" y="135.546591"/>
      </g>
     </g>
     <g id="text_8">
      <!-- 2 -->
      <g transform="translate(17.585 138.585966)scale(0.08 -0.08)">
       <use xlink:href="#DejaVuSans-32"/>
      </g>
     </g>
    </g>
    <g id="ytick_5">
     <g id="line2d_9">
      <g>
       <use style="stroke:#000000;stroke-width:0.8;" x="29.675" xlink:href="#m1120c70efd" y="73.405682"/>
      </g>
     </g>
     <g id="text_9">
      <!-- 4 -->
      <g transform="translate(17.585 76.445057)scale(0.08 -0.08)">
       <use xlink:href="#DejaVuSans-34"/>
      </g>
     </g>
    </g>
   </g>
   <g id="LineCollection_1">
    <path clip-path="url(#p319a96a145)" d="M 173.179375 196.910739 
L 214.180625 196.910739 
" style="fill:none;stroke:#1f77b4;stroke-width:1.5;"/>
    <path clip-path="url(#p319a96a145)" d="M 337.184375 197.6875 
L 378.185625 197.6875 
" style="fill:none;stroke:#1f77b4;stroke-width:1.5;"/>
    <path clip-path="url(#p319a96a145)" d="M 501.189375 197.6875 
L 542.190625 197.6875 
" style="fill:none;stroke:#1f77b4;stroke-width:1.5;"/>
    <path clip-path="url(#p319a96a145)" d="M 665.194375 197.6875 
L 706.195625 197.6875 
" style="fill:none;stroke:#1f77b4;stroke-width:1.5;"/>
   </g>
   <g id="patch_3">
    <path d="M 29.675 368.575 
L 29.675 26.8 
" style="fill:none;stroke:#000000;stroke-linecap:square;stroke-linejoin:miter;stroke-width:0.8;"/>
   </g>
   <g id="patch_4">
    <path d="M 849.7 368.575 
L 849.7 26.8 
" style="fill:none;stroke:#000000;stroke-linecap:square;stroke-linejoin:miter;stroke-width:0.8;"/>
   </g>
   <g id="patch_5">
    <path d="M 29.675 368.575 
L 849.7 368.575 
" style="fill:none;stroke:#000000;stroke-linecap:square;stroke-linejoin:miter;stroke-width:0.8;"/>
   </g>
   <g id="patch_6">
    <path d="M 29.675 26.8 
L 849.7 26.8 
" style="fill:none;stroke:#000000;stroke-linecap:square;stroke-linejoin:miter;stroke-width:0.8;"/>
   </g>
   <g id="text_10">
    <!-- axelrod - Payoff differences -->
    <defs>
     <path d="M 54.890625 54.6875 
L 35.109375 28.078125 
L 55.90625 0 
L 45.3125 0 
L 29.390625 21.484375 
L 13.484375 0 
L 2.875 0 
L 24.125 28.609375 
L 4.6875 54.6875 
L 15.28125 54.6875 
L 29.78125 35.203125 
L 44.28125 54.6875 
z
" id="DejaVuSans-78"/>
     <path d="M 9.421875 75.984375 
L 18.40625 75.984375 
L 18.40625 0 
L 9.421875 0 
z
" id="DejaVuSans-6c"/>
     <path d="M 4.890625 31.390625 
L 31.203125 31.390625 
L 31.203125 23.390625 
L 4.890625 23.390625 
z
" id="DejaVuSans-2d"/>
     <path d="M 19.671875 64.796875 
L 19.671875 37.40625 
L 32.078125 37.40625 
Q 38.96875 37.40625 42.71875 40.96875 
Q 46.484375 44.53125 46.484375 51.125 
Q 46.484375 57.671875 42.71875 61.234375 
Q 38.96875 64.796875 32.078125 64.796875 
z
M 9.8125 72.90625 
L 32.078125 72.90625 
Q 44.34375 72.90625 50.609375 67.359375 
Q 56.890625 61.8125 56.890625 51.125 
Q 56.890625 40.328125 50.609375 34.8125 
Q 44.34375 29.296875 32.078125 29.296875 
L 19.671875 29.296875 
L 19.671875 0 
L 9.8125 0 
z
" id="DejaVuSans-50"/>
     <path d="M 32.171875 -5.078125 
Q 28.375 -14.84375 24.75 -17.8125 
Q 21.140625 -20.796875 15.09375 -20.796875 
L 7.90625 -20.796875 
L 7.90625 -13.28125 
L 13.1875 -13.28125 
Q 16.890625 -13.28125 18.9375 -11.515625 
Q 21 -9.765625 23.484375 -3.21875 
L 25.09375 0.875 
L 2.984375 54.6875 
L 12.5 54.6875 
L 29.59375 11.921875 
L 46.6875 54.6875 
L 56.203125 54.6875 
z
" id="DejaVuSans-79"/>
     <path d="M 54.890625 33.015625 
L 54.890625 0 
L 45.90625 0 
L 45.90625 32.71875 
Q 45.90625 40.484375 42.875 44.328125 
Q 39.84375 48.1875 33.796875 48.1875 
Q 26.515625 48.1875 22.3125 43.546875 
Q 18.109375 38.921875 18.109375 30.90625 
L 18.109375 0 
L 9.078125 0 
L 9.078125 54.6875 
L 18.109375 54.6875 
L 18.109375 46.1875 
Q 21.34375 51.125 25.703125 53.5625 
Q 30.078125 56 35.796875 56 
Q 45.21875 56 50.046875 50.171875 
Q 54.890625 44.34375 54.890625 33.015625 
z
" id="DejaVuSans-6e"/>
     <path d="M 44.28125 53.078125 
L 44.28125 44.578125 
Q 40.484375 46.53125 36.375 47.5 
Q 32.28125 48.484375 27.875 48.484375 
Q 21.1875 48.484375 17.84375 46.4375 
Q 14.5 44.390625 14.5 40.28125 
Q 14.5 37.15625 16.890625 35.375 
Q 19.28125 33.59375 26.515625 31.984375 
L 29.59375 31.296875 
Q 39.15625 29.25 43.1875 25.515625 
Q 47.21875 21.78125 47.21875 15.09375 
Q 47.21875 7.46875 41.1875 3.015625 
Q 35.15625 -1.421875 24.609375 -1.421875 
Q 20.21875 -1.421875 15.453125 -0.5625 
Q 10.6875 0.296875 5.421875 2 
L 5.421875 11.28125 
Q 10.40625 8.6875 15.234375 7.390625 
Q 20.0625 6.109375 24.8125 6.109375 
Q 31.15625 6.109375 34.5625 8.28125 
Q 37.984375 10.453125 37.984375 14.40625 
Q 37.984375 18.0625 35.515625 20.015625 
Q 33.0625 21.96875 24.703125 23.78125 
L 21.578125 24.515625 
Q 13.234375 26.265625 9.515625 29.90625 
Q 5.8125 33.546875 5.8125 39.890625 
Q 5.8125 47.609375 11.28125 51.796875 
Q 16.75 56 26.8125 56 
Q 31.78125 56 36.171875 55.265625 
Q 40.578125 54.546875 44.28125 53.078125 
z
" id="DejaVuSans-73"/>
    </defs>
    <g transform="translate(357.0675 20.8)scale(0.12 -0.12)">
     <use xlink:href="#DejaVuSans-61"/>
     <use x="61.279297" xlink:href="#DejaVuSans-78"/>
     <use x="120.412109" xlink:href="#DejaVuSans-65"/>
     <use x="181.935547" xlink:href="#DejaVuSans-6c"/>
     <use x="209.71875" xlink:href="#DejaVuSans-72"/>
     <use x="250.800781" xlink:href="#DejaVuSans-6f"/>
     <use x="311.982422" xlink:href="#DejaVuSans-64"/>
     <use x="375.458984" xlink:href="#DejaVuSans-20"/>
     <use x="407.246094" xlink:href="#DejaVuSans-2d"/>
     <use x="443.330078" xlink:href="#DejaVuSans-20"/>
     <use x="475.117188" xlink:href="#DejaVuSans-50"/>
     <use x="535.357422" xlink:href="#DejaVuSans-61"/>
     <use x="596.636719" xlink:href="#DejaVuSans-79"/>
     <use x="655.816406" xlink:href="#DejaVuSans-6f"/>
     <use x="716.998047" xlink:href="#DejaVuSans-66"/>
     <use x="752.203125" xlink:href="#DejaVuSans-66"/>
     <use x="787.408203" xlink:href="#DejaVuSans-20"/>
     <use x="819.195312" xlink:href="#DejaVuSans-64"/>
     <use x="882.671875" xlink:href="#DejaVuSans-69"/>
     <use x="910.455078" xlink:href="#DejaVuSans-66"/>
     <use x="945.660156" xlink:href="#DejaVuSans-66"/>
     <use x="980.865234" xlink:href="#DejaVuSans-65"/>
     <use x="1042.388672" xlink:href="#DejaVuSans-72"/>
     <use x="1083.470703" xlink:href="#DejaVuSans-65"/>
     <use x="1144.994141" xlink:href="#DejaVuSans-6e"/>
     <use x="1208.373047" xlink:href="#DejaVuSans-63"/>
     <use x="1263.353516" xlink:href="#DejaVuSans-65"/>
     <use x="1324.876953" xlink:href="#DejaVuSans-73"/>
    </g>
   </g>
  </g>
 </g>
 <defs>
  <clipPath id="p319a96a145">
   <rect height="341.775" width="820.025" x="29.675" y="26.8"/>
  </clipPath>
 </defs>
</svg>
