<?xml version="1.0" encoding="utf-8" standalone="no"?>
<!DOCTYPE svg PUBLIC "-//W3C//DTD SVG 1.1//EN"
  "http://www.w3.org/Graphics/SVG/1.1/DTD/svg11.dtd">
<!-- Created with matplotlib (http://matplotlib.org/) -->
<svg height="432pt" version="1.1" viewBox="0 0 864 432" width="864pt" xmlns="http://www.w3.org/2000/svg" xmlns:xlink="http://www.w3.org/1999/xlink">
 <defs>
  <style type="text/css">
*{stroke-linecap:butt;stroke-linejoin:round;}
  </style>
 </defs>
 <g id="figure_1">
  <g id="patch_1">
   <path d="M 0 432 
L 864 432 
L 864 0 
L 0 0 
z
" style="fill:#ffffff;"/>
  </g>
  <g id="axes_1">
   <g id="patch_2">
    <path d="M 29.675 368.575 
L 849.7 368.575 
L 849.7 26.8 
L 29.675 26.8 
z
" style="fill:#ffffff;"/>
   </g>
   <g id="PolyCollection_1">
    <path clip-path="url(#p53484d31cc)" d="M 176.07744 198.464261 
L 117.565417 198.464261 
L 117.534821 197.609039 
L 117.639013 196.753817 
L 117.876556 195.898595 
L 118.244189 195.043373 
L 118.736901 194.188151 
L 119.348042 193.332929 
L 120.069475 192.477707 
L 120.891757 191.622485 
L 121.804339 190.767262 
L 122.7958 189.91204 
L 123.854073 189.056818 
L 124.966696 188.201596 
L 126.12105 187.346374 
L 127.304593 186.491152 
L 128.505079 185.63593 
L 129.710762 184.780708 
L 130.910572 183.925486 
L 132.094269 183.070263 
L 133.252563 182.215041 
L 134.377211 181.359819 
L 135.461077 180.504597 
L 136.498167 179.649375 
L 137.483633 178.794153 
L 138.413754 177.938931 
L 139.28589 177.083709 
L 140.098423 176.228487 
L 140.850674 175.373264 
L 141.542816 174.518042 
L 142.175769 173.66282 
L 142.751098 172.807598 
L 143.270906 171.952376 
L 143.737724 171.097154 
L 144.154414 170.241932 
L 144.524068 169.38671 
L 144.849923 168.531488 
L 145.135273 167.676265 
L 145.383405 166.821043 
L 145.597537 165.965821 
L 145.780761 165.110599 
L 145.936009 164.255377 
L 146.066014 163.400155 
L 146.173292 162.544933 
L 146.260126 161.689711 
L 146.328555 160.834489 
L 146.380373 159.979267 
L 146.417136 159.124044 
L 146.440164 158.268822 
L 146.450559 157.4136 
L 146.449216 156.558378 
L 146.436844 155.703156 
L 146.413978 154.847934 
L 146.38101 153.992712 
L 146.338202 153.13749 
L 146.285711 152.282268 
L 146.223613 151.427045 
L 146.151923 150.571823 
L 146.070621 149.716601 
L 145.979666 148.861379 
L 145.879027 148.006157 
L 145.768695 147.150935 
L 145.648709 146.295713 
L 145.519166 145.440491 
L 145.380247 144.585269 
L 145.232221 143.730046 
L 145.075467 142.874824 
L 144.910477 142.019602 
L 144.737869 141.16438 
L 144.558388 140.309158 
L 144.372912 139.453936 
L 144.182448 138.598714 
L 143.98813 137.743492 
L 143.791211 136.88827 
L 143.593055 136.033048 
L 143.395124 135.177825 
L 143.198957 134.322603 
L 143.006162 133.467381 
L 142.818385 132.612159 
L 142.637295 131.756937 
L 142.464558 130.901715 
L 142.301812 130.046493 
L 142.150642 129.191271 
L 142.012556 128.336049 
L 141.88896 127.480826 
L 141.781135 126.625604 
L 141.690214 125.770382 
L 141.617168 124.91516 
L 141.562781 124.059938 
L 141.527643 123.204716 
L 141.512139 122.349494 
L 141.516437 121.494272 
L 141.540492 120.63905 
L 141.584043 119.783827 
L 141.646616 118.928605 
L 141.727536 118.073383 
L 141.825939 117.218161 
L 141.940781 116.362939 
L 142.070863 115.507717 
L 142.214847 114.652495 
L 142.371279 113.797273 
L 151.271578 113.797273 
L 151.271578 113.797273 
L 151.42801 114.652495 
L 151.571994 115.507717 
L 151.702076 116.362939 
L 151.816918 117.218161 
L 151.915321 118.073383 
L 151.996241 118.928605 
L 152.058815 119.783827 
L 152.102365 120.63905 
L 152.12642 121.494272 
L 152.130719 122.349494 
L 152.115214 123.204716 
L 152.080076 124.059938 
L 152.025689 124.91516 
L 151.952643 125.770382 
L 151.861723 126.625604 
L 151.753897 127.480826 
L 151.630301 128.336049 
L 151.492215 129.191271 
L 151.341045 130.046493 
L 151.178299 130.901715 
L 151.005562 131.756937 
L 150.824472 132.612159 
L 150.636695 133.467381 
L 150.4439 134.322603 
L 150.247734 135.177825 
L 150.049802 136.033048 
L 149.851646 136.88827 
L 149.654728 137.743492 
L 149.460409 138.598714 
L 149.269945 139.453936 
L 149.084469 140.309158 
L 148.904988 141.16438 
L 148.73238 142.019602 
L 148.567391 142.874824 
L 148.410636 143.730046 
L 148.262611 144.585269 
L 148.123691 145.440491 
L 147.994149 146.295713 
L 147.874162 147.150935 
L 147.76383 148.006157 
L 147.663191 148.861379 
L 147.572237 149.716601 
L 147.490934 150.571823 
L 147.419244 151.427045 
L 147.357147 152.282268 
L 147.304656 153.13749 
L 147.261847 153.992712 
L 147.228879 154.847934 
L 147.206014 155.703156 
L 147.193641 156.558378 
L 147.192298 157.4136 
L 147.202693 158.268822 
L 147.225722 159.124044 
L 147.262484 159.979267 
L 147.314302 160.834489 
L 147.382731 161.689711 
L 147.469565 162.544933 
L 147.576844 163.400155 
L 147.706849 164.255377 
L 147.862096 165.110599 
L 148.04532 165.965821 
L 148.259452 166.821043 
L 148.507585 167.676265 
L 148.792935 168.531488 
L 149.118789 169.38671 
L 149.488443 170.241932 
L 149.905133 171.097154 
L 150.371952 171.952376 
L 150.891759 172.807598 
L 151.467088 173.66282 
L 152.100041 174.518042 
L 152.792183 175.373264 
L 153.544435 176.228487 
L 154.356967 177.083709 
L 155.229103 177.938931 
L 156.159224 178.794153 
L 157.14469 179.649375 
L 158.18178 180.504597 
L 159.265646 181.359819 
L 160.390294 182.215041 
L 161.548589 183.070263 
L 162.732285 183.925486 
L 163.932096 184.780708 
L 165.137779 185.63593 
L 166.338265 186.491152 
L 167.521807 187.346374 
L 168.676161 188.201596 
L 169.788784 189.056818 
L 170.847057 189.91204 
L 171.838518 190.767262 
L 172.751101 191.622485 
L 173.573382 192.477707 
L 174.294815 193.332929 
L 174.905956 194.188151 
L 175.398668 195.043373 
L 175.766301 195.898595 
L 176.003844 196.753817 
L 176.108036 197.609039 
L 176.07744 198.464261 
z
" style="fill:#1f77b4;fill-opacity:0.3;"/>
   </g>
   <g id="PolyCollection_2">
    <path clip-path="url(#p53484d31cc)" d="M 293.094212 198.464261 
L 234.841502 198.464261 
L 234.68125 197.969959 
L 234.732032 197.475656 
L 234.992729 196.981353 
L 235.457701 196.487051 
L 236.11699 195.992748 
L 236.956667 195.498445 
L 237.959317 195.004143 
L 239.104638 194.50984 
L 240.370113 194.015537 
L 241.731739 193.521235 
L 243.16477 193.026932 
L 244.644445 192.532629 
L 246.146675 192.038326 
L 247.648656 191.544024 
L 249.129396 191.049721 
L 250.570131 190.555418 
L 251.954634 190.061116 
L 253.269406 189.566813 
L 254.503756 189.07251 
L 255.649775 188.578208 
L 256.702226 188.083905 
L 257.658351 187.589602 
L 258.517626 187.0953 
L 259.281472 186.600997 
L 259.952943 186.106694 
L 260.536407 185.612392 
L 261.037232 185.118089 
L 261.461494 184.623786 
L 261.815699 184.129483 
L 262.106552 183.635181 
L 262.340751 183.140878 
L 262.524821 182.646575 
L 262.664981 182.152273 
L 262.767049 181.65797 
L 262.836373 181.163667 
L 262.877789 180.669365 
L 262.895603 180.175062 
L 262.893586 179.680759 
L 262.874989 179.186457 
L 262.842563 178.692154 
L 262.798593 178.197851 
L 262.74493 177.703549 
L 262.683035 177.209246 
L 262.614019 176.714943 
L 262.538693 176.22064 
L 262.457608 175.726338 
L 262.371113 175.232035 
L 262.279395 174.737732 
L 262.182538 174.24343 
L 262.080567 173.749127 
L 261.973503 173.254824 
L 261.861406 172.760522 
L 261.744424 172.266219 
L 261.622834 171.771916 
L 261.497074 171.277614 
L 261.367773 170.783311 
L 261.235769 170.289008 
L 261.102118 169.794706 
L 260.968092 169.300403 
L 260.835166 168.8061 
L 260.704992 168.311798 
L 260.579368 167.817495 
L 260.460188 167.323192 
L 260.349393 166.828889 
L 260.248913 166.334587 
L 260.160605 165.840284 
L 260.08619 165.345981 
L 260.027196 164.851679 
L 259.984902 164.357376 
L 259.960294 163.863073 
L 259.954024 163.368771 
L 259.966388 162.874468 
L 259.997313 162.380165 
L 260.046357 161.885863 
L 260.112724 161.39156 
L 260.195292 160.897257 
L 260.292646 160.402955 
L 260.403129 159.908652 
L 260.524895 159.414349 
L 260.655968 158.920046 
L 260.7943 158.425744 
L 260.937837 157.931441 
L 261.08457 157.437138 
L 261.232595 156.942836 
L 261.380153 156.448533 
L 261.525668 155.95423 
L 261.667779 155.459928 
L 261.805358 154.965625 
L 261.937513 154.471322 
L 262.063598 153.97702 
L 262.183193 153.482717 
L 262.296097 152.988414 
L 262.402298 152.494112 
L 262.50195 151.999809 
L 262.59534 151.505506 
L 262.682857 151.011204 
L 262.76496 150.516901 
L 262.842144 150.022598 
L 262.914916 149.528295 
L 265.020799 149.528295 
L 265.020799 149.528295 
L 265.093571 150.022598 
L 265.170755 150.516901 
L 265.252857 151.011204 
L 265.340374 151.505506 
L 265.433764 151.999809 
L 265.533416 152.494112 
L 265.639617 152.988414 
L 265.752521 153.482717 
L 265.872117 153.97702 
L 265.998201 154.471322 
L 266.130357 154.965625 
L 266.267935 155.459928 
L 266.410047 155.95423 
L 266.555562 156.448533 
L 266.703119 156.942836 
L 266.851144 157.437138 
L 266.997878 157.931441 
L 267.141414 158.425744 
L 267.279746 158.920046 
L 267.410819 159.414349 
L 267.532585 159.908652 
L 267.643068 160.402955 
L 267.740422 160.897257 
L 267.82299 161.39156 
L 267.889358 161.885863 
L 267.938402 162.380165 
L 267.969326 162.874468 
L 267.98169 163.368771 
L 267.97542 163.863073 
L 267.950812 164.357376 
L 267.908518 164.851679 
L 267.849525 165.345981 
L 267.77511 165.840284 
L 267.686801 166.334587 
L 267.586321 166.828889 
L 267.475527 167.323192 
L 267.356346 167.817495 
L 267.230722 168.311798 
L 267.100549 168.8061 
L 266.967622 169.300403 
L 266.833596 169.794706 
L 266.699945 170.289008 
L 266.567941 170.783311 
L 266.43864 171.277614 
L 266.31288 171.771916 
L 266.19129 172.266219 
L 266.074309 172.760522 
L 265.962211 173.254824 
L 265.855147 173.749127 
L 265.753176 174.24343 
L 265.656319 174.737732 
L 265.564602 175.232035 
L 265.478106 175.726338 
L 265.397022 176.22064 
L 265.321695 176.714943 
L 265.252679 177.209246 
L 265.190784 177.703549 
L 265.137121 178.197851 
L 265.093151 178.692154 
L 265.060725 179.186457 
L 265.042128 179.680759 
L 265.040111 180.175062 
L 265.057925 180.669365 
L 265.099341 181.163667 
L 265.168666 181.65797 
L 265.270734 182.152273 
L 265.410894 182.646575 
L 265.594963 183.140878 
L 265.829163 183.635181 
L 266.120016 184.129483 
L 266.474221 184.623786 
L 266.898482 185.118089 
L 267.399308 185.612392 
L 267.982772 186.106694 
L 268.654242 186.600997 
L 269.418088 187.0953 
L 270.277364 187.589602 
L 271.233489 188.083905 
L 272.28594 188.578208 
L 273.431959 189.07251 
L 274.666308 189.566813 
L 275.98108 190.061116 
L 277.365583 190.555418 
L 278.806318 191.049721 
L 280.287058 191.544024 
L 281.78904 192.038326 
L 283.29127 192.532629 
L 284.770945 193.026932 
L 286.203975 193.521235 
L 287.565601 194.015537 
L 288.831076 194.50984 
L 289.976397 195.004143 
L 290.979048 195.498445 
L 291.818724 195.992748 
L 292.478013 196.487051 
L 292.942986 196.981353 
L 293.203682 197.475656 
L 293.254464 197.969959 
L 293.094212 198.464261 
z
" style="fill:#1f77b4;fill-opacity:0.3;"/>
   </g>
   <g id="PolyCollection_3">
    <path clip-path="url(#p53484d31cc)" d="M 389.214846 198.464261 
L 373.013726 198.464261 
L 373.026028 198.456415 
L 373.062828 198.448569 
L 373.123792 198.440723 
L 373.208367 198.432877 
L 373.315792 198.425031 
L 373.445107 198.417185 
L 373.59517 198.409339 
L 373.764671 198.401493 
L 373.952151 198.393647 
L 374.156027 198.385801 
L 374.374607 198.377955 
L 374.60612 198.370108 
L 374.848734 198.362262 
L 375.100583 198.354416 
L 375.359788 198.34657 
L 375.624482 198.338724 
L 375.892829 198.330878 
L 376.163044 198.323032 
L 376.433411 198.315186 
L 376.7023 198.30734 
L 376.968177 198.299494 
L 377.22962 198.291648 
L 377.485323 198.283802 
L 377.734105 198.275956 
L 377.974911 198.26811 
L 378.206815 198.260263 
L 378.429018 198.252417 
L 378.640841 198.244571 
L 378.841726 198.236725 
L 379.03122 198.228879 
L 379.208972 198.221033 
L 379.374718 198.213187 
L 379.528271 198.205341 
L 379.669505 198.197495 
L 379.798346 198.189649 
L 379.914751 198.181803 
L 380.018698 198.173957 
L 380.110167 198.166111 
L 380.189129 198.158264 
L 380.255527 198.150418 
L 380.309268 198.142572 
L 380.350201 198.134726 
L 380.378111 198.12688 
L 380.392707 198.119034 
L 380.393606 198.111188 
L 380.38033 198.103342 
L 380.352296 198.095496 
L 380.308812 198.08765 
L 380.249068 198.079804 
L 380.17214 198.071958 
L 380.076989 198.064112 
L 379.962462 198.056265 
L 379.827298 198.048419 
L 379.670138 198.040573 
L 379.489535 198.032727 
L 379.283966 198.024881 
L 379.051853 198.017035 
L 378.791578 198.009189 
L 378.501513 198.001343 
L 378.180039 197.993497 
L 377.825579 197.985651 
L 377.436628 197.977805 
L 377.011788 197.969959 
L 376.549804 197.962113 
L 376.049599 197.954267 
L 375.510314 197.94642 
L 374.931348 197.938574 
L 374.312395 197.930728 
L 373.653481 197.922882 
L 372.954999 197.915036 
L 372.217748 197.90719 
L 371.442952 197.899344 
L 370.632296 197.891498 
L 369.787938 197.883652 
L 368.912527 197.875806 
L 368.009209 197.86796 
L 367.081627 197.860114 
L 366.133912 197.852268 
L 365.170667 197.844421 
L 364.196941 197.836575 
L 363.218197 197.828729 
L 362.240266 197.820883 
L 361.2693 197.813037 
L 360.311709 197.805191 
L 359.374095 197.797345 
L 358.463186 197.789499 
L 357.585747 197.781653 
L 356.74851 197.773807 
L 355.95808 197.765961 
L 355.220854 197.758115 
L 354.542933 197.750269 
L 353.930042 197.742423 
L 353.387446 197.734576 
L 352.919875 197.72673 
L 352.531457 197.718884 
L 352.225659 197.711038 
L 352.005231 197.703192 
L 351.872167 197.695346 
L 351.827679 197.6875 
L 410.400893 197.6875 
L 410.400893 197.6875 
L 410.356404 197.695346 
L 410.223341 197.703192 
L 410.002912 197.711038 
L 409.697114 197.718884 
L 409.308697 197.72673 
L 408.841126 197.734576 
L 408.298529 197.742423 
L 407.685638 197.750269 
L 407.007718 197.758115 
L 406.270491 197.765961 
L 405.480061 197.773807 
L 404.642824 197.781653 
L 403.765386 197.789499 
L 402.854476 197.797345 
L 401.916863 197.805191 
L 400.959271 197.813037 
L 399.988305 197.820883 
L 399.010375 197.828729 
L 398.031631 197.836575 
L 397.057905 197.844421 
L 396.09466 197.852268 
L 395.146944 197.860114 
L 394.219362 197.86796 
L 393.316044 197.875806 
L 392.440634 197.883652 
L 391.596276 197.891498 
L 390.785619 197.899344 
L 390.010824 197.90719 
L 389.273572 197.915036 
L 388.575091 197.922882 
L 387.916176 197.930728 
L 387.297223 197.938574 
L 386.718257 197.94642 
L 386.178973 197.954267 
L 385.678767 197.962113 
L 385.216783 197.969959 
L 384.791944 197.977805 
L 384.402993 197.985651 
L 384.048532 197.993497 
L 383.727058 198.001343 
L 383.436993 198.009189 
L 383.176719 198.017035 
L 382.944605 198.024881 
L 382.739036 198.032727 
L 382.558433 198.040573 
L 382.401273 198.048419 
L 382.26611 198.056265 
L 382.151582 198.064112 
L 382.056431 198.071958 
L 381.979504 198.079804 
L 381.91976 198.08765 
L 381.876275 198.095496 
L 381.848242 198.103342 
L 381.834966 198.111188 
L 381.835865 198.119034 
L 381.85046 198.12688 
L 381.878371 198.134726 
L 381.919304 198.142572 
L 381.973044 198.150418 
L 382.039443 198.158264 
L 382.118405 198.166111 
L 382.209874 198.173957 
L 382.31382 198.181803 
L 382.430225 198.189649 
L 382.559066 198.197495 
L 382.700301 198.205341 
L 382.853854 198.213187 
L 383.0196 198.221033 
L 383.197351 198.228879 
L 383.386846 198.236725 
L 383.58773 198.244571 
L 383.799554 198.252417 
L 384.021756 198.260263 
L 384.253661 198.26811 
L 384.494467 198.275956 
L 384.743249 198.283802 
L 384.998952 198.291648 
L 385.260394 198.299494 
L 385.526272 198.30734 
L 385.79516 198.315186 
L 386.065527 198.323032 
L 386.335742 198.330878 
L 386.604089 198.338724 
L 386.868784 198.34657 
L 387.127989 198.354416 
L 387.379838 198.362262 
L 387.622451 198.370108 
L 387.853964 198.377955 
L 388.072545 198.385801 
L 388.27642 198.393647 
L 388.463901 198.401493 
L 388.633402 198.409339 
L 388.783464 198.417185 
L 388.912779 198.425031 
L 389.020204 198.432877 
L 389.104779 198.440723 
L 389.165743 198.448569 
L 389.202544 198.456415 
L 389.214846 198.464261 
z
" style="fill:#1f77b4;fill-opacity:0.3;"/>
   </g>
   <g id="PolyCollection_4">
    <path clip-path="url(#p53484d31cc)" d="M 527.537653 197.6875 
L 468.983775 197.6875 
L 468.974107 196.118285 
L 469.065463 194.54907 
L 469.256142 192.979855 
L 469.54331 191.41064 
L 469.923043 189.841426 
L 470.390397 188.272211 
L 470.939483 186.702996 
L 471.563567 185.133781 
L 472.255182 183.564566 
L 473.006251 181.995351 
L 473.808218 180.426136 
L 474.652187 178.856921 
L 475.529061 177.287707 
L 476.429681 175.718492 
L 477.344968 174.149277 
L 478.266053 172.580062 
L 479.184399 171.010847 
L 480.091919 169.441632 
L 480.981076 167.872417 
L 481.844974 166.303202 
L 482.677429 164.733988 
L 483.473033 163.164773 
L 484.227194 161.595558 
L 484.936167 160.026343 
L 485.597062 158.457128 
L 486.207844 156.887913 
L 486.767319 155.318698 
L 487.2751 153.749483 
L 487.731567 152.180269 
L 488.137815 150.611054 
L 488.495595 149.041839 
L 488.807243 147.472624 
L 489.075608 145.903409 
L 489.303973 144.334194 
L 489.495972 142.764979 
L 489.655511 141.195764 
L 489.786684 139.62655 
L 489.893692 138.057335 
L 489.980767 136.48812 
L 490.052094 134.918905 
L 490.111746 133.34969 
L 490.163617 131.780475 
L 490.211368 130.21126 
L 490.258372 128.642045 
L 490.307675 127.072831 
L 490.361957 125.503616 
L 490.423507 123.934401 
L 490.494202 122.365186 
L 490.575496 120.795971 
L 490.668413 119.226756 
L 490.773553 117.657541 
L 490.8911 116.088326 
L 491.020839 114.519112 
L 491.162179 112.949897 
L 491.314179 111.380682 
L 491.47558 109.811467 
L 491.644843 108.242252 
L 491.820188 106.673037 
L 491.999634 105.103822 
L 492.181042 103.534607 
L 492.362163 101.965393 
L 492.540681 100.396178 
L 492.714254 98.826963 
L 492.880564 97.257748 
L 493.037352 95.688533 
L 493.182465 94.119318 
L 493.313887 92.550103 
L 493.429776 90.980888 
L 493.528497 89.411674 
L 493.608646 87.842459 
L 493.669075 86.273244 
L 493.708914 84.704029 
L 493.727583 83.134814 
L 493.724803 81.565599 
L 493.700606 79.996384 
L 493.655335 78.427169 
L 493.58964 76.857955 
L 493.504472 75.28874 
L 493.401075 73.719525 
L 493.280967 72.15031 
L 493.145919 70.581095 
L 492.997938 69.01188 
L 492.83923 67.442665 
L 492.672182 65.87345 
L 492.499316 64.304236 
L 492.323265 62.735021 
L 492.146727 61.165806 
L 491.972429 59.596591 
L 491.803091 58.027376 
L 491.64138 56.458161 
L 491.489876 54.888946 
L 491.351032 53.319731 
L 491.227138 51.750517 
L 491.12029 50.181302 
L 491.032357 48.612087 
L 490.964956 47.042872 
L 490.919431 45.473657 
L 490.896835 43.904442 
L 490.897918 42.335227 
L 505.623511 42.335227 
L 505.623511 42.335227 
L 505.624594 43.904442 
L 505.601998 45.473657 
L 505.556473 47.042872 
L 505.489072 48.612087 
L 505.401139 50.181302 
L 505.294291 51.750517 
L 505.170397 53.319731 
L 505.031553 54.888946 
L 504.880049 56.458161 
L 504.718338 58.027376 
L 504.548999 59.596591 
L 504.374702 61.165806 
L 504.198163 62.735021 
L 504.022112 64.304236 
L 503.849247 65.87345 
L 503.682198 67.442665 
L 503.523491 69.01188 
L 503.375509 70.581095 
L 503.240462 72.15031 
L 503.120353 73.719525 
L 503.016956 75.28874 
L 502.931789 76.857955 
L 502.866093 78.427169 
L 502.820822 79.996384 
L 502.796626 81.565599 
L 502.793846 83.134814 
L 502.812515 84.704029 
L 502.852354 86.273244 
L 502.912783 87.842459 
L 502.992932 89.411674 
L 503.091652 90.980888 
L 503.207542 92.550103 
L 503.338963 94.119318 
L 503.484076 95.688533 
L 503.640865 97.257748 
L 503.807175 98.826963 
L 503.980748 100.396178 
L 504.159265 101.965393 
L 504.340387 103.534607 
L 504.521795 105.103822 
L 504.70124 106.673037 
L 504.876585 108.242252 
L 505.045849 109.811467 
L 505.20725 111.380682 
L 505.359249 112.949897 
L 505.500589 114.519112 
L 505.630328 116.088326 
L 505.747876 117.657541 
L 505.853015 119.226756 
L 505.945933 120.795971 
L 506.027226 122.365186 
L 506.097922 123.934401 
L 506.159472 125.503616 
L 506.213754 127.072831 
L 506.263057 128.642045 
L 506.310061 130.21126 
L 506.357812 131.780475 
L 506.409683 133.34969 
L 506.469335 134.918905 
L 506.540662 136.48812 
L 506.627736 138.057335 
L 506.734744 139.62655 
L 506.865918 141.195764 
L 507.025457 142.764979 
L 507.217456 144.334194 
L 507.445821 145.903409 
L 507.714186 147.472624 
L 508.025834 149.041839 
L 508.383614 150.611054 
L 508.789862 152.180269 
L 509.246329 153.749483 
L 509.754109 155.318698 
L 510.313584 156.887913 
L 510.924367 158.457128 
L 511.585262 160.026343 
L 512.294234 161.595558 
L 513.048396 163.164773 
L 513.844 164.733988 
L 514.676455 166.303202 
L 515.540352 167.872417 
L 516.429509 169.441632 
L 517.337029 171.010847 
L 518.255376 172.580062 
L 519.17646 174.149277 
L 520.091748 175.718492 
L 520.992368 177.287707 
L 521.869241 178.856921 
L 522.71321 180.426136 
L 523.515177 181.995351 
L 524.266246 183.564566 
L 524.957861 185.133781 
L 525.581945 186.702996 
L 526.131031 188.272211 
L 526.598385 189.841426 
L 526.978119 191.41064 
L 527.265286 192.979855 
L 527.455965 194.54907 
L 527.547321 196.118285 
L 527.537653 197.6875 
z
" style="fill:#1f77b4;fill-opacity:0.3;"/>
   </g>
   <g id="PolyCollection_5">
    <path clip-path="url(#p53484d31cc)" d="M 622.810409 353.039773 
L 608.003877 353.039773 
L 607.996856 351.470558 
L 608.012334 349.901343 
L 608.04952 348.332128 
L 608.107331 346.762913 
L 608.184403 345.193698 
L 608.279113 343.624483 
L 608.3896 342.055269 
L 608.513788 340.486054 
L 608.649421 338.916839 
L 608.794098 337.347624 
L 608.945303 335.778409 
L 609.100448 334.209194 
L 609.256914 332.639979 
L 609.412085 331.070764 
L 609.563393 329.50155 
L 609.708356 327.932335 
L 609.844615 326.36312 
L 609.969968 324.793905 
L 610.082405 323.22469 
L 610.180137 321.655475 
L 610.261623 320.08626 
L 610.325587 318.517045 
L 610.371044 316.947831 
L 610.397305 315.378616 
L 610.40399 313.809401 
L 610.391029 312.240186 
L 610.358663 310.670971 
L 610.307436 309.101756 
L 610.238183 307.532541 
L 610.152016 305.963326 
L 610.050301 304.394112 
L 609.934636 302.824897 
L 609.806821 301.255682 
L 609.668825 299.686467 
L 609.522752 298.117252 
L 609.3708 296.548037 
L 609.215225 294.978822 
L 609.058295 293.409607 
L 608.902248 291.840393 
L 608.749248 290.271178 
L 608.601343 288.701963 
L 608.460419 287.132748 
L 608.328163 285.563533 
L 608.206018 283.994318 
L 608.095153 282.425103 
L 607.996425 280.855888 
L 607.910352 279.286674 
L 607.837089 277.717459 
L 607.776407 276.148244 
L 607.72768 274.579029 
L 607.689877 273.009814 
L 607.661562 271.440599 
L 607.640894 269.871384 
L 607.625646 268.302169 
L 607.613217 266.732955 
L 607.600659 265.16374 
L 607.584711 263.594525 
L 607.561835 262.02531 
L 607.528263 260.456095 
L 607.480046 258.88688 
L 607.413109 257.317665 
L 607.323319 255.74845 
L 607.20654 254.179236 
L 607.058711 252.610021 
L 606.875915 251.040806 
L 606.654452 249.471591 
L 606.390913 247.902376 
L 606.082257 246.333161 
L 605.725881 244.763946 
L 605.319693 243.194731 
L 604.862173 241.625517 
L 604.35244 240.056302 
L 603.790303 238.487087 
L 603.176303 236.917872 
L 602.511758 235.348657 
L 601.798781 233.779442 
L 601.040298 232.210227 
L 600.24005 230.641012 
L 599.402578 229.071798 
L 598.533201 227.502583 
L 597.637972 225.933368 
L 596.723625 224.364153 
L 595.797506 222.794938 
L 594.867494 221.225723 
L 593.941899 219.656508 
L 593.029363 218.087293 
L 592.138741 216.518079 
L 591.278978 214.948864 
L 590.458981 213.379649 
L 589.687487 211.810434 
L 588.972927 210.241219 
L 588.3233 208.672004 
L 587.746042 207.102789 
L 587.247912 205.533574 
L 586.834878 203.96436 
L 586.512027 202.395145 
L 586.283476 200.82593 
L 586.15231 199.256715 
L 586.120536 197.6875 
L 644.69375 197.6875 
L 644.69375 197.6875 
L 644.661976 199.256715 
L 644.53081 200.82593 
L 644.302259 202.395145 
L 643.979407 203.96436 
L 643.566374 205.533574 
L 643.068244 207.102789 
L 642.490986 208.672004 
L 641.841359 210.241219 
L 641.126799 211.810434 
L 640.355304 213.379649 
L 639.535308 214.948864 
L 638.675545 216.518079 
L 637.784923 218.087293 
L 636.872387 219.656508 
L 635.946792 221.225723 
L 635.016779 222.794938 
L 634.090661 224.364153 
L 633.176314 225.933368 
L 632.281085 227.502583 
L 631.411707 229.071798 
L 630.574236 230.641012 
L 629.773988 232.210227 
L 629.015505 233.779442 
L 628.302528 235.348657 
L 627.637983 236.917872 
L 627.023983 238.487087 
L 626.461845 240.056302 
L 625.952113 241.625517 
L 625.494593 243.194731 
L 625.088404 244.763946 
L 624.732029 246.333161 
L 624.423373 247.902376 
L 624.159834 249.471591 
L 623.93837 251.040806 
L 623.755575 252.610021 
L 623.607746 254.179236 
L 623.490967 255.74845 
L 623.401176 257.317665 
L 623.33424 258.88688 
L 623.286023 260.456095 
L 623.252451 262.02531 
L 623.229575 263.594525 
L 623.213627 265.16374 
L 623.201069 266.732955 
L 623.188639 268.302169 
L 623.173391 269.871384 
L 623.152724 271.440599 
L 623.124408 273.009814 
L 623.086606 274.579029 
L 623.037879 276.148244 
L 622.977196 277.717459 
L 622.903933 279.286674 
L 622.817861 280.855888 
L 622.719133 282.425103 
L 622.608268 283.994318 
L 622.486123 285.563533 
L 622.353867 287.132748 
L 622.212943 288.701963 
L 622.065038 290.271178 
L 621.912038 291.840393 
L 621.755991 293.409607 
L 621.599061 294.978822 
L 621.443486 296.548037 
L 621.291534 298.117252 
L 621.14546 299.686467 
L 621.007465 301.255682 
L 620.87965 302.824897 
L 620.763985 304.394112 
L 620.66227 305.963326 
L 620.576103 307.532541 
L 620.50685 309.101756 
L 620.455623 310.670971 
L 620.423257 312.240186 
L 620.410296 313.809401 
L 620.416981 315.378616 
L 620.443242 316.947831 
L 620.488698 318.517045 
L 620.552663 320.08626 
L 620.634148 321.655475 
L 620.731881 323.22469 
L 620.844318 324.793905 
L 620.969671 326.36312 
L 621.105929 327.932335 
L 621.250893 329.50155 
L 621.402201 331.070764 
L 621.557372 332.639979 
L 621.713837 334.209194 
L 621.868983 335.778409 
L 622.020188 337.347624 
L 622.164864 338.916839 
L 622.300498 340.486054 
L 622.424686 342.055269 
L 622.535172 343.624483 
L 622.629883 345.193698 
L 622.706955 346.762913 
L 622.764766 348.332128 
L 622.801952 349.901343 
L 622.81743 351.470558 
L 622.810409 353.039773 
z
" style="fill:#1f77b4;fill-opacity:0.3;"/>
   </g>
   <g id="PolyCollection_6">
    <path clip-path="url(#p53484d31cc)" d="M 755.810919 281.577727 
L 709.296224 281.577727 
L 708.575993 279.890821 
L 707.931112 278.203915 
L 707.365841 276.517009 
L 706.883063 274.830103 
L 706.484206 273.143197 
L 706.16921 271.456291 
L 705.936521 269.769385 
L 705.783131 268.082479 
L 705.704654 266.395573 
L 705.695431 264.708667 
L 705.748669 263.021761 
L 705.856608 261.334855 
L 706.010702 259.647949 
L 706.201821 257.961043 
L 706.420454 256.274137 
L 706.656922 254.587231 
L 706.901587 252.900325 
L 707.145044 251.213419 
L 707.378313 249.526513 
L 707.593007 247.839607 
L 707.781486 246.152701 
L 707.936988 244.465795 
L 708.053739 242.778889 
L 708.127046 241.091983 
L 708.153364 239.405077 
L 708.130346 237.718171 
L 708.05687 236.031265 
L 707.933056 234.34436 
L 707.760257 232.657454 
L 707.541039 230.970548 
L 707.279143 229.283642 
L 706.97943 227.596736 
L 706.647815 225.90983 
L 706.291179 224.222924 
L 705.917269 222.536018 
L 705.53458 220.849112 
L 705.152215 219.162206 
L 704.779741 217.4753 
L 704.427016 215.788394 
L 704.104011 214.101488 
L 703.820619 212.414582 
L 703.586451 210.727676 
L 703.410637 209.04077 
L 703.301622 207.353864 
L 703.266964 205.666958 
L 703.313154 203.980052 
L 703.445444 202.293146 
L 703.667702 200.60624 
L 703.982295 198.919334 
L 704.390001 197.232428 
L 704.889962 195.545522 
L 705.479669 193.858616 
L 706.154996 192.17171 
L 706.91026 190.484804 
L 707.738328 188.797898 
L 708.63076 187.110992 
L 709.577974 185.424086 
L 710.569446 183.73718 
L 711.593924 182.050274 
L 712.639655 180.363368 
L 713.694629 178.676462 
L 714.746805 176.989556 
L 715.784354 175.30265 
L 716.795869 173.615744 
L 717.770575 171.928838 
L 718.698508 170.241932 
L 719.570678 168.555026 
L 720.379198 166.86812 
L 721.117393 165.181214 
L 721.779876 163.494308 
L 722.3626 161.807402 
L 722.862882 160.120496 
L 723.279403 158.43359 
L 723.612184 156.746684 
L 723.862541 155.059778 
L 724.033024 153.372872 
L 724.127335 151.685966 
L 724.150236 149.99906 
L 724.107445 148.312154 
L 724.005514 146.625248 
L 723.851711 144.938342 
L 723.65388 143.251436 
L 723.420312 141.56453 
L 723.159597 139.877624 
L 722.880482 138.190718 
L 722.591729 136.503812 
L 722.301971 134.816906 
L 722.019572 133.13 
L 721.752494 131.443094 
L 721.508174 129.756188 
L 721.293404 128.069282 
L 721.114232 126.382376 
L 720.975869 124.69547 
L 720.882624 123.008564 
L 720.837846 121.321658 
L 720.843892 119.634752 
L 720.902116 117.947846 
L 721.012874 116.26094 
L 721.175555 114.574034 
L 743.931587 114.574034 
L 743.931587 114.574034 
L 744.094269 116.26094 
L 744.205027 117.947846 
L 744.263251 119.634752 
L 744.269297 121.321658 
L 744.224519 123.008564 
L 744.131274 124.69547 
L 743.992911 126.382376 
L 743.813738 128.069282 
L 743.598969 129.756188 
L 743.354649 131.443094 
L 743.087571 133.13 
L 742.805172 134.816906 
L 742.515414 136.503812 
L 742.226661 138.190718 
L 741.947546 139.877624 
L 741.686831 141.56453 
L 741.453263 143.251436 
L 741.255432 144.938342 
L 741.101629 146.625248 
L 740.999698 148.312154 
L 740.956907 149.99906 
L 740.979808 151.685966 
L 741.074119 153.372872 
L 741.244601 155.059778 
L 741.494958 156.746684 
L 741.827739 158.43359 
L 742.244261 160.120496 
L 742.744543 161.807402 
L 743.327267 163.494308 
L 743.98975 165.181214 
L 744.727945 166.86812 
L 745.536465 168.555026 
L 746.408635 170.241932 
L 747.336568 171.928838 
L 748.311274 173.615744 
L 749.322789 175.30265 
L 750.360337 176.989556 
L 751.412514 178.676462 
L 752.467487 180.363368 
L 753.513219 182.050274 
L 754.537697 183.73718 
L 755.529169 185.424086 
L 756.476383 187.110992 
L 757.368815 188.797898 
L 758.196883 190.484804 
L 758.952147 192.17171 
L 759.627473 193.858616 
L 760.217181 195.545522 
L 760.717142 197.232428 
L 761.124848 198.919334 
L 761.43944 200.60624 
L 761.661699 202.293146 
L 761.793989 203.980052 
L 761.840179 205.666958 
L 761.805521 207.353864 
L 761.696505 209.04077 
L 761.520692 210.727676 
L 761.286524 212.414582 
L 761.003132 214.101488 
L 760.680127 215.788394 
L 760.327402 217.4753 
L 759.954928 219.162206 
L 759.572563 220.849112 
L 759.189873 222.536018 
L 758.815964 224.222924 
L 758.459328 225.90983 
L 758.127713 227.596736 
L 757.828 229.283642 
L 757.566104 230.970548 
L 757.346886 232.657454 
L 757.174087 234.34436 
L 757.050273 236.031265 
L 756.976797 237.718171 
L 756.953778 239.405077 
L 756.980096 241.091983 
L 757.053404 242.778889 
L 757.170155 244.465795 
L 757.325656 246.152701 
L 757.514135 247.839607 
L 757.72883 249.526513 
L 757.962099 251.213419 
L 758.205556 252.900325 
L 758.45022 254.587231 
L 758.686689 256.274137 
L 758.905322 257.961043 
L 759.096441 259.647949 
L 759.250535 261.334855 
L 759.358474 263.021761 
L 759.411712 264.708667 
L 759.402488 266.395573 
L 759.324011 268.082479 
L 759.170622 269.769385 
L 758.937933 271.456291 
L 758.622937 273.143197 
L 758.22408 274.830103 
L 757.741301 276.517009 
L 757.176031 278.203915 
L 756.53115 279.890821 
L 755.810919 281.577727 
z
" style="fill:#1f77b4;fill-opacity:0.3;"/>
   </g>
   <g id="matplotlib.axis_1">
    <g id="xtick_1">
     <g id="line2d_1">
      <defs>
       <path d="M 0 0 
L 0 3.5 
" id="m370378e8f5" style="stroke:#000000;stroke-width:0.8;"/>
      </defs>
      <g>
       <use style="stroke:#000000;stroke-width:0.8;" x="146.821429" xlink:href="#m370378e8f5" y="368.575"/>
      </g>
     </g>
     <g id="text_1">
      <!-- Grudger -->
      <defs>
       <path d="M 59.515625 10.40625 
L 59.515625 29.984375 
L 43.40625 29.984375 
L 43.40625 38.09375 
L 69.28125 38.09375 
L 69.28125 6.78125 
Q 63.578125 2.734375 56.6875 0.65625 
Q 49.8125 -1.421875 42 -1.421875 
Q 24.90625 -1.421875 15.25 8.5625 
Q 5.609375 18.5625 5.609375 36.375 
Q 5.609375 54.25 15.25 64.234375 
Q 24.90625 74.21875 42 74.21875 
Q 49.125 74.21875 55.546875 72.453125 
Q 61.96875 70.703125 67.390625 67.28125 
L 67.390625 56.78125 
Q 61.921875 61.421875 55.765625 63.765625 
Q 49.609375 66.109375 42.828125 66.109375 
Q 29.4375 66.109375 22.71875 58.640625 
Q 16.015625 51.171875 16.015625 36.375 
Q 16.015625 21.625 22.71875 14.15625 
Q 29.4375 6.6875 42.828125 6.6875 
Q 48.046875 6.6875 52.140625 7.59375 
Q 56.25 8.5 59.515625 10.40625 
z
" id="DejaVuSans-47"/>
       <path d="M 41.109375 46.296875 
Q 39.59375 47.171875 37.8125 47.578125 
Q 36.03125 48 33.890625 48 
Q 26.265625 48 22.1875 43.046875 
Q 18.109375 38.09375 18.109375 28.8125 
L 18.109375 0 
L 9.078125 0 
L 9.078125 54.6875 
L 18.109375 54.6875 
L 18.109375 46.1875 
Q 20.953125 51.171875 25.484375 53.578125 
Q 30.03125 56 36.53125 56 
Q 37.453125 56 38.578125 55.875 
Q 39.703125 55.765625 41.0625 55.515625 
z
" id="DejaVuSans-72"/>
       <path d="M 8.5 21.578125 
L 8.5 54.6875 
L 17.484375 54.6875 
L 17.484375 21.921875 
Q 17.484375 14.15625 20.5 10.265625 
Q 23.53125 6.390625 29.59375 6.390625 
Q 36.859375 6.390625 41.078125 11.03125 
Q 45.3125 15.671875 45.3125 23.6875 
L 45.3125 54.6875 
L 54.296875 54.6875 
L 54.296875 0 
L 45.3125 0 
L 45.3125 8.40625 
Q 42.046875 3.421875 37.71875 1 
Q 33.40625 -1.421875 27.6875 -1.421875 
Q 18.265625 -1.421875 13.375 4.4375 
Q 8.5 10.296875 8.5 21.578125 
z
M 31.109375 56 
z
" id="DejaVuSans-75"/>
       <path d="M 45.40625 46.390625 
L 45.40625 75.984375 
L 54.390625 75.984375 
L 54.390625 0 
L 45.40625 0 
L 45.40625 8.203125 
Q 42.578125 3.328125 38.25 0.953125 
Q 33.9375 -1.421875 27.875 -1.421875 
Q 17.96875 -1.421875 11.734375 6.484375 
Q 5.515625 14.40625 5.515625 27.296875 
Q 5.515625 40.1875 11.734375 48.09375 
Q 17.96875 56 27.875 56 
Q 33.9375 56 38.25 53.625 
Q 42.578125 51.265625 45.40625 46.390625 
z
M 14.796875 27.296875 
Q 14.796875 17.390625 18.875 11.75 
Q 22.953125 6.109375 30.078125 6.109375 
Q 37.203125 6.109375 41.296875 11.75 
Q 45.40625 17.390625 45.40625 27.296875 
Q 45.40625 37.203125 41.296875 42.84375 
Q 37.203125 48.484375 30.078125 48.484375 
Q 22.953125 48.484375 18.875 42.84375 
Q 14.796875 37.203125 14.796875 27.296875 
z
" id="DejaVuSans-64"/>
       <path d="M 45.40625 27.984375 
Q 45.40625 37.75 41.375 43.109375 
Q 37.359375 48.484375 30.078125 48.484375 
Q 22.859375 48.484375 18.828125 43.109375 
Q 14.796875 37.75 14.796875 27.984375 
Q 14.796875 18.265625 18.828125 12.890625 
Q 22.859375 7.515625 30.078125 7.515625 
Q 37.359375 7.515625 41.375 12.890625 
Q 45.40625 18.265625 45.40625 27.984375 
z
M 54.390625 6.78125 
Q 54.390625 -7.171875 48.1875 -13.984375 
Q 42 -20.796875 29.203125 -20.796875 
Q 24.46875 -20.796875 20.265625 -20.09375 
Q 16.0625 -19.390625 12.109375 -17.921875 
L 12.109375 -9.1875 
Q 16.0625 -11.328125 19.921875 -12.34375 
Q 23.78125 -13.375 27.78125 -13.375 
Q 36.625 -13.375 41.015625 -8.765625 
Q 45.40625 -4.15625 45.40625 5.171875 
L 45.40625 9.625 
Q 42.625 4.78125 38.28125 2.390625 
Q 33.9375 0 27.875 0 
Q 17.828125 0 11.671875 7.65625 
Q 5.515625 15.328125 5.515625 27.984375 
Q 5.515625 40.671875 11.671875 48.328125 
Q 17.828125 56 27.875 56 
Q 33.9375 56 38.28125 53.609375 
Q 42.625 51.21875 45.40625 46.390625 
L 45.40625 54.6875 
L 54.390625 54.6875 
z
" id="DejaVuSans-67"/>
       <path d="M 56.203125 29.59375 
L 56.203125 25.203125 
L 14.890625 25.203125 
Q 15.484375 15.921875 20.484375 11.0625 
Q 25.484375 6.203125 34.421875 6.203125 
Q 39.59375 6.203125 44.453125 7.46875 
Q 49.3125 8.734375 54.109375 11.28125 
L 54.109375 2.78125 
Q 49.265625 0.734375 44.1875 -0.34375 
Q 39.109375 -1.421875 33.890625 -1.421875 
Q 20.796875 -1.421875 13.15625 6.1875 
Q 5.515625 13.8125 5.515625 26.8125 
Q 5.515625 40.234375 12.765625 48.109375 
Q 20.015625 56 32.328125 56 
Q 43.359375 56 49.78125 48.890625 
Q 56.203125 41.796875 56.203125 29.59375 
z
M 47.21875 32.234375 
Q 47.125 39.59375 43.09375 43.984375 
Q 39.0625 48.390625 32.421875 48.390625 
Q 24.90625 48.390625 20.390625 44.140625 
Q 15.875 39.890625 15.1875 32.171875 
z
" id="DejaVuSans-65"/>
      </defs>
      <g transform="translate(149.028929 408.50125)rotate(-90)scale(0.08 -0.08)">
       <use xlink:href="#DejaVuSans-47"/>
       <use x="77.490234" xlink:href="#DejaVuSans-72"/>
       <use x="118.603516" xlink:href="#DejaVuSans-75"/>
       <use x="181.982422" xlink:href="#DejaVuSans-64"/>
       <use x="245.458984" xlink:href="#DejaVuSans-67"/>
       <use x="308.935547" xlink:href="#DejaVuSans-65"/>
       <use x="370.458984" xlink:href="#DejaVuSans-72"/>
      </g>
     </g>
    </g>
    <g id="xtick_2">
     <g id="line2d_2">
      <g>
       <use style="stroke:#000000;stroke-width:0.8;" x="263.967857" xlink:href="#m370378e8f5" y="368.575"/>
      </g>
     </g>
     <g id="text_2">
      <!-- FSM Player -->
      <defs>
       <path d="M 9.8125 72.90625 
L 51.703125 72.90625 
L 51.703125 64.59375 
L 19.671875 64.59375 
L 19.671875 43.109375 
L 48.578125 43.109375 
L 48.578125 34.8125 
L 19.671875 34.8125 
L 19.671875 0 
L 9.8125 0 
z
" id="DejaVuSans-46"/>
       <path d="M 53.515625 70.515625 
L 53.515625 60.890625 
Q 47.90625 63.578125 42.921875 64.890625 
Q 37.9375 66.21875 33.296875 66.21875 
Q 25.25 66.21875 20.875 63.09375 
Q 16.5 59.96875 16.5 54.203125 
Q 16.5 49.359375 19.40625 46.890625 
Q 22.3125 44.4375 30.421875 42.921875 
L 36.375 41.703125 
Q 47.40625 39.59375 52.65625 34.296875 
Q 57.90625 29 57.90625 20.125 
Q 57.90625 9.515625 50.796875 4.046875 
Q 43.703125 -1.421875 29.984375 -1.421875 
Q 24.8125 -1.421875 18.96875 -0.25 
Q 13.140625 0.921875 6.890625 3.21875 
L 6.890625 13.375 
Q 12.890625 10.015625 18.65625 8.296875 
Q 24.421875 6.59375 29.984375 6.59375 
Q 38.421875 6.59375 43.015625 9.90625 
Q 47.609375 13.234375 47.609375 19.390625 
Q 47.609375 24.75 44.3125 27.78125 
Q 41.015625 30.8125 33.5 32.328125 
L 27.484375 33.5 
Q 16.453125 35.6875 11.515625 40.375 
Q 6.59375 45.0625 6.59375 53.421875 
Q 6.59375 63.09375 13.40625 68.65625 
Q 20.21875 74.21875 32.171875 74.21875 
Q 37.3125 74.21875 42.625 73.28125 
Q 47.953125 72.359375 53.515625 70.515625 
z
" id="DejaVuSans-53"/>
       <path d="M 9.8125 72.90625 
L 24.515625 72.90625 
L 43.109375 23.296875 
L 61.8125 72.90625 
L 76.515625 72.90625 
L 76.515625 0 
L 66.890625 0 
L 66.890625 64.015625 
L 48.09375 14.015625 
L 38.1875 14.015625 
L 19.390625 64.015625 
L 19.390625 0 
L 9.8125 0 
z
" id="DejaVuSans-4d"/>
       <path id="DejaVuSans-20"/>
       <path d="M 19.671875 64.796875 
L 19.671875 37.40625 
L 32.078125 37.40625 
Q 38.96875 37.40625 42.71875 40.96875 
Q 46.484375 44.53125 46.484375 51.125 
Q 46.484375 57.671875 42.71875 61.234375 
Q 38.96875 64.796875 32.078125 64.796875 
z
M 9.8125 72.90625 
L 32.078125 72.90625 
Q 44.34375 72.90625 50.609375 67.359375 
Q 56.890625 61.8125 56.890625 51.125 
Q 56.890625 40.328125 50.609375 34.8125 
Q 44.34375 29.296875 32.078125 29.296875 
L 19.671875 29.296875 
L 19.671875 0 
L 9.8125 0 
z
" id="DejaVuSans-50"/>
       <path d="M 9.421875 75.984375 
L 18.40625 75.984375 
L 18.40625 0 
L 9.421875 0 
z
" id="DejaVuSans-6c"/>
       <path d="M 34.28125 27.484375 
Q 23.390625 27.484375 19.1875 25 
Q 14.984375 22.515625 14.984375 16.5 
Q 14.984375 11.71875 18.140625 8.90625 
Q 21.296875 6.109375 26.703125 6.109375 
Q 34.1875 6.109375 38.703125 11.40625 
Q 43.21875 16.703125 43.21875 25.484375 
L 43.21875 27.484375 
z
M 52.203125 31.203125 
L 52.203125 0 
L 43.21875 0 
L 43.21875 8.296875 
Q 40.140625 3.328125 35.546875 0.953125 
Q 30.953125 -1.421875 24.3125 -1.421875 
Q 15.921875 -1.421875 10.953125 3.296875 
Q 6 8.015625 6 15.921875 
Q 6 25.140625 12.171875 29.828125 
Q 18.359375 34.515625 30.609375 34.515625 
L 43.21875 34.515625 
L 43.21875 35.40625 
Q 43.21875 41.609375 39.140625 45 
Q 35.0625 48.390625 27.6875 48.390625 
Q 23 48.390625 18.546875 47.265625 
Q 14.109375 46.140625 10.015625 43.890625 
L 10.015625 52.203125 
Q 14.9375 54.109375 19.578125 55.046875 
Q 24.21875 56 28.609375 56 
Q 40.484375 56 46.34375 49.84375 
Q 52.203125 43.703125 52.203125 31.203125 
z
" id="DejaVuSans-61"/>
       <path d="M 32.171875 -5.078125 
Q 28.375 -14.84375 24.75 -17.8125 
Q 21.140625 -20.796875 15.09375 -20.796875 
L 7.90625 -20.796875 
L 7.90625 -13.28125 
L 13.1875 -13.28125 
Q 16.890625 -13.28125 18.9375 -11.515625 
Q 21 -9.765625 23.484375 -3.21875 
L 25.09375 0.875 
L 2.984375 54.6875 
L 12.5 54.6875 
L 29.59375 11.921875 
L 46.6875 54.6875 
L 56.203125 54.6875 
z
" id="DejaVuSans-79"/>
      </defs>
      <g transform="translate(266.175357 419.59375)rotate(-90)scale(0.08 -0.08)">
       <use xlink:href="#DejaVuSans-46"/>
       <use x="57.503906" xlink:href="#DejaVuSans-53"/>
       <use x="120.980469" xlink:href="#DejaVuSans-4d"/>
       <use x="207.259766" xlink:href="#DejaVuSans-20"/>
       <use x="239.046875" xlink:href="#DejaVuSans-50"/>
       <use x="299.349609" xlink:href="#DejaVuSans-6c"/>
       <use x="327.132812" xlink:href="#DejaVuSans-61"/>
       <use x="388.412109" xlink:href="#DejaVuSans-79"/>
       <use x="447.591797" xlink:href="#DejaVuSans-65"/>
       <use x="509.115234" xlink:href="#DejaVuSans-72"/>
      </g>
     </g>
    </g>
    <g id="xtick_3">
     <g id="line2d_3">
      <g>
       <use style="stroke:#000000;stroke-width:0.8;" x="381.114286" xlink:href="#m370378e8f5" y="368.575"/>
      </g>
     </g>
     <g id="text_3">
      <!-- Tit For Tat -->
      <defs>
       <path d="M -0.296875 72.90625 
L 61.375 72.90625 
L 61.375 64.59375 
L 35.5 64.59375 
L 35.5 0 
L 25.59375 0 
L 25.59375 64.59375 
L -0.296875 64.59375 
z
" id="DejaVuSans-54"/>
       <path d="M 9.421875 54.6875 
L 18.40625 54.6875 
L 18.40625 0 
L 9.421875 0 
z
M 9.421875 75.984375 
L 18.40625 75.984375 
L 18.40625 64.59375 
L 9.421875 64.59375 
z
" id="DejaVuSans-69"/>
       <path d="M 18.3125 70.21875 
L 18.3125 54.6875 
L 36.8125 54.6875 
L 36.8125 47.703125 
L 18.3125 47.703125 
L 18.3125 18.015625 
Q 18.3125 11.328125 20.140625 9.421875 
Q 21.96875 7.515625 27.59375 7.515625 
L 36.8125 7.515625 
L 36.8125 0 
L 27.59375 0 
Q 17.1875 0 13.234375 3.875 
Q 9.28125 7.765625 9.28125 18.015625 
L 9.28125 47.703125 
L 2.6875 47.703125 
L 2.6875 54.6875 
L 9.28125 54.6875 
L 9.28125 70.21875 
z
" id="DejaVuSans-74"/>
       <path d="M 30.609375 48.390625 
Q 23.390625 48.390625 19.1875 42.75 
Q 14.984375 37.109375 14.984375 27.296875 
Q 14.984375 17.484375 19.15625 11.84375 
Q 23.34375 6.203125 30.609375 6.203125 
Q 37.796875 6.203125 41.984375 11.859375 
Q 46.1875 17.53125 46.1875 27.296875 
Q 46.1875 37.015625 41.984375 42.703125 
Q 37.796875 48.390625 30.609375 48.390625 
z
M 30.609375 56 
Q 42.328125 56 49.015625 48.375 
Q 55.71875 40.765625 55.71875 27.296875 
Q 55.71875 13.875 49.015625 6.21875 
Q 42.328125 -1.421875 30.609375 -1.421875 
Q 18.84375 -1.421875 12.171875 6.21875 
Q 5.515625 13.875 5.515625 27.296875 
Q 5.515625 40.765625 12.171875 48.375 
Q 18.84375 56 30.609375 56 
z
" id="DejaVuSans-6f"/>
      </defs>
      <g transform="translate(383.321786 416.5875)rotate(-90)scale(0.08 -0.08)">
       <use xlink:href="#DejaVuSans-54"/>
       <use x="61.037109" xlink:href="#DejaVuSans-69"/>
       <use x="88.820312" xlink:href="#DejaVuSans-74"/>
       <use x="128.029297" xlink:href="#DejaVuSans-20"/>
       <use x="159.816406" xlink:href="#DejaVuSans-46"/>
       <use x="217.289062" xlink:href="#DejaVuSans-6f"/>
       <use x="278.470703" xlink:href="#DejaVuSans-72"/>
       <use x="319.583984" xlink:href="#DejaVuSans-20"/>
       <use x="351.371094" xlink:href="#DejaVuSans-54"/>
       <use x="412.205078" xlink:href="#DejaVuSans-61"/>
       <use x="473.484375" xlink:href="#DejaVuSans-74"/>
      </g>
     </g>
    </g>
    <g id="xtick_4">
     <g id="line2d_4">
      <g>
       <use style="stroke:#000000;stroke-width:0.8;" x="498.260714" xlink:href="#m370378e8f5" y="368.575"/>
      </g>
     </g>
     <g id="text_4">
      <!-- Defector -->
      <defs>
       <path d="M 19.671875 64.796875 
L 19.671875 8.109375 
L 31.59375 8.109375 
Q 46.6875 8.109375 53.6875 14.9375 
Q 60.6875 21.78125 60.6875 36.53125 
Q 60.6875 51.171875 53.6875 57.984375 
Q 46.6875 64.796875 31.59375 64.796875 
z
M 9.8125 72.90625 
L 30.078125 72.90625 
Q 51.265625 72.90625 61.171875 64.09375 
Q 71.09375 55.28125 71.09375 36.53125 
Q 71.09375 17.671875 61.125 8.828125 
Q 51.171875 0 30.078125 0 
L 9.8125 0 
z
" id="DejaVuSans-44"/>
       <path d="M 37.109375 75.984375 
L 37.109375 68.5 
L 28.515625 68.5 
Q 23.6875 68.5 21.796875 66.546875 
Q 19.921875 64.59375 19.921875 59.515625 
L 19.921875 54.6875 
L 34.71875 54.6875 
L 34.71875 47.703125 
L 19.921875 47.703125 
L 19.921875 0 
L 10.890625 0 
L 10.890625 47.703125 
L 2.296875 47.703125 
L 2.296875 54.6875 
L 10.890625 54.6875 
L 10.890625 58.5 
Q 10.890625 67.625 15.140625 71.796875 
Q 19.390625 75.984375 28.609375 75.984375 
z
" id="DejaVuSans-66"/>
       <path d="M 48.78125 52.59375 
L 48.78125 44.1875 
Q 44.96875 46.296875 41.140625 47.34375 
Q 37.3125 48.390625 33.40625 48.390625 
Q 24.65625 48.390625 19.8125 42.84375 
Q 14.984375 37.3125 14.984375 27.296875 
Q 14.984375 17.28125 19.8125 11.734375 
Q 24.65625 6.203125 33.40625 6.203125 
Q 37.3125 6.203125 41.140625 7.25 
Q 44.96875 8.296875 48.78125 10.40625 
L 48.78125 2.09375 
Q 45.015625 0.34375 40.984375 -0.53125 
Q 36.96875 -1.421875 32.421875 -1.421875 
Q 20.0625 -1.421875 12.78125 6.34375 
Q 5.515625 14.109375 5.515625 27.296875 
Q 5.515625 40.671875 12.859375 48.328125 
Q 20.21875 56 33.015625 56 
Q 37.15625 56 41.109375 55.140625 
Q 45.0625 54.296875 48.78125 52.59375 
z
" id="DejaVuSans-63"/>
      </defs>
      <g transform="translate(500.468214 410.115)rotate(-90)scale(0.08 -0.08)">
       <use xlink:href="#DejaVuSans-44"/>
       <use x="77.001953" xlink:href="#DejaVuSans-65"/>
       <use x="138.525391" xlink:href="#DejaVuSans-66"/>
       <use x="173.730469" xlink:href="#DejaVuSans-65"/>
       <use x="235.253906" xlink:href="#DejaVuSans-63"/>
       <use x="290.234375" xlink:href="#DejaVuSans-74"/>
       <use x="329.443359" xlink:href="#DejaVuSans-6f"/>
       <use x="390.625" xlink:href="#DejaVuSans-72"/>
      </g>
     </g>
    </g>
    <g id="xtick_5">
     <g id="line2d_5">
      <g>
       <use style="stroke:#000000;stroke-width:0.8;" x="615.407143" xlink:href="#m370378e8f5" y="368.575"/>
      </g>
     </g>
     <g id="text_5">
      <!-- Cooperator -->
      <defs>
       <path d="M 64.40625 67.28125 
L 64.40625 56.890625 
Q 59.421875 61.53125 53.78125 63.8125 
Q 48.140625 66.109375 41.796875 66.109375 
Q 29.296875 66.109375 22.65625 58.46875 
Q 16.015625 50.828125 16.015625 36.375 
Q 16.015625 21.96875 22.65625 14.328125 
Q 29.296875 6.6875 41.796875 6.6875 
Q 48.140625 6.6875 53.78125 8.984375 
Q 59.421875 11.28125 64.40625 15.921875 
L 64.40625 5.609375 
Q 59.234375 2.09375 53.4375 0.328125 
Q 47.65625 -1.421875 41.21875 -1.421875 
Q 24.65625 -1.421875 15.125 8.703125 
Q 5.609375 18.84375 5.609375 36.375 
Q 5.609375 53.953125 15.125 64.078125 
Q 24.65625 74.21875 41.21875 74.21875 
Q 47.75 74.21875 53.53125 72.484375 
Q 59.328125 70.75 64.40625 67.28125 
z
" id="DejaVuSans-43"/>
       <path d="M 18.109375 8.203125 
L 18.109375 -20.796875 
L 9.078125 -20.796875 
L 9.078125 54.6875 
L 18.109375 54.6875 
L 18.109375 46.390625 
Q 20.953125 51.265625 25.265625 53.625 
Q 29.59375 56 35.59375 56 
Q 45.5625 56 51.78125 48.09375 
Q 58.015625 40.1875 58.015625 27.296875 
Q 58.015625 14.40625 51.78125 6.484375 
Q 45.5625 -1.421875 35.59375 -1.421875 
Q 29.59375 -1.421875 25.265625 0.953125 
Q 20.953125 3.328125 18.109375 8.203125 
z
M 48.6875 27.296875 
Q 48.6875 37.203125 44.609375 42.84375 
Q 40.53125 48.484375 33.40625 48.484375 
Q 26.265625 48.484375 22.1875 42.84375 
Q 18.109375 37.203125 18.109375 27.296875 
Q 18.109375 17.390625 22.1875 11.75 
Q 26.265625 6.109375 33.40625 6.109375 
Q 40.53125 6.109375 44.609375 11.75 
Q 48.6875 17.390625 48.6875 27.296875 
z
" id="DejaVuSans-70"/>
      </defs>
      <g transform="translate(617.614643 420.46375)rotate(-90)scale(0.08 -0.08)">
       <use xlink:href="#DejaVuSans-43"/>
       <use x="69.824219" xlink:href="#DejaVuSans-6f"/>
       <use x="131.005859" xlink:href="#DejaVuSans-6f"/>
       <use x="192.1875" xlink:href="#DejaVuSans-70"/>
       <use x="255.664062" xlink:href="#DejaVuSans-65"/>
       <use x="317.1875" xlink:href="#DejaVuSans-72"/>
       <use x="358.300781" xlink:href="#DejaVuSans-61"/>
       <use x="419.580078" xlink:href="#DejaVuSans-74"/>
       <use x="458.789062" xlink:href="#DejaVuSans-6f"/>
       <use x="519.970703" xlink:href="#DejaVuSans-72"/>
      </g>
     </g>
    </g>
    <g id="xtick_6">
     <g id="line2d_6">
      <g>
       <use style="stroke:#000000;stroke-width:0.8;" x="732.553571" xlink:href="#m370378e8f5" y="368.575"/>
      </g>
     </g>
     <g id="text_6">
      <!-- Random -->
      <defs>
       <path d="M 44.390625 34.1875 
Q 47.5625 33.109375 50.5625 29.59375 
Q 53.5625 26.078125 56.59375 19.921875 
L 66.609375 0 
L 56 0 
L 46.6875 18.703125 
Q 43.0625 26.03125 39.671875 28.421875 
Q 36.28125 30.8125 30.421875 30.8125 
L 19.671875 30.8125 
L 19.671875 0 
L 9.8125 0 
L 9.8125 72.90625 
L 32.078125 72.90625 
Q 44.578125 72.90625 50.734375 67.671875 
Q 56.890625 62.453125 56.890625 51.90625 
Q 56.890625 45.015625 53.6875 40.46875 
Q 50.484375 35.9375 44.390625 34.1875 
z
M 19.671875 64.796875 
L 19.671875 38.921875 
L 32.078125 38.921875 
Q 39.203125 38.921875 42.84375 42.21875 
Q 46.484375 45.515625 46.484375 51.90625 
Q 46.484375 58.296875 42.84375 61.546875 
Q 39.203125 64.796875 32.078125 64.796875 
z
" id="DejaVuSans-52"/>
       <path d="M 54.890625 33.015625 
L 54.890625 0 
L 45.90625 0 
L 45.90625 32.71875 
Q 45.90625 40.484375 42.875 44.328125 
Q 39.84375 48.1875 33.796875 48.1875 
Q 26.515625 48.1875 22.3125 43.546875 
Q 18.109375 38.921875 18.109375 30.90625 
L 18.109375 0 
L 9.078125 0 
L 9.078125 54.6875 
L 18.109375 54.6875 
L 18.109375 46.1875 
Q 21.34375 51.125 25.703125 53.5625 
Q 30.078125 56 35.796875 56 
Q 45.21875 56 50.046875 50.171875 
Q 54.890625 44.34375 54.890625 33.015625 
z
" id="DejaVuSans-6e"/>
       <path d="M 52 44.1875 
Q 55.375 50.25 60.0625 53.125 
Q 64.75 56 71.09375 56 
Q 79.640625 56 84.28125 50.015625 
Q 88.921875 44.046875 88.921875 33.015625 
L 88.921875 0 
L 79.890625 0 
L 79.890625 32.71875 
Q 79.890625 40.578125 77.09375 44.375 
Q 74.3125 48.1875 68.609375 48.1875 
Q 61.625 48.1875 57.5625 43.546875 
Q 53.515625 38.921875 53.515625 30.90625 
L 53.515625 0 
L 44.484375 0 
L 44.484375 32.71875 
Q 44.484375 40.625 41.703125 44.40625 
Q 38.921875 48.1875 33.109375 48.1875 
Q 26.21875 48.1875 22.15625 43.53125 
Q 18.109375 38.875 18.109375 30.90625 
L 18.109375 0 
L 9.078125 0 
L 9.078125 54.6875 
L 18.109375 54.6875 
L 18.109375 46.1875 
Q 21.1875 51.21875 25.484375 53.609375 
Q 29.78125 56 35.6875 56 
Q 41.65625 56 45.828125 52.96875 
Q 50 49.953125 52 44.1875 
z
" id="DejaVuSans-6d"/>
      </defs>
      <g transform="translate(734.761071 408.87)rotate(-90)scale(0.08 -0.08)">
       <use xlink:href="#DejaVuSans-52"/>
       <use x="69.451172" xlink:href="#DejaVuSans-61"/>
       <use x="130.730469" xlink:href="#DejaVuSans-6e"/>
       <use x="194.109375" xlink:href="#DejaVuSans-64"/>
       <use x="257.585938" xlink:href="#DejaVuSans-6f"/>
       <use x="318.767578" xlink:href="#DejaVuSans-6d"/>
      </g>
     </g>
    </g>
   </g>
   <g id="matplotlib.axis_2">
    <g id="ytick_1">
     <g id="line2d_7">
      <defs>
       <path d="M 0 0 
L -3.5 0 
" id="m148d0582de" style="stroke:#000000;stroke-width:0.8;"/>
      </defs>
      <g>
       <use style="stroke:#000000;stroke-width:0.8;" x="29.675" xlink:href="#m148d0582de" y="321.969318"/>
      </g>
     </g>
     <g id="text_7">
      <!-- 4 -->
      <defs>
       <path d="M 10.59375 35.5 
L 73.1875 35.5 
L 73.1875 27.203125 
L 10.59375 27.203125 
z
" id="DejaVuSans-2212"/>
       <path d="M 37.796875 64.3125 
L 12.890625 25.390625 
L 37.796875 25.390625 
z
M 35.203125 72.90625 
L 47.609375 72.90625 
L 47.609375 25.390625 
L 58.015625 25.390625 
L 58.015625 17.1875 
L 47.609375 17.1875 
L 47.609375 0 
L 37.796875 0 
L 37.796875 17.1875 
L 4.890625 17.1875 
L 4.890625 26.703125 
z
" id="DejaVuSans-34"/>
      </defs>
      <g transform="translate(10.88125 325.008693)scale(0.08 -0.08)">
       <use xlink:href="#DejaVuSans-2212"/>
       <use x="83.789062" xlink:href="#DejaVuSans-34"/>
      </g>
     </g>
    </g>
    <g id="ytick_2">
     <g id="line2d_8">
      <g>
       <use style="stroke:#000000;stroke-width:0.8;" x="29.675" xlink:href="#m148d0582de" y="259.828409"/>
      </g>
     </g>
     <g id="text_8">
      <!-- 2 -->
      <defs>
       <path d="M 19.1875 8.296875 
L 53.609375 8.296875 
L 53.609375 0 
L 7.328125 0 
L 7.328125 8.296875 
Q 12.9375 14.109375 22.625 23.890625 
Q 32.328125 33.6875 34.8125 36.53125 
Q 39.546875 41.84375 41.421875 45.53125 
Q 43.3125 49.21875 43.3125 52.78125 
Q 43.3125 58.59375 39.234375 62.25 
Q 35.15625 65.921875 28.609375 65.921875 
Q 23.96875 65.921875 18.8125 64.3125 
Q 13.671875 62.703125 7.8125 59.421875 
L 7.8125 69.390625 
Q 13.765625 71.78125 18.9375 73 
Q 24.125 74.21875 28.421875 74.21875 
Q 39.75 74.21875 46.484375 68.546875 
Q 53.21875 62.890625 53.21875 53.421875 
Q 53.21875 48.921875 51.53125 44.890625 
Q 49.859375 40.875 45.40625 35.40625 
Q 44.1875 33.984375 37.640625 27.21875 
Q 31.109375 20.453125 19.1875 8.296875 
z
" id="DejaVuSans-32"/>
      </defs>
      <g transform="translate(10.88125 262.867784)scale(0.08 -0.08)">
       <use xlink:href="#DejaVuSans-2212"/>
       <use x="83.789062" xlink:href="#DejaVuSans-32"/>
      </g>
     </g>
    </g>
    <g id="ytick_3">
     <g id="line2d_9">
      <g>
       <use style="stroke:#000000;stroke-width:0.8;" x="29.675" xlink:href="#m148d0582de" y="197.6875"/>
      </g>
     </g>
     <g id="text_9">
      <!-- 0 -->
      <defs>
       <path d="M 31.78125 66.40625 
Q 24.171875 66.40625 20.328125 58.90625 
Q 16.5 51.421875 16.5 36.375 
Q 16.5 21.390625 20.328125 13.890625 
Q 24.171875 6.390625 31.78125 6.390625 
Q 39.453125 6.390625 43.28125 13.890625 
Q 47.125 21.390625 47.125 36.375 
Q 47.125 51.421875 43.28125 58.90625 
Q 39.453125 66.40625 31.78125 66.40625 
z
M 31.78125 74.21875 
Q 44.046875 74.21875 50.515625 64.515625 
Q 56.984375 54.828125 56.984375 36.375 
Q 56.984375 17.96875 50.515625 8.265625 
Q 44.046875 -1.421875 31.78125 -1.421875 
Q 19.53125 -1.421875 13.0625 8.265625 
Q 6.59375 17.96875 6.59375 36.375 
Q 6.59375 54.828125 13.0625 64.515625 
Q 19.53125 74.21875 31.78125 74.21875 
z
" id="DejaVuSans-30"/>
      </defs>
      <g transform="translate(17.585 200.726875)scale(0.08 -0.08)">
       <use xlink:href="#DejaVuSans-30"/>
      </g>
     </g>
    </g>
    <g id="ytick_4">
     <g id="line2d_10">
      <g>
       <use style="stroke:#000000;stroke-width:0.8;" x="29.675" xlink:href="#m148d0582de" y="135.546591"/>
      </g>
     </g>
     <g id="text_10">
      <!-- 2 -->
      <g transform="translate(17.585 138.585966)scale(0.08 -0.08)">
       <use xlink:href="#DejaVuSans-32"/>
      </g>
     </g>
    </g>
    <g id="ytick_5">
     <g id="line2d_11">
      <g>
       <use style="stroke:#000000;stroke-width:0.8;" x="29.675" xlink:href="#m148d0582de" y="73.405682"/>
      </g>
     </g>
     <g id="text_11">
      <!-- 4 -->
      <g transform="translate(17.585 76.445057)scale(0.08 -0.08)">
       <use xlink:href="#DejaVuSans-34"/>
      </g>
     </g>
    </g>
   </g>
   <g id="LineCollection_1">
    <path clip-path="url(#p53484d31cc)" d="M 132.178125 197.6875 
L 161.464732 197.6875 
" style="fill:none;stroke:#1f77b4;stroke-width:1.5;"/>
    <path clip-path="url(#p53484d31cc)" d="M 249.324554 197.6875 
L 278.611161 197.6875 
" style="fill:none;stroke:#1f77b4;stroke-width:1.5;"/>
    <path clip-path="url(#p53484d31cc)" d="M 366.470982 197.6875 
L 395.757589 197.6875 
" style="fill:none;stroke:#1f77b4;stroke-width:1.5;"/>
    <path clip-path="url(#p53484d31cc)" d="M 483.617411 196.910739 
L 512.904018 196.910739 
" style="fill:none;stroke:#1f77b4;stroke-width:1.5;"/>
    <path clip-path="url(#p53484d31cc)" d="M 600.763839 197.6875 
L 630.050446 197.6875 
" style="fill:none;stroke:#1f77b4;stroke-width:1.5;"/>
    <path clip-path="url(#p53484d31cc)" d="M 717.910268 208.173778 
L 747.196875 208.173778 
" style="fill:none;stroke:#1f77b4;stroke-width:1.5;"/>
   </g>
   <g id="patch_3">
    <path d="M 29.675 368.575 
L 29.675 26.8 
" style="fill:none;stroke:#000000;stroke-linecap:square;stroke-linejoin:miter;stroke-width:0.8;"/>
   </g>
   <g id="patch_4">
    <path d="M 849.7 368.575 
L 849.7 26.8 
" style="fill:none;stroke:#000000;stroke-linecap:square;stroke-linejoin:miter;stroke-width:0.8;"/>
   </g>
   <g id="patch_5">
    <path d="M 29.675 368.575 
L 849.7 368.575 
" style="fill:none;stroke:#000000;stroke-linecap:square;stroke-linejoin:miter;stroke-width:0.8;"/>
   </g>
   <g id="patch_6">
    <path d="M 29.675 26.8 
L 849.7 26.8 
" style="fill:none;stroke:#000000;stroke-linecap:square;stroke-linejoin:miter;stroke-width:0.8;"/>
   </g>
   <g id="text_12">
    <!-- axelrod - Payoff differences -->
    <defs>
     <path d="M 54.890625 54.6875 
L 35.109375 28.078125 
L 55.90625 0 
L 45.3125 0 
L 29.390625 21.484375 
L 13.484375 0 
L 2.875 0 
L 24.125 28.609375 
L 4.6875 54.6875 
L 15.28125 54.6875 
L 29.78125 35.203125 
L 44.28125 54.6875 
z
" id="DejaVuSans-78"/>
     <path d="M 4.890625 31.390625 
L 31.203125 31.390625 
L 31.203125 23.390625 
L 4.890625 23.390625 
z
" id="DejaVuSans-2d"/>
     <path d="M 44.28125 53.078125 
L 44.28125 44.578125 
Q 40.484375 46.53125 36.375 47.5 
Q 32.28125 48.484375 27.875 48.484375 
Q 21.1875 48.484375 17.84375 46.4375 
Q 14.5 44.390625 14.5 40.28125 
Q 14.5 37.15625 16.890625 35.375 
Q 19.28125 33.59375 26.515625 31.984375 
L 29.59375 31.296875 
Q 39.15625 29.25 43.1875 25.515625 
Q 47.21875 21.78125 47.21875 15.09375 
Q 47.21875 7.46875 41.1875 3.015625 
Q 35.15625 -1.421875 24.609375 -1.421875 
Q 20.21875 -1.421875 15.453125 -0.5625 
Q 10.6875 0.296875 5.421875 2 
L 5.421875 11.28125 
Q 10.40625 8.6875 15.234375 7.390625 
Q 20.0625 6.109375 24.8125 6.109375 
Q 31.15625 6.109375 34.5625 8.28125 
Q 37.984375 10.453125 37.984375 14.40625 
Q 37.984375 18.0625 35.515625 20.015625 
Q 33.0625 21.96875 24.703125 23.78125 
L 21.578125 24.515625 
Q 13.234375 26.265625 9.515625 29.90625 
Q 5.8125 33.546875 5.8125 39.890625 
Q 5.8125 47.609375 11.28125 51.796875 
Q 16.75 56 26.8125 56 
Q 31.78125 56 36.171875 55.265625 
Q 40.578125 54.546875 44.28125 53.078125 
z
" id="DejaVuSans-73"/>
    </defs>
    <g transform="translate(357.0675 20.8)scale(0.12 -0.12)">
     <use xlink:href="#DejaVuSans-61"/>
     <use x="61.279297" xlink:href="#DejaVuSans-78"/>
     <use x="120.412109" xlink:href="#DejaVuSans-65"/>
     <use x="181.935547" xlink:href="#DejaVuSans-6c"/>
     <use x="209.71875" xlink:href="#DejaVuSans-72"/>
     <use x="250.800781" xlink:href="#DejaVuSans-6f"/>
     <use x="311.982422" xlink:href="#DejaVuSans-64"/>
     <use x="375.458984" xlink:href="#DejaVuSans-20"/>
     <use x="407.246094" xlink:href="#DejaVuSans-2d"/>
     <use x="443.330078" xlink:href="#DejaVuSans-20"/>
     <use x="475.117188" xlink:href="#DejaVuSans-50"/>
     <use x="535.357422" xlink:href="#DejaVuSans-61"/>
     <use x="596.636719" xlink:href="#DejaVuSans-79"/>
     <use x="655.816406" xlink:href="#DejaVuSans-6f"/>
     <use x="716.998047" xlink:href="#DejaVuSans-66"/>
     <use x="752.203125" xlink:href="#DejaVuSans-66"/>
     <use x="787.408203" xlink:href="#DejaVuSans-20"/>
     <use x="819.195312" xlink:href="#DejaVuSans-64"/>
     <use x="882.671875" xlink:href="#DejaVuSans-69"/>
     <use x="910.455078" xlink:href="#DejaVuSans-66"/>
     <use x="945.660156" xlink:href="#DejaVuSans-66"/>
     <use x="980.865234" xlink:href="#DejaVuSans-65"/>
     <use x="1042.388672" xlink:href="#DejaVuSans-72"/>
     <use x="1083.470703" xlink:href="#DejaVuSans-65"/>
     <use x="1144.994141" xlink:href="#DejaVuSans-6e"/>
     <use x="1208.373047" xlink:href="#DejaVuSans-63"/>
     <use x="1263.353516" xlink:href="#DejaVuSans-65"/>
     <use x="1324.876953" xlink:href="#DejaVuSans-73"/>
    </g>
   </g>
  </g>
 </g>
 <defs>
  <clipPath id="p53484d31cc">
   <rect height="341.775" width="820.025" x="29.675" y="26.8"/>
  </clipPath>
 </defs>
</svg>
