<?xml version="1.0" encoding="utf-8" standalone="no"?>
<!DOCTYPE svg PUBLIC "-//W3C//DTD SVG 1.1//EN"
  "http://www.w3.org/Graphics/SVG/1.1/DTD/svg11.dtd">
<!-- Created with matplotlib (http://matplotlib.org/) -->
<svg height="432pt" version="1.1" viewBox="0 0 864 432" width="864pt" xmlns="http://www.w3.org/2000/svg" xmlns:xlink="http://www.w3.org/1999/xlink">
 <defs>
  <style type="text/css">
*{stroke-linecap:butt;stroke-linejoin:round;}
  </style>
 </defs>
 <g id="figure_1">
  <g id="patch_1">
   <path d="M 0 432 
L 864 432 
L 864 0 
L 0 0 
z
" style="fill:#ffffff;"/>
  </g>
  <g id="axes_1">
   <g id="patch_2">
    <path d="M 30.55 368.575 
L 849.7 368.575 
L 849.7 26.8 
L 30.55 26.8 
z
" style="fill:#ffffff;"/>
   </g>
   <g id="PolyCollection_1">
    <path clip-path="url(#pd19a659773)" d="M 168.985349 72.403409 
L 126.157508 72.403409 
L 125.736742 72.09969 
L 125.333228 71.795971 
L 124.947149 71.492252 
L 124.57855 71.188533 
L 124.22734 70.884814 
L 123.893298 70.581095 
L 123.576083 70.277376 
L 123.275244 69.973657 
L 122.990226 69.669938 
L 122.720388 69.366219 
L 122.465012 69.0625 
L 122.223321 68.758781 
L 121.994491 68.455062 
L 121.777664 68.151343 
L 121.57197 67.847624 
L 121.376536 67.543905 
L 121.190501 67.240186 
L 121.013035 66.936467 
L 120.843346 66.632748 
L 120.680695 66.329029 
L 120.524408 66.02531 
L 120.373881 65.721591 
L 120.228591 65.417872 
L 120.088101 65.114153 
L 119.952064 64.810434 
L 119.820226 64.506715 
L 119.692424 64.202996 
L 119.568587 63.899277 
L 119.448735 63.595558 
L 119.332968 63.291839 
L 119.221467 62.98812 
L 119.114481 62.684401 
L 119.012324 62.380682 
L 118.915361 62.076963 
L 118.823998 61.773244 
L 118.738677 61.469525 
L 118.659856 61.165806 
L 118.588008 60.862087 
L 118.523601 60.558368 
L 118.467096 60.254649 
L 118.41893 59.95093 
L 118.379513 59.647211 
L 118.349217 59.343492 
L 118.328369 59.039773 
L 118.317246 58.736054 
L 118.316071 58.432335 
L 118.325012 58.128616 
L 118.344174 57.824897 
L 118.373607 57.521178 
L 118.4133 57.217459 
L 118.463189 56.91374 
L 118.523157 56.610021 
L 118.59304 56.306302 
L 118.672633 56.002583 
L 118.761697 55.698864 
L 118.859964 55.395145 
L 118.967146 55.091426 
L 119.082945 54.787707 
L 119.207057 54.483988 
L 119.339183 54.180269 
L 119.479039 53.87655 
L 119.626356 53.572831 
L 119.780895 53.269112 
L 119.942448 52.965393 
L 120.110848 52.661674 
L 120.285967 52.357955 
L 120.467727 52.054236 
L 120.656096 51.750517 
L 120.851095 51.446798 
L 121.052793 51.143079 
L 121.261308 50.83936 
L 121.476808 50.53564 
L 121.699503 50.231921 
L 121.929642 49.928202 
L 122.167511 49.624483 
L 122.413425 49.320764 
L 122.667718 49.017045 
L 122.930742 48.713326 
L 123.202855 48.409607 
L 123.484413 48.105888 
L 123.775765 47.802169 
L 124.07724 47.49845 
L 124.389142 47.194731 
L 124.711742 46.891012 
L 125.045267 46.587293 
L 125.389898 46.283574 
L 125.745758 45.979855 
L 126.11291 45.676136 
L 126.491349 45.372417 
L 126.881001 45.068698 
L 127.281716 44.764979 
L 127.693268 44.46126 
L 128.115353 44.157541 
L 128.547588 43.853822 
L 128.989512 43.550103 
L 129.440589 43.246384 
L 129.900206 42.942665 
L 130.367681 42.638946 
L 130.842268 42.335227 
L 164.300589 42.335227 
L 164.300589 42.335227 
L 164.775176 42.638946 
L 165.242652 42.942665 
L 165.702268 43.246384 
L 166.153345 43.550103 
L 166.595269 43.853822 
L 167.027504 44.157541 
L 167.449589 44.46126 
L 167.861141 44.764979 
L 168.261856 45.068698 
L 168.651508 45.372417 
L 169.029947 45.676136 
L 169.397099 45.979855 
L 169.752959 46.283574 
L 170.09759 46.587293 
L 170.431115 46.891012 
L 170.753715 47.194731 
L 171.065618 47.49845 
L 171.367093 47.802169 
L 171.658444 48.105888 
L 171.940003 48.409607 
L 172.212115 48.713326 
L 172.475139 49.017045 
L 172.729432 49.320764 
L 172.975346 49.624483 
L 173.213215 49.928202 
L 173.443355 50.231921 
L 173.666049 50.53564 
L 173.881549 50.83936 
L 174.090065 51.143079 
L 174.291762 51.446798 
L 174.486761 51.750517 
L 174.67513 52.054236 
L 174.85689 52.357955 
L 175.032009 52.661674 
L 175.200409 52.965393 
L 175.361962 53.269112 
L 175.516501 53.572831 
L 175.663818 53.87655 
L 175.803674 54.180269 
L 175.935801 54.483988 
L 176.059913 54.787707 
L 176.175711 55.091426 
L 176.282893 55.395145 
L 176.38116 55.698864 
L 176.470224 56.002583 
L 176.549817 56.306302 
L 176.6197 56.610021 
L 176.679668 56.91374 
L 176.729557 57.217459 
L 176.769251 57.521178 
L 176.798683 57.824897 
L 176.817845 58.128616 
L 176.826786 58.432335 
L 176.825611 58.736054 
L 176.814488 59.039773 
L 176.79364 59.343492 
L 176.763344 59.647211 
L 176.723927 59.95093 
L 176.675761 60.254649 
L 176.619256 60.558368 
L 176.554849 60.862087 
L 176.483001 61.165806 
L 176.40418 61.469525 
L 176.318859 61.773244 
L 176.227496 62.076963 
L 176.130533 62.380682 
L 176.028376 62.684401 
L 175.921391 62.98812 
L 175.809889 63.291839 
L 175.694122 63.595558 
L 175.57427 63.899277 
L 175.450433 64.202996 
L 175.322631 64.506715 
L 175.190793 64.810434 
L 175.054756 65.114153 
L 174.914266 65.417872 
L 174.768976 65.721591 
L 174.618449 66.02531 
L 174.462162 66.329029 
L 174.299511 66.632748 
L 174.129822 66.936467 
L 173.952356 67.240186 
L 173.766322 67.543905 
L 173.570887 67.847624 
L 173.365193 68.151343 
L 173.148366 68.455062 
L 172.919536 68.758781 
L 172.677845 69.0625 
L 172.42247 69.366219 
L 172.152631 69.669938 
L 171.867614 69.973657 
L 171.566774 70.277376 
L 171.249559 70.581095 
L 170.915517 70.884814 
L 170.564307 71.188533 
L 170.195708 71.492252 
L 169.80963 71.795971 
L 169.406116 72.09969 
L 168.985349 72.403409 
z
" style="fill:#1f77b4;fill-opacity:0.3;"/>
   </g>
   <g id="PolyCollection_2">
    <path clip-path="url(#pd19a659773)" d="M 281.684171 97.126136 
L 247.501543 97.126136 
L 246.91084 96.842665 
L 246.326675 96.559194 
L 245.750177 96.275723 
L 245.182406 95.992252 
L 244.624346 95.708781 
L 244.076911 95.42531 
L 243.540942 95.141839 
L 243.017209 94.858368 
L 242.506418 94.574897 
L 242.009213 94.291426 
L 241.52618 94.007955 
L 241.057859 93.724483 
L 240.604746 93.441012 
L 240.1673 93.157541 
L 239.745954 92.87407 
L 239.341121 92.590599 
L 238.953196 92.307128 
L 238.582572 92.023657 
L 238.229636 91.740186 
L 237.89478 91.456715 
L 237.578403 91.173244 
L 237.280917 90.889773 
L 237.002742 90.606302 
L 236.744315 90.322831 
L 236.506086 90.03936 
L 236.288515 89.755888 
L 236.092073 89.472417 
L 235.917238 89.188946 
L 235.764488 88.905475 
L 235.6343 88.622004 
L 235.527141 88.338533 
L 235.443465 88.055062 
L 235.383703 87.771591 
L 235.348259 87.48812 
L 235.3375 87.204649 
L 235.351752 86.921178 
L 235.391293 86.637707 
L 235.456342 86.354236 
L 235.547059 86.070764 
L 235.663533 85.787293 
L 235.805783 85.503822 
L 235.973747 85.220351 
L 236.167279 84.93688 
L 236.38615 84.653409 
L 236.630037 84.369938 
L 236.898529 84.086467 
L 237.191117 83.802996 
L 237.507199 83.519525 
L 237.846077 83.236054 
L 238.206957 82.952583 
L 238.58895 82.669112 
L 238.991073 82.38564 
L 239.412254 82.102169 
L 239.851331 81.818698 
L 240.307058 81.535227 
L 240.77811 81.251756 
L 241.263084 80.968285 
L 241.760512 80.684814 
L 242.268862 80.401343 
L 242.786547 80.117872 
L 243.311936 79.834401 
L 243.843362 79.55093 
L 244.379131 79.267459 
L 244.917536 78.983988 
L 245.456865 78.700517 
L 245.995417 78.417045 
L 246.531516 78.133574 
L 247.06352 77.850103 
L 247.589837 77.566632 
L 248.10894 77.283161 
L 248.619382 76.99969 
L 249.119804 76.716219 
L 249.608953 76.432748 
L 250.085693 76.149277 
L 250.549014 75.865806 
L 250.998045 75.582335 
L 251.432058 75.298864 
L 251.850481 75.015393 
L 252.252895 74.731921 
L 252.639042 74.44845 
L 253.008827 74.164979 
L 253.362309 73.881508 
L 253.699704 73.598037 
L 254.021378 73.314566 
L 254.327835 73.031095 
L 254.61971 72.747624 
L 254.897756 72.464153 
L 255.162828 72.180682 
L 255.415872 71.897211 
L 255.657905 71.61374 
L 255.889996 71.330269 
L 256.113255 71.046798 
L 256.328805 70.763326 
L 256.537772 70.479855 
L 256.741263 70.196384 
L 256.94035 69.912913 
L 257.136053 69.629442 
L 257.329329 69.345971 
L 257.521054 69.0625 
L 271.66466 69.0625 
L 271.66466 69.0625 
L 271.856385 69.345971 
L 272.049661 69.629442 
L 272.245365 69.912913 
L 272.444451 70.196384 
L 272.647942 70.479855 
L 272.856909 70.763326 
L 273.07246 71.046798 
L 273.295718 71.330269 
L 273.52781 71.61374 
L 273.769842 71.897211 
L 274.022886 72.180682 
L 274.287959 72.464153 
L 274.566004 72.747624 
L 274.857879 73.031095 
L 275.164336 73.314566 
L 275.48601 73.598037 
L 275.823406 73.881508 
L 276.176888 74.164979 
L 276.546672 74.44845 
L 276.93282 74.731921 
L 277.335234 75.015393 
L 277.753656 75.298864 
L 278.187669 75.582335 
L 278.6367 75.865806 
L 279.100021 76.149277 
L 279.576761 76.432748 
L 280.06591 76.716219 
L 280.566332 76.99969 
L 281.076774 77.283161 
L 281.595878 77.566632 
L 282.122195 77.850103 
L 282.654198 78.133574 
L 283.190297 78.417045 
L 283.72885 78.700517 
L 284.268179 78.983988 
L 284.806583 79.267459 
L 285.342352 79.55093 
L 285.873778 79.834401 
L 286.399168 80.117872 
L 286.916853 80.401343 
L 287.425202 80.684814 
L 287.92263 80.968285 
L 288.407605 81.251756 
L 288.878656 81.535227 
L 289.334383 81.818698 
L 289.77346 82.102169 
L 290.194641 82.38564 
L 290.596765 82.669112 
L 290.978757 82.952583 
L 291.339637 83.236054 
L 291.678515 83.519525 
L 291.994597 83.802996 
L 292.287185 84.086467 
L 292.555677 84.369938 
L 292.799565 84.653409 
L 293.018435 84.93688 
L 293.211968 85.220351 
L 293.379931 85.503822 
L 293.522181 85.787293 
L 293.638656 86.070764 
L 293.729372 86.354236 
L 293.794422 86.637707 
L 293.833962 86.921178 
L 293.848214 87.204649 
L 293.837455 87.48812 
L 293.802011 87.771591 
L 293.742249 88.055062 
L 293.658573 88.338533 
L 293.551415 88.622004 
L 293.421227 88.905475 
L 293.268477 89.188946 
L 293.093641 89.472417 
L 292.897199 89.755888 
L 292.679628 90.03936 
L 292.441399 90.322831 
L 292.182972 90.606302 
L 291.904798 90.889773 
L 291.607311 91.173244 
L 291.290935 91.456715 
L 290.956079 91.740186 
L 290.603142 92.023657 
L 290.232518 92.307128 
L 289.844594 92.590599 
L 289.43976 92.87407 
L 289.018414 93.157541 
L 288.580969 93.441012 
L 288.127855 93.724483 
L 287.659534 94.007955 
L 287.176502 94.291426 
L 286.679296 94.574897 
L 286.168505 94.858368 
L 285.644772 95.141839 
L 285.108803 95.42531 
L 284.561368 95.708781 
L 284.003309 95.992252 
L 283.435537 96.275723 
L 282.85904 96.559194 
L 282.274875 96.842665 
L 281.684171 97.126136 
z
" style="fill:#1f77b4;fill-opacity:0.3;"/>
   </g>
   <g id="PolyCollection_3">
    <path clip-path="url(#pd19a659773)" d="M 391.696628 115.167045 
L 371.531944 115.167045 
L 371.136423 114.998313 
L 370.736295 114.82958 
L 370.331045 114.660847 
L 369.920053 114.492114 
L 369.502608 114.323382 
L 369.077924 114.154649 
L 368.645163 113.985916 
L 368.203458 113.817183 
L 367.751938 113.64845 
L 367.289765 113.479718 
L 366.816155 113.310985 
L 366.330424 113.142252 
L 365.832013 112.973519 
L 365.320524 112.804787 
L 364.795759 112.636054 
L 364.257746 112.467321 
L 363.706771 112.298588 
L 363.143403 112.129855 
L 362.568521 111.961123 
L 361.983326 111.79239 
L 361.389357 111.623657 
L 360.788494 111.454924 
L 360.182962 111.286191 
L 359.575318 111.117459 
L 358.968443 110.948726 
L 358.365516 110.779993 
L 357.769985 110.61126 
L 357.185538 110.442528 
L 356.616053 110.273795 
L 356.065558 110.105062 
L 355.538172 109.936329 
L 355.038056 109.767596 
L 354.569348 109.598864 
L 354.136104 109.430131 
L 353.742237 109.261398 
L 353.391453 109.092665 
L 353.087194 108.923933 
L 352.832581 108.7552 
L 352.630357 108.586467 
L 352.482849 108.417734 
L 352.391917 108.249001 
L 352.358929 108.080269 
L 352.384728 107.911536 
L 352.469621 107.742803 
L 352.613367 107.57407 
L 352.815181 107.405337 
L 353.073737 107.236605 
L 353.387196 107.067872 
L 353.753225 106.899139 
L 354.169034 106.730406 
L 354.631418 106.561674 
L 355.136804 106.392941 
L 355.681302 106.224208 
L 356.260765 106.055475 
L 356.870841 105.886742 
L 357.50704 105.71801 
L 358.16479 105.549277 
L 358.8395 105.380544 
L 359.526614 105.211811 
L 360.22167 105.043079 
L 360.920348 104.874346 
L 361.618515 104.705613 
L 362.312272 104.53688 
L 362.997982 104.368147 
L 363.672304 104.199415 
L 364.332218 104.030682 
L 364.975038 103.861949 
L 365.598426 103.693216 
L 366.200397 103.524483 
L 366.779319 103.355751 
L 367.33391 103.187018 
L 367.863226 103.018285 
L 368.366653 102.849552 
L 368.843884 102.68082 
L 369.294905 102.512087 
L 369.719974 102.343354 
L 370.119594 102.174621 
L 370.494493 102.005888 
L 370.845596 101.837156 
L 371.174005 101.668423 
L 371.480966 101.49969 
L 371.767853 101.330957 
L 372.036138 101.162225 
L 372.287368 100.993492 
L 372.523146 100.824759 
L 372.745106 100.656026 
L 372.954893 100.487293 
L 373.154144 100.318561 
L 373.344471 100.149828 
L 373.527441 99.981095 
L 373.704563 99.812362 
L 373.877271 99.643629 
L 374.046914 99.474897 
L 374.214739 99.306164 
L 374.381886 99.137431 
L 374.549376 98.968698 
L 374.718106 98.799966 
L 374.888841 98.631233 
L 375.062211 98.4625 
L 388.16636 98.4625 
L 388.16636 98.4625 
L 388.33973 98.631233 
L 388.510465 98.799966 
L 388.679195 98.968698 
L 388.846686 99.137431 
L 389.013833 99.306164 
L 389.181658 99.474897 
L 389.3513 99.643629 
L 389.524008 99.812362 
L 389.70113 99.981095 
L 389.8841 100.149828 
L 390.074427 100.318561 
L 390.273679 100.487293 
L 390.483466 100.656026 
L 390.705425 100.824759 
L 390.941204 100.993492 
L 391.192434 101.162225 
L 391.460718 101.330957 
L 391.747605 101.49969 
L 392.054567 101.668423 
L 392.382975 101.837156 
L 392.734079 102.005888 
L 393.108977 102.174621 
L 393.508597 102.343354 
L 393.933666 102.512087 
L 394.384688 102.68082 
L 394.861919 102.849552 
L 395.365345 103.018285 
L 395.894662 103.187018 
L 396.449253 103.355751 
L 397.028175 103.524483 
L 397.630145 103.693216 
L 398.253533 103.861949 
L 398.896353 104.030682 
L 399.556267 104.199415 
L 400.23059 104.368147 
L 400.9163 104.53688 
L 401.610056 104.705613 
L 402.308224 104.874346 
L 403.006901 105.043079 
L 403.701957 105.211811 
L 404.389072 105.380544 
L 405.063782 105.549277 
L 405.721532 105.71801 
L 406.357731 105.886742 
L 406.967807 106.055475 
L 407.547269 106.224208 
L 408.091768 106.392941 
L 408.597154 106.561674 
L 409.059538 106.730406 
L 409.475347 106.899139 
L 409.841375 107.067872 
L 410.154834 107.236605 
L 410.413391 107.405337 
L 410.615204 107.57407 
L 410.758951 107.742803 
L 410.843844 107.911536 
L 410.869643 108.080269 
L 410.836654 108.249001 
L 410.745722 108.417734 
L 410.598214 108.586467 
L 410.395991 108.7552 
L 410.141377 108.923933 
L 409.837119 109.092665 
L 409.486335 109.261398 
L 409.092468 109.430131 
L 408.659224 109.598864 
L 408.190516 109.767596 
L 407.690399 109.936329 
L 407.163014 110.105062 
L 406.612518 110.273795 
L 406.043033 110.442528 
L 405.458586 110.61126 
L 404.863056 110.779993 
L 404.260128 110.948726 
L 403.653253 111.117459 
L 403.04561 111.286191 
L 402.440077 111.454924 
L 401.839214 111.623657 
L 401.245245 111.79239 
L 400.66005 111.961123 
L 400.085168 112.129855 
L 399.521801 112.298588 
L 398.970825 112.467321 
L 398.432812 112.636054 
L 397.908047 112.804787 
L 397.396559 112.973519 
L 396.898147 113.142252 
L 396.412416 113.310985 
L 395.938807 113.479718 
L 395.476633 113.64845 
L 395.025114 113.817183 
L 394.583408 113.985916 
L 394.150647 114.154649 
L 393.725964 114.323382 
L 393.308519 114.492114 
L 392.897527 114.660847 
L 392.492277 114.82958 
L 392.092148 114.998313 
L 391.696628 115.167045 
z
" style="fill:#1f77b4;fill-opacity:0.3;"/>
   </g>
   <g id="PolyCollection_4">
    <path clip-path="url(#pd19a659773)" d="M 507.317976 202.030682 
L 489.953452 202.030682 
L 489.512724 201.760709 
L 489.054426 201.490737 
L 488.577757 201.220764 
L 488.081993 200.950792 
L 487.566517 200.68082 
L 487.030852 200.410847 
L 486.474694 200.140875 
L 485.897943 199.870902 
L 485.30073 199.60093 
L 484.683449 199.330957 
L 484.04678 199.060985 
L 483.391708 198.791012 
L 482.719538 198.52104 
L 482.031911 198.251067 
L 481.330801 197.981095 
L 480.618524 197.711123 
L 479.897723 197.44115 
L 479.171357 197.171178 
L 478.442684 196.901205 
L 477.715232 196.631233 
L 476.992771 196.36126 
L 476.279273 196.091288 
L 475.578874 195.821315 
L 474.895827 195.551343 
L 474.234453 195.281371 
L 473.599092 195.011398 
L 472.994046 194.741426 
L 472.423532 194.471453 
L 471.89162 194.201481 
L 471.40219 193.931508 
L 470.958873 193.661536 
L 470.565009 193.391563 
L 470.223602 193.121591 
L 469.937277 192.851618 
L 469.70825 192.581646 
L 469.538294 192.311674 
L 469.42872 192.041701 
L 469.380357 191.771729 
L 469.393542 191.501756 
L 469.468119 191.231784 
L 469.603436 190.961811 
L 469.798364 190.691839 
L 470.051305 190.421866 
L 470.360218 190.151894 
L 470.722646 189.881921 
L 471.13575 189.611949 
L 471.596347 189.341977 
L 472.100949 189.072004 
L 472.645811 188.802032 
L 473.226975 188.532059 
L 473.84032 188.262087 
L 474.48161 187.992114 
L 475.146543 187.722142 
L 475.830798 187.452169 
L 476.530081 187.182197 
L 477.240168 186.912225 
L 477.956948 186.642252 
L 478.676453 186.37228 
L 479.394897 186.102307 
L 480.108702 185.832335 
L 480.814521 185.562362 
L 481.509257 185.29239 
L 482.190079 185.022417 
L 482.854431 184.752445 
L 483.500041 184.482472 
L 484.124919 184.2125 
L 484.727359 183.942528 
L 485.305936 183.672555 
L 485.859496 183.402583 
L 486.387152 183.13261 
L 486.88827 182.862638 
L 487.362459 182.592665 
L 487.809559 182.322693 
L 488.229629 182.05272 
L 488.622931 181.782748 
L 488.989922 181.512775 
L 489.331234 181.242803 
L 489.647668 180.972831 
L 489.940174 180.702858 
L 490.209844 180.432886 
L 490.457895 180.162913 
L 490.685657 179.892941 
L 490.894558 179.622968 
L 491.086112 179.352996 
L 491.261903 179.083023 
L 491.42357 178.813051 
L 491.57279 178.543079 
L 491.711261 178.273106 
L 491.840689 178.003134 
L 491.962764 177.733161 
L 492.079145 177.463189 
L 492.191446 177.193216 
L 492.30121 176.923244 
L 492.409898 176.653271 
L 492.518871 176.383299 
L 492.629374 176.113326 
L 492.742524 175.843354 
L 492.859296 175.573382 
L 492.980516 175.303409 
L 504.290912 175.303409 
L 504.290912 175.303409 
L 504.412132 175.573382 
L 504.528904 175.843354 
L 504.642054 176.113326 
L 504.752558 176.383299 
L 504.861531 176.653271 
L 504.970219 176.923244 
L 505.079983 177.193216 
L 505.192283 177.463189 
L 505.308665 177.733161 
L 505.43074 178.003134 
L 505.560167 178.273106 
L 505.698639 178.543079 
L 505.847858 178.813051 
L 506.009525 179.083023 
L 506.185317 179.352996 
L 506.376871 179.622968 
L 506.585772 179.892941 
L 506.813534 180.162913 
L 507.061584 180.432886 
L 507.331254 180.702858 
L 507.623761 180.972831 
L 507.940194 181.242803 
L 508.281507 181.512775 
L 508.648497 181.782748 
L 509.0418 182.05272 
L 509.46187 182.322693 
L 509.90897 182.592665 
L 510.383159 182.862638 
L 510.884276 183.13261 
L 511.411932 183.402583 
L 511.965493 183.672555 
L 512.54407 183.942528 
L 513.14651 184.2125 
L 513.771388 184.482472 
L 514.416997 184.752445 
L 515.08135 185.022417 
L 515.762172 185.29239 
L 516.456907 185.562362 
L 517.162726 185.832335 
L 517.876531 186.102307 
L 518.594976 186.37228 
L 519.314481 186.642252 
L 520.03126 186.912225 
L 520.741348 187.182197 
L 521.440631 187.452169 
L 522.124886 187.722142 
L 522.789818 187.992114 
L 523.431108 188.262087 
L 524.044454 188.532059 
L 524.625618 188.802032 
L 525.17048 189.072004 
L 525.675082 189.341977 
L 526.135679 189.611949 
L 526.548783 189.881921 
L 526.911211 190.151894 
L 527.220123 190.421866 
L 527.473064 190.691839 
L 527.667992 190.961811 
L 527.80331 191.231784 
L 527.877886 191.501756 
L 527.891071 191.771729 
L 527.842708 192.041701 
L 527.733135 192.311674 
L 527.563179 192.581646 
L 527.334152 192.851618 
L 527.047827 193.121591 
L 526.70642 193.391563 
L 526.312556 193.661536 
L 525.869239 193.931508 
L 525.379808 194.201481 
L 524.847897 194.471453 
L 524.277382 194.741426 
L 523.672337 195.011398 
L 523.036976 195.281371 
L 522.375602 195.551343 
L 521.692555 195.821315 
L 520.992156 196.091288 
L 520.278658 196.36126 
L 519.556197 196.631233 
L 518.828745 196.901205 
L 518.100071 197.171178 
L 517.373706 197.44115 
L 516.652904 197.711123 
L 515.940627 197.981095 
L 515.239518 198.251067 
L 514.55189 198.52104 
L 513.879721 198.791012 
L 513.224648 199.060985 
L 512.587979 199.330957 
L 511.970699 199.60093 
L 511.373486 199.870902 
L 510.796734 200.140875 
L 510.240576 200.410847 
L 509.704912 200.68082 
L 509.189435 200.950792 
L 508.693671 201.220764 
L 508.217003 201.490737 
L 507.758705 201.760709 
L 507.317976 202.030682 
z
" style="fill:#1f77b4;fill-opacity:0.3;"/>
   </g>
   <g id="PolyCollection_5">
    <path clip-path="url(#pd19a659773)" d="M 641.970632 230.428409 
L 589.343654 230.428409 
L 588.908247 230.246178 
L 588.505878 230.063946 
L 588.137562 229.881715 
L 587.804114 229.699483 
L 587.506138 229.517252 
L 587.244025 229.335021 
L 587.017954 229.152789 
L 586.827888 228.970558 
L 586.673577 228.788326 
L 586.554566 228.606095 
L 586.470195 228.423864 
L 586.419614 228.241632 
L 586.401786 228.059401 
L 586.415503 227.877169 
L 586.459397 227.694938 
L 586.531955 227.512707 
L 586.631534 227.330475 
L 586.756376 227.148244 
L 586.904627 226.966012 
L 587.074352 226.783781 
L 587.263555 226.60155 
L 587.470196 226.419318 
L 587.692208 226.237087 
L 587.927516 226.054855 
L 588.174053 225.872624 
L 588.429776 225.690393 
L 588.692684 225.508161 
L 588.960829 225.32593 
L 589.232336 225.143698 
L 589.505409 224.961467 
L 589.778346 224.779236 
L 590.049548 224.597004 
L 590.317531 224.414773 
L 590.58093 224.232541 
L 590.838505 224.05031 
L 591.089152 223.868079 
L 591.331896 223.685847 
L 591.565906 223.503616 
L 591.790484 223.321384 
L 592.005075 223.139153 
L 592.209257 222.956921 
L 592.402746 222.77469 
L 592.585387 222.592459 
L 592.757153 222.410227 
L 592.918139 222.227996 
L 593.068556 222.045764 
L 593.208723 221.863533 
L 593.339064 221.681302 
L 593.460094 221.49907 
L 593.572418 221.316839 
L 593.676716 221.134607 
L 593.773741 220.952376 
L 593.864304 220.770145 
L 593.949269 220.587913 
L 594.029543 220.405682 
L 594.106067 220.22345 
L 594.179808 220.041219 
L 594.251749 219.858988 
L 594.322881 219.676756 
L 594.394196 219.494525 
L 594.466679 219.312293 
L 594.541299 219.130062 
L 594.619005 218.947831 
L 594.700714 218.765599 
L 594.787311 218.583368 
L 594.879641 218.401136 
L 594.978502 218.218905 
L 595.084641 218.036674 
L 595.198754 217.854442 
L 595.321477 217.672211 
L 595.453385 217.489979 
L 595.594992 217.307748 
L 595.746744 217.125517 
L 595.909023 216.943285 
L 596.082143 216.761054 
L 596.26635 216.578822 
L 596.461823 216.396591 
L 596.668675 216.21436 
L 596.886951 216.032128 
L 597.116634 215.849897 
L 597.357643 215.667665 
L 597.609837 215.485434 
L 597.873018 215.303202 
L 598.14693 215.120971 
L 598.431267 214.93874 
L 598.725672 214.756508 
L 599.029744 214.574277 
L 599.343038 214.392045 
L 599.665069 214.209814 
L 599.995316 214.027583 
L 600.333229 213.845351 
L 600.678224 213.66312 
L 601.029697 213.480888 
L 601.387019 213.298657 
L 601.749544 213.116426 
L 602.116611 212.934194 
L 602.487547 212.751963 
L 602.861671 212.569731 
L 603.238296 212.3875 
L 628.07599 212.3875 
L 628.07599 212.3875 
L 628.452615 212.569731 
L 628.826739 212.751963 
L 629.197675 212.934194 
L 629.564742 213.116426 
L 629.927267 213.298657 
L 630.284589 213.480888 
L 630.636061 213.66312 
L 630.981057 213.845351 
L 631.318969 214.027583 
L 631.649217 214.209814 
L 631.971248 214.392045 
L 632.284541 214.574277 
L 632.588613 214.756508 
L 632.883019 214.93874 
L 633.167356 215.120971 
L 633.441268 215.303202 
L 633.704448 215.485434 
L 633.956643 215.667665 
L 634.197652 215.849897 
L 634.427335 216.032128 
L 634.645611 216.21436 
L 634.852462 216.396591 
L 635.047936 216.578822 
L 635.232143 216.761054 
L 635.405263 216.943285 
L 635.567542 217.125517 
L 635.719294 217.307748 
L 635.8609 217.489979 
L 635.992809 217.672211 
L 636.115531 217.854442 
L 636.229644 218.036674 
L 636.335784 218.218905 
L 636.434645 218.401136 
L 636.526974 218.583368 
L 636.613572 218.765599 
L 636.695281 218.947831 
L 636.772986 219.130062 
L 636.847607 219.312293 
L 636.92009 219.494525 
L 636.991405 219.676756 
L 637.062537 219.858988 
L 637.134478 220.041219 
L 637.208218 220.22345 
L 637.284743 220.405682 
L 637.365017 220.587913 
L 637.449982 220.770145 
L 637.540545 220.952376 
L 637.63757 221.134607 
L 637.741868 221.316839 
L 637.854192 221.49907 
L 637.975222 221.681302 
L 638.105562 221.863533 
L 638.24573 222.045764 
L 638.396146 222.227996 
L 638.557132 222.410227 
L 638.728899 222.592459 
L 638.91154 222.77469 
L 639.105028 222.956921 
L 639.309211 223.139153 
L 639.523801 223.321384 
L 639.74838 223.503616 
L 639.982389 223.685847 
L 640.225134 223.868079 
L 640.47578 224.05031 
L 640.733356 224.232541 
L 640.996754 224.414773 
L 641.264737 224.597004 
L 641.53594 224.779236 
L 641.808877 224.961467 
L 642.081949 225.143698 
L 642.353456 225.32593 
L 642.621602 225.508161 
L 642.88451 225.690393 
L 643.140233 225.872624 
L 643.38677 226.054855 
L 643.622078 226.237087 
L 643.84409 226.419318 
L 644.050731 226.60155 
L 644.239934 226.783781 
L 644.409659 226.966012 
L 644.55791 227.148244 
L 644.682752 227.330475 
L 644.782331 227.512707 
L 644.854889 227.694938 
L 644.898783 227.877169 
L 644.9125 228.059401 
L 644.894672 228.241632 
L 644.84409 228.423864 
L 644.75972 228.606095 
L 644.640709 228.788326 
L 644.486398 228.970558 
L 644.296332 229.152789 
L 644.07026 229.335021 
L 643.808148 229.517252 
L 643.510171 229.699483 
L 643.176723 229.881715 
L 642.808408 230.063946 
L 642.406039 230.246178 
L 641.970632 230.428409 
z
" style="fill:#1f77b4;fill-opacity:0.3;"/>
   </g>
   <g id="PolyCollection_6">
    <path clip-path="url(#pd19a659773)" d="M 748.809514 353.039773 
L 716.547629 353.039773 
L 715.833377 352.62469 
L 715.119012 352.209607 
L 714.406597 351.794525 
L 713.698233 351.379442 
L 712.996056 350.96436 
L 712.302226 350.549277 
L 711.618923 350.134194 
L 710.948346 349.719112 
L 710.292702 349.304029 
L 709.654201 348.888946 
L 709.035056 348.473864 
L 708.437467 348.058781 
L 707.863621 347.643698 
L 707.31568 347.228616 
L 706.795774 346.813533 
L 706.30599 346.39845 
L 705.848361 345.983368 
L 705.424853 345.568285 
L 705.037354 345.153202 
L 704.687661 344.73812 
L 704.377463 344.323037 
L 704.10833 343.907955 
L 703.881692 343.492872 
L 703.698834 343.077789 
L 703.560874 342.662707 
L 703.468751 342.247624 
L 703.423214 341.832541 
L 703.424812 341.417459 
L 703.473878 341.002376 
L 703.570528 340.587293 
L 703.714648 340.172211 
L 703.905897 339.757128 
L 704.143697 339.342045 
L 704.427236 338.926963 
L 704.755474 338.51188 
L 705.127139 338.096798 
L 705.540743 337.681715 
L 705.99458 337.266632 
L 706.486746 336.85155 
L 707.015144 336.436467 
L 707.577498 336.021384 
L 708.171373 335.606302 
L 708.794185 335.191219 
L 709.443218 334.776136 
L 710.115647 334.361054 
L 710.808548 333.945971 
L 711.518924 333.530888 
L 712.24372 333.115806 
L 712.979839 332.700723 
L 713.724169 332.28564 
L 714.473591 331.870558 
L 715.22501 331.455475 
L 715.97536 331.040393 
L 716.721635 330.62531 
L 717.460895 330.210227 
L 718.190292 329.795145 
L 718.907083 329.380062 
L 719.608644 328.964979 
L 720.292489 328.549897 
L 720.956282 328.134814 
L 721.597854 327.719731 
L 722.215212 327.304649 
L 722.806551 326.889566 
L 723.370268 326.474483 
L 723.904969 326.059401 
L 724.409474 325.644318 
L 724.882832 325.229236 
L 725.324314 324.814153 
L 725.733429 324.39907 
L 726.109915 323.983988 
L 726.453744 323.568905 
L 726.765121 323.153822 
L 727.044476 322.73874 
L 727.29246 322.323657 
L 727.509939 321.908574 
L 727.697981 321.493492 
L 727.857846 321.078409 
L 727.990975 320.663326 
L 728.098969 320.248244 
L 728.18358 319.833161 
L 728.246686 319.418079 
L 728.290275 319.002996 
L 728.316425 318.587913 
L 728.327281 318.172831 
L 728.325032 317.757748 
L 728.311893 317.342665 
L 728.290075 316.927583 
L 728.261769 316.5125 
L 728.22912 316.097417 
L 728.194206 315.682335 
L 728.159018 315.267252 
L 728.125439 314.852169 
L 728.095228 314.437087 
L 728.070003 314.022004 
L 728.051225 313.606921 
L 728.04019 313.191839 
L 728.038014 312.776756 
L 728.045632 312.361674 
L 728.063788 311.946591 
L 737.293355 311.946591 
L 737.293355 311.946591 
L 737.311511 312.361674 
L 737.319129 312.776756 
L 737.316953 313.191839 
L 737.305918 313.606921 
L 737.28714 314.022004 
L 737.261915 314.437087 
L 737.231704 314.852169 
L 737.198125 315.267252 
L 737.162937 315.682335 
L 737.128023 316.097417 
L 737.095374 316.5125 
L 737.067068 316.927583 
L 737.04525 317.342665 
L 737.032111 317.757748 
L 737.029862 318.172831 
L 737.040718 318.587913 
L 737.066868 319.002996 
L 737.110457 319.418079 
L 737.173563 319.833161 
L 737.258174 320.248244 
L 737.366168 320.663326 
L 737.499297 321.078409 
L 737.659162 321.493492 
L 737.847204 321.908574 
L 738.064683 322.323657 
L 738.312667 322.73874 
L 738.592022 323.153822 
L 738.903399 323.568905 
L 739.247228 323.983988 
L 739.623714 324.39907 
L 740.032829 324.814153 
L 740.474311 325.229236 
L 740.947668 325.644318 
L 741.452174 326.059401 
L 741.986874 326.474483 
L 742.550592 326.889566 
L 743.141931 327.304649 
L 743.759289 327.719731 
L 744.400861 328.134814 
L 745.064654 328.549897 
L 745.748499 328.964979 
L 746.45006 329.380062 
L 747.16685 329.795145 
L 747.896248 330.210227 
L 748.635508 330.62531 
L 749.381783 331.040393 
L 750.132133 331.455475 
L 750.883551 331.870558 
L 751.632974 332.28564 
L 752.377304 332.700723 
L 753.113423 333.115806 
L 753.838218 333.530888 
L 754.548595 333.945971 
L 755.241496 334.361054 
L 755.913925 334.776136 
L 756.562958 335.191219 
L 757.18577 335.606302 
L 757.779645 336.021384 
L 758.341999 336.436467 
L 758.870397 336.85155 
L 759.362562 337.266632 
L 759.8164 337.681715 
L 760.230003 338.096798 
L 760.601669 338.51188 
L 760.929907 338.926963 
L 761.213446 339.342045 
L 761.451246 339.757128 
L 761.642494 340.172211 
L 761.786615 340.587293 
L 761.883265 341.002376 
L 761.932331 341.417459 
L 761.933929 341.832541 
L 761.888392 342.247624 
L 761.796269 342.662707 
L 761.658308 343.077789 
L 761.475451 343.492872 
L 761.248813 343.907955 
L 760.979679 344.323037 
L 760.669482 344.73812 
L 760.319789 345.153202 
L 759.93229 345.568285 
L 759.508782 345.983368 
L 759.051153 346.39845 
L 758.561368 346.813533 
L 758.041463 347.228616 
L 757.493522 347.643698 
L 756.919676 348.058781 
L 756.322087 348.473864 
L 755.702941 348.888946 
L 755.064441 349.304029 
L 754.408797 349.719112 
L 753.738219 350.134194 
L 753.054917 350.549277 
L 752.361086 350.96436 
L 751.658909 351.379442 
L 750.950546 351.794525 
L 750.238131 352.209607 
L 749.523766 352.62469 
L 748.809514 353.039773 
z
" style="fill:#1f77b4;fill-opacity:0.3;"/>
   </g>
   <g id="matplotlib.axis_1">
    <g id="xtick_1">
     <g id="line2d_1">
      <defs>
       <path d="M 0 0 
L 0 3.5 
" id="m85228f85c8" style="stroke:#000000;stroke-width:0.8;"/>
      </defs>
      <g>
       <use style="stroke:#000000;stroke-width:0.8;" x="147.571429" xlink:href="#m85228f85c8" y="368.575"/>
      </g>
     </g>
     <g id="text_1">
      <!-- Grudger -->
      <defs>
       <path d="M 59.515625 10.40625 
L 59.515625 29.984375 
L 43.40625 29.984375 
L 43.40625 38.09375 
L 69.28125 38.09375 
L 69.28125 6.78125 
Q 63.578125 2.734375 56.6875 0.65625 
Q 49.8125 -1.421875 42 -1.421875 
Q 24.90625 -1.421875 15.25 8.5625 
Q 5.609375 18.5625 5.609375 36.375 
Q 5.609375 54.25 15.25 64.234375 
Q 24.90625 74.21875 42 74.21875 
Q 49.125 74.21875 55.546875 72.453125 
Q 61.96875 70.703125 67.390625 67.28125 
L 67.390625 56.78125 
Q 61.921875 61.421875 55.765625 63.765625 
Q 49.609375 66.109375 42.828125 66.109375 
Q 29.4375 66.109375 22.71875 58.640625 
Q 16.015625 51.171875 16.015625 36.375 
Q 16.015625 21.625 22.71875 14.15625 
Q 29.4375 6.6875 42.828125 6.6875 
Q 48.046875 6.6875 52.140625 7.59375 
Q 56.25 8.5 59.515625 10.40625 
z
" id="DejaVuSans-47"/>
       <path d="M 41.109375 46.296875 
Q 39.59375 47.171875 37.8125 47.578125 
Q 36.03125 48 33.890625 48 
Q 26.265625 48 22.1875 43.046875 
Q 18.109375 38.09375 18.109375 28.8125 
L 18.109375 0 
L 9.078125 0 
L 9.078125 54.6875 
L 18.109375 54.6875 
L 18.109375 46.1875 
Q 20.953125 51.171875 25.484375 53.578125 
Q 30.03125 56 36.53125 56 
Q 37.453125 56 38.578125 55.875 
Q 39.703125 55.765625 41.0625 55.515625 
z
" id="DejaVuSans-72"/>
       <path d="M 8.5 21.578125 
L 8.5 54.6875 
L 17.484375 54.6875 
L 17.484375 21.921875 
Q 17.484375 14.15625 20.5 10.265625 
Q 23.53125 6.390625 29.59375 6.390625 
Q 36.859375 6.390625 41.078125 11.03125 
Q 45.3125 15.671875 45.3125 23.6875 
L 45.3125 54.6875 
L 54.296875 54.6875 
L 54.296875 0 
L 45.3125 0 
L 45.3125 8.40625 
Q 42.046875 3.421875 37.71875 1 
Q 33.40625 -1.421875 27.6875 -1.421875 
Q 18.265625 -1.421875 13.375 4.4375 
Q 8.5 10.296875 8.5 21.578125 
z
M 31.109375 56 
z
" id="DejaVuSans-75"/>
       <path d="M 45.40625 46.390625 
L 45.40625 75.984375 
L 54.390625 75.984375 
L 54.390625 0 
L 45.40625 0 
L 45.40625 8.203125 
Q 42.578125 3.328125 38.25 0.953125 
Q 33.9375 -1.421875 27.875 -1.421875 
Q 17.96875 -1.421875 11.734375 6.484375 
Q 5.515625 14.40625 5.515625 27.296875 
Q 5.515625 40.1875 11.734375 48.09375 
Q 17.96875 56 27.875 56 
Q 33.9375 56 38.25 53.625 
Q 42.578125 51.265625 45.40625 46.390625 
z
M 14.796875 27.296875 
Q 14.796875 17.390625 18.875 11.75 
Q 22.953125 6.109375 30.078125 6.109375 
Q 37.203125 6.109375 41.296875 11.75 
Q 45.40625 17.390625 45.40625 27.296875 
Q 45.40625 37.203125 41.296875 42.84375 
Q 37.203125 48.484375 30.078125 48.484375 
Q 22.953125 48.484375 18.875 42.84375 
Q 14.796875 37.203125 14.796875 27.296875 
z
" id="DejaVuSans-64"/>
       <path d="M 45.40625 27.984375 
Q 45.40625 37.75 41.375 43.109375 
Q 37.359375 48.484375 30.078125 48.484375 
Q 22.859375 48.484375 18.828125 43.109375 
Q 14.796875 37.75 14.796875 27.984375 
Q 14.796875 18.265625 18.828125 12.890625 
Q 22.859375 7.515625 30.078125 7.515625 
Q 37.359375 7.515625 41.375 12.890625 
Q 45.40625 18.265625 45.40625 27.984375 
z
M 54.390625 6.78125 
Q 54.390625 -7.171875 48.1875 -13.984375 
Q 42 -20.796875 29.203125 -20.796875 
Q 24.46875 -20.796875 20.265625 -20.09375 
Q 16.0625 -19.390625 12.109375 -17.921875 
L 12.109375 -9.1875 
Q 16.0625 -11.328125 19.921875 -12.34375 
Q 23.78125 -13.375 27.78125 -13.375 
Q 36.625 -13.375 41.015625 -8.765625 
Q 45.40625 -4.15625 45.40625 5.171875 
L 45.40625 9.625 
Q 42.625 4.78125 38.28125 2.390625 
Q 33.9375 0 27.875 0 
Q 17.828125 0 11.671875 7.65625 
Q 5.515625 15.328125 5.515625 27.984375 
Q 5.515625 40.671875 11.671875 48.328125 
Q 17.828125 56 27.875 56 
Q 33.9375 56 38.28125 53.609375 
Q 42.625 51.21875 45.40625 46.390625 
L 45.40625 54.6875 
L 54.390625 54.6875 
z
" id="DejaVuSans-67"/>
       <path d="M 56.203125 29.59375 
L 56.203125 25.203125 
L 14.890625 25.203125 
Q 15.484375 15.921875 20.484375 11.0625 
Q 25.484375 6.203125 34.421875 6.203125 
Q 39.59375 6.203125 44.453125 7.46875 
Q 49.3125 8.734375 54.109375 11.28125 
L 54.109375 2.78125 
Q 49.265625 0.734375 44.1875 -0.34375 
Q 39.109375 -1.421875 33.890625 -1.421875 
Q 20.796875 -1.421875 13.15625 6.1875 
Q 5.515625 13.8125 5.515625 26.8125 
Q 5.515625 40.234375 12.765625 48.109375 
Q 20.015625 56 32.328125 56 
Q 43.359375 56 49.78125 48.890625 
Q 56.203125 41.796875 56.203125 29.59375 
z
M 47.21875 32.234375 
Q 47.125 39.59375 43.09375 43.984375 
Q 39.0625 48.390625 32.421875 48.390625 
Q 24.90625 48.390625 20.390625 44.140625 
Q 15.875 39.890625 15.1875 32.171875 
z
" id="DejaVuSans-65"/>
      </defs>
      <g transform="translate(149.778929 408.50125)rotate(-90)scale(0.08 -0.08)">
       <use xlink:href="#DejaVuSans-47"/>
       <use x="77.490234" xlink:href="#DejaVuSans-72"/>
       <use x="118.603516" xlink:href="#DejaVuSans-75"/>
       <use x="181.982422" xlink:href="#DejaVuSans-64"/>
       <use x="245.458984" xlink:href="#DejaVuSans-67"/>
       <use x="308.935547" xlink:href="#DejaVuSans-65"/>
       <use x="370.458984" xlink:href="#DejaVuSans-72"/>
      </g>
     </g>
    </g>
    <g id="xtick_2">
     <g id="line2d_2">
      <g>
       <use style="stroke:#000000;stroke-width:0.8;" x="264.592857" xlink:href="#m85228f85c8" y="368.575"/>
      </g>
     </g>
     <g id="text_2">
      <!-- FSM Player -->
      <defs>
       <path d="M 9.8125 72.90625 
L 51.703125 72.90625 
L 51.703125 64.59375 
L 19.671875 64.59375 
L 19.671875 43.109375 
L 48.578125 43.109375 
L 48.578125 34.8125 
L 19.671875 34.8125 
L 19.671875 0 
L 9.8125 0 
z
" id="DejaVuSans-46"/>
       <path d="M 53.515625 70.515625 
L 53.515625 60.890625 
Q 47.90625 63.578125 42.921875 64.890625 
Q 37.9375 66.21875 33.296875 66.21875 
Q 25.25 66.21875 20.875 63.09375 
Q 16.5 59.96875 16.5 54.203125 
Q 16.5 49.359375 19.40625 46.890625 
Q 22.3125 44.4375 30.421875 42.921875 
L 36.375 41.703125 
Q 47.40625 39.59375 52.65625 34.296875 
Q 57.90625 29 57.90625 20.125 
Q 57.90625 9.515625 50.796875 4.046875 
Q 43.703125 -1.421875 29.984375 -1.421875 
Q 24.8125 -1.421875 18.96875 -0.25 
Q 13.140625 0.921875 6.890625 3.21875 
L 6.890625 13.375 
Q 12.890625 10.015625 18.65625 8.296875 
Q 24.421875 6.59375 29.984375 6.59375 
Q 38.421875 6.59375 43.015625 9.90625 
Q 47.609375 13.234375 47.609375 19.390625 
Q 47.609375 24.75 44.3125 27.78125 
Q 41.015625 30.8125 33.5 32.328125 
L 27.484375 33.5 
Q 16.453125 35.6875 11.515625 40.375 
Q 6.59375 45.0625 6.59375 53.421875 
Q 6.59375 63.09375 13.40625 68.65625 
Q 20.21875 74.21875 32.171875 74.21875 
Q 37.3125 74.21875 42.625 73.28125 
Q 47.953125 72.359375 53.515625 70.515625 
z
" id="DejaVuSans-53"/>
       <path d="M 9.8125 72.90625 
L 24.515625 72.90625 
L 43.109375 23.296875 
L 61.8125 72.90625 
L 76.515625 72.90625 
L 76.515625 0 
L 66.890625 0 
L 66.890625 64.015625 
L 48.09375 14.015625 
L 38.1875 14.015625 
L 19.390625 64.015625 
L 19.390625 0 
L 9.8125 0 
z
" id="DejaVuSans-4d"/>
       <path id="DejaVuSans-20"/>
       <path d="M 19.671875 64.796875 
L 19.671875 37.40625 
L 32.078125 37.40625 
Q 38.96875 37.40625 42.71875 40.96875 
Q 46.484375 44.53125 46.484375 51.125 
Q 46.484375 57.671875 42.71875 61.234375 
Q 38.96875 64.796875 32.078125 64.796875 
z
M 9.8125 72.90625 
L 32.078125 72.90625 
Q 44.34375 72.90625 50.609375 67.359375 
Q 56.890625 61.8125 56.890625 51.125 
Q 56.890625 40.328125 50.609375 34.8125 
Q 44.34375 29.296875 32.078125 29.296875 
L 19.671875 29.296875 
L 19.671875 0 
L 9.8125 0 
z
" id="DejaVuSans-50"/>
       <path d="M 9.421875 75.984375 
L 18.40625 75.984375 
L 18.40625 0 
L 9.421875 0 
z
" id="DejaVuSans-6c"/>
       <path d="M 34.28125 27.484375 
Q 23.390625 27.484375 19.1875 25 
Q 14.984375 22.515625 14.984375 16.5 
Q 14.984375 11.71875 18.140625 8.90625 
Q 21.296875 6.109375 26.703125 6.109375 
Q 34.1875 6.109375 38.703125 11.40625 
Q 43.21875 16.703125 43.21875 25.484375 
L 43.21875 27.484375 
z
M 52.203125 31.203125 
L 52.203125 0 
L 43.21875 0 
L 43.21875 8.296875 
Q 40.140625 3.328125 35.546875 0.953125 
Q 30.953125 -1.421875 24.3125 -1.421875 
Q 15.921875 -1.421875 10.953125 3.296875 
Q 6 8.015625 6 15.921875 
Q 6 25.140625 12.171875 29.828125 
Q 18.359375 34.515625 30.609375 34.515625 
L 43.21875 34.515625 
L 43.21875 35.40625 
Q 43.21875 41.609375 39.140625 45 
Q 35.0625 48.390625 27.6875 48.390625 
Q 23 48.390625 18.546875 47.265625 
Q 14.109375 46.140625 10.015625 43.890625 
L 10.015625 52.203125 
Q 14.9375 54.109375 19.578125 55.046875 
Q 24.21875 56 28.609375 56 
Q 40.484375 56 46.34375 49.84375 
Q 52.203125 43.703125 52.203125 31.203125 
z
" id="DejaVuSans-61"/>
       <path d="M 32.171875 -5.078125 
Q 28.375 -14.84375 24.75 -17.8125 
Q 21.140625 -20.796875 15.09375 -20.796875 
L 7.90625 -20.796875 
L 7.90625 -13.28125 
L 13.1875 -13.28125 
Q 16.890625 -13.28125 18.9375 -11.515625 
Q 21 -9.765625 23.484375 -3.21875 
L 25.09375 0.875 
L 2.984375 54.6875 
L 12.5 54.6875 
L 29.59375 11.921875 
L 46.6875 54.6875 
L 56.203125 54.6875 
z
" id="DejaVuSans-79"/>
      </defs>
      <g transform="translate(266.800357 419.59375)rotate(-90)scale(0.08 -0.08)">
       <use xlink:href="#DejaVuSans-46"/>
       <use x="57.503906" xlink:href="#DejaVuSans-53"/>
       <use x="120.980469" xlink:href="#DejaVuSans-4d"/>
       <use x="207.259766" xlink:href="#DejaVuSans-20"/>
       <use x="239.046875" xlink:href="#DejaVuSans-50"/>
       <use x="299.349609" xlink:href="#DejaVuSans-6c"/>
       <use x="327.132812" xlink:href="#DejaVuSans-61"/>
       <use x="388.412109" xlink:href="#DejaVuSans-79"/>
       <use x="447.591797" xlink:href="#DejaVuSans-65"/>
       <use x="509.115234" xlink:href="#DejaVuSans-72"/>
      </g>
     </g>
    </g>
    <g id="xtick_3">
     <g id="line2d_3">
      <g>
       <use style="stroke:#000000;stroke-width:0.8;" x="381.614286" xlink:href="#m85228f85c8" y="368.575"/>
      </g>
     </g>
     <g id="text_3">
      <!-- Tit For Tat -->
      <defs>
       <path d="M -0.296875 72.90625 
L 61.375 72.90625 
L 61.375 64.59375 
L 35.5 64.59375 
L 35.5 0 
L 25.59375 0 
L 25.59375 64.59375 
L -0.296875 64.59375 
z
" id="DejaVuSans-54"/>
       <path d="M 9.421875 54.6875 
L 18.40625 54.6875 
L 18.40625 0 
L 9.421875 0 
z
M 9.421875 75.984375 
L 18.40625 75.984375 
L 18.40625 64.59375 
L 9.421875 64.59375 
z
" id="DejaVuSans-69"/>
       <path d="M 18.3125 70.21875 
L 18.3125 54.6875 
L 36.8125 54.6875 
L 36.8125 47.703125 
L 18.3125 47.703125 
L 18.3125 18.015625 
Q 18.3125 11.328125 20.140625 9.421875 
Q 21.96875 7.515625 27.59375 7.515625 
L 36.8125 7.515625 
L 36.8125 0 
L 27.59375 0 
Q 17.1875 0 13.234375 3.875 
Q 9.28125 7.765625 9.28125 18.015625 
L 9.28125 47.703125 
L 2.6875 47.703125 
L 2.6875 54.6875 
L 9.28125 54.6875 
L 9.28125 70.21875 
z
" id="DejaVuSans-74"/>
       <path d="M 30.609375 48.390625 
Q 23.390625 48.390625 19.1875 42.75 
Q 14.984375 37.109375 14.984375 27.296875 
Q 14.984375 17.484375 19.15625 11.84375 
Q 23.34375 6.203125 30.609375 6.203125 
Q 37.796875 6.203125 41.984375 11.859375 
Q 46.1875 17.53125 46.1875 27.296875 
Q 46.1875 37.015625 41.984375 42.703125 
Q 37.796875 48.390625 30.609375 48.390625 
z
M 30.609375 56 
Q 42.328125 56 49.015625 48.375 
Q 55.71875 40.765625 55.71875 27.296875 
Q 55.71875 13.875 49.015625 6.21875 
Q 42.328125 -1.421875 30.609375 -1.421875 
Q 18.84375 -1.421875 12.171875 6.21875 
Q 5.515625 13.875 5.515625 27.296875 
Q 5.515625 40.765625 12.171875 48.375 
Q 18.84375 56 30.609375 56 
z
" id="DejaVuSans-6f"/>
      </defs>
      <g transform="translate(383.821786 416.5875)rotate(-90)scale(0.08 -0.08)">
       <use xlink:href="#DejaVuSans-54"/>
       <use x="61.037109" xlink:href="#DejaVuSans-69"/>
       <use x="88.820312" xlink:href="#DejaVuSans-74"/>
       <use x="128.029297" xlink:href="#DejaVuSans-20"/>
       <use x="159.816406" xlink:href="#DejaVuSans-46"/>
       <use x="217.289062" xlink:href="#DejaVuSans-6f"/>
       <use x="278.470703" xlink:href="#DejaVuSans-72"/>
       <use x="319.583984" xlink:href="#DejaVuSans-20"/>
       <use x="351.371094" xlink:href="#DejaVuSans-54"/>
       <use x="412.205078" xlink:href="#DejaVuSans-61"/>
       <use x="473.484375" xlink:href="#DejaVuSans-74"/>
      </g>
     </g>
    </g>
    <g id="xtick_4">
     <g id="line2d_4">
      <g>
       <use style="stroke:#000000;stroke-width:0.8;" x="498.635714" xlink:href="#m85228f85c8" y="368.575"/>
      </g>
     </g>
     <g id="text_4">
      <!-- Defector -->
      <defs>
       <path d="M 19.671875 64.796875 
L 19.671875 8.109375 
L 31.59375 8.109375 
Q 46.6875 8.109375 53.6875 14.9375 
Q 60.6875 21.78125 60.6875 36.53125 
Q 60.6875 51.171875 53.6875 57.984375 
Q 46.6875 64.796875 31.59375 64.796875 
z
M 9.8125 72.90625 
L 30.078125 72.90625 
Q 51.265625 72.90625 61.171875 64.09375 
Q 71.09375 55.28125 71.09375 36.53125 
Q 71.09375 17.671875 61.125 8.828125 
Q 51.171875 0 30.078125 0 
L 9.8125 0 
z
" id="DejaVuSans-44"/>
       <path d="M 37.109375 75.984375 
L 37.109375 68.5 
L 28.515625 68.5 
Q 23.6875 68.5 21.796875 66.546875 
Q 19.921875 64.59375 19.921875 59.515625 
L 19.921875 54.6875 
L 34.71875 54.6875 
L 34.71875 47.703125 
L 19.921875 47.703125 
L 19.921875 0 
L 10.890625 0 
L 10.890625 47.703125 
L 2.296875 47.703125 
L 2.296875 54.6875 
L 10.890625 54.6875 
L 10.890625 58.5 
Q 10.890625 67.625 15.140625 71.796875 
Q 19.390625 75.984375 28.609375 75.984375 
z
" id="DejaVuSans-66"/>
       <path d="M 48.78125 52.59375 
L 48.78125 44.1875 
Q 44.96875 46.296875 41.140625 47.34375 
Q 37.3125 48.390625 33.40625 48.390625 
Q 24.65625 48.390625 19.8125 42.84375 
Q 14.984375 37.3125 14.984375 27.296875 
Q 14.984375 17.28125 19.8125 11.734375 
Q 24.65625 6.203125 33.40625 6.203125 
Q 37.3125 6.203125 41.140625 7.25 
Q 44.96875 8.296875 48.78125 10.40625 
L 48.78125 2.09375 
Q 45.015625 0.34375 40.984375 -0.53125 
Q 36.96875 -1.421875 32.421875 -1.421875 
Q 20.0625 -1.421875 12.78125 6.34375 
Q 5.515625 14.109375 5.515625 27.296875 
Q 5.515625 40.671875 12.859375 48.328125 
Q 20.21875 56 33.015625 56 
Q 37.15625 56 41.109375 55.140625 
Q 45.0625 54.296875 48.78125 52.59375 
z
" id="DejaVuSans-63"/>
      </defs>
      <g transform="translate(500.843214 410.115)rotate(-90)scale(0.08 -0.08)">
       <use xlink:href="#DejaVuSans-44"/>
       <use x="77.001953" xlink:href="#DejaVuSans-65"/>
       <use x="138.525391" xlink:href="#DejaVuSans-66"/>
       <use x="173.730469" xlink:href="#DejaVuSans-65"/>
       <use x="235.253906" xlink:href="#DejaVuSans-63"/>
       <use x="290.234375" xlink:href="#DejaVuSans-74"/>
       <use x="329.443359" xlink:href="#DejaVuSans-6f"/>
       <use x="390.625" xlink:href="#DejaVuSans-72"/>
      </g>
     </g>
    </g>
    <g id="xtick_5">
     <g id="line2d_5">
      <g>
       <use style="stroke:#000000;stroke-width:0.8;" x="615.657143" xlink:href="#m85228f85c8" y="368.575"/>
      </g>
     </g>
     <g id="text_5">
      <!-- Cooperator -->
      <defs>
       <path d="M 64.40625 67.28125 
L 64.40625 56.890625 
Q 59.421875 61.53125 53.78125 63.8125 
Q 48.140625 66.109375 41.796875 66.109375 
Q 29.296875 66.109375 22.65625 58.46875 
Q 16.015625 50.828125 16.015625 36.375 
Q 16.015625 21.96875 22.65625 14.328125 
Q 29.296875 6.6875 41.796875 6.6875 
Q 48.140625 6.6875 53.78125 8.984375 
Q 59.421875 11.28125 64.40625 15.921875 
L 64.40625 5.609375 
Q 59.234375 2.09375 53.4375 0.328125 
Q 47.65625 -1.421875 41.21875 -1.421875 
Q 24.65625 -1.421875 15.125 8.703125 
Q 5.609375 18.84375 5.609375 36.375 
Q 5.609375 53.953125 15.125 64.078125 
Q 24.65625 74.21875 41.21875 74.21875 
Q 47.75 74.21875 53.53125 72.484375 
Q 59.328125 70.75 64.40625 67.28125 
z
" id="DejaVuSans-43"/>
       <path d="M 18.109375 8.203125 
L 18.109375 -20.796875 
L 9.078125 -20.796875 
L 9.078125 54.6875 
L 18.109375 54.6875 
L 18.109375 46.390625 
Q 20.953125 51.265625 25.265625 53.625 
Q 29.59375 56 35.59375 56 
Q 45.5625 56 51.78125 48.09375 
Q 58.015625 40.1875 58.015625 27.296875 
Q 58.015625 14.40625 51.78125 6.484375 
Q 45.5625 -1.421875 35.59375 -1.421875 
Q 29.59375 -1.421875 25.265625 0.953125 
Q 20.953125 3.328125 18.109375 8.203125 
z
M 48.6875 27.296875 
Q 48.6875 37.203125 44.609375 42.84375 
Q 40.53125 48.484375 33.40625 48.484375 
Q 26.265625 48.484375 22.1875 42.84375 
Q 18.109375 37.203125 18.109375 27.296875 
Q 18.109375 17.390625 22.1875 11.75 
Q 26.265625 6.109375 33.40625 6.109375 
Q 40.53125 6.109375 44.609375 11.75 
Q 48.6875 17.390625 48.6875 27.296875 
z
" id="DejaVuSans-70"/>
      </defs>
      <g transform="translate(617.864643 420.46375)rotate(-90)scale(0.08 -0.08)">
       <use xlink:href="#DejaVuSans-43"/>
       <use x="69.824219" xlink:href="#DejaVuSans-6f"/>
       <use x="131.005859" xlink:href="#DejaVuSans-6f"/>
       <use x="192.1875" xlink:href="#DejaVuSans-70"/>
       <use x="255.664062" xlink:href="#DejaVuSans-65"/>
       <use x="317.1875" xlink:href="#DejaVuSans-72"/>
       <use x="358.300781" xlink:href="#DejaVuSans-61"/>
       <use x="419.580078" xlink:href="#DejaVuSans-74"/>
       <use x="458.789062" xlink:href="#DejaVuSans-6f"/>
       <use x="519.970703" xlink:href="#DejaVuSans-72"/>
      </g>
     </g>
    </g>
    <g id="xtick_6">
     <g id="line2d_6">
      <g>
       <use style="stroke:#000000;stroke-width:0.8;" x="732.678571" xlink:href="#m85228f85c8" y="368.575"/>
      </g>
     </g>
     <g id="text_6">
      <!-- Random -->
      <defs>
       <path d="M 44.390625 34.1875 
Q 47.5625 33.109375 50.5625 29.59375 
Q 53.5625 26.078125 56.59375 19.921875 
L 66.609375 0 
L 56 0 
L 46.6875 18.703125 
Q 43.0625 26.03125 39.671875 28.421875 
Q 36.28125 30.8125 30.421875 30.8125 
L 19.671875 30.8125 
L 19.671875 0 
L 9.8125 0 
L 9.8125 72.90625 
L 32.078125 72.90625 
Q 44.578125 72.90625 50.734375 67.671875 
Q 56.890625 62.453125 56.890625 51.90625 
Q 56.890625 45.015625 53.6875 40.46875 
Q 50.484375 35.9375 44.390625 34.1875 
z
M 19.671875 64.796875 
L 19.671875 38.921875 
L 32.078125 38.921875 
Q 39.203125 38.921875 42.84375 42.21875 
Q 46.484375 45.515625 46.484375 51.90625 
Q 46.484375 58.296875 42.84375 61.546875 
Q 39.203125 64.796875 32.078125 64.796875 
z
" id="DejaVuSans-52"/>
       <path d="M 54.890625 33.015625 
L 54.890625 0 
L 45.90625 0 
L 45.90625 32.71875 
Q 45.90625 40.484375 42.875 44.328125 
Q 39.84375 48.1875 33.796875 48.1875 
Q 26.515625 48.1875 22.3125 43.546875 
Q 18.109375 38.921875 18.109375 30.90625 
L 18.109375 0 
L 9.078125 0 
L 9.078125 54.6875 
L 18.109375 54.6875 
L 18.109375 46.1875 
Q 21.34375 51.125 25.703125 53.5625 
Q 30.078125 56 35.796875 56 
Q 45.21875 56 50.046875 50.171875 
Q 54.890625 44.34375 54.890625 33.015625 
z
" id="DejaVuSans-6e"/>
       <path d="M 52 44.1875 
Q 55.375 50.25 60.0625 53.125 
Q 64.75 56 71.09375 56 
Q 79.640625 56 84.28125 50.015625 
Q 88.921875 44.046875 88.921875 33.015625 
L 88.921875 0 
L 79.890625 0 
L 79.890625 32.71875 
Q 79.890625 40.578125 77.09375 44.375 
Q 74.3125 48.1875 68.609375 48.1875 
Q 61.625 48.1875 57.5625 43.546875 
Q 53.515625 38.921875 53.515625 30.90625 
L 53.515625 0 
L 44.484375 0 
L 44.484375 32.71875 
Q 44.484375 40.625 41.703125 44.40625 
Q 38.921875 48.1875 33.109375 48.1875 
Q 26.21875 48.1875 22.15625 43.53125 
Q 18.109375 38.875 18.109375 30.90625 
L 18.109375 0 
L 9.078125 0 
L 9.078125 54.6875 
L 18.109375 54.6875 
L 18.109375 46.1875 
Q 21.1875 51.21875 25.484375 53.609375 
Q 29.78125 56 35.6875 56 
Q 41.65625 56 45.828125 52.96875 
Q 50 49.953125 52 44.1875 
z
" id="DejaVuSans-6d"/>
      </defs>
      <g transform="translate(734.886071 408.87)rotate(-90)scale(0.08 -0.08)">
       <use xlink:href="#DejaVuSans-52"/>
       <use x="69.451172" xlink:href="#DejaVuSans-61"/>
       <use x="130.730469" xlink:href="#DejaVuSans-6e"/>
       <use x="194.109375" xlink:href="#DejaVuSans-64"/>
       <use x="257.585938" xlink:href="#DejaVuSans-6f"/>
       <use x="318.767578" xlink:href="#DejaVuSans-6d"/>
      </g>
     </g>
    </g>
   </g>
   <g id="matplotlib.axis_2">
    <g id="ytick_1">
     <g id="line2d_7">
      <defs>
       <path d="M 0 0 
L -3.5 0 
" id="m45dfeb73e4" style="stroke:#000000;stroke-width:0.8;"/>
      </defs>
      <g>
       <use style="stroke:#000000;stroke-width:0.8;" x="30.55" xlink:href="#m45dfeb73e4" y="323.639773"/>
      </g>
     </g>
     <g id="text_7">
      <!-- 1.8 -->
      <defs>
       <path d="M 12.40625 8.296875 
L 28.515625 8.296875 
L 28.515625 63.921875 
L 10.984375 60.40625 
L 10.984375 69.390625 
L 28.421875 72.90625 
L 38.28125 72.90625 
L 38.28125 8.296875 
L 54.390625 8.296875 
L 54.390625 0 
L 12.40625 0 
z
" id="DejaVuSans-31"/>
       <path d="M 10.6875 12.40625 
L 21 12.40625 
L 21 0 
L 10.6875 0 
z
" id="DejaVuSans-2e"/>
       <path d="M 31.78125 34.625 
Q 24.75 34.625 20.71875 30.859375 
Q 16.703125 27.09375 16.703125 20.515625 
Q 16.703125 13.921875 20.71875 10.15625 
Q 24.75 6.390625 31.78125 6.390625 
Q 38.8125 6.390625 42.859375 10.171875 
Q 46.921875 13.96875 46.921875 20.515625 
Q 46.921875 27.09375 42.890625 30.859375 
Q 38.875 34.625 31.78125 34.625 
z
M 21.921875 38.8125 
Q 15.578125 40.375 12.03125 44.71875 
Q 8.5 49.078125 8.5 55.328125 
Q 8.5 64.0625 14.71875 69.140625 
Q 20.953125 74.21875 31.78125 74.21875 
Q 42.671875 74.21875 48.875 69.140625 
Q 55.078125 64.0625 55.078125 55.328125 
Q 55.078125 49.078125 51.53125 44.71875 
Q 48 40.375 41.703125 38.8125 
Q 48.828125 37.15625 52.796875 32.3125 
Q 56.78125 27.484375 56.78125 20.515625 
Q 56.78125 9.90625 50.3125 4.234375 
Q 43.84375 -1.421875 31.78125 -1.421875 
Q 19.734375 -1.421875 13.25 4.234375 
Q 6.78125 9.90625 6.78125 20.515625 
Q 6.78125 27.484375 10.78125 32.3125 
Q 14.796875 37.15625 21.921875 38.8125 
z
M 18.3125 54.390625 
Q 18.3125 48.734375 21.84375 45.5625 
Q 25.390625 42.390625 31.78125 42.390625 
Q 38.140625 42.390625 41.71875 45.5625 
Q 45.3125 48.734375 45.3125 54.390625 
Q 45.3125 60.0625 41.71875 63.234375 
Q 38.140625 66.40625 31.78125 66.40625 
Q 25.390625 66.40625 21.84375 63.234375 
Q 18.3125 60.0625 18.3125 54.390625 
z
" id="DejaVuSans-38"/>
      </defs>
      <g transform="translate(10.8275 326.679148)scale(0.08 -0.08)">
       <use xlink:href="#DejaVuSans-31"/>
       <use x="63.623047" xlink:href="#DejaVuSans-2e"/>
       <use x="95.410156" xlink:href="#DejaVuSans-38"/>
      </g>
     </g>
    </g>
    <g id="ytick_2">
     <g id="line2d_8">
      <g>
       <use style="stroke:#000000;stroke-width:0.8;" x="30.55" xlink:href="#m45dfeb73e4" y="256.821591"/>
      </g>
     </g>
     <g id="text_8">
      <!-- 2.0 -->
      <defs>
       <path d="M 19.1875 8.296875 
L 53.609375 8.296875 
L 53.609375 0 
L 7.328125 0 
L 7.328125 8.296875 
Q 12.9375 14.109375 22.625 23.890625 
Q 32.328125 33.6875 34.8125 36.53125 
Q 39.546875 41.84375 41.421875 45.53125 
Q 43.3125 49.21875 43.3125 52.78125 
Q 43.3125 58.59375 39.234375 62.25 
Q 35.15625 65.921875 28.609375 65.921875 
Q 23.96875 65.921875 18.8125 64.3125 
Q 13.671875 62.703125 7.8125 59.421875 
L 7.8125 69.390625 
Q 13.765625 71.78125 18.9375 73 
Q 24.125 74.21875 28.421875 74.21875 
Q 39.75 74.21875 46.484375 68.546875 
Q 53.21875 62.890625 53.21875 53.421875 
Q 53.21875 48.921875 51.53125 44.890625 
Q 49.859375 40.875 45.40625 35.40625 
Q 44.1875 33.984375 37.640625 27.21875 
Q 31.109375 20.453125 19.1875 8.296875 
z
" id="DejaVuSans-32"/>
       <path d="M 31.78125 66.40625 
Q 24.171875 66.40625 20.328125 58.90625 
Q 16.5 51.421875 16.5 36.375 
Q 16.5 21.390625 20.328125 13.890625 
Q 24.171875 6.390625 31.78125 6.390625 
Q 39.453125 6.390625 43.28125 13.890625 
Q 47.125 21.390625 47.125 36.375 
Q 47.125 51.421875 43.28125 58.90625 
Q 39.453125 66.40625 31.78125 66.40625 
z
M 31.78125 74.21875 
Q 44.046875 74.21875 50.515625 64.515625 
Q 56.984375 54.828125 56.984375 36.375 
Q 56.984375 17.96875 50.515625 8.265625 
Q 44.046875 -1.421875 31.78125 -1.421875 
Q 19.53125 -1.421875 13.0625 8.265625 
Q 6.59375 17.96875 6.59375 36.375 
Q 6.59375 54.828125 13.0625 64.515625 
Q 19.53125 74.21875 31.78125 74.21875 
z
" id="DejaVuSans-30"/>
      </defs>
      <g transform="translate(10.8275 259.860966)scale(0.08 -0.08)">
       <use xlink:href="#DejaVuSans-32"/>
       <use x="63.623047" xlink:href="#DejaVuSans-2e"/>
       <use x="95.410156" xlink:href="#DejaVuSans-30"/>
      </g>
     </g>
    </g>
    <g id="ytick_3">
     <g id="line2d_9">
      <g>
       <use style="stroke:#000000;stroke-width:0.8;" x="30.55" xlink:href="#m45dfeb73e4" y="190.003409"/>
      </g>
     </g>
     <g id="text_9">
      <!-- 2.2 -->
      <g transform="translate(10.8275 193.042784)scale(0.08 -0.08)">
       <use xlink:href="#DejaVuSans-32"/>
       <use x="63.623047" xlink:href="#DejaVuSans-2e"/>
       <use x="95.410156" xlink:href="#DejaVuSans-32"/>
      </g>
     </g>
    </g>
    <g id="ytick_4">
     <g id="line2d_10">
      <g>
       <use style="stroke:#000000;stroke-width:0.8;" x="30.55" xlink:href="#m45dfeb73e4" y="123.185227"/>
      </g>
     </g>
     <g id="text_10">
      <!-- 2.4 -->
      <defs>
       <path d="M 37.796875 64.3125 
L 12.890625 25.390625 
L 37.796875 25.390625 
z
M 35.203125 72.90625 
L 47.609375 72.90625 
L 47.609375 25.390625 
L 58.015625 25.390625 
L 58.015625 17.1875 
L 47.609375 17.1875 
L 47.609375 0 
L 37.796875 0 
L 37.796875 17.1875 
L 4.890625 17.1875 
L 4.890625 26.703125 
z
" id="DejaVuSans-34"/>
      </defs>
      <g transform="translate(10.8275 126.224602)scale(0.08 -0.08)">
       <use xlink:href="#DejaVuSans-32"/>
       <use x="63.623047" xlink:href="#DejaVuSans-2e"/>
       <use x="95.410156" xlink:href="#DejaVuSans-34"/>
      </g>
     </g>
    </g>
    <g id="ytick_5">
     <g id="line2d_11">
      <g>
       <use style="stroke:#000000;stroke-width:0.8;" x="30.55" xlink:href="#m45dfeb73e4" y="56.367045"/>
      </g>
     </g>
     <g id="text_11">
      <!-- 2.6 -->
      <defs>
       <path d="M 33.015625 40.375 
Q 26.375 40.375 22.484375 35.828125 
Q 18.609375 31.296875 18.609375 23.390625 
Q 18.609375 15.53125 22.484375 10.953125 
Q 26.375 6.390625 33.015625 6.390625 
Q 39.65625 6.390625 43.53125 10.953125 
Q 47.40625 15.53125 47.40625 23.390625 
Q 47.40625 31.296875 43.53125 35.828125 
Q 39.65625 40.375 33.015625 40.375 
z
M 52.59375 71.296875 
L 52.59375 62.3125 
Q 48.875 64.0625 45.09375 64.984375 
Q 41.3125 65.921875 37.59375 65.921875 
Q 27.828125 65.921875 22.671875 59.328125 
Q 17.53125 52.734375 16.796875 39.40625 
Q 19.671875 43.65625 24.015625 45.921875 
Q 28.375 48.1875 33.59375 48.1875 
Q 44.578125 48.1875 50.953125 41.515625 
Q 57.328125 34.859375 57.328125 23.390625 
Q 57.328125 12.15625 50.6875 5.359375 
Q 44.046875 -1.421875 33.015625 -1.421875 
Q 20.359375 -1.421875 13.671875 8.265625 
Q 6.984375 17.96875 6.984375 36.375 
Q 6.984375 53.65625 15.1875 63.9375 
Q 23.390625 74.21875 37.203125 74.21875 
Q 40.921875 74.21875 44.703125 73.484375 
Q 48.484375 72.75 52.59375 71.296875 
z
" id="DejaVuSans-36"/>
      </defs>
      <g transform="translate(10.8275 59.40642)scale(0.08 -0.08)">
       <use xlink:href="#DejaVuSans-32"/>
       <use x="63.623047" xlink:href="#DejaVuSans-2e"/>
       <use x="95.410156" xlink:href="#DejaVuSans-36"/>
      </g>
     </g>
    </g>
   </g>
   <g id="LineCollection_1">
    <path clip-path="url(#pd19a659773)" d="M 132.94375 59.039773 
L 162.199107 59.039773 
" style="fill:none;stroke:#1f77b4;stroke-width:1.5;"/>
    <path clip-path="url(#pd19a659773)" d="M 249.965179 86.101136 
L 279.220536 86.101136 
" style="fill:none;stroke:#1f77b4;stroke-width:1.5;"/>
    <path clip-path="url(#pd19a659773)" d="M 366.986607 107.65 
L 396.241964 107.65 
" style="fill:none;stroke:#1f77b4;stroke-width:1.5;"/>
    <path clip-path="url(#pd19a659773)" d="M 484.008036 190.671591 
L 513.263393 190.671591 
" style="fill:none;stroke:#1f77b4;stroke-width:1.5;"/>
    <path clip-path="url(#pd19a659773)" d="M 601.029464 224.915909 
L 630.284821 224.915909 
" style="fill:none;stroke:#1f77b4;stroke-width:1.5;"/>
    <path clip-path="url(#pd19a659773)" d="M 718.050893 340.845455 
L 747.30625 340.845455 
" style="fill:none;stroke:#1f77b4;stroke-width:1.5;"/>
   </g>
   <g id="patch_3">
    <path d="M 30.55 368.575 
L 30.55 26.8 
" style="fill:none;stroke:#000000;stroke-linecap:square;stroke-linejoin:miter;stroke-width:0.8;"/>
   </g>
   <g id="patch_4">
    <path d="M 849.7 368.575 
L 849.7 26.8 
" style="fill:none;stroke:#000000;stroke-linecap:square;stroke-linejoin:miter;stroke-width:0.8;"/>
   </g>
   <g id="patch_5">
    <path d="M 30.55 368.575 
L 849.7 368.575 
" style="fill:none;stroke:#000000;stroke-linecap:square;stroke-linejoin:miter;stroke-width:0.8;"/>
   </g>
   <g id="patch_6">
    <path d="M 30.55 26.8 
L 849.7 26.8 
" style="fill:none;stroke:#000000;stroke-linecap:square;stroke-linejoin:miter;stroke-width:0.8;"/>
   </g>
   <g id="text_12">
    <!-- axelrod - Payoff -->
    <defs>
     <path d="M 54.890625 54.6875 
L 35.109375 28.078125 
L 55.90625 0 
L 45.3125 0 
L 29.390625 21.484375 
L 13.484375 0 
L 2.875 0 
L 24.125 28.609375 
L 4.6875 54.6875 
L 15.28125 54.6875 
L 29.78125 35.203125 
L 44.28125 54.6875 
z
" id="DejaVuSans-78"/>
     <path d="M 4.890625 31.390625 
L 31.203125 31.390625 
L 31.203125 23.390625 
L 4.890625 23.390625 
z
" id="DejaVuSans-2d"/>
    </defs>
    <g transform="translate(392.879687 20.8)scale(0.12 -0.12)">
     <use xlink:href="#DejaVuSans-61"/>
     <use x="61.279297" xlink:href="#DejaVuSans-78"/>
     <use x="120.412109" xlink:href="#DejaVuSans-65"/>
     <use x="181.935547" xlink:href="#DejaVuSans-6c"/>
     <use x="209.71875" xlink:href="#DejaVuSans-72"/>
     <use x="250.800781" xlink:href="#DejaVuSans-6f"/>
     <use x="311.982422" xlink:href="#DejaVuSans-64"/>
     <use x="375.458984" xlink:href="#DejaVuSans-20"/>
     <use x="407.246094" xlink:href="#DejaVuSans-2d"/>
     <use x="443.330078" xlink:href="#DejaVuSans-20"/>
     <use x="475.117188" xlink:href="#DejaVuSans-50"/>
     <use x="535.357422" xlink:href="#DejaVuSans-61"/>
     <use x="596.636719" xlink:href="#DejaVuSans-79"/>
     <use x="655.816406" xlink:href="#DejaVuSans-6f"/>
     <use x="716.998047" xlink:href="#DejaVuSans-66"/>
     <use x="752.203125" xlink:href="#DejaVuSans-66"/>
    </g>
   </g>
  </g>
 </g>
 <defs>
  <clipPath id="pd19a659773">
   <rect height="341.775" width="819.15" x="30.55" y="26.8"/>
  </clipPath>
 </defs>
</svg>
